<?xml version="1.0" encoding="utf-8"?>
<!-- Generator: Adobe Illustrator 19.0.0, SVG Export Plug-In . SVG Version: 6.00 Build 0)  -->
<svg version="1.1" id="Warstwa_1" xmlns="http://www.w3.org/2000/svg" xmlns:xlink="http://www.w3.org/1999/xlink" x="0px" y="0px"
	 viewBox="0 0 640 480" style="enable-background:new 0 0 640 480;" xml:space="preserve">
<style type="text/css">
	.st0{fill:none;stroke:#000000;stroke-width:4;stroke-miterlimit:10;}
</style>
<path id="XMLID_1_" class="st0" d="M0,5c20,0,20,16,40,16C60,21,60,5,80,5c20,0,20,16,40,16c20,0,20-16,40-16c20,0,20,16,40,16
	c20,0,20-16,40-16c20,0,20,16,40,16c20,0,20-16,40-16c20,0,20,16,40,16c20,0,20-16,40-16c20,0,20,16,40,16c20,0,20-16,40-16
	c20,0,20,16,40,16c20,0,20-16,40-16c20,0,20,16,40,16c20,0,20-16,40-16"/>
<path id="XMLID_3_" class="st0" d="M0,33.4c20,0,20,16,40,16c20,0,20-16,40-16c20,0,20,16,40,16c20,0,20-16,40-16c20,0,20,16,40,16
	c20,0,20-16,40-16c20,0,20,16,40,16c20,0,20-16,40-16c20,0,20,16,40,16c20,0,20-16,40-16c20,0,20,16,40,16c20,0,20-16,40-16
	c20,0,20,16,40,16c20,0,20-16,40-16c20,0,20,16,40,16c20,0,20-16,40-16"/>
<path id="XMLID_4_" class="st0" d="M0,61.8c20,0,20,16,40,16c20,0,20-16,40-16c20,0,20,16,40,16c20,0,20-16,40-16c20,0,20,16,40,16
	c20,0,20-16,40-16c20,0,20,16,40,16c20,0,20-16,40-16c20,0,20,16,40,16c20,0,20-16,40-16c20,0,20,16,40,16c20,0,20-16,40-16
	c20,0,20,16,40,16c20,0,20-16,40-16c20,0,20,16,40,16c20,0,20-16,40-16"/>
<path id="XMLID_5_" class="st0" d="M0,90.1c20,0,20,16,40,16c20,0,20-16,40-16c20,0,20,16,40,16c20,0,20-16,40-16c20,0,20,16,40,16
	c20,0,20-16,40-16c20,0,20,16,40,16c20,0,20-16,40-16c20,0,20,16,40,16c20,0,20-16,40-16c20,0,20,16,40,16c20,0,20-16,40-16
	c20,0,20,16,40,16c20,0,20-16,40-16c20,0,20,16,40,16c20,0,20-16,40-16"/>
<path id="XMLID_6_" class="st0" d="M0,118.5c20,0,20,16,40,16c20,0,20-16,40-16c20,0,20,16,40,16c20,0,20-16,40-16c20,0,20,16,40,16
	c20,0,20-16,40-16c20,0,20,16,40,16c20,0,20-16,40-16c20,0,20,16,40,16c20,0,20-16,40-16c20,0,20,16,40,16c20,0,20-16,40-16
	c20,0,20,16,40,16c20,0,20-16,40-16c20,0,20,16,40,16c20,0,20-16,40-16"/>
<path id="XMLID_7_" class="st0" d="M0,146.9c20,0,20,16,40,16c20,0,20-16,40-16c20,0,20,16,40,16c20,0,20-16,40-16c20,0,20,16,40,16
	c20,0,20-16,40-16c20,0,20,16,40,16c20,0,20-16,40-16c20,0,20,16,40,16c20,0,20-16,40-16c20,0,20,16,40,16c20,0,20-16,40-16
	c20,0,20,16,40,16c20,0,20-16,40-16c20,0,20,16,40,16c20,0,20-16,40-16"/>
<path id="XMLID_8_" class="st0" d="M0,175.3c20,0,20,16,40,16c20,0,20-16,40-16c20,0,20,16,40,16c20,0,20-16,40-16c20,0,20,16,40,16
	c20,0,20-16,40-16c20,0,20,16,40,16c20,0,20-16,40-16c20,0,20,16,40,16c20,0,20-16,40-16c20,0,20,16,40,16c20,0,20-16,40-16
	c20,0,20,16,40,16c20,0,20-16,40-16c20,0,20,16,40,16c20,0,20-16,40-16"/>
<path id="XMLID_9_" class="st0" d="M0,203.6c20,0,20,16,40,16c20,0,20-16,40-16c20,0,20,16,40,16c20,0,20-16,40-16c20,0,20,16,40,16
	c20,0,20-16,40-16c20,0,20,16,40,16c20,0,20-16,40-16c20,0,20,16,40,16c20,0,20-16,40-16c20,0,20,16,40,16c20,0,20-16,40-16
	c20,0,20,16,40,16c20,0,20-16,40-16c20,0,20,16,40,16c20,0,20-16,40-16"/>
<path id="XMLID_10_" class="st0" d="M0,232c20,0,20,16,40,16c20,0,20-16,40-16c20,0,20,16,40,16c20,0,20-16,40-16c20,0,20,16,40,16
	c20,0,20-16,40-16c20,0,20,16,40,16c20,0,20-16,40-16c20,0,20,16,40,16c20,0,20-16,40-16c20,0,20,16,40,16c20,0,20-16,40-16
	c20,0,20,16,40,16c20,0,20-16,40-16c20,0,20,16,40,16c20,0,20-16,40-16"/>
<path id="XMLID_11_" class="st0" d="M0,260.4c20,0,20,16,40,16c20,0,20-16,40-16c20,0,20,16,40,16c20,0,20-16,40-16
	c20,0,20,16,40,16c20,0,20-16,40-16c20,0,20,16,40,16c20,0,20-16,40-16c20,0,20,16,40,16c20,0,20-16,40-16c20,0,20,16,40,16
	c20,0,20-16,40-16c20,0,20,16,40,16c20,0,20-16,40-16c20,0,20,16,40,16c20,0,20-16,40-16"/>
<path id="XMLID_12_" class="st0" d="M0,288.8c20,0,20,16,40,16c20,0,20-16,40-16c20,0,20,16,40,16c20,0,20-16,40-16
	c20,0,20,16,40,16c20,0,20-16,40-16c20,0,20,16,40,16c20,0,20-16,40-16c20,0,20,16,40,16c20,0,20-16,40-16c20,0,20,16,40,16
	c20,0,20-16,40-16c20,0,20,16,40,16c20,0,20-16,40-16c20,0,20,16,40,16c20,0,20-16,40-16"/>
<path id="XMLID_13_" class="st0" d="M0,317.1c20,0,20,16,40,16c20,0,20-16,40-16c20,0,20,16,40,16c20,0,20-16,40-16
	c20,0,20,16,40,16c20,0,20-16,40-16c20,0,20,16,40,16c20,0,20-16,40-16c20,0,20,16,40,16c20,0,20-16,40-16c20,0,20,16,40,16
	c20,0,20-16,40-16c20,0,20,16,40,16c20,0,20-16,40-16c20,0,20,16,40,16c20,0,20-16,40-16"/>
<path id="XMLID_71_" class="st0" d="M0,345.5c20,0,20,16,40,16c20,0,20-16,40-16c20,0,20,16,40,16c20,0,20-16,40-16
	c20,0,20,16,40,16c20,0,20-16,40-16c20,0,20,16,40,16c20,0,20-16,40-16c20,0,20,16,40,16c20,0,20-16,40-16c20,0,20,16,40,16
	c20,0,20-16,40-16c20,0,20,16,40,16c20,0,20-16,40-16c20,0,20,16,40,16c20,0,20-16,40-16"/>
<path id="XMLID_68_" class="st0" d="M0,373.9c20,0,20,16,40,16c20,0,20-16,40-16c20,0,20,16,40,16c20,0,20-16,40-16
	c20,0,20,16,40,16c20,0,20-16,40-16c20,0,20,16,40,16c20,0,20-16,40-16c20,0,20,16,40,16c20,0,20-16,40-16c20,0,20,16,40,16
	c20,0,20-16,40-16c20,0,20,16,40,16c20,0,20-16,40-16c20,0,20,16,40,16c20,0,20-16,40-16"/>
<path id="XMLID_65_" class="st0" d="M0,402.3c20,0,20,16,40,16c20,0,20-16,40-16c20,0,20,16,40,16c20,0,20-16,40-16
	c20,0,20,16,40,16c20,0,20-16,40-16c20,0,20,16,40,16c20,0,20-16,40-16c20,0,20,16,40,16c20,0,20-16,40-16c20,0,20,16,40,16
	c20,0,20-16,40-16c20,0,20,16,40,16c20,0,20-16,40-16c20,0,20,16,40,16c20,0,20-16,40-16"/>
<path id="XMLID_62_" class="st0" d="M0,430.6c20,0,20,16,40,16c20,0,20-16,40-16c20,0,20,16,40,16c20,0,20-16,40-16
	c20,0,20,16,40,16c20,0,20-16,40-16c20,0,20,16,40,16c20,0,20-16,40-16c20,0,20,16,40,16c20,0,20-16,40-16c20,0,20,16,40,16
	c20,0,20-16,40-16c20,0,20,16,40,16c20,0,20-16,40-16c20,0,20,16,40,16c20,0,20-16,40-16"/>
<path id="XMLID_59_" class="st0" d="M0,459c20,0,20,16,40,16c20,0,20-16,40-16c20,0,20,16,40,16c20,0,20-16,40-16c20,0,20,16,40,16
	c20,0,20-16,40-16c20,0,20,16,40,16c20,0,20-16,40-16c20,0,20,16,40,16c20,0,20-16,40-16c20,0,20,16,40,16c20,0,20-16,40-16
	c20,0,20,16,40,16c20,0,20-16,40-16c20,0,20,16,40,16c20,0,20-16,40-16"/>
</svg>
