<?xml version="1.0" encoding="utf-8"?>
<!-- Generator: Adobe Illustrator 19.0.0, SVG Export Plug-In . SVG Version: 6.00 Build 0)  -->
<svg version="1.1" id="Warstwa_1" xmlns="http://www.w3.org/2000/svg" xmlns:xlink="http://www.w3.org/1999/xlink" x="0px" y="0px"
	 viewBox="0 0 520 520" style="enable-background:new 0 0 520 520;" xml:space="preserve">
<g id="XMLID_276_">
	<g id="XMLID_54_">
		<circle id="XMLID_53_" cx="5" cy="5" r="5"/>
		<circle id="XMLID_55_" cx="45" cy="5" r="5"/>
		<circle id="XMLID_56_" cx="85" cy="5" r="5"/>
		<circle id="XMLID_57_" cx="125" cy="5" r="5"/>
		<circle id="XMLID_58_" cx="165" cy="5" r="5"/>
		<circle id="XMLID_59_" cx="205" cy="5" r="5"/>
		<circle id="XMLID_60_" cx="245" cy="5" r="5"/>
		<circle id="XMLID_61_" cx="285" cy="5" r="5"/>
		<circle id="XMLID_62_" cx="325" cy="5" r="5"/>
		<circle id="XMLID_63_" cx="365" cy="5" r="5"/>
		<circle id="XMLID_64_" cx="405" cy="5" r="5"/>
		<circle id="XMLID_65_" cx="445" cy="5" r="5"/>
		<circle id="XMLID_66_" cx="485" cy="5" r="5"/>
		<circle id="XMLID_67_" cx="525" cy="5" r="5"/>
	</g>
	<g id="XMLID_69_">
		<circle id="XMLID_83_" cx="5" cy="45" r="5"/>
		<circle id="XMLID_82_" cx="45" cy="45" r="5"/>
		<circle id="XMLID_81_" cx="85" cy="45" r="5"/>
		<circle id="XMLID_80_" cx="125" cy="45" r="5"/>
		<circle id="XMLID_79_" cx="165" cy="45" r="5"/>
		<circle id="XMLID_78_" cx="205" cy="45" r="5"/>
		<circle id="XMLID_77_" cx="245" cy="45" r="5"/>
		<circle id="XMLID_76_" cx="285" cy="45" r="5"/>
		<circle id="XMLID_75_" cx="325" cy="45" r="5"/>
		<circle id="XMLID_74_" cx="365" cy="45" r="5"/>
		<circle id="XMLID_73_" cx="405" cy="45" r="5"/>
		<circle id="XMLID_72_" cx="445" cy="45" r="5"/>
		<circle id="XMLID_71_" cx="485" cy="45" r="5"/>
		<circle id="XMLID_70_" cx="525" cy="45" r="5"/>
	</g>
	<g id="XMLID_84_">
		<circle id="XMLID_98_" cx="5" cy="85" r="5"/>
		<circle id="XMLID_97_" cx="45" cy="85" r="5"/>
		<circle id="XMLID_96_" cx="85" cy="85" r="5"/>
		<circle id="XMLID_95_" cx="125" cy="85" r="5"/>
		<circle id="XMLID_94_" cx="165" cy="85" r="5"/>
		<circle id="XMLID_93_" cx="205" cy="85" r="5"/>
		<circle id="XMLID_92_" cx="245" cy="85" r="5"/>
		<circle id="XMLID_91_" cx="285" cy="85" r="5"/>
		<circle id="XMLID_90_" cx="325" cy="85" r="5"/>
		<circle id="XMLID_89_" cx="365" cy="85" r="5"/>
		<circle id="XMLID_88_" cx="405" cy="85" r="5"/>
		<circle id="XMLID_87_" cx="445" cy="85" r="5"/>
		<circle id="XMLID_86_" cx="485" cy="85" r="5"/>
		<circle id="XMLID_85_" cx="525" cy="85" r="5"/>
	</g>
	<g id="XMLID_99_">
		<circle id="XMLID_113_" cx="5" cy="125" r="5"/>
		<circle id="XMLID_112_" cx="45" cy="125" r="5"/>
		<circle id="XMLID_111_" cx="85" cy="125" r="5"/>
		<circle id="XMLID_110_" cx="125" cy="125" r="5"/>
		<circle id="XMLID_109_" cx="165" cy="125" r="5"/>
		<circle id="XMLID_108_" cx="205" cy="125" r="5"/>
		<circle id="XMLID_107_" cx="245" cy="125" r="5"/>
		<circle id="XMLID_106_" cx="285" cy="125" r="5"/>
		<circle id="XMLID_105_" cx="325" cy="125" r="5"/>
		<circle id="XMLID_104_" cx="365" cy="125" r="5"/>
		<circle id="XMLID_103_" cx="405" cy="125" r="5"/>
		<circle id="XMLID_102_" cx="445" cy="125" r="5"/>
		<circle id="XMLID_101_" cx="485" cy="125" r="5"/>
		<circle id="XMLID_100_" cx="525" cy="125" r="5"/>
	</g>
	<g id="XMLID_114_">
		<circle id="XMLID_128_" cx="5" cy="165" r="5"/>
		<circle id="XMLID_127_" cx="45" cy="165" r="5"/>
		<circle id="XMLID_126_" cx="85" cy="165" r="5"/>
		<circle id="XMLID_125_" cx="125" cy="165" r="5"/>
		<circle id="XMLID_124_" cx="165" cy="165" r="5"/>
		<circle id="XMLID_123_" cx="205" cy="165" r="5"/>
		<circle id="XMLID_122_" cx="245" cy="165" r="5"/>
		<circle id="XMLID_121_" cx="285" cy="165" r="5"/>
		<circle id="XMLID_120_" cx="325" cy="165" r="5"/>
		<circle id="XMLID_119_" cx="365" cy="165" r="5"/>
		<circle id="XMLID_118_" cx="405" cy="165" r="5"/>
		<circle id="XMLID_117_" cx="445" cy="165" r="5"/>
		<circle id="XMLID_116_" cx="485" cy="165" r="5"/>
		<circle id="XMLID_115_" cx="525" cy="165" r="5"/>
	</g>
	<g id="XMLID_129_">
		<circle id="XMLID_143_" cx="5" cy="205" r="5"/>
		<circle id="XMLID_142_" cx="45" cy="205" r="5"/>
		<circle id="XMLID_141_" cx="85" cy="205" r="5"/>
		<circle id="XMLID_140_" cx="125" cy="205" r="5"/>
		<circle id="XMLID_139_" cx="165" cy="205" r="5"/>
		<circle id="XMLID_138_" cx="205" cy="205" r="5"/>
		<circle id="XMLID_137_" cx="245" cy="205" r="5"/>
		<circle id="XMLID_136_" cx="285" cy="205" r="5"/>
		<circle id="XMLID_135_" cx="325" cy="205" r="5"/>
		<circle id="XMLID_134_" cx="365" cy="205" r="5"/>
		<circle id="XMLID_133_" cx="405" cy="205" r="5"/>
		<circle id="XMLID_132_" cx="445" cy="205" r="5"/>
		<circle id="XMLID_131_" cx="485" cy="205" r="5"/>
		<circle id="XMLID_130_" cx="525" cy="205" r="5"/>
	</g>
	<g id="XMLID_144_">
		<circle id="XMLID_158_" cx="5" cy="245" r="5"/>
		<circle id="XMLID_157_" cx="45" cy="245" r="5"/>
		<circle id="XMLID_156_" cx="85" cy="245" r="5"/>
		<circle id="XMLID_155_" cx="125" cy="245" r="5"/>
		<circle id="XMLID_154_" cx="165" cy="245" r="5"/>
		<circle id="XMLID_153_" cx="205" cy="245" r="5"/>
		<circle id="XMLID_152_" cx="245" cy="245" r="5"/>
		<circle id="XMLID_151_" cx="285" cy="245" r="5"/>
		<circle id="XMLID_150_" cx="325" cy="245" r="5"/>
		<circle id="XMLID_149_" cx="365" cy="245" r="5"/>
		<circle id="XMLID_148_" cx="405" cy="245" r="5"/>
		<circle id="XMLID_147_" cx="445" cy="245" r="5"/>
		<circle id="XMLID_146_" cx="485" cy="245" r="5"/>
		<circle id="XMLID_145_" cx="525" cy="245" r="5"/>
	</g>
	<g id="XMLID_159_">
		<circle id="XMLID_173_" cx="5" cy="285" r="5"/>
		<circle id="XMLID_172_" cx="45" cy="285" r="5"/>
		<circle id="XMLID_171_" cx="85" cy="285" r="5"/>
		<circle id="XMLID_170_" cx="125" cy="285" r="5"/>
		<circle id="XMLID_169_" cx="165" cy="285" r="5"/>
		<circle id="XMLID_168_" cx="205" cy="285" r="5"/>
		<circle id="XMLID_167_" cx="245" cy="285" r="5"/>
		<circle id="XMLID_166_" cx="285" cy="285" r="5"/>
		<circle id="XMLID_165_" cx="325" cy="285" r="5"/>
		<circle id="XMLID_164_" cx="365" cy="285" r="5"/>
		<circle id="XMLID_163_" cx="405" cy="285" r="5"/>
		<circle id="XMLID_162_" cx="445" cy="285" r="5"/>
		<circle id="XMLID_161_" cx="485" cy="285" r="5"/>
		<circle id="XMLID_160_" cx="525" cy="285" r="5"/>
	</g>
	<g id="XMLID_174_">
		<circle id="XMLID_188_" cx="5" cy="325" r="5"/>
		<circle id="XMLID_187_" cx="45" cy="325" r="5"/>
		<circle id="XMLID_186_" cx="85" cy="325" r="5"/>
		<circle id="XMLID_185_" cx="125" cy="325" r="5"/>
		<circle id="XMLID_184_" cx="165" cy="325" r="5"/>
		<circle id="XMLID_183_" cx="205" cy="325" r="5"/>
		<circle id="XMLID_182_" cx="245" cy="325" r="5"/>
		<circle id="XMLID_181_" cx="285" cy="325" r="5"/>
		<circle id="XMLID_180_" cx="325" cy="325" r="5"/>
		<circle id="XMLID_179_" cx="365" cy="325" r="5"/>
		<circle id="XMLID_178_" cx="405" cy="325" r="5"/>
		<circle id="XMLID_177_" cx="445" cy="325" r="5"/>
		<circle id="XMLID_176_" cx="485" cy="325" r="5"/>
		<circle id="XMLID_175_" cx="525" cy="325" r="5"/>
	</g>
	<g id="XMLID_189_">
		<circle id="XMLID_203_" cx="5" cy="365" r="5"/>
		<circle id="XMLID_202_" cx="45" cy="365" r="5"/>
		<circle id="XMLID_201_" cx="85" cy="365" r="5"/>
		<circle id="XMLID_200_" cx="125" cy="365" r="5"/>
		<circle id="XMLID_199_" cx="165" cy="365" r="5"/>
		<circle id="XMLID_198_" cx="205" cy="365" r="5"/>
		<circle id="XMLID_197_" cx="245" cy="365" r="5"/>
		<circle id="XMLID_196_" cx="285" cy="365" r="5"/>
		<circle id="XMLID_195_" cx="325" cy="365" r="5"/>
		<circle id="XMLID_194_" cx="365" cy="365" r="5"/>
		<circle id="XMLID_193_" cx="405" cy="365" r="5"/>
		<circle id="XMLID_192_" cx="445" cy="365" r="5"/>
		<circle id="XMLID_191_" cx="485" cy="365" r="5"/>
		<circle id="XMLID_190_" cx="525" cy="365" r="5"/>
	</g>
	<g id="XMLID_204_">
		<circle id="XMLID_218_" cx="5" cy="405" r="5"/>
		<circle id="XMLID_217_" cx="45" cy="405" r="5"/>
		<circle id="XMLID_216_" cx="85" cy="405" r="5"/>
		<circle id="XMLID_215_" cx="125" cy="405" r="5"/>
		<circle id="XMLID_214_" cx="165" cy="405" r="5"/>
		<circle id="XMLID_213_" cx="205" cy="405" r="5"/>
		<circle id="XMLID_212_" cx="245" cy="405" r="5"/>
		<circle id="XMLID_211_" cx="285" cy="405" r="5"/>
		<circle id="XMLID_210_" cx="325" cy="405" r="5"/>
		<circle id="XMLID_209_" cx="365" cy="405" r="5"/>
		<circle id="XMLID_208_" cx="405" cy="405" r="5"/>
		<circle id="XMLID_207_" cx="445" cy="405" r="5"/>
		<circle id="XMLID_206_" cx="485" cy="405" r="5"/>
		<circle id="XMLID_205_" cx="525" cy="405" r="5"/>
	</g>
	<g id="XMLID_219_">
		<circle id="XMLID_233_" cx="5" cy="445" r="5"/>
		<circle id="XMLID_232_" cx="45" cy="445" r="5"/>
		<circle id="XMLID_231_" cx="85" cy="445" r="5"/>
		<circle id="XMLID_230_" cx="125" cy="445" r="5"/>
		<circle id="XMLID_229_" cx="165" cy="445" r="5"/>
		<circle id="XMLID_228_" cx="205" cy="445" r="5"/>
		<circle id="XMLID_227_" cx="245" cy="445" r="5"/>
		<circle id="XMLID_226_" cx="285" cy="445" r="5"/>
		<circle id="XMLID_225_" cx="325" cy="445" r="5"/>
		<circle id="XMLID_224_" cx="365" cy="445" r="5"/>
		<circle id="XMLID_223_" cx="405" cy="445" r="5"/>
		<circle id="XMLID_222_" cx="445" cy="445" r="5"/>
		<circle id="XMLID_221_" cx="485" cy="445" r="5"/>
		<circle id="XMLID_220_" cx="525" cy="445" r="5"/>
	</g>
	<g id="XMLID_234_">
		<circle id="XMLID_248_" cx="5" cy="485" r="5"/>
		<circle id="XMLID_247_" cx="45" cy="485" r="5"/>
		<circle id="XMLID_246_" cx="85" cy="485" r="5"/>
		<circle id="XMLID_245_" cx="125" cy="485" r="5"/>
		<circle id="XMLID_244_" cx="165" cy="485" r="5"/>
		<circle id="XMLID_243_" cx="205" cy="485" r="5"/>
		<circle id="XMLID_242_" cx="245" cy="485" r="5"/>
		<circle id="XMLID_241_" cx="285" cy="485" r="5"/>
		<circle id="XMLID_240_" cx="325" cy="485" r="5"/>
		<circle id="XMLID_239_" cx="365" cy="485" r="5"/>
		<circle id="XMLID_238_" cx="405" cy="485" r="5"/>
		<circle id="XMLID_237_" cx="445" cy="485" r="5"/>
		<circle id="XMLID_236_" cx="485" cy="485" r="5"/>
		<circle id="XMLID_235_" cx="525" cy="485" r="5"/>
	</g>
	<g id="XMLID_249_">
		<circle id="XMLID_263_" cx="5" cy="525" r="5"/>
		<circle id="XMLID_262_" cx="45" cy="525" r="5"/>
		<circle id="XMLID_261_" cx="85" cy="525" r="5"/>
		<circle id="XMLID_260_" cx="125" cy="525" r="5"/>
		<circle id="XMLID_259_" cx="165" cy="525" r="5"/>
		<circle id="XMLID_258_" cx="205" cy="525" r="5"/>
		<circle id="XMLID_257_" cx="245" cy="525" r="5"/>
		<circle id="XMLID_256_" cx="285" cy="525" r="5"/>
		<circle id="XMLID_255_" cx="325" cy="525" r="5"/>
		<circle id="XMLID_254_" cx="365" cy="525" r="5"/>
		<circle id="XMLID_253_" cx="405" cy="525" r="5"/>
		<circle id="XMLID_252_" cx="445" cy="525" r="5"/>
		<circle id="XMLID_251_" cx="485" cy="525" r="5"/>
		<circle id="XMLID_250_" cx="525" cy="525" r="5"/>
	</g>
</g>
</svg>
