<?xml version="1.0" encoding="utf-8"?>
<!-- Generator: Adobe Illustrator 19.0.0, SVG Export Plug-In . SVG Version: 6.00 Build 0)  -->
<svg version="1.1" id="Warstwa_1" xmlns="http://www.w3.org/2000/svg" xmlns:xlink="http://www.w3.org/1999/xlink" x="0px" y="0px"
	 viewBox="0 0 595.3 841.9" style="enable-background:new 0 0 595.3 841.9;" xml:space="preserve">
<style type="text/css">
	.st0{fill:none;stroke:#010101;stroke-width:3;stroke-miterlimit:10;}
	.st1{fill:#010101;stroke:#010101;stroke-miterlimit:10;}
	.st2{fill:none;stroke:#010101;stroke-width:3;stroke-linecap:round;stroke-linejoin:round;stroke-miterlimit:10;}
</style>
<g id="XMLID_47_">
	<path id="XMLID_279_" class="st0" d="M355.7,692c-3.5,9.5,11.3,5.9,11.3,5.9c61.2-26.7,104.2-87.9,104.2-158.7v-294
		c0-95.1-77.8-173-173-173h0c-95.1,0-173,77.8-173,173v294c0,73.2,46.1,136.2,110.8,161.4c0,0,21.7,8.9,18-25.7"/>
	<g id="XMLID_1_">
		<path id="XMLID_2_" class="st1" d="M74.9,501.2c0.2-0.3,0.6-0.4,0.9-0.4h31c0.4,0,0.7,0.1,0.9,0.4c0.2,0.3,0.4,0.6,0.4,0.9
			c0,0.4-0.1,0.7-0.4,0.9c-0.2,0.2-0.6,0.4-0.9,0.4H91l16.7,16.7c0.3,0.3,0.4,0.6,0.4,1c0,0.4-0.1,0.7-0.4,0.9
			c-0.3,0.2-0.6,0.4-0.9,0.4c-0.3,0-0.6-0.1-0.9-0.4l-12.3-12.3l-16.9,12.5c-0.3,0.2-0.5,0.3-0.8,0.3c-0.3,0-0.6-0.1-0.9-0.4
			c-0.3-0.3-0.4-0.5-0.4-0.9c0-0.5,0.2-0.9,0.6-1.1l16.6-12.3l-4.3-4.3H75.8c-0.4,0-0.7-0.1-0.9-0.4c-0.2-0.2-0.4-0.6-0.4-0.9
			C74.5,501.8,74.6,501.5,74.9,501.2z"/>
		<path id="XMLID_4_" class="st1" d="M75.8,562.6c-0.3,0-0.6-0.1-0.9-0.4c-0.3-0.3-0.4-0.6-0.4-0.9c0-0.6,0.3-1,0.8-1.2l7.6-3.2
			v-17.5l-7.6-3.2c-0.5-0.2-0.8-0.6-0.8-1.2c0-0.4,0.1-0.7,0.4-0.9c0.3-0.2,0.6-0.3,0.9-0.3c0.2,0,0.4,0,0.6,0.1l30.8,13
			c0.6,0.2,0.9,0.6,0.9,1.2c0,0.6-0.3,1-0.9,1.2l-30.8,13.1C76.2,562.5,76,562.6,75.8,562.6z M85.3,540.4v15.5l18.6-7.8L85.3,540.4z
			"/>
		<path id="XMLID_7_" class="st1" d="M113,595.8c-0.2,0.2-0.4,0.4-0.8,0.5s-0.6,0-0.9-0.2c-0.2-0.2-0.4-0.4-0.5-0.8l-1.9-10.7
			l-29.5,5.3c-0.4,0.1-0.7,0-1-0.2c-0.3-0.2-0.5-0.5-0.5-0.8c-0.1-0.4,0-0.7,0.2-1c0.2-0.3,0.5-0.5,0.8-0.5l29.5-5.3l-1.9-10.7
			c-0.1-0.3,0-0.6,0.2-0.9c0.2-0.2,0.4-0.4,0.8-0.5c0.3-0.1,0.6,0,0.9,0.2s0.4,0.4,0.5,0.8l4.3,24
			C113.2,595.3,113.2,595.6,113,595.8z"/>
		<path id="XMLID_9_" class="st1" d="M93.9,638.6c-0.3,0.1-0.7,0.1-1-0.1c-0.3-0.2-0.6-0.4-0.7-0.7c-0.2-0.5-0.1-1,0.4-1.4l6.1-5.6
			l-6-16.5l-8.2-0.4c-0.6,0-1-0.3-1.2-0.9c-0.1-0.4-0.1-0.7,0-1s0.4-0.5,0.7-0.6c0.2-0.1,0.4-0.1,0.6-0.1l33.4,1.8
			c0.6,0,1.1,0.3,1.3,0.9c0.2,0.5,0.1,1-0.4,1.5l-24.5,22.8C94.3,638.4,94.1,638.5,93.9,638.6z M95.3,614.5l5.3,14.6l14.8-13.6
			L95.3,614.5z"/>
		<path id="XMLID_12_" class="st1" d="M112.7,673.2c-0.3,0.2-0.5,0.2-0.8,0.1c-0.3-0.1-0.5-0.4-0.8-0.8c-0.1-0.2-0.2-0.5-0.2-0.7
			c0-0.2,0.1-0.4,0.2-0.7l6.8-13.3l-0.4-0.7l-3.5-6l-10.4,6.2c-0.3,0.2-0.6,0.2-1,0.2c-0.3-0.1-0.6-0.3-0.8-0.6
			c-0.2-0.3-0.2-0.6-0.2-1c0.1-0.3,0.3-0.6,0.6-0.8l26.7-15.8c0.3-0.2,0.7-0.3,1-0.2c0.3,0.1,0.6,0.3,0.8,0.6l4.2,7.1
			c1.1,1.8,1.6,3.6,1.7,5.4c0.1,1.8-0.3,3.6-1.2,5.1c-0.9,1.6-2.1,2.9-3.8,3.9c-2,1.2-4.1,1.7-6.2,1.4c-2.1-0.3-4-1.2-5.7-2.7
			l-6.4,12.4C113.2,672.8,113,673.1,112.7,673.2z M119.8,655.9c0.8,1.4,1.8,2.4,3,3.1c1.2,0.7,2.4,1.1,3.8,1.1
			c1.3,0,2.6-0.3,3.9-1.1c1.3-0.7,2.2-1.7,2.8-2.9c0.6-1.2,0.9-2.5,0.8-3.9c-0.1-1.4-0.5-2.8-1.3-4.1l-3.5-6l-13,7.7L119.8,655.9z"
			/>
		<path id="XMLID_15_" class="st1" d="M122.3,687.6c0-0.4,0.2-0.6,0.4-0.9c0.2-0.2,0.5-0.3,0.8-0.3l37.1-2.1l-14.6-16.5
			c-0.3-0.3-0.4-0.6-0.4-0.9c0-0.3,0.1-0.6,0.4-0.8c0.2-0.2,0.5-0.3,0.9-0.3c0.3,0,0.6,0.2,0.9,0.5l16,18.1c0.2,0.3,0.3,0.6,0.3,1
			c0,0.4-0.2,0.7-0.5,0.9c-0.2,0.2-0.4,0.3-0.7,0.3l-37.3,2l14.6,16.6c0.2,0.3,0.4,0.6,0.4,0.9c0,0.3-0.1,0.6-0.4,0.8
			c-0.2,0.2-0.5,0.3-0.9,0.3c-0.3,0-0.6-0.2-0.9-0.4l-16-18.1C122.4,688.2,122.3,687.9,122.3,687.6z"/>
		<path id="XMLID_17_" class="st1" d="M192.6,708.5c0,0.3-0.1,0.6-0.3,0.9c-0.2,0.3-0.4,0.4-0.7,0.5l-21,7.8l-6.9,8.9
			c-0.2,0.3-0.5,0.5-0.9,0.5c-0.3,0-0.7,0-1-0.3s-0.5-0.5-0.5-0.9c0-0.3,0-0.7,0.3-1l6.9-8.9l2.2-22.3c0.1-0.4,0.2-0.6,0.3-0.8
			c0.2-0.3,0.5-0.4,0.8-0.5c0.3,0,0.6,0.1,0.9,0.3s0.5,0.6,0.5,1l-2.3,21.2l19.6-7.4c0.4-0.1,0.6-0.2,0.9-0.2c0.2,0,0.4,0.1,0.6,0.3
			C192.4,707.9,192.6,708.2,192.6,708.5z"/>
		<path id="XMLID_19_" class="st1" d="M189.2,744.8c-0.1-0.3-0.1-0.7,0.1-1l13.6-27.9c0.2-0.3,0.4-0.6,0.7-0.7
			c0.3-0.1,0.7-0.1,1,0.1c0.4,0.2,0.6,0.4,0.7,0.8l7.2,35.1l12.1-24.8c0.2-0.3,0.4-0.6,0.7-0.7c0.3-0.1,0.7-0.1,1,0.1
			c0.3,0.2,0.5,0.4,0.7,0.7c0.1,0.3,0.1,0.7-0.1,1l-13.6,27.9c-0.2,0.3-0.4,0.6-0.8,0.7c-0.3,0.1-0.7,0.1-1-0.1
			c-0.4-0.2-0.6-0.4-0.7-0.8l-7.2-35.2L191.6,745c-0.2,0.3-0.4,0.6-0.7,0.7c-0.3,0.1-0.7,0.1-1-0.1
			C189.5,745.4,189.3,745.2,189.2,744.8z"/>
		<path id="XMLID_21_" class="st1" d="M259.6,769.2c-0.1,0.3-0.3,0.6-0.6,0.8s-0.6,0.2-1,0.2c-0.6-0.1-0.9-0.5-1-1.1l-1.3-8.1
			l-17-4.2l-4.9,6.6c-0.3,0.5-0.8,0.7-1.4,0.5c-0.4-0.1-0.7-0.3-0.8-0.6c-0.2-0.3-0.2-0.6-0.1-1c0-0.2,0.1-0.4,0.3-0.5l20-26.8
			c0.4-0.5,0.8-0.7,1.4-0.6c0.6,0.1,0.9,0.5,1,1.2l5.4,33.1C259.7,768.8,259.7,769,259.6,769.2z M240.3,754.7l15.1,3.7l-3.1-19.9
			L240.3,754.7z"/>
		<path id="XMLID_24_" class="st1" d="M353.5,732.6c0.3,0.2,0.5,0.5,0.5,0.8l6.4,30.3c0.1,0.4,0,0.7-0.1,1c-0.2,0.3-0.4,0.5-0.8,0.5
			s-0.7,0-1-0.2s-0.5-0.5-0.6-0.8l-5.5-25.8l-7.3,28.7c-0.1,0.4-0.4,0.7-1,0.8c-0.5,0.1-1-0.1-1.3-0.5l-18.1-22.8l5.4,25.4
			c0.1,0.4,0,0.7-0.2,1c-0.2,0.3-0.5,0.5-0.8,0.5c-0.4,0.1-0.7,0-1-0.2c-0.3-0.2-0.5-0.5-0.5-0.8l-6.4-30.3c-0.1-0.4,0-0.7,0.2-1
			c0.2-0.3,0.5-0.5,0.8-0.5c0.6-0.1,1,0,1.3,0.4l20,24.9l8.1-30.9c0.2-0.5,0.5-0.8,1-0.9C352.9,732.4,353.3,732.4,353.5,732.6z"/>
		<path id="XMLID_26_" class="st1" d="M382,756.6c-0.3-0.1-0.5-0.4-0.7-0.7l-11.8-28.7c-0.1-0.3-0.1-0.7,0-1
			c0.1-0.3,0.4-0.5,0.7-0.7c0.3-0.1,0.7-0.1,1,0c0.3,0.1,0.5,0.4,0.7,0.7l11.8,28.7c0.1,0.3,0.1,0.7,0,1c-0.1,0.3-0.4,0.5-0.7,0.7
			C382.6,756.7,382.3,756.7,382,756.6z"/>
		<path id="XMLID_28_" class="st1" d="M408.6,741.9c-3,0-5.9-0.7-8.5-2.2c-2.7-1.5-4.8-3.5-6.4-6.1s-2.4-5.4-2.5-8.5
			c-0.1-3,0.6-5.9,1.9-8.6s3.4-4.8,6-6.4c3.4-2.1,7.1-2.9,11.1-2.3c0.3,0,0.6,0.2,0.8,0.5c0.2,0.3,0.2,0.6,0.2,1
			c-0.1,0.4-0.3,0.6-0.6,0.8c-0.3,0.2-0.7,0.2-1.2,0.1c-2.9-0.5-5.8,0.1-8.9,2c-2.2,1.3-3.8,3.1-5,5.4s-1.7,4.7-1.6,7.3
			c0.1,2.6,0.8,5,2.1,7.2c1.4,2.3,3.2,4,5.5,5.3c2.3,1.3,4.7,1.9,7.2,1.9c2.6,0,4.9-0.7,7.1-2c2.9-1.8,4.9-4.2,6-7.3
			c0.1-0.2,0.2-0.4,0.4-0.5c0.3-0.2,0.6-0.2,1-0.2c0.4,0.1,0.6,0.3,0.8,0.6c0.2,0.3,0.3,0.6,0.2,0.9c-0.8,3.4-3.2,6.3-7.1,8.7
			C414.4,741.1,411.6,741.9,408.6,741.9z"/>
		<path id="XMLID_30_" class="st1" d="M443.3,719.6c-0.3,0-0.6-0.1-0.9-0.4l-21.5-22.3c-0.3-0.3-0.4-0.6-0.4-0.9
			c0-0.3,0.1-0.6,0.4-0.9c0.3-0.3,0.6-0.4,0.9-0.4c0.3,0,0.6,0.1,0.9,0.4l9.8,10.2l15.7-15.1l-9.8-10.2c-0.3-0.3-0.4-0.6-0.4-0.9
			c0-0.3,0.1-0.6,0.4-0.9c0.2-0.2,0.5-0.4,0.9-0.4c0.4,0,0.7,0.1,0.9,0.4l21.5,22.3c0.3,0.3,0.4,0.6,0.4,0.9c0,0.4-0.1,0.7-0.4,0.9
			c-0.3,0.3-0.6,0.4-0.9,0.4c-0.3,0-0.6-0.1-0.9-0.4l-10-10.4l-15.7,15.1l10,10.4c0.3,0.3,0.4,0.6,0.4,0.9c0,0.3-0.1,0.6-0.4,0.9
			C444,719.5,443.7,719.6,443.3,719.6z"/>
		<path id="XMLID_32_" class="st1" d="M490.6,661.8c0.3,0.2,0.5,0.5,0.5,0.8s0,0.7-0.2,1c-0.3,0.5-0.8,0.7-1.4,0.5l-8.1-1.6
			l-9.8,14.5l4.5,6.9c0.3,0.5,0.3,1,0,1.5c-0.2,0.3-0.5,0.5-0.9,0.6c-0.3,0-0.7,0-0.9-0.2c-0.2-0.1-0.3-0.3-0.4-0.4l-18.2-28.1
			c-0.4-0.5-0.4-1,0-1.5c0.3-0.5,0.8-0.7,1.4-0.5l32.9,6.4C490.3,661.6,490.4,661.7,490.6,661.8z M470.3,674.9L479,662l-19.7-4
			L470.3,674.9z"/>
		<path id="XMLID_35_" class="st1" d="M500.1,645.2c-0.3,0.1-0.7,0.1-1,0l-28.5-12.2c-0.3-0.1-0.6-0.4-0.7-0.7s-0.1-0.7,0-1
			c0.1-0.3,0.4-0.6,0.7-0.7c0.3-0.1,0.7-0.1,1,0l27.6,11.8l7-16.2c0.1-0.3,0.4-0.6,0.7-0.7c0.3-0.1,0.6-0.1,0.9,0
			c0.3,0.1,0.5,0.4,0.6,0.7c0.1,0.3,0.1,0.6-0.1,1l-7.5,17.4C500.7,644.8,500.4,645,500.1,645.2z"/>
		<path id="XMLID_37_" class="st1" d="M513.9,604.2c-1.5,1.7-3.3,2.8-5.4,3.3c-0.2,0-0.4,0.1-0.5,0c-0.3-0.1-0.6-0.3-0.8-0.5
			c-0.2-0.3-0.2-0.6-0.1-1c0.1-0.6,0.5-0.9,1.1-1c1.6-0.4,2.9-1.3,4-2.7c1.1-1.3,1.9-3,2.4-5.1c0.5-2.4,0.4-4.4-0.5-6.1
			c-0.9-1.7-2.4-2.7-4.7-3.2c-1.9-0.4-3.6-0.1-5.2,1c-1.5,1.1-2.8,2.9-3.8,5.5c-1.1,3-2.7,5.2-4.7,6.6c-2,1.4-4.1,1.9-6.4,1.4
			c-1.6-0.4-3-1.1-4-2.2c-1.1-1.1-1.8-2.5-2.1-4.1s-0.3-3.5,0.1-5.4c0.5-2,1.4-3.8,2.7-5.3c1.4-1.5,2.8-2.5,4.4-3
			c0.2-0.1,0.5-0.1,0.7,0c0.2,0,0.4,0.2,0.6,0.3c0.2,0.2,0.3,0.4,0.3,0.6c0,0.1,0,0.3,0,0.5c-0.1,0.5-0.4,0.8-0.9,1
			c-2.8,1.1-4.6,3.2-5.2,6.4c-0.5,2.3-0.4,4.3,0.4,5.8c0.8,1.5,2.1,2.5,4,2.9c1.6,0.3,3,0,4.4-1.1c1.3-1,2.5-2.9,3.6-5.5
			c1.4-3.4,3-5.7,5-7c1.9-1.3,4.2-1.6,6.8-1c1.9,0.4,3.5,1.2,4.8,2.4c1.2,1.2,2.1,2.6,2.5,4.3c0.4,1.7,0.4,3.6-0.1,5.6
			C516.5,600.3,515.4,602.5,513.9,604.2z"/>
		<path id="XMLID_39_" class="st1" d="M521.1,566c-0.3,0.3-0.6,0.4-0.9,0.4l-31-1c-0.4,0-0.7-0.2-0.9-0.4s-0.3-0.6-0.3-0.9
			c0-0.4,0.1-0.7,0.4-0.9c0.3-0.2,0.6-0.3,0.9-0.3l15.8,0.5l-16.2-17.2c-0.2-0.3-0.4-0.7-0.4-1c0-0.4,0.1-0.7,0.4-0.9
			s0.6-0.3,0.9-0.3c0.3,0,0.6,0.1,0.9,0.4l11.9,12.7L520,545c0.3-0.2,0.5-0.2,0.8-0.2c0.3,0,0.6,0.1,0.9,0.4
			c0.2,0.3,0.4,0.6,0.4,0.9c0,0.5-0.2,0.9-0.6,1.1l-16.9,11.7l4.2,4.5l11.5,0.4c0.4,0,0.7,0.1,0.9,0.4c0.2,0.3,0.3,0.6,0.3,0.9
			C521.4,565.4,521.3,565.7,521.1,566z"/>
		<path id="XMLID_41_" class="st1" d="M520.5,503.7c0.3,0,0.6,0.1,0.9,0.4c0.3,0.3,0.4,0.6,0.4,0.9c0,0.6-0.3,1-0.8,1.2l-7.6,3.2
			v17.5l7.6,3.2c0.5,0.2,0.8,0.6,0.8,1.2c0,0.4-0.1,0.7-0.4,0.9c-0.3,0.2-0.6,0.3-0.9,0.3c-0.2,0-0.4,0-0.6-0.1l-30.8-13
			c-0.6-0.2-0.9-0.6-0.9-1.2c0-0.6,0.3-1,0.9-1.2l30.8-13.1C520.1,503.7,520.3,503.7,520.5,503.7z M511.1,525.9v-15.5l-18.6,7.8
			L511.1,525.9z"/>
	</g>
	<g id="XMLID_597_">
		<line id="XMLID_596_" class="st0" x1="89.7" y1="355.2" x2="89.7" y2="461"/>
		<line id="XMLID_595_" class="st0" x1="506.6" y1="461" x2="506.6" y2="355.2"/>
		<line id="XMLID_599_" class="st0" x1="89.7" y1="318" x2="89.7" y2="335.6"/>
		<line id="XMLID_598_" class="st0" x1="506.6" y1="335.6" x2="506.6" y2="318"/>
		<line id="XMLID_601_" class="st0" x1="89.7" y1="295.9" x2="89.7" y2="300.3"/>
		<line id="XMLID_600_" class="st0" x1="506.6" y1="300.3" x2="506.6" y2="295.9"/>
	</g>
	<g id="XMLID_275_">
		<path id="XMLID_280_" class="st1" d="M356.1,694.1c0.3-1.7,1.3-2.9,1.6-4.6c-0.1-4.7-0.3-9.5-2.6-13.7c-3.4-6.2-3.3-12.7-2.3-19.3
			c1.4-8.6,3.9-17,7-25.2c7.5-19.8,18.1-38.4,24.6-58.7c0.5-1.1,1-2.3,1.5-3.4c8.1-23.8,13.7-48.2,20.1-72.5c3-11.4,6-22.1-0.4-33.2
			c-1.3-2.3-1.2-5.3-1.8-8c0-2.2,0-4.4,0-6.6c-0.7-8-2.2-16.1-2-24c0.3-10,1.7-20,3.5-29.9c1.9-10.9,0.2-19.9-9.7-26.2
			c-2-1.3-3.7-2.9-2.6-5.8c2.8-7,0.3-13.3-2.7-19.6c-6.2-13.3-12.2-26.7-18.2-40.1c-1.2-2.7-2.8-5.8-2.4-8.4
			c1.7-11.8,1.1-23.7,2.1-35.4c0-0.9,0-1.7,0-2.6c-1.2-5.2-0.7-11.9-7.9-12.9c-6.6-0.9-10.4,3.8-13.6,8.7c-1.4,2.1-2.5,4.4-4,7
			c-2.1-2.4-4.1-4.8-6.3-7c-4.5-4.3-8.4-3.7-12,1.3c-5.4,7.7-4.8,16.2-2.7,24.5c2.3,9.3,5.9,18.2,9.7,27c2.5,6.7,5.3,13.4,2.5,20.7
			c-0.6,1.5-0.3,3.5-2.7,3.5c-1.1-1-2.1-2.2-3.3-2.9c-3.9-2.1-6.9-7.2-12.3-4.5c-3.7,1.9-6.7,11.9-5.6,16.8c1.1,5,4,8.8,8.3,11.7
			c0,0,0,0,0,0c0.7,1.1,1.2,2.2,2.1,3.1c6.6,7.1,6.9,8.6,3,17.5c-0.5,1.2-0.9,1.9-2.4,2.3c-8.4,2.4-11.7,10.7-7.3,18.4
			c1.4,2.4,2.1,4.4,1.3,7.1c-8.3,26.7-21.9,50.9-35.7,76c-0.6-2-1-3.1-1.4-4.2c-0.1,0.5-0.2,1-0.3,1.5c-0.1,0.3-0.2,0.7-0.3,1
			c0.2-0.3,0.3-0.6,0.3-1c0.1-0.5,0.2-1,0.3-1.5c-1.1-23.4-7.6-44.3-26.5-59.9c-8.2-6.8-17.7-8-27.6-8.1c-3.9,0-5,2.8-4.2,6.3
			c1.6,7.4,4.2,14.5,8.9,20.3c7.7,9.6,11,20.5,11.8,32.4c0.1,1,0.6,2,0.9,3c0.4-0.2,0.9-0.5,1.3-0.7c0.6-8.3-1.6-16-4.6-23.6
			c-1-2.6-1.5-4.2,1.6-5.9c4.8-2.7,5.5-7.2,3.6-12.2c-2.3-6-5.7-11.3-11.2-16.9c8.9,0.7,14.8,4.7,20.4,9.5
			c15.2,12.9,20.4,30.4,22.7,49.2c0.4,3.4,0.6,6.8,1,10.2c0.4,7.3-4,13.1-6.3,19.6c-1.3,3.8-2.5,7.6-3.7,11.3
			c-0.3,1.1-0.6,2.3-0.9,3.4c-0.4,0.9-0.8,1.9-1.1,2.8c-0.9,2.9-2,5.7-1.5,9.1c2.8-1.3,2.6-3.4,2.6-5.3c0.7-2,1.4-4.1,2.1-6.1
			c0.3-0.8,0.6-1.5,0.9-2.3c2.8-12.9,9-24.4,15.7-35.4c21.1-34.5,34.9-72,45.2-110.9c1-3.7,1.8-7.4,2.8-11.1c-0.7-0.1-1.4-0.2-2-0.3
			c-0.7,2.4-1.3,4.7-2.2,7.7c-3.1-2.6-5.7-4.8-8.4-7.1c0,0-0.1,0.1-0.1,0.1c0,0,0.1-0.1,0.1-0.1c-1.5-2-3.2-4-4.6-6.1
			c-3.5-5.3-3.6-10.6,0.3-16.1c1.5,1.6,2.8,3,4,4.4c1.9,3.3,4.6,6.2,7.7,8.2c3.8,2.3,4.3,5.3,3.1,9c0.7,0.1,1.4,0.2,2,0.3
			c1.1-4.4,2.2-8.9,3.3-13.3c-0.7-1.2-0.7-2.3,0.6-3c0.1-0.8,0.2-1.6,0.4-2.5c0.2-1.3,0.4-2.6,0.5-3.8c0.3-2.1,0.6-4.2,0.9-6.3
			c-0.3-6.9,1.3-13.7,2.3-20.5c0.2-1.7,0.4-3.4,0.6-5.1c-0.6-0.9,0.7-2.6-1.3-3.1c-2.6,5-1.5,10.9-3.5,16.9
			c-1.3-2.6-2.1-4.2-2.9-5.9c-4.7-14-12.8-27.5-8.4-44.2c2.7,3.8,2.9,7.7,5.9,10c0.7,3.2,1.5,6.4,5.4,7.3c1.3,3,4.2,5.4,2.9,9.6
			c3.6-1.6,1.8-4.6,3.3-6.3c0.2-1.1,0.3-2.1,0.5-3.2c0.1-8.9,2.2-17,8.4-25.2c-0.5,6-1.3,10.4-1.2,14.9c0.2,10.8,5.2,14.1,15.6,10.4
			c-0.3,2.4-0.5,4.7-0.8,6.9c0.2,9.9-0.1,19.9-1.3,29.7c0,0-0.1,0.5-0.1,0.5l0.1,13.7c-0.2,4.3-0.5,8.5-0.8,12.8
			c0.1,9.1-1.2,18-4.3,26.7c0,0-0.1,0.2-0.1,0.2c0.6,1.8,0.9,3.5-0.6,5c-2.3,12.8-6.6,25.1-9.6,37.8c-1.5,6.6-3.5,13.2-0.9,19.9
			c2.6-26.8,14.1-51.7,17-78.3c1.1-10.4,1.7-20.8,2.1-31.2c0.1-3.8,0.4-7.5,1.9-11.5c6,13,12,26,18,38.9c0.5,1.4,1.1,2.9,1.6,4.3
			c0,0,0,0,0,0c2.1,2.1,0.3,4.3,0.1,6.5c-0.2,0.8-0.4,1.6-0.6,2.4c-0.1,1.4,0.1,2.9-0.9,4.2c-2.7,8.1-4.3,16.4-5.9,24.7
			c0.7,2.5-1.5,5.3,1,7.5c0.6-2.3,1.2-4.7,1.8-7c0.9-7.1,2-14.1,4.8-20.9c10.6,5.9,14,12.9,11.4,23.3c-0.1,0.9-0.2,1.7-0.3,2.6
			c-0.3,2.5-0.7,5.1-1,7.6c-0.1,1.2-0.3,2.5-0.4,3.7l-1.3,12.8c-1.6,12.4-3.5,24.7-4.7,37.1c-0.3,3.4-2,7.8,2.3,10.5
			c-1.3-9.6,0.9-18.8,3-28.1c1.3,9.8,0.4,19.8,4,29.2c0.3,0.8,0.6,1.7,0.9,2.5c4.6,6.7,2.1,13.4-0.4,20c-0.6,2.1-1.1,4.1-1.7,6.2
			c-0.3,0.6-0.6,1.2-0.9,1.8c-7.4,41.6-21.4,81-39.3,119.2c-2.1,4.4-3.8,9-5.8,13.5c-0.5,1.2-0.9,2.3-1.4,3.5
			c-2.2,9.7-6.2,19.1-6,29.4c0.1,4.1,0.6,7.9,2.7,11.6c2.8,5.2,3.8,11.2,2,16.8 M356.5,258.2c0.3-1.7,0.4-3.4,0.8-5
			c0.7-3.1,1.3-6.7,5.3-6.9c4.2-0.1,5.7,3.2,6.4,6.7c1.2,5.9-0.2,11.8-1.2,17.6c-0.5,2.9-1.7,5.3-5.2,5.3c-3.9,0.1-5.7-2.3-6.5-5.7
			C355.3,266.2,355.8,262.2,356.5,258.2z M332.7,252.3c1.4-0.6,2.9-0.1,4.2,0.7c6.8,4.2,9.7,15.3,6.2,22.4c-1.1,2.1-2.6,0.5-3.8,1
			c-1-3-1.9-6.1-5.3-7.3c1-4.6-3.3-7.9-2.9-12.3C331.3,255.1,330.7,253.1,332.7,252.3z M321.6,324.5c5.7,0.1,8.4,5.3,12.9,7.3
			c1.8,2.3,3.1,5.2,0.8,7.3c-2.7,2.3-4.2-1.3-6-2.6c-1.7-1.1-3.1-2.8-4.6-4.2c0,0,0,0,0,0C324.1,329.6,321.2,327.9,321.6,324.5z
			 M320.4,378.2c1-1,2.2-2.3,3.8-1.4c1.5,0.8,0.6,2.3,0.3,3.4c-1.1,4-2.3,7.9-3.5,12.1C316.5,387.1,316.4,382.3,320.4,378.2z
			 M229.8,405.8c6.3,1.3,16.6,16.1,15.6,22.4c-0.3,2.6-1.8,4.4-4.1,5.2c-2.1,0.8-3.6-0.7-4.9-2.2c-5.3-6.3-8.8-13.5-10.7-21.4
			C224.8,406,226.5,405.2,229.8,405.8z"/>
		<path id="XMLID_366_" class="st1" d="M253,675c-0.5-26-4.9-45.6-16.4-69.3c-3.5-7.3-6.3-15-7.3-23c-3.9-33.8,0.4-66.7,12.2-98.6
			c0.4-1.6,0.8-3.2,1.2-4.8c0,0,0,0,0,0l0,0c0,0,0,0,0,0l0,0l0,0c0.8-4.7,1.5-9.4,2.3-14.1c0.4-0.2,0.9-0.5,1.3-0.7
			c0.2,1.7,0.4,3.5,0.6,5.2c-0.1,0.8-0.2,1.6-0.3,2.4c-0.4,4.4-1.5,8.6-3.4,12.6c-0.5,1.7-1,3.4-1.6,5c-0.2,0.5-0.4,1.1-0.6,1.6
			c-4.2,18-9.5,35.7-10.2,54.6c-0.9,22.5-0.2,44.1,10.4,64.7c5.6,11,9.1,23,10.8,35.3c3.2,22.2,1.2,8.8,2.8,28.8"/>
		<path id="XMLID_276_" class="st1" d="M380.9,402.5c1.4,2.5,1.9,5,1.1,7.8c-3.6,10-4.3,20.6-5.7,31c-1.8-2.9-0.6-5.8-0.7-8.7
			c1.6-9.3,3.2-18.5,4.7-27.8C380.6,404.1,380.7,403.3,380.9,402.5z"/>
	</g>
	<g id="XMLID_363_">
		<path id="XMLID_611_" class="st1" d="M309,311C309,311,309,311,309,311c0-0.1,0-0.1,0-0.2c0-0.1,0-0.2-0.1-0.2c0,0,0-0.1-0.1-0.1
			c0-0.1-0.1-0.1-0.2-0.2c0,0,0-0.1-0.1-0.1c-0.1-0.1-0.2-0.1-0.3-0.2c0,0,0,0,0,0c0,0,0,0,0,0c0,0,0,0,0,0c-0.1,0-0.2,0-0.3,0
			c0,0,0,0-0.1,0c-0.1,0-0.2,0-0.3,0.1c0,0-0.1,0-0.1,0c-0.1,0-0.1,0.1-0.2,0.2c0,0,0,0-0.1,0.1c0,0,0,0,0,0
			c-12.3,18.6-30.3,47.8-22.9,72.1c-3.1,9.1-4.6,13.7-7.5,23c-2.6-14.3-6.1-28.4-10.5-42.2c2.8-10.6,5.8-21.2,8.8-31.8
			c16.3-19.3,20.1-45.9,20.3-70.1c0.2-17.3,0.1-35.8,6.3-52.4c1.6-3.3,2.7-5.3,2.8-5.4c0,0,0-0.1,0-0.1c0-0.1,0.1-0.1,0.1-0.2
			c0-0.1,0-0.1,0-0.2c0-0.1,0-0.1,0-0.2c0-0.1,0-0.1,0-0.2c0-0.1-0.1-0.1-0.1-0.2c0-0.1-0.1-0.1-0.1-0.2c0,0,0,0,0-0.1
			c0,0-0.1-0.1-0.1-0.1c0,0-0.1-0.1-0.1-0.1c0,0,0,0-0.1,0c-0.1,0-0.1,0-0.2-0.1c-0.1,0-0.1,0-0.2,0c-0.1,0-0.1,0-0.2,0
			c-0.1,0-0.1,0-0.2,0c-0.1,0-0.1,0.1-0.2,0.1c-0.1,0-0.1,0.1-0.2,0.1c0,0,0,0,0,0c-8.7,8.3-15.5,19.8-20.2,31
			c-13.2,31-14.1,64.4-9.4,97.4c-2.9,9.6-5.6,19.2-8.1,28.9c-0.9-2.8-1.9-5.5-2.9-8.3c-4.7-13-8.4-26.4-11.1-40
			c8-7.5,12.4-18.1,11.8-28.5c0-0.4-0.3-0.8-0.7-0.9c-0.4-0.1-0.8,0-1.1,0.3c-6.2,7.4-9.6,17.7-11.1,23.7c-3.3-17-5-34.4-5.9-51.7
			c10-3.6,15.8-13.4,15.5-23.6c-0.2-6.5,6.1-20.8,6.2-20.9c0.2-0.5,0.1-1-0.3-1.3c-0.4-0.3-0.9-0.2-1.3,0.1
			c-9.9,9.9-16.6,23.7-20.4,37.1c-0.1-13.7-0.1-27.4,1.1-41c23.6-24.5,21.4-70.7,19.9-102.2c0-0.1,0-0.1,0-0.2c0,0,0-0.1,0-0.1
			c0-0.1-0.1-0.2-0.2-0.3c0,0,0,0,0,0c-0.1-0.1-0.2-0.1-0.3-0.2c0,0,0,0,0,0c0,0,0,0-0.1,0c0,0-0.1,0-0.1-0.1c0,0,0,0,0,0
			c0,0-0.1,0-0.1,0c0,0-0.1,0-0.1,0c-0.1,0-0.2,0-0.3,0c0,0-0.1,0-0.1,0c-0.1,0-0.2,0.1-0.3,0.2c0,0,0,0-0.1,0.1
			c-0.1,0.1-0.1,0.1-0.1,0.2c-18.1,29.4-28.1,67-20,102.3c-0.1,0.7-0.3,3.5-0.6,7.9c-3.6-11.8-9.7-23.3-16.4-33.6
			c-0.3-0.4-0.7-0.6-1.2-0.4s-0.7,0.6-0.7,1.1c0.1,13.8,3.1,34.4,17.8,40.6c-0.5,11.2-0.2,22.3,0.1,33.5c0,0,0,0.1,0,0.1
			c0,0.2,0,0.3,0,0.5c0.9,19.3,3.4,38.2,6.8,57.2c0,0.1,0,0.3,0.1,0.4c0.7,3.2,1.4,6.5,2.1,9.7c-5.2-5.2-7.8-7.9-13-13.2
			c1.1-30.9-19.1-61.7-39.3-83.1c0,0-0.1-0.1-0.1-0.1c0,0,0,0-0.1,0c-0.1-0.1-0.2-0.1-0.3-0.1c0,0-0.1,0-0.1,0c-0.1,0-0.2,0-0.3,0
			c0,0,0,0-0.1,0c0,0,0,0,0,0c0,0,0,0-0.1,0c-0.1,0-0.2,0.1-0.3,0.2c0,0,0,0-0.1,0.1c-0.1,0.1-0.1,0.1-0.2,0.2c0,0,0,0.1-0.1,0.1
			c-0.1,0.1-0.1,0.2-0.1,0.4c0,0,0,0,0,0c-2.6,23,1.2,46.8,17,65.7c6.2,7.4,13.8,13.7,22.4,18c5.7,5.8,8.5,8.7,14.2,14.4
			c-2.6,0.5-4,0.8-6.6,1.3c-8.9-13.6-26-21.2-41-25.5c-0.4-0.1-0.8,0.1-1.1,0.5c-0.2,0.4-0.2,0.9,0,1.3
			c8.1,11.8,19.5,25.6,35.6,26.6c3.5,0.2,5.8-0.4,6.2-0.5c3.3-0.7,5-1,8.3-1.6c2.3,9,4.9,18,8.1,26.6c7.7,20.8,13.1,42.7,16.2,64.7
			c-1.3-2.1-3.1-4.5-4.8-6.6c0.2-25.2-27.2-50.8-45.6-64.5c-8.4-6.3-17.6-13.2-22.5-22.2c0-0.1-0.1-0.2-0.1-0.2
			c-0.3-0.3-0.7-0.4-1-0.3c-0.1,0-0.2,0.1-0.3,0.2c0,0,0,0,0,0c0,0,0,0,0,0c-0.1,0-0.1,0.1-0.2,0.2c-0.1,0.1-0.2,0.3-0.2,0.5
			c0,0.1,0,0.2,0,0.4c3.7,37.4,28.4,74.3,64.4,84c2.7,0.7,8.2,8.6,11.1,13.5c1.8,16.5,3.6,33.3,2.4,49.7c0,0.6,0.3,1.1,0.9,1.1
			c0.1,0,0.1,0,0.2,0c0.5,0,0.8-0.4,0.9-0.9c1.2-16.6-0.5-33.7-2.4-50.4c0,0,0,0,0,0c0,0,0,0,0,0c-0.5-3.9-1.1-7.7-1.7-11.5
			c3.3-10.7,5-16,8.6-26.6C309.1,371.8,309.5,333,309,311z M293.5,261.7c-0.2,22.6-3.6,46.1-17.1,65.2c4.5-18.7,7.2-37.5,8.2-56.5
			c0.8-16.7,5.2-33.5,11.7-48.9C293.7,234.7,293.6,248.2,293.5,261.7z M299.1,210c-9.2,19.2-15.1,39.4-16.6,60.3
			c-1.3,18.7-3.6,37.5-8,56C269.8,286.2,273.3,242.9,299.1,210z M261,286.3c-0.2,4.7-1.6,14.4-9.3,22.1
			C252.8,303.6,255.7,293.8,261,286.3z M261.8,214.8c-1.9,4.9-4.2,12-4,16.3c0.2,6-2.3,16.8-13.3,21.2
			C247.4,239,253,225.2,261.8,214.8z M226.4,183.3c6.4,10.7,12.2,22.1,15.3,34.3C229.7,210.7,228,195.7,226.4,183.3z M245.4,201.5
			c3.5-31.3,7.5-63.9,17.6-93.8C263.9,136.8,265.5,178,245.4,201.5z M259.3,112.5c-7.9,27.7-12.2,56.4-15.5,85
			C239.7,167.8,246.4,139.3,259.3,112.5z M236.3,306.1c-18.9-20.4-29.1-49.9-36-76.4C218.3,250.6,236.3,277.6,236.3,306.1z
			 M198.7,231.7c6.9,25.3,16.4,52.4,33.5,72.8C206.9,288.4,198,260.5,198.7,231.7z M205.6,302.8c13.4,4.6,28.1,11.1,36.6,22.9
			C226.2,327.5,214.5,314,205.6,302.8z M266.7,406.4c-32.2-8.8-56.3-40.7-61.9-74.3c8.2,18.2,20.3,32.7,34.9,46.1
			c10.6,8.4,20.7,17,27.9,28.6C267.3,406.6,267,406.5,266.7,406.4z M240.9,376.4c-14.2-13-26-27.1-34-44.7
			c3.5,4.1,9.5,9.8,18.3,16.1c18.4,13.1,40.5,35.2,44.6,58.7C262.6,394.2,251.9,385.2,240.9,376.4z M305.3,317
			c-5.9,20.7-9.8,44-19.6,63.4C281.2,358.3,294.6,335,305.3,317z M288.2,379.8c8.5-19.5,13-41.1,18.8-61.6
			C306.4,338.5,305.3,366.1,288.2,379.8z"/>
	</g>
	<g id="XMLID_371_">
		<line id="XMLID_369_" class="st2" x1="325" y1="122.2" x2="325" y2="152.5"/>
		<line id="XMLID_370_" class="st2" x1="340.2" y1="137.3" x2="309.9" y2="137.3"/>
	</g>
	<g id="XMLID_373_">
		<line id="XMLID_376_" class="st2" x1="397.6" y1="181.4" x2="397.6" y2="211.8"/>
		<line id="XMLID_374_" class="st2" x1="412.7" y1="196.6" x2="382.4" y2="196.6"/>
	</g>
	<g id="XMLID_377_">
		<line id="XMLID_399_" class="st2" x1="155.7" y1="282.7" x2="155.7" y2="309.1"/>
		<line id="XMLID_378_" class="st2" x1="168.9" y1="295.9" x2="142.5" y2="295.9"/>
	</g>
</g>
</svg>
