<?xml version="1.0" encoding="utf-8"?>
<!-- Generator: Adobe Illustrator 19.0.0, SVG Export Plug-In . SVG Version: 6.00 Build 0)  -->
<svg version="1.1" id="Warstwa_1" xmlns="http://www.w3.org/2000/svg" xmlns:xlink="http://www.w3.org/1999/xlink" x="0px" y="0px"
	 viewBox="0 0 500 500" style="enable-background:new 0 0 500 500;" xml:space="preserve">
<style type="text/css">
	.st0{fill:none;stroke:#231F20;stroke-width:2;stroke-linecap:round;stroke-linejoin:round;stroke-miterlimit:10;}
	.st1{fill:none;}
	.st2{fill:#231F20;}
	.st3{fill:#E1AE7A;}
	.st4{fill:#B42025;}
	.st5{fill:#C09261;}
</style>
<g id="XMLID_1915_">
	<path id="XMLID_1900_" class="st0" d="M451.9,229.6"/>
	<path id="XMLID_1899_" class="st0" d="M44.5,229.6"/>
	<path id="XMLID_x5F_2_x5F_" class="st1" d="M126.2,147.1c45.8-69.4,139.2-88.5,208.6-42.6s88.5,139.2,42.6,208.6
		s-139.2,88.5-208.6,42.6S80.3,216.5,126.2,147.1z"/>
	<text id="XMLID_1892_">	<textPath  xlink:href="#XMLID_x5F_2_x5F_" startOffset="221.4117%">
<tspan  class="st2" style="font-family:'FuturaBT-BoldCondensed'; font-size:35.2871px;">PIZZERIA DUET PIZZERIA DUET PIZZERIA DUET PIZZERIA DUET PIZZERIA DUET  PIZZERIA DUET</tspan>	</textPath>
</text>
	<path id="XMLID_x5F_3_x5F_" class="st1" d="M466.3,256.1c-2,119.5-100.5,214.7-220,212.6S31.7,368.2,33.7,248.7
		c2-119.5,100.5-214.7,220-212.6S468.3,136.6,466.3,256.1z"/>
	<text id="XMLID_1890_">	<textPath  xlink:href="#XMLID_x5F_3_x5F_" startOffset="2344.2068%">
<tspan  class="st2" style="font-family:'FuturaBT-BoldCondensed'; font-size:94.6455px;">        	  </tspan><tspan  class="st2" style="font-family:'FuturaBT-BoldCondensed'; font-size:30.0138px;">EST. 1999</tspan>	</textPath>
</text>
	<g id="XMLID_1887_">
		<path id="XMLID_1889_" class="st0" d="M181.8,33.7C101,62.5,43.1,139.6,43.1,230.3c0,90.7,57.8,167.8,138.6,196.6"/>
		<path id="XMLID_1888_" class="st0" d="M321.8,426.9c80.8-28.8,138.6-105.9,138.6-196.6c0-90.7-57.8-167.8-138.6-196.6"/>
	</g>
	<path id="XMLID_1886_" class="st0" d="M250.6,2c0,14.3,5.4,19.7,19.7,19.7c-14.3,0-19.7,5.4-19.7,19.7c0-14.3-5.4-19.7-19.7-19.7
		C245.2,21.7,250.6,16.3,250.6,2z"/>
	<circle id="XMLID_1885_" class="st2" cx="296.5" cy="26" r="5.4"/>
	<circle id="XMLID_1884_" class="st2" cx="204.7" cy="26" r="5.4"/>
	<path id="XMLID_1883_" class="st0" d="M250.6,419c0,14.3,5.4,19.7,19.7,19.7c-14.3,0-19.7,5.4-19.7,19.7c0-14.3-5.4-19.7-19.7-19.7
		C245.2,438.7,250.6,433.3,250.6,419z"/>
	<circle id="XMLID_1882_" class="st2" cx="296.5" cy="434.4" r="5.4"/>
	<circle id="XMLID_1832_" class="st2" cx="204.7" cy="434.4" r="5.4"/>
	<g id="XMLID_428_">
		<g id="XMLID_559_">
			<path id="XMLID_642_" class="st3" d="M207.6,201.5l0.1,0l0.5,0.2l26.4,9.8l18.9,7l51.6,19.2l-13.4-36l-5.8-15.5l-5.1-13.8
				l-11.4-30.7l-0.1-0.2l-2.5-6.8c-1.2-0.2-2.5-0.4-3.7-0.5c-0.5,1-1.2,2-2,2.9c-1.4,1.7-3.1,3.2-4.1,3.9c-0.6,0.4-2.1,0.8-3.8,1.2
				c-0.3,0.1-0.6,0.2-1,0.3c-3.9,1-9.6,2.4-16.8,5.8c-1.1,0.5-2.3,1.1-3.4,1.7c-2,1.1-3.9,2.2-5.5,3.5c-0.5,0.3-1,0.7-1.4,1.1
				c-1.5,1.9-3,4.1-4.3,6.6c1.2-1.5,2.4-2.9,3.8-4.2c0.7-0.7,1.5-1.5,2.3-2.1c2.7-2.4,5.6-4.4,8.6-6c5.8-3.1,12.1-5,18.7-5.4
				c2-0.1,4-0.1,6,0l1.2,3.1l0.9,2.4l2.3,6.1l6.4,17.1l3.3,8.9l3.2,8.5l3.8,10.2l3.3,9l4.9,13.2l-32.3-12l-14-5.2l-9.3-3.5
				l-16.8-6.3l-0.6-0.2l-0.8-0.3l-4.6-1.7c-0.1-1.7-0.1-3.4,0-5.1c-0.9,1.1-2.3,2.6-3.8,3.8c-0.7,0.6-1.6,1.1-2.3,1.5
				c-0.8,0.4-1.6,0.6-2.4,0.7c-0.2,0-0.4,0-0.6,0c0,0-0.1,0-0.1,0c0.1,2,0.3,4,0.7,6L207.6,201.5z"/>
			<g id="XMLID_635_">
				<path id="XMLID_545_" class="st3" d="M292.6,213.4c-3.6-3.7-7.2-7.4-10.8-11.2c-4.8-5-12,1.3-9.3,7.1c2.4,5.2,5.5,9.5,9.4,13.6
					c2.4-3.1,4.7-6.2,7.1-9.3c-13.8-8.9-29-14.3-44.4-19.5c0.9,3.3,1.8,6.6,2.7,9.8c3.8-3.1,6.3-6.1,8.9-10.2
					c-3.6-0.5-7.2-0.9-10.8-1.4c0.6,2.6,1.2,5.1,1.8,7.7c1.5,6.6,11.5,5.1,11.6-1.5c0.1-7.2,0.4-14.3,1.1-21.4
					c-3.9,0.5-7.7,1-11.6,1.5c1.4,6.9,2.9,13.7,4.3,20.6c1.2,5.6,10.4,5.8,11.4,0c1.8-10.7-0.9-21.9,2.1-32.4
					c-3.3,0.9-6.6,1.8-9.8,2.7c1.1,1.9,2.1,3.8,3.2,5.6c1.8,6.1,12.3,5.4,11.6-1.5c-0.5-4.7-1.5-8.5-3.4-12.8
					c-3.4,1.9-6.8,3.9-10.2,5.8c1.4,2.9,2.8,5.8,4.1,8.6c3.4-1.9,6.8-3.9,10.2-5.8c-2.4-5-5.1-9.5-8.5-13.9c-2.7-3.6-7.6-4.1-10.2,0
					c-3.8,6.1-6.5,12.2-8.6,19.1c-1.8,6.1,5.7,9,9.8,5.6c8.1-6.5,15.4-17.2,14.9-27.9c-0.2-5.3-8.5-8.7-11-2.9
					c-5.5,12.9-12,25.1-19.5,36.9c3.6,0.5,7.2,0.9,10.8,1.4c-1.7-4.8,1.9-13.5,3.7-17.8c-3.6-1.5-7.2-2.9-10.8-4.4
					c-1.3,7.7-3.7,14.5-7.7,21.2c3.4,0,6.8,0,10.2,0c-1.5-3.4,3.1-14.3,4.1-17.8c2.2-7.4-8.8-9.9-11.4-3c-1.6,4.3-3.5,7.7-6,11.5
					c3.6,0.5,7.2,0.9,10.8,1.4c0-2.5,0-5,0-7.5c1.3-6.6-7.1-10.1-10.8-4.4c-1,1.5-2,3-3,4.6c3.6,1.5,7.2,2.9,10.8,4.4
					c1-3.9,2.2-7.7,3.6-11.5c2.5-6.8-7.2-9.3-10.8-4.4c-2.7,3.7-5.5,7.5-8.2,11.2c3.7,1,7.3,1.9,11,2.9c0.2-2.1,0.4-4.2,0.6-6.4
					c1.2-7.4-10.2-10.5-11.4-3c-0.5,3.4-0.8,5.9-1,9.3c-0.4,6.5,7.9,7.2,11,2.9c2.7-3.7,5.5-7.5,8.2-11.2c-3.6-1.5-7.2-2.9-10.8-4.4
					c-1.4,3.8-2.6,7.6-3.6,11.5c-1.7,6.6,7.2,9.9,10.8,4.4c1-1.5,2-3,3-4.6c-3.6-1.5-7.2-2.9-10.8-4.4c-0.9,4.8-0.9,8.7,0,13.5
					c1.1,5.4,8.2,5.4,10.8,1.4c3-4.6,5.2-9.2,7.2-14.3c-3.8-1-7.6-2-11.4-3c-2.4,8-6.6,18.5-3,26.6c1.9,4.3,8.1,3.5,10.2,0
					c4.5-7.7,7.4-15.2,8.8-24c1-6-8.1-11-10.8-4.4c-3.3,8.1-7.9,17.8-4.8,26.6c1.7,4.9,7.9,5.9,10.8,1.4c7.5-11.8,14-24,19.5-36.9
					c-3.7-1-7.3-1.9-11-2.9c0.3,7.5-6,15.2-11.5,19.6c3.3,1.9,6.6,3.8,9.8,5.6c1.8-5.9,4.2-11.1,7.5-16.2c-3.4,0-6.8,0-10.2,0
					c3.3,4.4,6.1,8.9,8.5,13.9c3.3,6.8,13.5,1,10.2-5.8c-1.4-2.9-2.8-5.8-4.1-8.6c-3.3-6.9-13.3-1-10.2,5.8c0.6,2.3,1.3,4.7,1.9,7
					c3.9-0.5,7.7-1,11.6-1.5c-1.3-4.5-3.1-7.6-6.3-11c-3.1-3.3-8.7-1.5-9.8,2.7c-3,10.8-0.3,21.5-2.1,32.4c3.8,0,7.6,0,11.4,0
					c-1.4-6.9-2.9-13.7-4.3-20.6c-1.5-6.9-11-4.8-11.6,1.5c-0.7,7.1-1,14.2-1.1,21.4c3.9-0.5,7.7-1,11.6-1.5
					c-0.6-2.6-1.2-5.1-1.8-7.7c-1.2-5.2-8.2-5.6-10.8-1.4c-1.7,3.2-4,5.8-6.9,7.7c-3.7,3-1.1,8.6,2.7,9.8
					c14.5,4.9,28.7,10,41.6,18.4c5.7,3.7,11.5-4.6,7.1-9.3c-3.5-3.7-5.4-6.6-7.4-11.1c-3.1,2.4-6.2,4.7-9.3,7.1
					c3.6,3.7,7.2,7.4,10.8,11.2C289.5,227.2,297.8,218.8,292.6,213.4L292.6,213.4z"/>
			</g>
			<g id="XMLID_630_">
				<path id="XMLID_631_" class="st4" d="M234.6,211.7c2-0.9,3.9-2.2,5.5-3.9c1-1,1.8-2,2.6-3.1c5-7.6,4.2-18-2.6-24.7
					c-4.2-4.2-9.8-6.1-15.3-5.7c-4.1,0.3-8.1,1.8-11.3,4.7c-0.3,1.1-0.5,2.1-0.8,3c-0.5,2.1-1,4.1-1.5,4.8c-0.2,0.3-0.4,0.6-0.6,0.9
					c-0.9,1.1-2.3,2.6-3.8,3.8c-0.4,3.4,0,6.9,1.4,10.1c0.1,0.1,0.1,0.3,0.2,0.4L234.6,211.7z M219,186.6c0.8-0.8,1.7-1.5,2.7-1.9
					c3.8-1.9,8.6-1.3,11.8,1.9c4,4,4,10.6,0,14.6l-0.1,0.1c-4,3.9-10.5,3.9-14.5-0.1c-1.6-1.6-2.5-3.6-2.9-5.7
					c-0.1-0.3-0.1-0.5-0.1-0.8C215.7,191.8,216.7,188.8,219,186.6z"/>
			</g>
			<g id="XMLID_622_">
				<path id="XMLID_623_" class="st4" d="M235.1,148.8c0-0.1,0-0.3,0-0.4c0.1-1.3,0.4-2.6,1.1-3.8c-3,1.8-6.7,4.5-10.1,8.5
					c0,0.2,0.1,0.3,0.1,0.5c0.1,0.4,0.2,0.9,0.3,1.3C229.2,152.5,232,150.5,235.1,148.8z M235.1,148.8c0-0.1,0-0.3,0-0.4
					c0.1-1.3,0.4-2.6,1.1-3.8c-3,1.8-6.7,4.5-10.1,8.5c0,0.2,0.1,0.3,0.1,0.5c0.1,0.4,0.2,0.9,0.3,1.3
					C229.2,152.5,232,150.5,235.1,148.8z M259.3,163.1c2.3-2.3,4-5.1,4.9-8.1c1-3.3,1.1-6.7,0.4-10.1c-0.6-2.8-1.8-5.5-3.6-7.8
					c-0.1-0.2-0.3-0.4-0.4-0.6c-2,1-6,2.3-10.6,3.4c1,0.5,1.9,1.1,2.7,1.9c0.1,0.1,0.2,0.2,0.3,0.3c0.3,0.3,0.6,0.7,0.9,1.1
					c1,1.5,1.6,3.1,1.8,4.9c0.3,2.9-0.7,6-3,8.2c-4,4-10.5,4-14.5,0c-0.3-0.3-0.7-0.7-0.9-1.1c-1.5-1.9-2.1-4.2-2-6.6
					c0-0.1,0-0.3,0-0.4c0.1-1.3,0.4-2.6,1.1-3.8c-3,1.8-6.7,4.5-10.1,8.5c0,0.2,0.1,0.3,0.1,0.5c0.1,0.4,0.2,0.9,0.3,1.3
					c0.8,2.7,2.2,5.3,4.2,7.5c0.2,0.3,0.5,0.5,0.7,0.8C239.1,170.8,251.6,170.8,259.3,163.1z M237.8,133c5.2-0.4,9.8-1.5,13.6-2.5
					c-6.1-2-12.9-0.9-18.1,3.2C234.6,133.3,236.2,133.1,237.8,133z M235.1,148.8c0-0.1,0-0.3,0-0.4c0.1-1.3,0.4-2.6,1.1-3.8
					c-3,1.8-6.7,4.5-10.1,8.5c0,0.2,0.1,0.3,0.1,0.5c0.1,0.4,0.2,0.9,0.3,1.3C229.2,152.5,232,150.5,235.1,148.8z M235.1,148.8
					c0-0.1,0-0.3,0-0.4c0.1-1.3,0.4-2.6,1.1-3.8c-3,1.8-6.7,4.5-10.1,8.5c0,0.2,0.1,0.3,0.1,0.5c0.1,0.4,0.2,0.9,0.3,1.3
					C229.2,152.5,232,150.5,235.1,148.8z"/>
			</g>
			<g id="XMLID_615_">
				<path id="XMLID_544_" class="st4" d="M257.4,157.9c0.3-0.9,0.7-1.8,1-2.7c0.1-0.2,1.1-2.4,0.6-1.5c-2.2,0.9-4.4,1.9-6.6,2.8
					c0.1,0,0.2,0.1,0.3,0.1c-1.4-1.4-2.8-2.8-4.2-4.2c0,0.1,0.1,0.3,0.1,0.4c0-1,0-2,0-3c0.2-0.8,1.5-1,0.7-1.1
					c-0.5,0-1.3,0.3-1.8,0.4c-1.3,0.3-2.4,0.7-3.6,1.1c-3.4,0.9-6.3,2.6-6.9,6.5c-0.6,3.8,1.9,7.5,5.7,8.2c3.6,0.6,7.3-1.8,8-5.5
					c0.6-3.1-1-6.3-4.2-7.2c-2.9-0.8-6.6,1.1-7.2,4.2c0,0.2-0.1,0.4-0.1,0.6c0.5-0.9,1-1.8,1.5-2.7c0.1-0.1,0.2-0.2,0.3-0.3
					c1-0.3,1.9-0.5,2.9-0.8c-0.2,0-0.4,0-0.6-0.1c1.4,0.6,2.8,1.1,4.2,1.7c-0.2-0.1-0.3-0.3-0.5-0.4c0.5,0.9,1,1.8,1.5,2.7
					c0,0.1,0,0.2,0,0.2c-0.3,1-0.5,1.9-0.8,2.9c-1.8,1.1-2.3,1.6-1.3,1.3c0.4,0,0.7-0.1,1-0.3c0.7-0.2,1.3-0.5,2-0.6
					c1.8-0.4,3.5-0.7,5.2-1.6c3.6-1.8,6-5.7,5.1-9.8c-0.5-2.1-2.2-3.6-4.2-4.2c-0.1,0-0.2-0.1-0.3-0.1c-2.5-0.8-5.3,0.6-6.6,2.8
					c-1.2,2.1-1.9,4.8-2.7,7c-1.1,3,1.4,6.4,4.2,7.2C253.5,162.9,256.2,160.8,257.4,157.9L257.4,157.9z"/>
			</g>
			<g id="XMLID_608_">
				<path id="XMLID_543_" class="st4" d="M229.3,189c-2.4-1.2-5-1.9-7.7-1.7c-3.3,0.3-7.1,1.5-8.4,4.9c-1.7,4.2,1.6,8,5.4,9.2
					c2.6,0.9,5.1,0.3,7.8,0.6c3,0.3,6.1-3,5.9-5.9c-0.3-3.8-2.7-6.2-6.5-6.5c-4.9-0.3-8,6.7-4.2,10c1.2,1,2.4,2,3.8,2.7
					c2.7,1.4,6.5,0.7,8-2.2c1.4-2.7,0.7-6.5-2.2-8c-0.4-0.2-0.7-0.4-1.1-0.6c-0.6-0.4-0.7-0.5-0.2-0.2c-1.4,3.3-2.8,6.7-4.2,10
					c0.1,0,0.2,0,0.3,0c-1.4-0.6-2.8-1.1-4.2-1.7c0.1,0.1,0.2,0.2,0.2,0.2c-0.6-1.4-1.1-2.8-1.7-4.2c0,0.1,0,0.2,0,0.3
					c2-2,3.9-3.9,5.9-5.9c-1.1-0.1-2.1,0-3.2,0c-0.2,0-1.4,0.1-1.4,0c0.1,0,0.2,0,0.3,0c0.7,0.2,1.2,0.7,1.6,1.5
					c0.3,1,0.5,1.9,0.8,2.9c0-0.1,0-0.1,0-0.2c-0.6,1.4-1.1,2.8-1.7,4.2c-0.3,0.3-1.6,0.8-0.6,0.6c1.4-0.4-1,0,0.5-0.1
					c0.2,0,0.3,0,0.5,0c-0.7-0.1-0.7-0.1,0,0c0.2,0,0.3,0.1,0.5,0.1c-0.6-0.3-0.7-0.3-0.1,0c2.7,1.4,6.5,0.7,8-2.2
					C232.9,194.3,232.2,190.6,229.3,189L229.3,189z"/>
			</g>
			<g id="XMLID_601_">
				<path id="XMLID_542_" class="st4" d="M239.4,200.6c0.3-3.6,0.9-7.4-0.9-10.8c-1.9-3.5-5.6-4.4-8.6-6.4
					c-4.2-2.8-10.2-0.8-10.4,4.7c-0.1,2,0.8,3.8,2.2,5.3c0.8,0.9,2,1.6,2.9,2.3c0.3,0.2,0.6,0.4,0.9,0.6c1.4,1,1.4,0.6-0.1-1.2
					c0-1,0-2,0-3c0,0.2-0.1,0.3-0.1,0.5c-2.1,7.3,9.3,10.3,11.4,3c0.6-2.3,0.2-4.7-1.3-6.5c-0.8-0.9-1.7-1.6-2.7-2.3
					c-0.4-0.3-2.3-1.2-2.2-1.1c0.3,1,0.5,1.9,0.8,2.9c0-0.1,0-0.3,0-0.4c-0.6,1.4-1.1,2.8-1.7,4.2c0.1-0.1,0.2-0.2,0.3-0.3
					c-1.9,0.5-3.8,1-5.6,1.5c-2.1-0.6,1.6,1.4,2.1,1.6c0.4,0.2,3.2,1.8,2.1,0.4c-0.8-1.2-0.3,0.4-0.4,1.1c-0.1,1.3-0.2,2.6-0.4,3.9
					c-0.3,3.2,2.9,5.9,5.9,5.9C237,206.5,239.1,203.8,239.4,200.6L239.4,200.6z"/>
			</g>
			<g id="XMLID_594_">
				<path id="XMLID_540_" class="st4" d="M224.8,193.4c-5.3,5.3,3,13.7,8.3,8.3C238.5,196.4,230.2,188.1,224.8,193.4L224.8,193.4z"
					/>
			</g>
			<g id="XMLID_587_">
				<path id="XMLID_539_" class="st4" d="M224.9,193.3c-5.3,5.3,3,13.7,8.3,8.3C238.6,196.3,230.3,188,224.9,193.3L224.9,193.3z"/>
			</g>
			<g id="XMLID_580_">
				<path id="XMLID_538_" class="st4" d="M224.9,193.3c-5.3,5.3,3,13.7,8.3,8.3C238.6,196.3,230.3,188,224.9,193.3L224.9,193.3z"/>
			</g>
			<path id="XMLID_578_" class="st4" d="M284.2,208.7c1.7-0.9,3.3-2.1,4.8-3.5c1-1,2-2.2,2.7-3.4l-5.8-15.5l-5.1-13.8
				c-3.3-1-6.8-1.1-10.2-0.3c-3.5,0.8-6.8,2.5-9.5,5.2c-7.7,7.7-7.7,20.2,0,27.9C267.3,211.5,276.8,212.7,284.2,208.7z"/>
			<g id="XMLID_571_">
				<path id="XMLID_537_" class="st4" d="M228.2,195c-1.7,0.2-3.5,0.2-5.2,0c-3.1-0.3-6,2.9-5.9,5.9c0.1,3.4,2.6,5.6,5.9,5.9
					c1.7,0.2,3.5,0.2,5.2,0c1.6-0.2,3-0.5,4.2-1.7c1-1,1.8-2.7,1.7-4.2C233.9,198,231.4,194.6,228.2,195L228.2,195z"/>
			</g>
			<path id="XMLID_560_" class="st5" d="M215.2,194.4l0.8,0.3l0.6,0.2c1.1-1.2,2-2.4,2.5-3.1c0,0,0-0.1,0.1-0.1
				c1.2-1.9,1.8-4.2,2.5-7c0-0.1,0.1-0.3,0.1-0.5c0.7-2.7,1.5-6,3-9.9c0.9-2.5,2.1-5.2,3.7-8.3c0.7-1.3,1.4-2.5,2.1-3.5
				c2-3,4.3-5.3,6.4-7c-1.5-1.9-2.1-4.2-2-6.6c-3,1.6-5.9,3.6-8.6,6c-0.1-0.4-0.2-0.8-0.3-1.3c0-0.2-0.1-0.3-0.1-0.5
				c-0.4,0.5-0.9,1-1.3,1.5c-1.5,1.9-3,4.1-4.3,6.6c0,0.1-0.1,0.2-0.2,0.3c-3.7,7.1-5.6,12.9-6.8,17.3c-0.3,1.1-0.5,2.1-0.8,3
				c-0.5,2.1-1,4.1-1.5,4.8c-0.2,0.3-0.4,0.6-0.6,0.9c-0.1,1.7-0.1,3.4,0,5.1L215.2,194.4z M215.2,194.4l0.8,0.3l0.6,0.2
				c1.1-1.2,2-2.4,2.5-3.1c0,0,0-0.1,0.1-0.1c1.2-1.9,1.8-4.2,2.5-7c0-0.1,0.1-0.3,0.1-0.5c0.7-2.7,1.5-6,3-9.9
				c0.9-2.5,2.1-5.2,3.7-8.3c0.7-1.3,1.4-2.5,2.1-3.5c2-3,4.3-5.3,6.4-7c-1.5-1.9-2.1-4.2-2-6.6c-3,1.6-5.9,3.6-8.6,6
				c-0.1-0.4-0.2-0.8-0.3-1.3c0-0.2-0.1-0.3-0.1-0.5c-0.4,0.5-0.9,1-1.3,1.5c-1.5,1.9-3,4.1-4.3,6.6c0,0.1-0.1,0.2-0.2,0.3
				c-3.7,7.1-5.6,12.9-6.8,17.3c-0.3,1.1-0.5,2.1-0.8,3c-0.5,2.1-1,4.1-1.5,4.8c-0.2,0.3-0.4,0.6-0.6,0.9c-0.1,1.7-0.1,3.4,0,5.1
				L215.2,194.4z M215.2,194.4l0.8,0.3l0.6,0.2c1.1-1.2,2-2.4,2.5-3.1c0,0,0-0.1,0.1-0.1c1.2-1.9,1.8-4.2,2.5-7
				c0-0.1,0.1-0.3,0.1-0.5c0.7-2.7,1.5-6,3-9.9c0.9-2.5,2.1-5.2,3.7-8.3c0.7-1.3,1.4-2.5,2.1-3.5c2-3,4.3-5.3,6.4-7
				c-1.5-1.9-2.1-4.2-2-6.6c-3,1.6-5.9,3.6-8.6,6c-0.1-0.4-0.2-0.8-0.3-1.3c0-0.2-0.1-0.3-0.1-0.5c-0.4,0.5-0.9,1-1.3,1.5
				c-1.5,1.9-3,4.1-4.3,6.6c0,0.1-0.1,0.2-0.2,0.3c-3.7,7.1-5.6,12.9-6.8,17.3c-0.3,1.1-0.5,2.1-0.8,3c-0.5,2.1-1,4.1-1.5,4.8
				c-0.2,0.3-0.4,0.6-0.6,0.9c-0.1,1.7-0.1,3.4,0,5.1L215.2,194.4z M215.2,194.4l0.8,0.3l0.6,0.2c1.1-1.2,2-2.4,2.5-3.1
				c0,0,0-0.1,0.1-0.1c1.2-1.9,1.8-4.2,2.5-7c0-0.1,0.1-0.3,0.1-0.5c0.7-2.7,1.5-6,3-9.9c0.9-2.5,2.1-5.2,3.7-8.3
				c0.7-1.3,1.4-2.5,2.1-3.5c2-3,4.3-5.3,6.4-7c-1.5-1.9-2.1-4.2-2-6.6c-3,1.6-5.9,3.6-8.6,6c-0.1-0.4-0.2-0.8-0.3-1.3
				c0-0.2-0.1-0.3-0.1-0.5c-0.4,0.5-0.9,1-1.3,1.5c-1.5,1.9-3,4.1-4.3,6.6c0,0.1-0.1,0.2-0.2,0.3c-3.7,7.1-5.6,12.9-6.8,17.3
				c-0.3,1.1-0.5,2.1-0.8,3c-0.5,2.1-1,4.1-1.5,4.8c-0.2,0.3-0.4,0.6-0.6,0.9c-0.1,1.7-0.1,3.4,0,5.1L215.2,194.4z M201.1,202.9
				c2.3,0.1,4.5-0.4,6.6-1.3c0.1-0.1,0.2-0.1,0.4-0.2c1.4-0.6,2.7-1.4,3.9-2.3c1.6-1.2,3-2.5,4.2-3.7c0.2-0.2,0.3-0.4,0.5-0.5
				c1.1-1.2,2-2.4,2.5-3.1c0,0,0-0.1,0.1-0.1c1.2-1.9,1.8-4.2,2.5-7c0-0.1,0.1-0.3,0.1-0.5c0.7-2.7,1.5-6,3-9.9
				c0.9-2.5,2.1-5.2,3.7-8.3c0.7-1.3,1.4-2.5,2.1-3.5c2-3,4.3-5.3,6.4-7c3.5-2.9,6.7-4.3,7.5-4.6c2.7-0.5,6.8-1.3,10.9-2.5
				c1.8-0.5,3.7-1.1,5.4-1.7c1.3-0.5,2.4-0.9,3.5-1.5c0,0,0.1,0,0.1,0c1.6-0.7,2.8-1.5,3.7-2.4c0.3-0.3,0.6-0.7,0.9-1
				c1-1.2,1.9-2.6,2.5-4.1c1-2.2,1.4-4.7,1.2-7c-0.3-3.7-2.2-6.9-5.3-9.1c-2.4-1.7-5.1-2.2-8-2c-2.9,0.1-6,1-9.3,1.8
				c-3.9,1-8.3,2.1-13.3,2.5c-8.1,0.6-15.1,3.7-20.2,8.8c-3.4,3.4-6,7.6-7.6,12.7c-2.1,6.3-9.3,13.8-12.2,16.3
				c-6.3,4.5-15.8,16.7-8.6,31.6C192.3,200.8,197.5,202.7,201.1,202.9z M215.2,194.4l0.8,0.3l0.6,0.2c1.1-1.2,2-2.4,2.5-3.1
				c0,0,0-0.1,0.1-0.1c1.2-1.9,1.8-4.2,2.5-7c0-0.1,0.1-0.3,0.1-0.5c0.7-2.7,1.5-6,3-9.9c0.9-2.5,2.1-5.2,3.7-8.3
				c0.7-1.3,1.4-2.5,2.1-3.5c2-3,4.3-5.3,6.4-7c-1.5-1.9-2.1-4.2-2-6.6c-3,1.6-5.9,3.6-8.6,6c-0.1-0.4-0.2-0.8-0.3-1.3
				c0-0.2-0.1-0.3-0.1-0.5c-0.4,0.5-0.9,1-1.3,1.5c-1.5,1.9-3,4.1-4.3,6.6c0,0.1-0.1,0.2-0.2,0.3c-3.7,7.1-5.6,12.9-6.8,17.3
				c-0.3,1.1-0.5,2.1-0.8,3c-0.5,2.1-1,4.1-1.5,4.8c-0.2,0.3-0.4,0.6-0.6,0.9c-0.1,1.7-0.1,3.4,0,5.1L215.2,194.4z M215.2,194.4
				l0.8,0.3l0.6,0.2c1.1-1.2,2-2.4,2.5-3.1c0,0,0-0.1,0.1-0.1c1.2-1.9,1.8-4.2,2.5-7c0-0.1,0.1-0.3,0.1-0.5c0.7-2.7,1.5-6,3-9.9
				c0.9-2.5,2.1-5.2,3.7-8.3c0.7-1.3,1.4-2.5,2.1-3.5c2-3,4.3-5.3,6.4-7c-1.5-1.9-2.1-4.2-2-6.6c-3,1.6-5.9,3.6-8.6,6
				c-0.1-0.4-0.2-0.8-0.3-1.3c0-0.2-0.1-0.3-0.1-0.5c-0.4,0.5-0.9,1-1.3,1.5c-1.5,1.9-3,4.1-4.3,6.6c0,0.1-0.1,0.2-0.2,0.3
				c-3.7,7.1-5.6,12.9-6.8,17.3c-0.3,1.1-0.5,2.1-0.8,3c-0.5,2.1-1,4.1-1.5,4.8c-0.2,0.3-0.4,0.6-0.6,0.9c-0.1,1.7-0.1,3.4,0,5.1
				L215.2,194.4z M215.2,194.4l0.8,0.3l0.6,0.2c1.1-1.2,2-2.4,2.5-3.1c0,0,0-0.1,0.1-0.1c1.2-1.9,1.8-4.2,2.5-7
				c0-0.1,0.1-0.3,0.1-0.5c0.7-2.7,1.5-6,3-9.9c0.9-2.5,2.1-5.2,3.7-8.3c0.7-1.3,1.4-2.5,2.1-3.5c2-3,4.3-5.3,6.4-7
				c-1.5-1.9-2.1-4.2-2-6.6c-3,1.6-5.9,3.6-8.6,6c-0.1-0.4-0.2-0.8-0.3-1.3c0-0.2-0.1-0.3-0.1-0.5c-0.4,0.5-0.9,1-1.3,1.5
				c-1.5,1.9-3,4.1-4.3,6.6c0,0.1-0.1,0.2-0.2,0.3c-3.7,7.1-5.6,12.9-6.8,17.3c-0.3,1.1-2.7,8.4-2.9,8.7c-0.1,1.7-0.1,3.4,0,5.1
				L215.2,194.4z M215.2,194.4l0.8,0.3l0.6,0.2c1.1-1.2,2-2.4,2.5-3.1c0,0,0-0.1,0.1-0.1c1.2-1.9,1.8-4.2,2.5-7
				c0-0.1,0.1-0.3,0.1-0.5c0.7-2.7,1.5-6,3-9.9c0.9-2.5,2.1-5.2,3.7-8.3c0.7-1.3,1.4-2.5,2.1-3.5c2-3,4.3-5.3,6.4-7
				c-1.5-1.9-2.1-4.2-2-6.6c-3,1.6-5.9,3.6-8.6,6c-0.1-0.4-0.2-0.8-0.3-1.3c0-0.2-0.1-0.3-0.1-0.5c-0.4,0.5-4.3,5.7-5.6,8.1
				c0,0.1-0.1,0.2-0.2,0.3c-3.7,7.1-9.4,25.7-9.7,26c-0.1,1.7-0.1,3.4,0,5.1L215.2,194.4z"/>
		</g>
		<g id="XMLID_520_">
			<path id="XMLID_555_" class="st3" d="M242.6,348.4c1.2-3,4.7-6.3,6.3-7.3c0.8-0.5,2.8-1,4.9-1.5c4.5-1.1,11.4-2.9,20.3-7.5
				c4.3-2.3,7.8-5,10.5-7.7c6.7-6.7,9.1-13.6,9.3-14l0.2-0.7c1.5-8.5,4.2-17.4,5.6-19c0.8-0.8,1.9-1.4,2.9-1.7
				c-0.1-1.9-0.3-3.9-0.7-5.9l-5-1.9l-10.4-3.9l-20.9-7.8l-15.2-5.7l-8-3l-4.6-1.7l-2.3-0.8l-1.7-0.6l-6.8-2.5l-0.4-0.2c0,0,0,0,0,0
				l-3.2-1.2l-0.8-0.3c0,0,0,0,0,0l-3.3-1.2l-2.8-1l-9.6-3.6l-3-1.1l-0.4-0.1l-4.6-1.7l1.7,4.7l0.1,0.4l0.5,1.3l3.5,9.4l0,0l1.7,4.6
				c0,0.1,0.1,0.2,0.1,0.3l0.3,0.7l0.2,0.5l0.3,0.8c0,0,0,0,0,0.1l0.2,0.6c0,0,0,0,0,0l0,0l1.2,3.1c0,0,0,0,0,0l2.2,5.9c0,0,0,0,0,0
				l0.5,1.3l0.8,2.2l0,0.2c0,0,0,0,0,0l2.5,6.8l0.6,1.7l2.5,6.7l1.7,4.5l1.2,3.2l0.3,0.8l2.6,7.1l0.7,1.8l2.5,6.8l0.9,2.5l7.2,19.4
				l2,5.5C239,348.1,240.8,348.3,242.6,348.4z M237.3,321.4l-0.6-1.7l-0.5-1.4l0,0l-0.1-0.3l-0.2-0.6l-0.3-0.8l-1.1-3.1l0,0
				l-0.3-0.9l-0.5-1.4l-0.3-0.8l-0.5-1.4l-0.3-0.9l-0.4-1l-1.5-4.2l-0.2-0.6l-1.1-3.1l-0.2-0.5l-0.3-0.8l-0.3-0.8l-0.5-1.4l-0.9-2.3
				l-0.2-0.4l-1-2.8l-0.1-0.2l-0.9-2.5l-1.1-2.9l-1.6-4.4l-0.3-0.8l0,0l-0.3-1c0,0,0-0.1-0.1-0.1l-0.5-1.4l-0.2-0.5l-1.7-4.6
				l-0.1-0.3l-1.5-4.2c0,0,0,0,0,0l-2.4-6.5l1,0.4l0,0l1.5,0.5l5.5,2l0.1,0l0.2,0.1l2.7,1l0.4,0.1c0,0,0,0,0,0c0,0,0,0,0,0l1.7,0.6
				l2.9,1.1l0.3,0.1l2.3,0.9l0,0l1.1,0.4l0.4,0.1l0,0l6.9,2.5l5.3,2l8.3,3.1l10.1,3.8l14.5,5.4l10,3.8l0.1,0l3.1,1.1
				c0.8,13.3-4,26-13.6,35.6c-9.6,9.6-22.4,14.4-35.6,13.6l-1.8-4.7l-2.8-7.6L237.3,321.4z"/>
			<g id="XMLID_548_">
				<path id="XMLID_536_" class="st3" d="M248.6,304.5c0,0.4,0,0.8,0,1.2c0,3.1,2.7,6,5.9,5.9c3.2-0.1,5.9-2.6,5.9-5.9
					c0-0.4,0-0.8,0-1.2c0-3.1-2.7-6-5.9-5.9C251.3,298.8,248.6,301.2,248.6,304.5L248.6,304.5z"/>
			</g>
			<g id="XMLID_541_">
				<path id="XMLID_535_" class="st3" d="M251.8,279.4c-2.7-2.2-5.2-4.5-7.6-7c-2.4,3.1-4.7,6.2-7.1,9.3c4.2,2.1,8.5,3.8,13,5.1
					c3.9,1.1,8.9-3,7.2-7.2c-1.4-3.5-3-6.2-6-8.6c-5.8-4.5-14.1,3.3-8.3,8.3c3.7,3.2,7.6,5.9,12,8c1.5-3.6,2.9-7.2,4.4-10.8
					c-6.8-2.5-13.7-3.9-20.9-4.3c-4.1-0.2-7.7,5.3-5.1,8.8c4.6,6.2,9.9,10.2,17.1,13c6,2.3,9-5.9,5.6-9.8
					c-6.2-7.3-12.6-14.4-19.1-21.3c-5.2-5.5-13.5,2.8-8.3,8.3c3.9,4.2,8.3,7.8,13.3,10.8c1.9-3.4,3.9-6.8,5.8-10.2
					c-7.3-3.5-20.9-9.2-27.3-1.3c-5.9,7.2,0.4,21.6,4.2,28.5c3.7,6.7,13.6,0.9,10.2-5.8c-1.5-3-2.8-6.1-4-9.3
					c-3.6,1.5-7.2,2.9-10.8,4.4c2,4.1,3.8,8.2,5.3,12.5c3.3-1.9,6.6-3.8,9.8-5.6c-1.3-1.1-2.4-2.1-3.1-3.7c-0.6-1.3-0.1-3.2-1.4-2.6
					c-1.5,0.2-2.9,0.4-4.4,0.6c5.7,1.4,10.3,7.2,14.3,11.2c4.7,4.7,12.5-1.3,9.3-7.1c-3.8-6.7-7.9-13.1-12.4-19.4
					c-3.1,2.4-6.2,4.7-9.3,7.1c4.4,5.2,8.9,10.5,13.3,15.7c4.9,5.8,13.2-2.6,8.3-8.3c-4.4-5.2-8.9-10.5-13.3-15.7
					c-4.2-5-13.2,1.7-9.3,7.1c4.5,6.2,8.6,12.7,12.4,19.4c3.1-2.4,6.2-4.7,9.3-7.1c-5.2-5.3-17.4-19.2-25.7-12.7
					c-7.6,6-2.2,18.9,3.7,23.8c4,3.3,12,0.4,9.8-5.6c-1.9-5.2-4-10.3-6.5-15.3c-2.9-5.9-13.1-1.9-10.8,4.4c1.5,4.1,3.2,8.2,5.1,12.1
					c3.4-1.9,6.8-3.9,10.2-5.8c-1.3-2.3-5.8-11.1-4.7-14.1c-1-0.8-0.9-0.9,0.4-0.6c1,0.1,2.1,0.3,3.1,0.6c2.9,0.6,5.6,1.7,8.2,2.9
					c6.8,3.2,12.3-6.2,5.8-10.2c-4.1-2.5-7.5-5.4-10.8-8.9c-2.8,2.8-5.5,5.5-8.3,8.3c6.5,7,12.9,14.1,19.1,21.3
					c1.9-3.3,3.8-6.6,5.6-9.8c-3.9-1.5-7.3-4-9.8-7.4c-1.7,2.9-3.4,5.9-5.1,8.8c6.2,0.4,12.1,1.8,17.9,3.9
					c6.2,2.3,10.4-7.9,4.4-10.8c-3.5-1.7-6.6-3.6-9.5-6.1c-2.8,2.8-5.5,5.5-8.3,8.3c1.3,0.8,2.3,1.9,3,3.3c2.4-2.4,4.8-4.8,7.2-7.2
					c-3.5-1-6.9-2.3-10.1-4c-5.8-3-11.8,4.4-7.1,9.3c2.4,2.5,4.9,4.8,7.6,7C249.3,292.4,257.7,284.2,251.8,279.4L251.8,279.4z"/>
			</g>
			<g id="XMLID_534_">
				<path id="XMLID_494_" class="st3" d="M257.3,302.1c-1.8-2.1-3.5-4.2-5.3-6.2c-3.9-4.6-11.3,0.3-9.8,5.6c1.9,7.3,3.7,14.3,4,21.9
					c3.7-1,7.3-1.9,11-2.9c-4.8-6.5-7.1-13-7.2-21.2c-3.7,1-7.3,1.9-11,2.9c4,7.7,5.6,15.9,4.3,24.6c3.3-0.9,6.6-1.8,9.8-2.7
					c-3.4-3.6-6.2-7.5-8.7-11.8c-3.2-5.6-13.2-2-10.8,4.4c1.9,5.1,3.8,10.1,5.7,15.2c3.6-1.5,7.2-2.9,10.8-4.4
					c-1.7-3.6-3.4-7.1-5.1-10.7c-3.4,1.9-6.8,3.9-10.2,5.8c1.9,4,4.3,8.2,8.3,10.6c1.6,1,4.2,1.1,5.8,0c2.4-1.7,3.2-2.9,4-5.6
					c0.7-2.3,0-11,2.6-12.1c-1.9,0-3.9,0-5.8,0c5.6,3.5,10.6,9.5,15.5,14c3.9,3.6,12.1,0.2,9.8-5.6c-3.5-9.3-9.1-16.9-15.4-24.5
					c-2.8,2.8-5.5,5.5-8.3,8.3c5,5.9,10.8,10.4,17.8,13.7c4.3,2,10.2-1.4,8.6-6.6c-3.6-11.5-10.1-20.4-19.7-27.7
					c-4.1-3.1-10,2.1-8.6,6.6c3,9.8,14.9,31.7,28.6,24.3c11.4-6.1,1.1-25.2-8.2-27.9c-13.2-3.9-11.7,17.7-4.8,23.2
					c10.4,8.3,25.7-1.5,21.2-14.4c-1.9-5.5-9.7-5.9-11.4,0c-0.7,2.3-0.4,3.6-0.8,5.8c0,0.9,0.2,1.7,0.5,2.6c0.7,1.2,0.3,1.6-1.3,1.3
					c-1.8,2.9-5.6,5.4-7.9,7.8c-0.9,0.9-1.8,1.7-2.6,2.6c-3.9,2.6-4.9,6.5-3.1,11.6c-2.5-1.9-4.9-3.8-7.4-5.7c0,0.1,0,0.3,0,0.4
					c2-2,3.9-3.9,5.9-5.9c-0.1,0-0.2,0-0.3,0c1.9,2.5,3.8,4.9,5.7,7.4c0.2-1.1,0.3-2.2,0.5-3.3c1.1-7.4-10.3-10.5-11.4-3
					c-0.2,1.1-0.3,2.2-0.5,3.3c-0.5,3.4,1.5,7.7,5.7,7.4c0.1,0,0.2,0,0.3,0c3.3-0.3,5.7-2.5,5.9-5.9c0-0.1,0-0.3,0-0.4
					c0.2-4.1-3.9-6.2-7.4-5.7c-10.7,1.6-6.1,19.1,4.6,16.1c6.6-1.9,12.9-11.1,17.7-15.8c2.5-2.5,6.4-5.2,7.6-8.7
					c1-3.1-1.1-5.8-0.2-8.9c-3.8,0-7.6,0-11.4,0c-1.2,0.1-2.4,0.3-3.7,0.4c-4.2-0.9-5.2-0.3-2.9,1.7c0.8,0.8,1.4,1.7,1.9,2.6
					c0.5,1.5,0.9,1.5,1.1,0.1c-4.5-5.3-8.4-9-10.6-16c-2.9,2.2-5.7,4.4-8.6,6.6c7,5.3,11.6,12.1,14.2,20.4c2.9-2.2,5.7-4.4,8.6-6.6
					c-6.1-2.9-10.9-6.6-15.3-11.8c-4.9-5.8-13.1,2.5-8.3,8.3c4.9,6,9.6,11.9,12.3,19.2c3.3-1.9,6.6-3.8,9.8-5.6
					c-5.2-4.8-14.9-18.5-23.1-16.2c-3.4,1-4.8,3.3-6.1,6.4c-1.1,2.5-1.6,5.2-2.1,7.8c-0.2,1.1-1.7,5.6,0.9,3.8c1.9,0,3.9,0,5.8,0
					c-1.7-1.8-3-3.9-3.8-6.1c-3.3-6.8-13.5-1-10.2,5.8c1.7,3.6,3.4,7.1,5.1,10.7c2.8,5.9,13.2,1.9,10.8-4.4
					c-1.9-5.1-3.8-10.1-5.7-15.2c-3.6,1.5-7.2,2.9-10.8,4.4c3,5.2,6.5,9.9,10.6,14.3c2.8,3,9.2,1.8,9.8-2.7
					c1.7-11.8,0-22.7-5.5-33.4c-2.7-5.3-11-2.8-11,2.9c0,9.9,2.8,19,8.7,27c3.2,4.3,11.3,3.6,11-2.9c-0.3-8.5-2.2-16.6-4.4-24.9
					c-3.3,1.9-6.6,3.8-9.8,5.6c1.8,2.1,3.5,4.2,5.3,6.2C253.8,316.2,262.1,307.9,257.3,302.1L257.3,302.1z"/>
			</g>
			<path id="XMLID_530_" class="st4" d="M289.2,304.4c0.9-0.9,1.7-1.9,2.4-2.9c2.2-3.2,3.3-6.9,3.4-10.6c0-0.1,0-0.2,0-0.4
				c0-4-1.1-8-3.5-11.4l-20.9-7.8c-3.4,0.8-6.5,2.5-9.2,5.2c-0.3,0.3-0.7,0.7-1,1.1c-6.7,7.7-6.3,19.4,1,26.8
				C269,312.1,281.5,312.1,289.2,304.4z M268,283.2c0.7-0.7,1.6-1.3,2.4-1.8c3.9-2.1,8.9-1.5,12.1,1.8c1.1,1.1,1.8,2.3,2.3,3.6
				c1.4,3.7,0.6,8-2.4,10.9c-0.8,0.8-1.8,1.5-2.8,1.9c0.1-0.7,0.1-1.5-0.2-2.2c-0.1-0.3-0.2-0.5-0.3-0.8c3.6-2.8,3-8.3,0.3-11.9
				c-3.2-4.2-10.3-4.7-12.5,0.9c-0.1,0.3-0.2,0.5-0.2,0.8c-0.4,0.2-0.8,0.5-1.2,0.8C266,285.7,266.8,284.4,268,283.2z M272.8,287.1
				C272.9,287.1,272.9,287.1,272.8,287.1c0.2,0.1,0.4,0.2,0.6,0.4C273.3,287.4,273,287.3,272.8,287.1z"/>
			<g id="XMLID_528_">
				<path id="XMLID_529_" class="st4" d="M278.4,304.4c1.6-0.5,3.1-1.2,4.4-2.1c2.5-1.7,4-5.2,2.2-8c-1.6-2.5-5.3-4.1-8-2.2
					c-0.4,0.3-0.8,0.5-1.3,0.8c-0.2,0.1-0.4,0.2-0.6,0.3c0.8-0.3,0.8-0.3,0.2-0.1c-2.9,1-5.2,4-4.2,7.2
					C272.1,303,275.3,305.5,278.4,304.4L278.4,304.4z"/>
			</g>
			<g id="XMLID_526_">
				<path id="XMLID_527_" class="st4" d="M287,286.5c-1.4-1.7-2.7-3.6-4.2-5.2c-0.9-0.9-2-1.8-3.3-2.1c-0.6-0.2-1.3-0.2-1.9-0.3
					c0.9,0.1-0.5-0.1-0.8-0.1c-5.7-0.8-10.6,1.6-12.5,7.3c-1,3,1.3,6.4,4.2,7.2c3.2,0.8,6.2-1.2,7.2-4.2c-0.1,0.4-1.4,1.5-1.5,1.2
					c0,0,5.7,1.4,1.6-0.1c-2.2-0.8-1.2-0.3-0.5,0.5c0.4,0.4,0.7,0.9,1.1,1.3c0.8,1,1.6,2,2.4,2.9c2,2.5,6.2,2.1,8.3,0
					C289.4,292.4,289,289,287,286.5L287,286.5z"/>
			</g>
			<path id="XMLID_525_" class="st4" d="M239.3,326.7C239.4,326.7,239.4,326.7,239.3,326.7c2.3-1,4.4-2.4,6.2-4.2
				c7.7-7.7,7.7-20.2,0-27.8c-5.4-5.4-13.1-7-19.9-4.9c0,0,0,0,0,0c-2.9,0.9-5.7,2.5-7.9,4.8l-0.2,0.2l2.5,6.7l0.9,2.3h0l0.3,0.8
				l2.6,7.1l0.7,1.8l2.5,6.8c0,0,0,0,0,0l3,7.9C233.1,328.5,236.4,328,239.3,326.7z"/>
			<path id="XMLID_524_" class="st4" d="M211.4,278.5l-0.5-1.3c0,0,0,0,0,0l-2.2-5.9c0,0,0,0,0,0l-1.2-3.1l0,0c0,0,0,0,0,0l-0.2-0.6
				c0,0,0,0,0-0.1l-0.3-0.8l-0.2-0.5l-0.3-0.7c0-0.1-0.1-0.2-0.1-0.3l-1.7-4.6l0,0l-3.5-9.4l-0.5-1.3l-0.1-0.4l-1.7-4.7l4.6,1.7
				l0.4,0.1l3,1.1l9.6,3.6l2.8,1l3.3,1.2c0,0,0,0,0,0l0.8,0.3l3.2,1.2c0,0,0,0,0,0l0.4,0.2l6.8,2.5c-0.1,1.2-0.3,2.3-0.7,3.5
				c-0.2,0.6-0.3,1.1-0.5,1.7c-0.4,1.3-1,2.5-1.7,3.8c-1,1.8-2.3,3.5-3.9,5.1c-1.9,1.9-4.1,3.4-6.4,4.5c-1,0.5-2,0.9-3.1,1.2
				c-0.5,0.2-1,0.3-1.5,0.4C214.4,278.2,212.9,278.5,211.4,278.5z"/>
			<path id="XMLID_521_" class="st5" d="M242.5,363.8c14.9,7.3,27.1-2.3,31.6-8.6c2.6-2.9,10-10.1,16.3-12.2
				c12.6-4.1,20.5-14.3,21.5-27.8c0.4-5,1.5-9.4,2.5-13.3c0.8-3.3,1.6-6.4,1.8-9.3c0.1-2.9-0.3-5.5-2.1-8c-2.2-3.1-5.4-5-9.1-5.3
				c-2.8-0.2-5.7,0.5-8.3,1.8c-1.4,0.7-2.7,1.7-3.8,2.8c-1.1,1.1-2,2.7-2.9,4.7c0,0.1-0.1,0.2-0.1,0.3c-1.4,3.1-2.5,7-3.4,10.6
				c-0.8,3-1.4,5.9-1.7,7.9c-0.7,1.7-4.7,10.7-15.2,16.2c-7.9,4.1-13.9,5.6-18.2,6.7c-3.1,0.8-5.5,1.4-7.5,2.7
				c-0.5,0.3-1.1,0.7-1.8,1.3c-0.8,0.6-1.7,1.4-2.7,2.4c-1.5,1.5-3.1,3.4-4.4,5.6c-1.5,2.6-2.6,5.6-2.4,8.8
				C232.9,354.8,234.8,359.9,242.5,363.8z"/>
		</g>
		<g id="XMLID_492_">
			<g id="XMLID_515_">
				<path id="XMLID_516_" class="st2" d="M300.3,206.2c2.2-1.1,4.2-2.6,6-4.4c1.3-1.3,2.5-2.8,3.4-4.3l-7.3-19.5l-6.5-17.4
					c-4.2-1.3-8.6-1.4-12.8-0.4c-4.4,1-8.5,3.2-11.9,6.6c-9.7,9.7-9.7,25.4,0,35C279.2,209.7,291,211.2,300.3,206.2z M279.7,175.2
					c2.2-2.2,4.9-3.4,7.7-3.7c3.8-0.4,7.7,0.8,10.6,3.7c5,5,5,13.2,0,18.3c-0.6,0.6-1.2,1.1-1.8,1.5c-5,3.5-12,3-16.5-1.5
					C274.6,188.5,274.6,180.2,279.7,175.2z"/>
			</g>
			<g id="XMLID_502_">
				<path id="XMLID_508_" class="st2" d="M231.1,365.4c18.7,9.2,34-2.9,39.7-10.8c3.2-3.6,12.6-12.7,20.5-15.3
					c15.9-5.2,25.7-17.9,27-35c0.5-6.3,1.9-11.8,3.2-16.7c1.1-4.2,2.1-8.1,2.3-11.7c0.2-3.6-0.4-7-2.6-10c-2.7-3.9-6.8-6.2-11.5-6.6
					c-3.5-0.3-7.2,0.6-10.5,2.3l-13.1-4.9l-26.3-9.8l-19.1-7.1l-18.8-7l-16.2-6c0,0,0,0,0,0l-7.7-2.9l-16.3-6.1l-5.8-2.2l2.2,5.9
					l7.4,19.9c0,0.1,0.1,0.3,0.2,0.4l7.2,19.3l4.1,11l3.1,8.4l2.1,5.6l5.2,14l5.2,14l9.1,24.4c-1.9,3.3-3.2,7.1-3,11.1
					C219,354.1,221.4,360.6,231.1,365.4z M311.7,272.8c1.1,1.7-0.2,6.9-1.5,12c-1.3,5.1-2.9,11.5-3.5,18.7
					c-1.3,16.4-12.4,22.5-18.9,24.6c-12.8,4.2-25.4,18.4-25.9,19l-0.4,0.5c-1.1,1.5-10.7,14.3-25.1,7.3c-3.7-1.8-5.6-3.8-5.7-5.8
					c0-0.9,0.2-1.8,0.6-2.8c1.6-3.8,5.9-7.9,8-9.2c1-0.6,3.5-1.2,6.1-1.9c5.7-1.4,14.4-3.6,25.5-9.5c5.4-2.8,9.8-6.3,13.2-9.7
					c8.5-8.5,11.5-17.1,11.7-17.6l0.2-0.8c1.9-10.7,5.3-21.9,7.1-23.9c1-1,2.3-1.8,3.7-2.2c0.8-0.2,1.5-0.3,2.3-0.3
					c0.9,0.1,1.6,0.4,2.3,1C311.3,272.3,311.5,272.5,311.7,272.8z M281.2,269.3c1.3,1.3,2.3,2.9,2.9,4.5c1.7,4.6,0.7,10.1-3,13.8
					c-5,5-13.2,5-18.3,0c-5-5-5.1-13.3,0-18.3c0.9-0.9,2-1.7,3.1-2.3C270.8,264.5,277,265.2,281.2,269.3z M247.2,254.8l10.1,3.8
					c-1,0.7-2,1.5-2.9,2.4c-0.4,0.4-0.9,0.9-1.3,1.4c-8.4,9.7-7.9,24.4,1.3,33.7c7,7,17.1,8.9,25.9,5.8c-3,4.2-7.8,9.5-15.1,13.3
					c-9.9,5.2-17.4,7.1-22.9,8.5c-3.9,1-6.9,1.8-9.4,3.3c-0.6,0.4-1.4,0.9-2.2,1.6l-3.6-9.7c1.1-0.3,2.1-0.6,3.1-1.1
					c2.8-1.2,5.4-2.9,7.7-5.2c9.6-9.6,9.6-25.4,0-35c-6.7-6.7-16.4-8.8-25-6.1c-1,0.3-2.1,0.7-3.1,1.2l-1.6-4.3
					c1.2-0.2,2.3-0.5,3.5-0.8c3.7-1.1,7-3.2,9.9-6c2.7-2.7,4.6-5.9,5.8-9.2c0.5-1.4,0.8-2.9,1.1-4.3l8.2,3.1L247.2,254.8z
					 M214,283.7c1-0.5,2-1,3-1.2c4.3-1.1,9.1,0,12.5,3.3c5,5,5,13.2,0,18.3c-1,1-2.2,1.9-3.5,2.5c-1,0.5-2,0.8-3.1,1l-2.5-6.6
					L214,283.7z M201.2,249.2l-5-13.5l13.8,5.1l7.1,2.6c0,1.5-0.2,3-0.6,4.5c-0.6,1.8-1.7,3.6-3.1,5c-1.6,1.6-3.6,2.7-5.7,3.3
					c-1.2,0.3-2.4,0.5-3.6,0.5L201.2,249.2z"/>
				<path id="XMLID_503_" class="st2" d="M204.2,197.2l0.7,0.3l33.2,12.4l23.7,8.8l64.8,24.2l-16.9-45.3l-7.3-19.5l-6.5-17.4
					l-14.4-38.6l-0.1-0.3c1.3-1.5,2.4-3.3,3.1-5.2c1.3-2.8,1.8-5.9,1.6-8.8c-0.4-4.6-2.8-8.7-6.6-11.5c-3-2.2-6.4-2.8-10-2.6
					c-3.6,0.2-7.5,1.2-11.7,2.3c-4.9,1.3-10.5,2.7-16.7,3.2c-10.2,0.8-18.9,4.7-25.4,11.1c-4.2,4.2-7.5,9.6-9.6,15.9
					c-2.6,7.9-11.7,17.3-15.3,20.5c-7.9,5.7-19.9,21-10.8,39.7c4.8,9.8,11.3,12.1,15.9,12.4C198.8,199,201.6,198.3,204.2,197.2z
					 M236.6,178.3c5,5,5,13.3,0,18.3l-0.1,0.1l-21.2-7.9c1.4-1.5,2.5-3,3.1-4c0,0,0-0.1,0.1-0.1c1.5-2.4,2.3-5.3,3.2-8.8
					C226.6,173.5,232.6,174.3,236.6,178.3z M272.3,131.1l2.9,7.7l8,21.5l4.2,11.2l4,10.7l4.8,12.8l4.2,11.3l6.2,16.5l-40.6-15.1
					l-17.7-6.6c6.3-9.6,5.2-22.7-3.2-31.1c-5.3-5.3-12.4-7.7-19.3-7.2c1.2-3.1,2.7-6.6,4.7-10.4c0.9-1.6,1.8-3.1,2.7-4.5
					c2.6-3.7,5.4-6.6,8.1-8.8c4.5-3.7,8.4-5.4,9.5-5.8c3.4-0.6,8.5-1.7,13.7-3.1c2.3-0.6,4.6-1.4,6.8-2.2L272.3,131.1z M190.7,181.3
					c-7.2-14.7,6.6-24.6,7.2-25l0.5-0.4c0.2-0.2,1.4-1.2,3.1-2.9c1.7-1.7,3.9-4,6.1-6.7c2.9-3.4,5.8-7.6,7.9-11.9
					c0.7-1.4,1.3-2.9,1.8-4.4c1.9-5.7,6.7-14.9,18.9-18c1.7-0.4,3.6-0.8,5.7-0.9c6.5-0.5,12.3-1.9,17.1-3.1c0.5-0.1,1.1-0.3,1.6-0.4
					c5.1-1.3,10.3-2.6,12-1.5c1,0.7,1.5,1.5,1.7,2.7c0,0,0,0.1,0,0.1c0.2,1.9-0.8,4.3-2.5,5.9c-0.3,0.3-0.8,0.5-1.4,0.8
					c-2.5,1.2-7.5,2.8-13.3,4.3c-2.9,0.7-6.1,1.4-9.2,2l-0.8,0.2c-0.3,0.1-3.2,1.1-7.2,3.6c-3.7,2.2-8.4,5.6-12.8,10.7
					c-0.6,0.6-1.1,1.3-1.7,1.9c-1.9,2.4-3.8,5.2-5.4,8.3c-0.1,0.1-0.2,0.3-0.2,0.4c-4.7,8.9-7,16.2-8.5,21.7c-0.4,1.4-0.7,2.6-1,3.7
					c-0.7,2.6-1.3,5.1-1.9,6.1c-0.2,0.3-0.5,0.7-0.8,1.1c-1.1,1.4-2.9,3.2-4.8,4.7c-0.9,0.7-2,1.4-2.9,1.9c-1,0.5-2.1,0.8-3.1,0.8
					c-0.3,0-0.5,0-0.7,0c-0.1,0-0.1,0-0.1,0C194.1,186.6,192.3,184.7,190.7,181.3z"/>
			</g>
			<g id="XMLID_493_">
				<path id="XMLID_495_" class="st2" d="M238.6,130.9c0-0.2,0-0.4,0-0.5c0.1-1.7,0.6-3.3,1.3-4.8c-3.7,2.2-8.4,5.6-12.8,10.7
					c0,0.2,0.1,0.4,0.1,0.6c0.1,0.5,0.3,1.1,0.4,1.6C231.2,135.5,234.8,133,238.6,130.9z M238.6,130.9c0-0.2,0-0.4,0-0.5
					c0.1-1.7,0.6-3.3,1.3-4.8c-3.7,2.2-8.4,5.6-12.8,10.7c0,0.2,0.1,0.4,0.1,0.6c0.1,0.5,0.3,1.1,0.4,1.6
					C231.2,135.5,234.8,133,238.6,130.9z M269,148.9c2.9-2.9,5-6.4,6.1-10.1c1.3-4.1,1.4-8.5,0.5-12.6c-0.8-3.5-2.3-6.9-4.6-9.8
					c-0.2-0.3-0.4-0.5-0.5-0.7c-2.5,1.2-7.5,2.8-13.3,4.3c1.3,0.6,2.4,1.4,3.4,2.4c0.1,0.1,0.3,0.3,0.4,0.4c0.4,0.4,0.8,0.9,1.1,1.4
					c1.3,1.8,2,4,2.2,6.1c0.3,3.7-0.9,7.5-3.7,10.3c-5,5-13.3,5.1-18.3,0c-0.4-0.4-0.9-0.9-1.2-1.4c-1.8-2.4-2.7-5.3-2.6-8.3
					c0-0.2,0-0.4,0-0.5c0.1-1.7,0.6-3.3,1.3-4.8c-3.7,2.2-8.4,5.6-12.8,10.7c0,0.2,0.1,0.4,0.1,0.6c0.1,0.5,0.3,1.1,0.4,1.6
					c1,3.4,2.8,6.7,5.3,9.5c0.3,0.3,0.6,0.6,0.9,1C243.7,158.5,259.4,158.5,269,148.9z M242,110.9c6.5-0.5,12.3-1.9,17.1-3.1
					c-7.7-2.5-16.2-1.1-22.8,4C238.1,111.4,240,111.1,242,110.9z M238.6,130.9c0-0.2,0-0.4,0-0.5c0.1-1.7,0.6-3.3,1.3-4.8
					c-3.7,2.2-8.4,5.6-12.8,10.7c0,0.2,0.1,0.4,0.1,0.6c0.1,0.5,0.3,1.1,0.4,1.6C231.2,135.5,234.8,133,238.6,130.9z M238.6,130.9
					c0-0.2,0-0.4,0-0.5c0.1-1.7,0.6-3.3,1.3-4.8c-3.7,2.2-8.4,5.6-12.8,10.7c0,0.2,0.1,0.4,0.1,0.6c0.1,0.5,0.3,1.1,0.4,1.6
					C231.2,135.5,234.8,133,238.6,130.9z"/>
			</g>
		</g>
	</g>
</g>
</svg>
