<?xml version="1.0" encoding="utf-8"?>
<!-- Generator: Adobe Illustrator 19.0.0, SVG Export Plug-In . SVG Version: 6.00 Build 0)  -->
<svg version="1.1" id="Warstwa_1" xmlns="http://www.w3.org/2000/svg" xmlns:xlink="http://www.w3.org/1999/xlink" x="0px" y="0px"
	 viewBox="0 0 500 500" style="enable-background:new 0 0 500 500;" xml:space="preserve">
<style type="text/css">
	.st0{fill:#FBBF2C;}
	.st1{fill:none;stroke:#000000;stroke-width:3;stroke-linecap:round;stroke-miterlimit:10;}
</style>
<g id="XMLID_410_">
	<g id="XMLID_432_">
		<g id="XMLID_770_">
			<circle id="XMLID_591_" class="st0" cx="273.7" cy="268.1" r="120.7"/>
		</g>
	</g>
	<g id="XMLID_430_">
		<g id="XMLID_445_">
			<path id="XMLID_493_" d="M292.4,487c-0.4,0.4-0.9,0.6-1.5,0.5l-16.9-0.1c0.3,2.1,1.2,3.8,2.8,5c1.5,1.3,3.4,1.9,5.7,1.9
				c0.9,0,1.8-0.2,2.8-0.5c1-0.3,1.8-0.7,2.4-1.2c0.4-0.3,0.9-0.5,1.5-0.5c0.6,0,1,0.2,1.3,0.5c0.5,0.4,0.8,1,0.8,1.5
				c0,0.5-0.2,1-0.7,1.3c-1,0.8-2.3,1.4-3.8,1.9c-1.5,0.5-2.9,0.7-4.3,0.7c-2.4,0-4.6-0.6-6.5-1.6c-1.9-1.1-3.4-2.5-4.5-4.4
				c-1.1-1.9-1.6-4-1.6-6.4s0.5-4.5,1.6-6.4c1-1.9,2.5-3.3,4.3-4.4c1.8-1,3.9-1.6,6.2-1.5c2.3,0,4.2,0.5,5.9,1.5
				c1.7,1,2.9,2.4,3.8,4.2s1.3,3.9,1.3,6.2C293,486.1,292.8,486.6,292.4,487z M276.7,479.1c-1.4,1.2-2.2,2.8-2.6,4.7l14.8,0.1
				c-0.3-2-1-3.6-2.2-4.8c-1.2-1.2-2.8-1.8-4.7-1.8C279.9,477.4,278.1,477.9,276.7,479.1z"/>
			<path id="XMLID_578_" d="M282.6,499.6C282.6,499.6,282.6,499.6,282.6,499.6c-2.7,0-5.1-0.6-7.3-1.8c-2.1-1.2-3.8-2.8-5-4.9
				c-1.2-2.1-1.8-4.4-1.8-7.1c0-2.6,0.6-5,1.7-7c1.2-2.1,2.8-3.7,4.8-4.9c2-1.2,4.4-1.7,6.9-1.7c2.5,0,4.8,0.6,6.6,1.7
				c1.9,1.2,3.3,2.8,4.3,4.8c1,2,1.4,4.3,1.4,6.8c0,0.9-0.4,1.8-1,2.4c-0.6,0.6-1.4,0.8-2.4,0.9l-15.1-0.1c0.4,1,1,1.9,1.9,2.6
				c1.3,1.1,2.9,1.6,4.8,1.6c0.7,0,1.5-0.1,2.3-0.4c0.8-0.3,1.5-0.6,2-1c0.6-0.5,1.4-0.7,2.3-0.8c0.9,0,1.7,0.3,2.3,0.8
				c1,0.8,1.2,1.8,1.2,2.5c0,1-0.5,1.8-1.3,2.4c-1.1,0.9-2.5,1.6-4.2,2.1C285.7,499.3,284.1,499.6,282.6,499.6z M281.9,474.9
				c-2,0-3.9,0.5-5.4,1.4c-1.6,0.9-2.8,2.2-3.8,3.8c-0.9,1.7-1.4,3.6-1.4,5.7c0,2.1,0.5,4,1.4,5.7c1,1.7,2.2,2.9,3.9,3.9
				c1.7,0.9,3.7,1.4,5.9,1.4c1.3,0,2.5-0.2,3.8-0.7c1.3-0.4,2.5-1,3.3-1.7c0.2-0.1,0.2-0.2,0.2-0.2c0,0,0-0.2-0.3-0.4
				c-0.1-0.1-0.2-0.1-0.5-0.1c-0.2,0-0.4,0.1-0.6,0.2c-0.8,0.6-1.7,1-2.8,1.4c-1.1,0.4-2.1,0.6-3.2,0.5c-2.6,0-4.8-0.8-6.6-2.3
				c-1.8-1.5-2.9-3.5-3.3-5.9l-0.2-1.6l18.5,0.1c0,0,0,0,0,0c0.3,0,0.4-0.1,0.5-0.2c0.1-0.1,0.2-0.2,0.2-0.4c0-2.1-0.4-4-1.2-5.6
				c-0.8-1.6-1.8-2.8-3.3-3.7C285.8,475.4,284,475,281.9,474.9C282,474.9,282,474.9,281.9,474.9z M290.5,485.3l-18-0.1l0.3-1.6
				c0.4-2.3,1.4-4.1,3-5.5h0c1.6-1.4,3.7-2,6.2-2.1c2.3,0,4.2,0.8,5.7,2.2c1.4,1.4,2.3,3.3,2.6,5.6L290.5,485.3z M276,482.5
				l11.2,0.1c-0.3-0.9-0.8-1.7-1.4-2.4c-1-0.9-2.2-1.4-3.8-1.4c-1.8-0.1-3.3,0.4-4.4,1.4l0,0C276.9,480.8,276.4,481.6,276,482.5z"/>
		</g>
		<g id="XMLID_492_">
			<path id="XMLID_495_" d="M313.3,495.3c-1.9-0.3-3.3-0.9-4.5-1.8c-0.4-0.3-0.7-0.7-0.8-1.3c-0.1-0.7,0.1-1.3,0.6-1.8
				c0.5-0.5,1-0.8,1.4-0.8c0.6-0.1,1.2,0.1,1.8,0.5c0.7,0.5,1.6,0.9,2.7,1.2c1.2,0.3,2.4,0.3,3.7,0.1c1.7-0.3,2.9-0.7,3.8-1.4
				c0.8-0.7,1.2-1.5,1-2.5c-0.1-0.9-0.7-1.6-1.7-2.1c-1-0.5-2.6-0.7-4.8-0.8c-5.8-0.2-8.9-2.1-9.5-5.7c-0.2-1.4,0-2.7,0.7-3.8
				c0.7-1.1,1.7-2,3-2.7c1.3-0.7,2.7-1.2,4.3-1.4c1.9-0.3,3.7-0.2,5.3,0.1c1.6,0.4,2.9,1.1,4,2c0.5,0.4,0.7,0.9,0.8,1.3
				c0.1,0.5-0.1,1-0.5,1.5c-0.3,0.3-0.7,0.5-1.2,0.5c-0.8,0.1-1.5-0.1-2.2-0.5c-0.8-0.6-1.7-0.9-2.5-1.1c-0.9-0.2-1.9-0.1-3,0
				c-1.3,0.2-2.4,0.6-3.2,1.2c-0.8,0.6-1.1,1.3-1,2.1c0.1,0.6,0.3,1.1,0.7,1.4c0.3,0.3,1,0.6,1.8,0.8c0.9,0.2,2.1,0.4,3.7,0.4
				c3.3,0.2,5.7,0.7,7.2,1.6c1.5,0.9,2.4,2.3,2.7,4.1c0.2,1.3,0,2.6-0.5,3.8c-0.6,1.2-1.5,2.2-2.8,3.1c-1.3,0.8-3,1.4-5,1.7
				C317.1,495.7,315.2,495.6,313.3,495.3z"/>
			<path id="XMLID_573_" d="M316.3,497c-1.1,0-2.2-0.1-3.3-0.3l0,0c-2-0.4-3.7-1.1-5.1-2c-0.7-0.5-1.2-1.3-1.3-2.2
				c-0.2-1.1,0.2-2.2,1-3c0.7-0.7,1.5-1.1,2.2-1.2c0.7-0.1,1.7,0,2.8,0.8c0.5,0.4,1.3,0.8,2.2,1c1,0.2,2.1,0.3,3.1,0.1
				c1.4-0.2,2.4-0.6,3.1-1.1c0.6-0.5,0.6-0.8,0.6-1.2c0-0.3-0.2-0.7-0.9-1c-0.6-0.3-1.8-0.6-4.3-0.7c-6.5-0.3-10.2-2.6-10.8-6.8
				c-0.3-1.8,0-3.4,0.9-4.8c0.8-1.3,2-2.4,3.5-3.2c1.4-0.8,3-1.3,4.7-1.6c2.1-0.3,4-0.3,5.8,0.2c1.8,0.4,3.4,1.2,4.6,2.3
				c0.7,0.6,1.1,1.3,1.2,2.1c0.1,0.6,0,1.6-0.9,2.6c-0.6,0.5-1.2,0.9-2,1c-1.1,0.2-2.2-0.1-3.2-0.7c-0.7-0.5-1.4-0.7-2-0.9
				c-0.7-0.1-1.6-0.1-2.6,0c-1.1,0.2-2,0.5-2.6,0.9c-0.5,0.4-0.5,0.6-0.5,0.8c0.1,0.4,0.2,0.6,0.3,0.6c0,0,0.3,0.3,1.2,0.5
				c0.8,0.2,1.9,0.3,3.5,0.4c3.6,0.2,6.1,0.8,7.8,1.9c1.9,1.2,3,2.9,3.3,5.1c0.2,1.6,0,3.2-0.6,4.6c-0.7,1.4-1.8,2.7-3.3,3.7
				c-1.5,0.9-3.3,1.6-5.5,1.9C318.3,496.9,317.3,497,316.3,497z M310.4,490.9C310.4,490.9,310.3,490.9,310.4,490.9
				c-0.1,0-0.4,0.1-0.7,0.5c-0.2,0.2-0.3,0.4-0.2,0.7c0,0.2,0.1,0.3,0.2,0.4c1,0.7,2.3,1.2,3.9,1.5l0,0c1.7,0.3,3.5,0.3,5.3,0.1
				c1.8-0.3,3.3-0.8,4.4-1.5c1.1-0.7,1.9-1.5,2.3-2.5c0.4-1,0.6-2,0.4-3c-0.2-1.4-0.9-2.4-2-3.2c-1.3-0.8-3.5-1.3-6.5-1.4
				c-1.7-0.1-3-0.3-4-0.5c-1.1-0.3-1.9-0.7-2.5-1.2c-0.6-0.6-0.9-1.3-1.1-2.2c-0.2-1.3,0.4-2.6,1.6-3.4c1-0.7,2.3-1.2,3.8-1.4
				c1.3-0.2,2.5-0.2,3.5,0c1.1,0.2,2.1,0.6,3.1,1.3c0.4,0.3,0.8,0.4,1.2,0.3c0.2,0,0.3-0.1,0.4-0.2c0.1-0.1,0.2-0.2,0.1-0.3
				c0-0.2-0.2-0.4-0.3-0.5c-0.9-0.8-2-1.4-3.4-1.7c-1.4-0.3-3-0.4-4.7-0.1c-1.4,0.2-2.7,0.6-3.8,1.3c-1.1,0.6-1.9,1.3-2.5,2.3
				c-0.5,0.8-0.7,1.8-0.5,2.9c0.2,1,0.6,4.2,8.2,4.5c2.4,0.1,4.2,0.4,5.4,0.9c1.8,0.8,2.4,2.1,2.5,3.1c0.2,1,0,2.4-1.5,3.7
				c-1.1,0.9-2.5,1.4-4.4,1.7c-1.4,0.2-2.8,0.2-4.2-0.2c-1.4-0.3-2.5-0.8-3.3-1.5C310.8,491,310.6,490.9,310.4,490.9z"/>
		</g>
		<g id="XMLID_494_">
			<path id="XMLID_497_" d="M355.2,482.7c0.5,0.3,0.8,0.8,1,1.4c0.2,0.6,0.1,1.2-0.2,1.7c-0.3,0.5-0.9,0.9-1.6,1.1l-0.8,0.2
				c-1.4,0.4-2.8,0.4-4.1,0c-1.4-0.4-2.6-1.1-3.6-2.2c-1-1.1-1.8-2.4-2.2-3.9l-3.1-10.5l-2,0.6c-0.6,0.2-1.1,0.1-1.6-0.1
				c-0.5-0.2-0.8-0.6-0.9-1.1c-0.2-0.6-0.1-1.1,0.2-1.5c0.3-0.4,0.7-0.8,1.3-0.9l2-0.6l-1.8-6.1c-0.2-0.6-0.1-1.2,0.1-1.7
				c0.3-0.5,0.7-0.9,1.4-1c0.6-0.2,1.2-0.1,1.7,0.1c0.5,0.3,0.9,0.7,1.1,1.4l1.8,6.1l3.6-1.1c0.6-0.2,1.1-0.1,1.6,0.1
				c0.5,0.2,0.8,0.6,1,1.2c0.2,0.5,0.1,1-0.2,1.4c-0.3,0.4-0.7,0.8-1.3,0.9l-3.6,1.1l3.1,10.5c0.3,1.1,0.9,2,1.8,2.6
				c0.9,0.6,1.7,0.7,2.6,0.5l1.5-0.4C354.2,482.3,354.7,482.4,355.2,482.7z"/>
			<path id="XMLID_569_" d="M351.3,488.9c-0.8,0-1.6-0.1-2.4-0.3c-1.6-0.4-3-1.3-4.2-2.5c-1.2-1.2-2-2.7-2.6-4.5l-2.7-9.2l-0.6,0.2
				c-0.9,0.3-1.8,0.2-2.6-0.2c-0.8-0.4-1.4-1.1-1.7-2c-0.3-0.9-0.2-1.8,0.3-2.6c0.4-0.7,1.2-1.3,2.1-1.6l0.6-0.2l-1.4-4.8
				c-0.3-1-0.2-1.9,0.3-2.8c0.5-0.8,1.2-1.4,2.2-1.7c1-0.3,1.9-0.2,2.8,0.2c0.8,0.5,1.4,1.2,1.7,2.2l1.4,4.8l2.3-0.7
				c0.9-0.3,1.8-0.2,2.6,0.2c0.8,0.4,1.4,1.1,1.7,2.1c0.3,0.9,0.2,1.8-0.3,2.5c-0.5,0.8-1.2,1.3-2.1,1.6l-2.3,0.7l2.7,9.2
				c0.2,0.8,0.6,1.4,1.2,1.8c0.5,0.3,1,0.4,1.5,0.3l1.4-0.4c0.9-0.3,1.8-0.1,2.6,0.4l0,0c0.8,0.5,1.3,1.2,1.6,2.2
				c0.3,1,0.2,2-0.4,2.9c-0.5,0.8-1.3,1.4-2.4,1.7l-0.8,0.2C353,488.8,352.2,488.9,351.3,488.9z M341.4,468.9l3.5,11.9
				c0.4,1.3,1,2.5,1.9,3.4c0.9,0.9,1.8,1.5,3,1.8c1.1,0.3,2.2,0.3,3.4,0l0.8-0.2c0.4-0.1,0.7-0.3,0.9-0.6c0.1-0.2,0.2-0.4,0.1-0.6
				c-0.1-0.4-0.3-0.5-0.4-0.6c-0.2-0.1-0.2-0.1-0.3-0.1l-1.5,0.4c-1.3,0.4-2.6,0.2-3.8-0.7c-1.1-0.8-1.9-1.9-2.3-3.3l-3.5-11.8
				l5-1.5c0.4-0.1,0.5-0.3,0.5-0.3c0.1-0.1,0.1-0.2,0-0.3c-0.1-0.3-0.2-0.3-0.2-0.4c-0.1,0-0.2-0.1-0.6,0l-4.9,1.5l-2.2-7.5
				c-0.1-0.3-0.3-0.5-0.4-0.5c-0.1-0.1-0.3-0.1-0.7,0c-0.3,0.1-0.5,0.2-0.5,0.4c-0.1,0.1-0.1,0.3,0,0.7l2.2,7.5l-3.3,1
				c-0.4,0.1-0.5,0.3-0.5,0.3c0,0.1-0.1,0.2,0,0.4c0,0.1,0.1,0.2,0.2,0.3c0.1,0,0.2,0.1,0.6,0L341.4,468.9z"/>
		</g>
		<g id="XMLID_496_">
			<path id="XMLID_499_" d="M371.1,480.6c-0.8-0.3-1.3-0.9-1.7-1.6c-0.3-0.8-0.3-1.6,0-2.4c0.3-0.8,0.9-1.3,1.6-1.7
				c0.8-0.3,1.5-0.3,2.3,0c0.8,0.3,1.4,0.9,1.7,1.7c0.3,0.8,0.3,1.5,0,2.3c-0.3,0.8-0.9,1.3-1.7,1.7
				C372.7,481,371.9,480.9,371.1,480.6z"/>
			<path id="XMLID_565_" d="M372.3,482.3c-0.6,0-1.1-0.1-1.7-0.4h0c-1.1-0.5-2-1.3-2.4-2.4c-0.5-1.1-0.5-2.3,0-3.4
				c0.5-1.1,1.3-2,2.4-2.4c1.1-0.5,2.3-0.5,3.4,0c1.1,0.5,2,1.3,2.4,2.4c0.5,1.1,0.5,2.2,0,3.4c-0.5,1.2-1.3,2-2.4,2.4
				C373.4,482.1,372.9,482.3,372.3,482.3z M371.7,479.3c0.5,0.2,0.8,0.2,1.3,0c0.4-0.2,0.7-0.5,0.9-0.9c0.2-0.4,0.2-0.8,0-1.3
				c-0.2-0.5-0.5-0.7-0.9-0.9c-0.4-0.2-0.9-0.2-1.3,0c-0.4,0.2-0.7,0.5-0.9,0.9c-0.2,0.5-0.2,0.9,0,1.3
				C370.9,478.9,371.2,479.2,371.7,479.3L371.7,479.3z"/>
		</g>
		<g id="XMLID_498_">
			<path id="XMLID_501_" d="M390.9,471.2c-0.6-0.2-1-0.5-1.3-1.1c-0.3-0.6-0.4-1.1-0.3-1.7l3.7-19.1c0.6-2.8,0.5-4.8-0.3-6.2
				c-1-1.7-2.1-2.8-3.6-3.3c-1.4-0.5-2.9-0.3-4.4,0.5c-1,0.5-1.7,1.3-2.2,2.2c-0.5,1-0.8,2-0.7,3.1c0,1.1,0.3,2.1,0.9,3.1
				c0.3,0.5,0.4,1.1,0.2,1.7c-0.2,0.6-0.5,1.1-1.1,1.4c-0.5,0.3-1.1,0.4-1.7,0.2c-0.6-0.2-1.1-0.5-1.3-1c-1-1.7-1.5-3.5-1.5-5.4
				c0-1.8,0.5-3.6,1.4-5.1c0.9-1.6,2.2-2.9,4-3.8c1.7-1,3.4-1.5,5.2-1.5c1.7,0,3.3,0.5,4.8,1.5c1.5,1,2.8,2.4,3.8,4.2
				c0.6,1.1,1,2.5,1,4.1c0,1.6-0.1,3.2-0.5,4.9l-3.1,15.1l10.8-6.2c0.6-0.3,1.2-0.4,1.8-0.2c0.6,0.2,1.1,0.5,1.4,1.1
				c0.3,0.5,0.4,1.1,0.2,1.7c-0.2,0.6-0.5,1.1-1.1,1.4l-14.3,8.1C392.1,471.3,391.5,471.4,390.9,471.2z"/>
			<path id="XMLID_561_" d="M391.5,472.7c-0.3,0-0.7,0-1-0.1l0,0c-0.9-0.3-1.7-0.9-2.2-1.7c-0.5-0.9-0.6-1.8-0.4-2.7l3.6-18.9
				c0.5-2.4,0.4-4.2-0.2-5.3c-0.8-1.4-1.7-2.3-2.8-2.7c-1-0.4-2.1-0.2-3.2,0.4c-0.7,0.4-1.3,1-1.7,1.7c-0.4,0.7-0.6,1.5-0.6,2.4
				c0,0.9,0.3,1.7,0.7,2.5c0.5,0.8,0.6,1.8,0.3,2.7c-0.2,1-0.8,1.7-1.7,2.2c-0.9,0.5-1.8,0.6-2.8,0.3c-1-0.3-1.7-0.8-2.2-1.7
				c-1.1-1.9-1.7-4-1.6-6c0-2.1,0.5-4,1.6-5.8c1-1.8,2.6-3.3,4.5-4.4c1.9-1.1,3.9-1.7,5.9-1.6c2,0,3.9,0.6,5.6,1.7
				c1.7,1.1,3.1,2.7,4.3,4.7c0.8,1.3,1.2,2.9,1.2,4.7c0,1.7-0.1,3.4-0.5,5.2l-2.5,12.1l8.1-4.6c0.9-0.5,1.9-0.6,2.8-0.4
				c1,0.3,1.7,0.9,2.2,1.7c0.5,0.9,0.6,1.8,0.3,2.8c-0.3,0.9-0.9,1.7-1.7,2.2l-14.3,8.1C392.7,472.5,392.1,472.7,391.5,472.7z
				 M387.4,438.2c0.7,0,1.4,0.1,2.1,0.4c1.7,0.6,3.2,1.9,4.3,3.9c1,1.7,1.1,4,0.5,7.2l-3.6,19c-0.1,0.2-0.1,0.4,0.1,0.7
				c0.1,0.2,0.3,0.4,0.5,0.4h0c0.2,0,0.4,0.1,0.7-0.1l14.3-8.1c0.2-0.1,0.4-0.3,0.4-0.6c0.1-0.3,0-0.4-0.1-0.7
				c-0.1-0.2-0.3-0.3-0.5-0.4c-0.3-0.1-0.5,0-0.7,0.1l-13.5,7.7l3.7-18.1c0.3-1.6,0.5-3.1,0.4-4.6c0-1.4-0.3-2.5-0.8-3.4
				c-0.9-1.7-2.1-2.9-3.4-3.8c-1.3-0.8-2.6-1.2-4.1-1.2c-1.6,0-3,0.4-4.5,1.3c-1.5,0.9-2.7,2-3.5,3.3c-0.8,1.4-1.2,2.8-1.2,4.4
				c0,1.6,0.4,3.2,1.3,4.7c0.1,0.1,0.2,0.3,0.5,0.4c0.3,0.1,0.4,0,0.7-0.1c0.2-0.1,0.4-0.3,0.4-0.5c0.1-0.2,0-0.4-0.1-0.6
				c-0.7-1.2-1-2.5-1.1-3.8c0-1.3,0.3-2.6,0.9-3.8c0.6-1.2,1.6-2.1,2.7-2.8C385.1,438.6,386.3,438.2,387.4,438.2z"/>
		</g>
		<g id="XMLID_500_">
			<path id="XMLID_504_" d="M421.5,447.3c-3.4-1.2-6.7-4-10.2-8.2c-3.4-4.3-5.4-8.2-5.8-11.7c-0.5-3.5,0.6-6.4,3.2-8.5
				c1.7-1.4,3.7-2,5.8-2c2.1,0.1,4.3,0.9,6.6,2.4c2.3,1.5,4.5,3.7,6.8,6.5c2.2,2.8,3.9,5.5,4.8,8c1,2.6,1.3,4.9,0.9,7
				c-0.4,2.1-1.4,3.8-3.2,5.2C427.9,448.1,424.9,448.5,421.5,447.3z M428.9,436.8c-0.7-2.5-2.2-5.2-4.6-8.2c-2.4-3-4.7-5-7-6.2
				c-2.3-1.2-4.2-1.2-5.7,0c-1.5,1.2-2,3.1-1.3,5.6s2.2,5.2,4.6,8.2c2.4,3,4.7,5.1,7,6.2c2.3,1.2,4.2,1.1,5.7-0.1
				C429.1,441.1,429.6,439.3,428.9,436.8z"/>
			<path id="XMLID_556_" d="M425.1,449.4c-1.3,0-2.6-0.3-4-0.8c-3.6-1.3-7.2-4.2-10.8-8.7c-3.6-4.4-5.6-8.6-6.1-12.4
				c-0.5-4,0.7-7.3,3.7-9.7c2-1.6,4.2-2.4,6.7-2.3c2.4,0.1,4.8,1,7.3,2.6c2.4,1.6,4.8,3.9,7.1,6.7c2.3,2.9,4,5.7,5.1,8.4
				c1.1,2.8,1.4,5.4,1,7.7c-0.4,2.4-1.7,4.5-3.7,6.1C429.4,448.6,427.3,449.4,425.1,449.4z M414.1,418.3c-1.7,0-3.2,0.5-4.5,1.7
				c-2.2,1.8-3.1,4.2-2.7,7.2c0.4,3.3,2.3,7,5.6,11c3.3,4.1,6.5,6.7,9.6,7.8h0c2.9,1,5.4,0.7,7.6-1.1c1.5-1.2,2.3-2.6,2.7-4.4
				c0.3-1.8,0-3.9-0.8-6.2c-0.9-2.4-2.5-5-4.6-7.6c-2.1-2.7-4.3-4.7-6.5-6.2c-2.1-1.4-4-2.1-5.9-2.2
				C414.3,418.3,414.2,418.3,414.1,418.3z M425,444.7c-1,0-2.3-0.3-3.7-1c-2.5-1.3-4.9-3.4-7.5-6.6c-2.5-3.1-4.1-6-4.9-8.7
				c-1-3.8,0.4-5.9,1.8-7c1.4-1.1,3.7-2,7.2-0.2c2.5,1.3,5,3.5,7.4,6.6c2.5,3.1,4.1,6,4.8,8.7l0,0c1,3.8-0.4,5.9-1.8,7
				C427.6,444.1,426.5,444.7,425,444.7z M414.2,422.9c-0.8,0-1.4,0.3-1.7,0.6c-0.7,0.6-1.5,1.6-0.8,4.1c0.6,2.3,2.1,4.9,4.3,7.7
				c2.3,2.8,4.5,4.8,6.6,5.9c2.3,1.2,3.5,0.6,4.2,0.1c0.7-0.6,1.5-1.6,0.8-4.1c-0.6-2.3-2.1-4.8-4.3-7.7c-2.2-2.8-4.4-4.8-6.6-5.9
				C415.6,423.1,414.8,422.9,414.2,422.9z"/>
		</g>
		<g id="XMLID_503_">
			<path id="XMLID_507_" d="M448.9,423.2c-3.5-0.7-7.3-2.9-11.3-6.5c-4.1-3.7-6.6-7.2-7.6-10.7c-1-3.4-0.4-6.4,1.9-8.9
				c1.5-1.6,3.3-2.6,5.4-2.8c2.1-0.2,4.4,0.2,6.9,1.3c2.5,1.1,5.1,2.9,7.7,5.3c2.7,2.4,4.7,4.8,6,7.2c1.4,2.4,2,4.6,2,6.7
				c0,2.1-0.8,4-2.3,5.6C455.3,423,452.4,423.9,448.9,423.2z M454.6,411.7c-1-2.3-3-4.8-5.8-7.3c-2.8-2.5-5.4-4.2-7.9-5.1
				c-2.5-0.8-4.3-0.5-5.6,0.9c-1.3,1.5-1.5,3.4-0.4,5.7c1.1,2.3,3,4.8,5.8,7.4c2.8,2.6,5.5,4.3,7.9,5.1c2.4,0.8,4.3,0.5,5.6-1
				C455.5,415.9,455.7,414,454.6,411.7z"/>
			<path id="XMLID_550_" d="M451.1,424.8c-0.8,0-1.6-0.1-2.4-0.2l0,0c-3.7-0.7-7.8-3-12-6.9c-4.2-3.8-6.9-7.6-8-11.3
				c-1.2-3.9-0.4-7.3,2.2-10.2c1.7-1.9,3.8-3,6.3-3.3c2.4-0.3,4.9,0.2,7.6,1.5c2.6,1.2,5.3,3.1,8.1,5.6c2.7,2.5,4.9,5,6.3,7.5
				c1.5,2.6,2.2,5.1,2.2,7.5c-0.1,2.5-0.9,4.7-2.7,6.5C456.6,423.7,454,424.8,451.1,424.8z M438.4,395.6c-0.3,0-0.7,0-1,0.1
				c-1.8,0.2-3.3,1-4.5,2.4c-1.9,2.1-2.5,4.6-1.6,7.6c0.9,3.2,3.4,6.5,7.2,10c3.8,3.5,7.4,5.6,10.7,6.2l0,0c3,0.6,5.4-0.2,7.4-2.3
				c1.3-1.4,1.9-2.9,1.9-4.7c0-1.9-0.6-3.9-1.8-6c-1.3-2.2-3.2-4.5-5.8-6.8c-2.5-2.3-5-4-7.4-5.1C441.7,396,440,395.6,438.4,395.6z
				 M450.9,420.1c-0.8,0-1.7-0.1-2.8-0.5c-2.6-0.8-5.4-2.7-8.4-5.4c-3-2.7-5-5.3-6.2-7.8c-1.6-3.6-0.5-5.9,0.7-7.2
				c1.2-1.3,3.4-2.6,7.1-1.3c2.6,0.9,5.4,2.7,8.4,5.3c3,2.7,5,5.3,6.1,7.8c1.6,3.6,0.5,5.9-0.7,7.2
				C454.4,419.2,453,420.1,450.9,420.1z M438.5,400.2c-1.2,0-1.8,0.5-2.2,0.9c-0.6,0.7-1.3,1.8-0.2,4.2c1,2.2,2.8,4.5,5.5,6.9
				c2.7,2.4,5.2,4.1,7.4,4.8c2.5,0.8,3.5,0.1,4.1-0.6c0.6-0.7,1.3-1.8,0.2-4.2l0,0c-1-2.1-2.8-4.5-5.5-6.9c-2.7-2.4-5.1-4-7.4-4.8
				C439.7,400.3,439,400.2,438.5,400.2z"/>
		</g>
		<g id="XMLID_506_">
			<path id="XMLID_473_" d="M476.8,393.8c-1.8,0.9-3.6,1.3-5.6,1.2c-2-0.1-3.9-0.8-5.6-1.9c-0.5-0.4-0.9-0.8-1-1.4
				c-0.1-0.6,0-1.1,0.3-1.7c0.4-0.5,0.8-0.9,1.4-1c0.6-0.1,1.2,0,1.7,0.3c1.1,0.7,2.2,1.1,3.4,1.1c1.2,0.1,2.3-0.2,3.4-0.7
				c1.1-0.5,1.9-1.3,2.6-2.4c0.7-1.1,1.1-2.2,1.1-3.4c0.1-1.2-0.2-2.3-0.7-3.4c-0.5-1.1-1.4-1.9-2.4-2.6c-1.1-0.7-2.2-1.1-3.4-1.1
				c-1.2-0.1-2.3,0.2-3.4,0.7c-1.1,0.5-1.9,1.4-2.6,2.4l-4,6.2c-0.4,0.5-0.8,0.9-1.4,1c-0.6,0.1-1.2,0-1.7-0.4l-10.1-6.5
				c-0.5-0.4-0.9-0.8-1-1.4c-0.1-0.6,0-1.2,0.3-1.7l8.1-12.4c0.3-0.5,0.8-0.8,1.4-1c0.6-0.1,1.2,0,1.7,0.3c0.5,0.3,0.8,0.8,1,1.4
				c0.1,0.6,0,1.2-0.3,1.7l-6.8,10.5l6.3,4.1l2.8-4.3c1.1-1.8,2.6-3.1,4.4-4c1.8-0.9,3.7-1.3,5.7-1.2c2,0.1,3.9,0.7,5.6,1.9
				c1.8,1.1,3.1,2.6,4,4.4c0.9,1.8,1.3,3.7,1.2,5.7c-0.1,2-0.7,3.9-1.9,5.6S478.6,392.9,476.8,393.8z"/>
			<path id="XMLID_545_" d="M471.8,396.4c-0.2,0-0.5,0-0.7,0c-2.2-0.1-4.3-0.8-6.3-2.1c-0.8-0.6-1.4-1.3-1.6-2.3
				c-0.2-0.9,0-1.9,0.5-2.8c0.5-0.8,1.3-1.4,2.3-1.6c1-0.2,1.9,0,2.8,0.5c0.9,0.6,1.8,0.9,2.7,0.9c1,0.1,1.8-0.1,2.7-0.6
				c0.8-0.4,1.5-1.1,2.1-1.9c0.6-0.9,0.9-1.8,0.9-2.7c0.1-0.9-0.1-1.8-0.6-2.7c-0.4-0.9-1.1-1.5-1.9-2.1c-0.9-0.6-1.8-0.9-2.7-0.9
				c-0.9-0.1-1.8,0.1-2.7,0.6c-0.8,0.4-1.5,1.1-2.1,1.9l-4,6.2c-0.6,0.9-1.4,1.4-2.3,1.6c-0.9,0.2-1.9,0-2.7-0.6l-10.1-6.5
				c-0.8-0.5-1.4-1.3-1.6-2.2c-0.2-1-0.1-1.9,0.5-2.8L455,364c0.5-0.8,1.4-1.4,2.3-1.6c1-0.2,1.9,0,2.7,0.5c0.8,0.5,1.3,1.3,1.6,2.2
				c0.2,1,0,1.9-0.5,2.8l-6.1,9.4l4,2.6l2-3.2c1.3-2,2.9-3.5,4.9-4.5c2-1,4.1-1.5,6.4-1.4c2.2,0.1,4.4,0.8,6.3,2.1
				c2,1.3,3.5,2.9,4.5,4.9c1,2,1.5,4.1,1.4,6.4c-0.1,2.2-0.8,4.3-2.1,6.3c-1.3,2-2.9,3.5-4.9,4.5l0,0
				C475.7,396,473.8,396.4,471.8,396.4z M466.8,390.3c-0.1,0-0.1,0-0.2,0c-0.2,0.1-0.4,0.2-0.6,0.4c-0.2,0.3-0.2,0.5-0.1,0.6
				c0,0.2,0.1,0.4,0.4,0.6c1.6,1,3.2,1.6,5,1.7c1.7,0.1,3.3-0.2,4.9-1h0c1.6-0.8,2.8-2,3.8-3.5c1-1.6,1.6-3.2,1.7-5
				c0.1-1.8-0.2-3.4-1.1-4.9c-0.8-1.5-2-2.8-3.5-3.8c-1.5-1-3.2-1.6-5-1.7c-1.8-0.1-3.4,0.2-4.9,1.1c-1.5,0.8-2.8,2-3.8,3.5
				l-3.6,5.5l-8.6-5.6l7.6-11.7c0.2-0.3,0.2-0.5,0.1-0.7c-0.1-0.2-0.2-0.4-0.4-0.5c-0.2-0.1-0.4-0.2-0.7-0.1
				c-0.3,0.1-0.4,0.2-0.6,0.4l-8.1,12.4c-0.2,0.3-0.2,0.4-0.1,0.6c0.1,0.3,0.2,0.4,0.4,0.6l10.1,6.5c0.3,0.2,0.5,0.2,0.7,0.2
				c0.2,0,0.3-0.1,0.5-0.4l4-6.2c0.8-1.3,1.9-2.2,3.2-2.9c1.3-0.7,2.6-1,4.1-0.9c1.4,0.1,2.8,0.5,4.1,1.4c1.3,0.8,2.2,1.9,2.9,3.2
				c0.7,1.3,1,2.7,0.9,4.1c-0.1,1.4-0.5,2.8-1.4,4.1c-0.8,1.3-1.9,2.2-3.2,2.9c-1.3,0.6-2.6,0.9-4.1,0.9c-1.4-0.1-2.8-0.5-4.1-1.4
				C467.1,390.4,466.9,390.3,466.8,390.3z"/>
		</g>
	</g>
	<g id="XMLID_428_">
		<g id="XMLID_472_">
			<path id="XMLID_475_" d="M67.3,269.5c-2,4-4.8,7.2-8.5,9.7c-3.7,2.5-8,3.9-12.7,4.3c-4.7,0.4-9.1-0.3-13.2-2.2
				c-4.1-1.9-7.4-4.6-10-8.2c-2.6-3.6-4.1-7.7-4.4-12.2c-0.3-3.2-0.1-6.1,0.6-8.5c0.7-2.4,1.9-5,3.6-7.5c0.3-0.5,0.7-0.9,1.1-1.1
				c0.4-0.2,0.9-0.3,1.4-0.4c0.9-0.1,1.6,0.2,2.2,0.8c0.6,0.6,0.9,1.3,1,2.1c0.1,0.8-0.2,1.6-0.6,2.3c-1.3,1.9-2.3,3.7-2.8,5.4
				c-0.5,1.7-0.7,3.9-0.5,6.5c0.3,3.3,1.4,6.3,3.4,9c2,2.7,4.5,4.7,7.7,6.1c3.1,1.4,6.5,1.9,10,1.7c3.6-0.3,6.8-1.4,9.7-3.3
				c2.9-1.9,5-4.3,6.6-7.2c1.5-2.9,2.1-6.1,1.9-9.4c-0.3-4.1-2.1-7.9-5.2-11.4c-0.6-0.7-0.9-1.4-0.9-2.1c-0.1-0.8,0.2-1.5,0.7-2.1
				c0.5-0.6,1.3-0.9,2.2-1c0.9-0.1,1.7,0.2,2.5,0.8c4.1,4.3,6.4,9.4,6.9,15.2C70.1,261.3,69.3,265.5,67.3,269.5z"/>
			<path id="XMLID_541_" d="M43.7,286.4c-4.2,0-8.2-0.9-11.9-2.6c-4.5-2.1-8.2-5.1-11.1-9.1c-2.9-4-4.5-8.6-5-13.6
				c-0.3-3.5-0.1-6.7,0.7-9.5c0.7-2.7,2.1-5.6,4-8.4c0.6-0.9,1.3-1.6,2.1-2c0.7-0.4,1.6-0.6,2.5-0.7c1.6-0.1,3.1,0.4,4.3,1.5
				c1.1,1,1.7,2.4,1.9,3.9c0.1,1.4-0.3,2.9-1.1,4.1c-1.2,1.7-2,3.2-2.4,4.6c-0.4,1.4-0.5,3.2-0.4,5.5c0.2,2.8,1.2,5.3,2.8,7.5
				c1.7,2.3,3.9,4,6.6,5.2c2.7,1.2,5.6,1.7,8.7,1.4c3.1-0.3,5.9-1.2,8.4-2.8c2.5-1.6,4.3-3.7,5.6-6.2c1.3-2.5,1.8-5.1,1.6-7.9
				c-0.3-3.5-1.8-6.7-4.5-9.8c-1-1.2-1.5-2.4-1.6-3.7c-0.1-1.6,0.4-3,1.4-4.2c1-1.1,2.4-1.7,4-1.9c1.7-0.1,3.2,0.4,4.5,1.5l0.2,0.2
				c4.5,4.8,7.1,10.4,7.6,16.9c0.4,5.1-0.5,9.8-2.6,14.2c-2.2,4.4-5.4,8-9.5,10.8c-4.1,2.8-8.9,4.4-14,4.8
				C45.4,286.3,44.5,286.4,43.7,286.4z M25.1,246.1c0,0-0.1,0.1-0.1,0.2c-1.6,2.4-2.7,4.7-3.3,6.8c-0.6,2.1-0.7,4.7-0.5,7.6
				c0.3,4,1.7,7.7,3.9,10.8c2.3,3.2,5.3,5.6,8.9,7.3c3.6,1.6,7.6,2.3,11.8,2c4.2-0.3,8.1-1.6,11.4-3.9c3.4-2.2,5.9-5.1,7.6-8.6l0,0
				c1.7-3.5,2.4-7.2,2.1-11.3c-0.4-5.2-2.4-9.6-6-13.4c-0.2-0.1-0.3-0.1-0.3-0.1c-0.2,0-0.3,0.1-0.4,0.1c0,0,0,0.1,0.3,0.5
				c3.5,3.9,5.4,8.3,5.8,13c0.3,3.8-0.4,7.5-2.2,10.9c-1.7,3.3-4.2,6.1-7.5,8.3c-3.2,2.1-6.9,3.4-11,3.7c-4,0.3-7.8-0.3-11.4-1.9
				c-3.6-1.6-6.5-3.9-8.8-6.9c-2.3-3.1-3.6-6.6-3.9-10.4c-0.2-3-0.1-5.5,0.6-7.6c0.6-2,1.7-4.1,3.2-6.2c0.1-0.2,0.1-0.3,0.1-0.5
				c0-0.1,0-0.2-0.2-0.3C25.3,246.1,25.2,246.1,25.1,246.1z"/>
		</g>
		<g id="XMLID_474_">
			<path id="XMLID_477_" d="M67.9,222.7c-0.8,0.5-1.6,0.6-2.5,0.4L23,213.6c-1-0.2-1.7-0.7-2.1-1.5c-0.5-0.8-0.6-1.6-0.4-2.5
				c0.2-1,0.7-1.7,1.4-2.1c0.7-0.5,1.6-0.6,2.6-0.4l18,4l6.5-29.1l-18-4c-1-0.2-1.7-0.7-2.1-1.5c-0.5-0.8-0.6-1.6-0.4-2.5
				c0.2-0.9,0.7-1.6,1.4-2.1c0.7-0.5,1.6-0.6,2.5-0.4l42.4,9.5c1,0.2,1.7,0.7,2.1,1.4c0.5,0.7,0.6,1.6,0.4,2.5
				c-0.2,0.9-0.7,1.6-1.5,2.1c-0.8,0.5-1.6,0.6-2.5,0.4l-18.7-4.2l-6.5,29.1l18.7,4.2c0.9,0.2,1.6,0.7,2.1,1.4
				c0.5,0.7,0.6,1.6,0.4,2.6C69.2,221.5,68.7,222.2,67.9,222.7z"/>
			<path id="XMLID_537_" d="M66.2,226c-0.5,0-0.9-0.1-1.4-0.2l-42.4-9.5c-1.7-0.4-3-1.3-3.9-2.7c-0.8-1.4-1.1-3-0.7-4.6
				c0.4-1.7,1.3-3,2.7-3.9c1.4-0.9,3-1.1,4.7-0.7l15.3,3.4l5.3-23.7l-15.3-3.4c-1.7-0.4-3-1.3-3.9-2.7c-0.8-1.4-1.1-3-0.7-4.6
				c0.4-1.6,1.3-3,2.6-3.8c1.4-0.9,3-1.1,4.6-0.7l42.4,9.5c1.7,0.4,3,1.3,3.9,2.7c0.9,1.4,1.1,2.9,0.8,4.6c-0.4,1.6-1.3,3-2.7,3.8
				c-1.4,0.9-3,1.2-4.6,0.8l-16-3.6l-5.3,23.7l16,3.6c1.6,0.4,2.9,1.3,3.8,2.6c0.9,1.4,1.2,3,0.8,4.7c-0.4,1.6-1.3,3-2.7,3.8l0,0
				C68.4,225.7,67.3,226,66.2,226z M23.6,209.8c-0.1,0-0.2,0-0.2,0.1c0,0-0.1,0.1-0.2,0.4c-0.1,0.3,0,0.4,0,0.5
				c0,0.1,0.1,0.1,0.4,0.2l42.4,9.5c0.2,0.1,0.3,0,0.4-0.1c0.1-0.1,0.2-0.1,0.2-0.4c0.1-0.3,0-0.4,0-0.4c-0.1-0.1-0.1-0.2-0.4-0.3
				l-21.4-4.8l7.7-34.5l21.4,4.8c0.2,0.1,0.3,0,0.4-0.1c0.1-0.1,0.2-0.1,0.2-0.4c0.1-0.3,0-0.3,0-0.4c0-0.1-0.1-0.1-0.4-0.2
				l-42.4-9.5c-0.3-0.1-0.4,0-0.5,0c-0.1,0.1-0.1,0.1-0.2,0.3c-0.1,0.3,0,0.4,0.1,0.5c0,0.1,0.1,0.1,0.4,0.2l20.7,4.6l-7.7,34.5
				l-20.7-4.6C23.7,209.8,23.6,209.8,23.6,209.8z"/>
		</g>
		<g id="XMLID_476_">
			<path id="XMLID_479_" d="M85.1,163.5c-0.9,0.2-1.7,0.1-2.5-0.3l-37.8-21.4c-0.9-0.5-1.4-1.2-1.6-2c-0.2-0.9-0.1-1.7,0.4-2.5
				l14.3-25.3c0.5-0.9,1.1-1.4,1.9-1.6c0.8-0.2,1.6-0.1,2.4,0.3c0.8,0.4,1.3,1.1,1.5,1.9c0.2,0.8,0,1.6-0.4,2.5l-12.6,22.4l13.6,7.7
				l9.1-16c0.5-0.8,1.1-1.4,1.9-1.6c0.8-0.3,1.6-0.2,2.4,0.3c0.8,0.4,1.3,1.1,1.5,1.9c0.2,0.8,0.1,1.6-0.4,2.5l-9.1,16l14,7.9
				l12.6-22.4c0.5-0.9,1.1-1.4,1.9-1.7c0.8-0.2,1.6-0.1,2.3,0.3c0.8,0.5,1.3,1.1,1.5,1.9c0.2,0.8,0.1,1.6-0.4,2.5l-14.3,25.3
				C86.7,162.7,86,163.2,85.1,163.5z"/>
			<path id="XMLID_533_" d="M84.2,166.4c-1,0-2.1-0.3-3-0.8l-37.8-21.4c-1.5-0.9-2.5-2.1-2.9-3.7c-0.4-1.6-0.2-3.2,0.6-4.6
				l14.3-25.3c0.8-1.5,2.1-2.5,3.6-2.9c1.5-0.5,3.1-0.2,4.6,0.6c1.5,0.8,2.4,2.1,2.8,3.6c0.4,1.5,0.1,3-0.7,4.5l-11.3,19.9l8.8,4.9
				l7.7-13.6c0.8-1.4,2-2.4,3.5-2.9c1.5-0.5,3.1-0.3,4.6,0.5c1.4,0.8,2.4,2.1,2.8,3.7c0.4,1.5,0.1,3.1-0.7,4.5L73.2,147l9.1,5.2
				l11.3-19.9c0.8-1.5,2-2.5,3.5-2.9c1.5-0.5,3.1-0.3,4.6,0.5c1.5,0.8,2.5,2.1,2.9,3.6c0.4,1.5,0.1,3.1-0.7,4.6l-14.3,25.3
				c-0.8,1.5-2.1,2.5-3.7,2.9l0,0C85.3,166.3,84.8,166.4,84.2,166.4z M60.5,113c-0.1,0-0.3,0.3-0.3,0.3l-14.3,25.3
				c-0.1,0.2-0.1,0.3-0.1,0.5c0,0.1,0,0.2,0.3,0.3L84,160.7c0.2,0.1,0.3,0.1,0.4,0.1l0,0c0.1,0,0.2-0.1,0.3-0.3L99,135.3
				c0.1-0.1,0.2-0.3,0.1-0.4l-0.4-0.2c-0.1,0-0.2,0.2-0.3,0.4l-14,24.8l-18.8-10.6l10.4-18.5c0.2-0.3,0.1-0.4,0.1-0.5l-0.3-0.2
				c-0.1,0-0.2,0.1-0.4,0.3l-10.4,18.5l-18.4-10.4l14-24.8c0-0.1,0.2-0.3,0.2-0.5L60.5,113z"/>
		</g>
		<g id="XMLID_478_">
			<path id="XMLID_481_" d="M112.8,120.2c-0.9,0-1.7-0.3-2.4-1L79.5,88.7c-0.7-0.7-1-1.5-1-2.4c0-0.9,0.3-1.7,1-2.3l20.4-20.7
				c0.7-0.7,1.5-1.1,2.3-1.1c0.8,0,1.6,0.3,2.3,1c0.6,0.6,1,1.4,0.9,2.2c0,0.8-0.4,1.6-1.1,2.3L86.2,86l11.1,11l13-13.1
				c0.7-0.7,1.4-1,2.3-1.1c0.8,0,1.6,0.3,2.2,0.9s0.9,1.4,0.9,2.2c0,0.8-0.4,1.6-1,2.3l-12.9,13.1l11.4,11.3l18.1-18.3
				c0.7-0.7,1.4-1.1,2.3-1.1c0.8,0,1.5,0.3,2.2,0.9c0.7,0.7,1,1.4,1,2.2c0,0.8-0.4,1.6-1.1,2.3l-20.4,20.7
				C114.5,119.9,113.7,120.2,112.8,120.2z"/>
			<path id="XMLID_529_" d="M112.8,123c-1.6,0-3.1-0.6-4.3-1.8L77.6,90.7c-1.2-1.2-1.9-2.7-1.9-4.4c0-1.6,0.6-3.1,1.8-4.3l20.4-20.7
				c1.2-1.2,2.6-1.9,4.2-1.9c1.5-0.1,3.1,0.6,4.3,1.8c1.2,1.2,1.8,2.6,1.7,4.2c-0.1,1.5-0.7,2.9-1.9,4.1L90.2,85.9l7.2,7.1l11-11.1
				c1.1-1.2,2.6-1.8,4.1-1.9c1.6-0.1,3.1,0.5,4.3,1.7c1.2,1.2,1.8,2.7,1.7,4.3c0,1.5-0.7,3-1.8,4.1l-11,11.1l7.5,7.4l16.1-16.3
				c1.5-1.5,3.1-1.9,4.1-1.9c1.6-0.1,3.1,0.5,4.3,1.7c1.2,1.2,1.8,2.7,1.8,4.3c0,1.6-0.7,3-1.9,4.2l-20.4,20.7
				C116,122.4,114.5,123,112.8,123L112.8,123C112.8,123,112.8,123,112.8,123z M102.3,65c-0.1,0-0.3,0.2-0.4,0.3L81.5,85.9
				c-0.2,0.2-0.2,0.3-0.2,0.4c0,0.1,0,0.2,0.2,0.4l30.9,30.5c0.2,0.2,0.2,0.2,0.4,0.2l0,0c0.1,0,0.2,0,0.4-0.2l20.4-20.7
				c0.1-0.1,0.3-0.3,0.3-0.4l1.8-2.2l-2,2c-0.2-0.1-0.4,0-0.5,0.2l-20,20.2l-15.4-15.2l14.9-15.1c0.2-0.2,0.2-0.3,0.2-0.4l-0.2-0.3
				c-0.1,0-0.2,0-0.4,0.2l-14.9,15.1L82.3,86l20-20.2c0.1-0.1,0.3-0.3,0.3-0.4L102.3,65z"/>
		</g>
		<g id="XMLID_480_">
			<path id="XMLID_483_" d="M153.5,82.9c-3.9,0.1-7.2-0.9-9.8-2.9c-0.4-0.3-0.8-0.7-0.9-0.9c-0.3-0.6-0.4-1.2-0.2-1.8
				c0.2-0.7,0.6-1.3,1.2-1.8c0.1-0.1,0.3-0.2,0.5-0.4c0.6-0.3,1.3-0.5,2-0.5c0.7,0,1.4,0.3,2,0.7c1.5,1.1,3.5,1.5,6.1,1.4
				c2.5-0.1,5-0.9,7.4-2.3c2.8-1.6,4.8-3.6,5.9-6c1.2-2.4,1.1-4.7-0.2-6.9c-1.2-2.1-3.1-3.4-5.6-4c-2.5-0.6-5.5,0-9,1.6
				c-4.9,2.2-9.2,3-13.2,2.3c-3.9-0.7-6.9-2.8-8.8-6.1c-1.4-2.4-1.9-4.8-1.5-7.3c0.4-2.5,1.4-4.9,3.3-7.2s4.2-4.3,7.1-6
				c3.2-1.8,6.2-2.8,9.2-2.7c2.9,0,5.9,0.8,8.8,2.3c0.9,0.4,1.5,1,1.8,1.6c0.5,0.8,0.5,1.7,0.1,2.6c-0.3,0.5-0.7,0.9-1.2,1.2
				c-0.6,0.3-1.2,0.5-1.8,0.5c-0.6,0-1.2-0.2-1.8-0.5c-2-1.1-4-1.6-6-1.6c-2,0-4.2,0.7-6.4,2c-2.8,1.6-4.8,3.5-5.9,5.6
				c-1.1,2.1-1.1,4.2,0.1,6.3c1.1,1.9,2.8,3.1,5.1,3.5c2.3,0.4,5.6-0.4,9.8-2.3c4.7-2.1,8.9-2.8,12.7-2c3.7,0.8,6.7,3.1,8.8,6.7
				c1.5,2.7,2.2,5.4,1.8,8.1c-0.3,2.7-1.4,5.3-3.3,7.6c-1.8,2.3-4.1,4.3-6.9,5.9C161.1,81.7,157.4,82.8,153.5,82.9z"/>
			<path id="XMLID_525_" d="M153,85.6c-4.3,0-8-1.1-11-3.4c-0.8-0.6-1.3-1.2-1.7-1.8c-0.7-1.2-0.9-2.5-0.5-3.9
				c0.3-1.2,0.9-2.3,1.9-3.2c0.3-0.3,0.6-0.5,1-0.8c1.1-0.6,2.3-0.9,3.6-0.8c1.3,0.1,2.5,0.5,3.5,1.3c0.9,0.7,2.4,0.9,4.3,0.8
				c2.1-0.1,4.1-0.7,6.1-1.9c2.3-1.3,3.9-2.9,4.8-4.8c0.8-1.6,0.7-2.9-0.1-4.3c-0.8-1.4-2-2.3-3.8-2.7c-1.9-0.4-4.3,0.1-7.3,1.4
				c-5.3,2.4-10.3,3.3-14.8,2.5c-4.7-0.9-8.4-3.4-10.7-7.5c-1.7-2.9-2.3-6-1.9-9.1c0.4-3,1.7-5.9,3.8-8.5c2-2.5,4.7-4.8,7.9-6.6
				c3.6-2.1,7.2-3.2,10.6-3.1c3.4,0,6.7,0.9,10,2.6c1.3,0.7,2.3,1.6,2.9,2.7c0.9,1.6,1,3.4,0.2,5.2c-0.6,1.1-1.3,1.9-2.3,2.5
				c-1,0.6-2.1,0.9-3.2,0.9c0,0,0,0,0,0c-1.1,0-2.2-0.3-3.2-0.9c-2.9-1.6-5.8-1.8-9.6,0.4c-2.3,1.4-4,2.9-4.8,4.5
				c-0.7,1.3-0.6,2.3,0.1,3.6c0.7,1.2,1.7,1.9,3.2,2.1c1.2,0.2,3.6,0,8.2-2.1c5.2-2.4,10.1-3.1,14.4-2.1c4.5,1,8.1,3.7,10.6,8
				c1.8,3.2,2.6,6.5,2.2,9.8c-0.4,3.2-1.7,6.3-3.8,9c-2.1,2.6-4.6,4.8-7.7,6.6c-4,2.3-8.2,3.5-12.6,3.6l0,0
				C153.4,85.6,153.2,85.6,153,85.6z M145.3,77.7C145.3,77.7,145.3,77.8,145.3,77.7c2.2,1.7,4.9,2.5,8.1,2.3h0
				c3.4-0.1,6.7-1,9.9-2.9c2.4-1.4,4.5-3.2,6.1-5.2c1.5-1.9,2.4-4,2.7-6.2c0.3-2.1-0.2-4.2-1.5-6.4c-1.7-3-4-4.8-7-5.4
				c-3.1-0.7-6.8-0.1-10.9,1.8c-4.8,2.2-8.5,3-11.4,2.5c-3.1-0.5-5.5-2.2-7.1-4.8c-1.7-2.9-1.8-6-0.2-8.9c1.4-2.6,3.7-4.8,6.9-6.7
				c5.4-3.1,10.4-3,15.1-0.4c0.2,0.1,0.3,0.1,0.4,0.1c0.1,0,0.3,0,0.4-0.1c0.1-0.1,0-0.3-0.5-0.6c-2.5-1.3-5-2-7.5-2
				c-2.4,0-5,0.8-7.8,2.4c-2.6,1.5-4.8,3.3-6.4,5.3c-1.5,1.9-2.4,3.8-2.7,5.8c-0.3,1.9,0.1,3.7,1.2,5.5c1.5,2.7,3.8,4.2,6.9,4.8
				c3.3,0.6,7.2-0.1,11.5-2.1c4.1-1.9,7.7-2.4,10.8-1.8c3.3,0.7,5.8,2.5,7.4,5.3c1.8,3,1.8,6.3,0.2,9.5c-1.4,2.9-3.8,5.3-7,7.2
				c-2.7,1.6-5.6,2.5-8.6,2.6c-3.2,0.2-5.8-0.5-7.8-1.9c-0.2-0.2-0.4-0.2-0.6-0.2c-0.3,0-0.4,0.1-0.5,0.1c0,0,0,0,0,0l0,0
				C145.4,77.6,145.3,77.7,145.3,77.7z"/>
		</g>
		<g id="XMLID_482_">
			<path id="XMLID_485_" d="M196,62.8c-0.8-0.5-1.3-1.1-1.5-2l-11.2-42c-0.3-1-0.1-1.8,0.3-2.6c0.5-0.8,1.1-1.3,2.1-1.5l28-7.5
				c1-0.3,1.8-0.2,2.5,0.2c0.7,0.4,1.2,1.1,1.5,2c0.2,0.9,0.1,1.6-0.3,2.3c-0.4,0.7-1.1,1.2-2.1,1.4l-24.8,6.6l4,15.1l17.8-4.7
				c0.9-0.2,1.7-0.2,2.5,0.2c0.7,0.4,1.2,1,1.5,1.9c0.2,0.9,0.1,1.7-0.3,2.4c-0.5,0.7-1.1,1.2-2,1.4l-17.8,4.7l4.1,15.5l24.8-6.6
				c1-0.3,1.8-0.2,2.5,0.2c0.7,0.4,1.2,1,1.4,1.9c0.2,0.9,0.1,1.7-0.3,2.4c-0.4,0.7-1.1,1.2-2.1,1.5l-28,7.5
				C197.7,63.3,196.8,63.2,196,62.8z"/>
			<path id="XMLID_521_" d="M197.7,66c-1.1,0-2.1-0.3-3-0.8c-1.4-0.8-2.4-2.1-2.8-3.7l-11.2-42c-0.4-1.7-0.2-3.3,0.6-4.7
				c0.8-1.4,2.1-2.3,3.7-2.8l28-7.5c1.6-0.4,3.2-0.3,4.6,0.5c1.4,0.8,2.4,2,2.8,3.7c0.4,1.6,0.2,3.2-0.6,4.5
				c-0.8,1.3-2.1,2.2-3.7,2.6l-22.1,5.9l2.6,9.7l15.1-4c1.6-0.4,3.1-0.3,4.5,0.5c1.4,0.8,2.4,2,2.9,3.6c0.4,1.6,0.2,3.2-0.7,4.6
				c-0.8,1.3-2.1,2.2-3.7,2.6l-15.1,4l2.7,10.1l22.1-5.9c1.6-0.4,3.2-0.3,4.5,0.4c1.4,0.7,2.4,2,2.8,3.6c0.4,1.7,0.2,3.2-0.6,4.6
				c-0.8,1.3-2.1,2.3-3.7,2.7l-28.1,7.5C198.7,65.9,198.2,66,197.7,66z M214.8,9.8c-0.1,0-0.3,0-0.3,0.1l-28,7.5
				c-0.3,0.1-0.3,0.2-0.4,0.3c0,0.1-0.1,0.1,0,0.4l11.2,42c0.1,0.2,0.1,0.3,0.3,0.4c0.1,0.1,0.2,0.1,0.4,0l28-7.5
				c0.1,0,0.3-0.1,0.4-0.2c0-0.1,0-0.2,0-0.3c-0.2-0.2-0.5-0.1-0.5-0.1l-27.5,7.3l-5.6-20.9l20.5-5.5c0.3-0.1,0.4-0.2,0.4-0.2
				l-0.1-0.3c-0.1-0.1-0.2-0.1-0.5,0l-20.5,5.5l-5.4-20.4l27.5-7.3c0.2,0,0.4-0.1,0.5-0.2l-0.1-0.4C214.9,9.8,214.8,9.8,214.8,9.8z"
				/>
		</g>
		<g id="XMLID_484_">
			<path id="XMLID_487_" d="M281,4.1c0.5,0.6,0.8,1.3,0.8,2.2c0,0.7-0.2,1.4-0.6,2.1L263.9,35l0,15c0,0.9-0.3,1.7-1,2.4
				c-0.6,0.6-1.4,1-2.4,1c-0.9,0-1.7-0.3-2.3-1c-0.6-0.6-1-1.4-1-2.4l0-15L240.2,8.4c-0.5-0.7-0.7-1.4-0.7-2.1c0-0.9,0.3-1.6,1-2.2
				c0.7-0.6,1.4-0.9,2.3-0.9c0.7,0,1.2,0.2,1.7,0.4c0.4,0.3,0.9,0.8,1.3,1.4l15,23.8l15.3-24.1c0.7-1.1,1.7-1.6,3-1.6
				C279.8,3.2,280.5,3.5,281,4.1z"/>
			<path id="XMLID_517_" d="M260.5,56.1c-1.6,0-3.1-0.6-4.3-1.8c-1.2-1.2-1.8-2.7-1.8-4.3l0-14.1l-16.7-26c-0.8-1.2-1.2-2.4-1.1-3.6
				c0-1.7,0.7-3.2,1.9-4.3c1.2-1.1,2.6-1.6,4.2-1.6c1.2,0.1,2.4,0.3,3.3,1c0.7,0.5,1.4,1.2,2,2.2l12.7,20.2l13-20.4
				c1.2-1.9,3.1-2.9,5.3-2.9c1.6,0,3,0.6,4.1,1.8l0,0c1,1.1,1.5,2.5,1.5,4c0,1.2-0.4,2.4-1.1,3.6l-16.9,26l0,14.1
				c0,1.7-0.6,3.2-1.8,4.3C263.7,55.5,262.2,56.1,260.5,56.1z M242.9,5.9c-0.3,0.1-0.4,0.1-0.5,0.2c-0.1,0.2-0.1,0.4,0.2,0.7
				l17.6,27.4l0,15.8c0,0.2,0.1,0.3,0.1,0.4c0.3,0.3,0.6,0.2,0.8,0c0.1-0.1,0.2-0.2,0.2-0.4l0-15.8l17.7-27.3
				c0.2-0.3,0.2-0.5,0.2-0.6c0-0.2,0-0.3-0.1-0.3l0,0c-0.3,0-0.4,0.1-0.5,0.4l-17.7,27.8L243.4,6.5C243.1,6.1,242.9,5.9,242.9,5.9z"
				/>
		</g>
		<g id="XMLID_486_">
			<path id="XMLID_489_" d="M307,8.4c0.5,1.2,0.6,2.7,0.3,4.3c-0.3,1.4-1,3.1-2.2,5c-1.2,1.9-2.4,3.5-3.8,4.8
				c-1.4,1.3-2.5,1.9-3.4,1.7c-0.5-0.1-1-0.4-1.2-0.8c-0.3-0.4-0.3-0.9-0.2-1.5c0.1-0.3,0.2-0.6,0.4-0.8c1.4-2.1,2.3-4,2.6-5.5
				c0.2-0.8,0.2-1.9,0.1-3.2c0-1.4,0-2.5,0.1-3.1c0.2-1,0.7-1.9,1.6-2.5c0.9-0.6,1.9-0.8,2.9-0.6C305.5,6.5,306.4,7.2,307,8.4z"/>
			<path id="XMLID_513_" d="M298.3,27c-0.3,0-0.5,0-0.8-0.1c-1.3-0.3-2.4-1-3.1-2.1c-0.6-1-0.8-2.2-0.6-3.4c0.1-0.7,0.4-1.3,0.8-1.9
				c1.5-2.2,2-3.7,2.2-4.5c0.1-0.4,0.1-1.1,0-2.5c0-1.8,0-3,0.2-3.8c0.3-1.8,1.3-3.3,2.8-4.3c1.5-1,3.2-1.3,5-1
				c2.1,0.4,3.8,1.7,4.7,3.8l0,0c0.8,1.7,0.9,3.7,0.5,6c-0.3,1.8-1.2,3.7-2.5,5.9c-1.3,2.1-2.7,3.9-4.2,5.3
				C302.6,25.2,300.7,27,298.3,27z M303.5,9c-0.2,0-0.4,0.1-0.6,0.2c-0.3,0.2-0.4,0.4-0.4,0.7c0,0.1-0.1,0.7-0.1,2.5
				c0.1,1.5,0.1,2.7-0.1,3.8c-0.1,0.6-0.3,1.2-0.5,1.8c0.4-0.5,0.7-1,1-1.5c1-1.6,1.6-3,1.8-4c0.2-1.1,0.2-2-0.1-2.7
				c-0.2-0.4-0.3-0.5-0.7-0.6C303.7,9,303.6,9,303.5,9z"/>
		</g>
		<g id="XMLID_488_">
			<path id="XMLID_429_" d="M320.7,61.8c-2.1-1.7-3.6-3.5-4.4-5.4c-0.3-0.7-0.4-1.4-0.1-2.2c0.4-1,1-1.6,2.1-1.9
				c1-0.3,1.8-0.3,2.4-0.1c0.8,0.3,1.4,0.9,1.9,1.9c0.5,1.1,1.3,2.3,2.6,3.5c1.3,1.2,2.8,2.1,4.5,2.7c2.3,0.8,4.2,1.1,5.8,0.8
				c1.5-0.3,2.6-1.1,3-2.4c0.5-1.2,0.2-2.5-0.7-3.8c-0.9-1.3-2.8-2.8-5.5-4.4c-7.2-4.3-9.8-8.9-8-13.8c0.7-2,1.9-3.4,3.6-4.4
				c1.7-0.9,3.6-1.4,5.7-1.4c2.1,0,4.3,0.4,6.4,1.2c2.6,1,4.8,2.3,6.5,3.9c1.8,1.6,3,3.4,3.6,5.3c0.3,0.8,0.3,1.6,0.1,2.2
				c-0.3,0.7-0.8,1.2-1.7,1.5c-0.6,0.2-1.2,0.1-1.9-0.1c-1-0.4-1.8-1.1-2.4-2.2c-0.7-1.3-1.5-2.3-2.5-3.1c-1-0.8-2.3-1.5-3.9-2.1
				c-1.8-0.7-3.5-0.9-4.9-0.8c-1.4,0.2-2.3,0.8-2.7,2c-0.3,0.8-0.3,1.6-0.1,2.2c0.2,0.7,0.8,1.5,1.7,2.4c1,0.9,2.4,1.9,4.4,3.2
				c4,2.5,6.7,4.9,7.9,7.1c1.2,2.2,1.4,4.6,0.5,7.1c-0.7,1.8-1.8,3.3-3.4,4.5c-1.6,1.1-3.5,1.8-5.7,1.9c-2.3,0.1-4.8-0.3-7.5-1.3
				C325.2,64.9,322.8,63.5,320.7,61.8z"/>
			<path id="XMLID_508_" d="M334.6,70c-2.4,0-4.9-0.5-7.6-1.5c-3-1.1-5.7-2.7-8-4.6c-2.4-2-4.2-4.1-5.2-6.4
				c-0.6-1.4-0.7-2.9-0.2-4.3c0.7-1.8,2-3.1,3.9-3.6c1.6-0.5,3-0.5,4.2,0c1,0.4,2.5,1.3,3.4,3.4c0.3,0.6,0.8,1.5,2,2.6
				c1,1,2.2,1.7,3.6,2.2c2.2,0.8,3.6,0.8,4.3,0.7c0.8-0.1,0.9-0.4,1-0.6c0.1-0.2,0.2-0.5-0.4-1.2c-0.4-0.6-1.6-1.8-4.7-3.7
				c-10.5-6.4-10.8-12.8-9.2-17.1c1-2.6,2.6-4.5,4.8-5.8c2.1-1.2,4.5-1.7,7.1-1.7c2.5,0,4.9,0.5,7.3,1.4c2.9,1.1,5.4,2.6,7.5,4.4
				c2.1,1.9,3.6,4.1,4.4,6.5c0.5,1.4,0.5,2.8,0,4.1c-0.4,1-1.3,2.4-3.4,3.1c-1.3,0.4-2.5,0.3-3.7-0.2c-1.7-0.6-3-1.8-3.9-3.5
				c-0.5-1-1.1-1.7-1.8-2.3c-0.7-0.6-1.8-1.2-3.1-1.6c-1.4-0.5-2.6-0.7-3.6-0.6c-0.4,0-0.5,0.1-0.5,0.1c-0.1,0.3-0.1,0.4-0.1,0.5
				l0,0c0,0,0.2,0.4,0.9,1.1c0.6,0.5,1.7,1.4,4,2.9c4.5,2.8,7.4,5.4,8.9,8.1c1.7,3,1.9,6.1,0.7,9.4c-0.9,2.4-2.3,4.3-4.3,5.8
				c-2,1.4-4.4,2.3-7.2,2.4C335.3,70,335,70,334.6,70z M319.8,54.8c0,0-0.2,0-0.7,0.1c-0.2,0.1-0.2,0.1-0.2,0.2
				c0.7,1.5,1.9,3,3.7,4.5c1.8,1.5,4,2.8,6.4,3.7c2.3,0.9,4.5,1.2,6.4,1.1c1.7-0.1,3.1-0.6,4.3-1.4c1.1-0.8,1.9-1.9,2.4-3.2
				c0.6-1.7,0.5-3.3-0.3-4.8c-0.5-1-1.7-2.4-4.3-4.3c1.2,0.9,2.1,1.8,2.7,2.7c1.9,2.6,1.6,4.9,1.1,6.4c-0.8,2.2-2.6,3.7-5.1,4.1
				c-2.1,0.4-4.4,0.1-7.2-1c-2.1-0.8-3.9-1.9-5.4-3.3c-1.6-1.5-2.7-3-3.3-4.5C319.9,55,319.8,54.9,319.8,54.8z M333.4,33.9
				c-1.6,0-3,0.3-4.2,1c-1.1,0.6-1.9,1.6-2.3,2.9c-0.4,1.2-1.7,4.6,5.1,9.3c-0.8-0.6-1.5-1.1-2-1.6c-1.3-1.2-2.2-2.4-2.5-3.6
				c-0.4-1.3-0.3-2.6,0.2-4c0.8-2.1,2.5-3.4,5-3.7c1.9-0.2,4,0.1,6.2,0.9c1.9,0.7,3.4,1.5,4.7,2.5c1.3,1,2.4,2.4,3.2,4
				c0.3,0.5,0.6,0.7,0.8,0.8c0,0,0,0,0,0c-0.5-1.5-1.5-2.9-2.9-4.2c-1.5-1.4-3.4-2.5-5.6-3.3C337.2,34.2,335.3,33.9,333.4,33.9
				C333.5,33.9,333.5,33.9,333.4,33.9z"/>
		</g>
	</g>
	<g id="XMLID_427_">
		<g id="XMLID_471_">
			<path id="XMLID_590_" d="M272.8,450.8h-0.3c-3.5,0-6.9-0.1-10.1-0.3c-3.4-0.2-6.9-0.5-10.3-0.9c-13.5-1.5-26.9-4.5-39.8-8.9h0
				l-0.7-0.2c-3-1-6.1-2.2-9.5-3.6c-1.6-0.6-3.2-1.3-4.8-2c-1.2-0.5-2.4-1.1-3.7-1.7l-0.7-0.3c-0.7-0.3-1.4-0.6-2-1
				c-2.4-1.1-4.6-2.3-6.6-3.4l-3.3-1.8c-0.8-0.5-1.7-1-2.5-1.4l-0.8-0.5c-3.2-1.9-6.5-4-9.7-6.2c-2.1-1.4-4.2-3-6.3-4.5
				c-1.5-1.1-3-2.3-4.5-3.4c-3-2.4-5.8-4.8-8.5-7.1c-2.3-2-4.1-3.8-5.8-5.5c-1.6-1.6-1.6-4.3,0-5.9s4.3-1.6,5.9,0
				c1.6,1.6,3.4,3.2,5.5,5.2c2.5,2.2,5.2,4.5,8.1,6.8c1.4,1.1,2.8,2.2,4.3,3.3c2,1.5,4,2.9,6,4.3c3.1,2.1,6.2,4.1,9.3,5.9l0.8,0.5
				c0.8,0.5,1.5,0.9,2.3,1.4l3.2,1.8c1.9,1,3.9,2.1,6.3,3.2c0.7,0.4,1.3,0.6,1.8,0.9l0.7,0.3c1.1,0.5,2.3,1.1,3.4,1.6
				c1.5,0.7,3,1.4,4.5,1.9c3.1,1.3,5.8,2.3,8.5,3.3h0.3l0.8,0.3c12.4,4.3,25.2,7.2,38.3,8.6c3.3,0.4,6.6,0.7,9.8,0.8
				c3.1,0.2,6.3,0.3,9.6,0.3h0.3c6.4,0,13.1-0.4,19.9-1.1c16.8-1.9,33.2-6.2,48.8-12.8c3.1-1.3,6.3-2.7,9.3-4.2l0.7-0.3
				c0.9-0.4,1.8-0.9,2.7-1.4c0.8-0.4,1.5-0.8,2.2-1.1c2.2-1.2,4.5-2.5,6.7-3.7l0.8-0.5c0.7-0.4,1.5-0.9,2.2-1.3
				c1.2-0.7,2.2-1.3,3.2-2c3.3-2.1,6.5-4.3,9.4-6.6c5.3-3.9,10.4-8.2,15.1-12.6c3.7-3.5,7.4-7.2,10.9-11.1c2.1-2.3,4.2-4.9,6.8-8.1
				c1.1-1.4,2.2-2.8,3.3-4.3c1.4-1.8,4-2.2,5.8-0.9c1.8,1.4,2.2,4,0.9,5.8c-1.1,1.5-2.3,3-3.5,4.5c-2.7,3.4-5,6.1-7.1,8.5
				c-3.6,4.1-7.5,8-11.4,11.6c-4.9,4.7-10.3,9.1-15.8,13.2c-3.1,2.3-6.4,4.7-9.8,6.8c-1.1,0.7-2.2,1.5-3.4,2.2
				c-0.6,0.4-1.4,0.9-2.3,1.4l-0.8,0.5c-2.4,1.4-4.6,2.7-7,3.9c-0.7,0.4-1.5,0.8-2.3,1.2c-0.8,0.5-1.8,0.9-2.8,1.4l-0.7,0.3
				c-3.2,1.6-6.4,3.1-9.7,4.4c-16.3,6.8-33.5,11.3-51.1,13.4C286.5,450.4,279.5,450.8,272.8,450.8z"/>
		</g>
	</g>
	<g id="XMLID_426_">
		<g id="XMLID_650_">
			<path id="XMLID_589_" class="st1" d="M289,387.2"/>
		</g>
	</g>
	<g id="XMLID_425_">
		<g id="XMLID_647_">
			<path id="XMLID_588_" class="st1" d="M359.8,123.4"/>
		</g>
	</g>
	<g id="XMLID_424_">
		<g id="XMLID_468_">
			<path id="XMLID_643_" d="M310,378.6c-16.3,0-29.6-13.3-29.6-29.6c0-16.3,13.3-29.6,29.6-29.6c16.3,0,29.6,13.3,29.6,29.6
				C339.6,365.3,326.3,378.6,310,378.6z M310,330.5c-10.2,0-18.5,8.3-18.5,18.5c0,10.2,8.3,18.5,18.5,18.5
				c10.2,0,18.5-8.3,18.5-18.5C328.5,338.8,320.2,330.5,310,330.5z"/>
		</g>
	</g>
	<g id="XMLID_423_">
		<g id="XMLID_465_">
			<path id="XMLID_638_" d="M208.1,194.3c-11,0-19.9-8.9-19.9-19.9c0-11,8.9-19.9,19.9-19.9c11,0,19.9,8.9,19.9,19.9
				C228,185.4,219.1,194.3,208.1,194.3z M208.1,165.7c-4.8,0-8.8,3.9-8.8,8.8c0,4.8,3.9,8.8,8.8,8.8c4.8,0,8.8-3.9,8.8-8.8
				C216.9,169.6,213,165.7,208.1,165.7z"/>
		</g>
	</g>
	<g id="XMLID_422_">
		<g id="XMLID_462_">
			<path id="XMLID_633_" d="M251.1,264.6c-11,0-19.9-8.9-19.9-19.9c0-11,8.9-19.9,19.9-19.9s19.9,8.9,19.9,19.9
				C270.9,255.7,262,264.6,251.1,264.6z M251.1,236c-4.8,0-8.8,3.9-8.8,8.8c0,4.8,3.9,8.8,8.8,8.8c4.8,0,8.8-3.9,8.8-8.8
				C259.8,239.9,255.9,236,251.1,236z"/>
		</g>
	</g>
	<g id="XMLID_421_">
		<g id="XMLID_459_">
			<path id="XMLID_628_" d="M228.9,373.3c-11,0-19.9-8.9-19.9-19.9c0-11,8.9-19.9,19.9-19.9s19.9,8.9,19.9,19.9
				C248.8,364.4,239.9,373.3,228.9,373.3z M228.9,344.6c-4.8,0-8.8,3.9-8.8,8.8s3.9,8.8,8.8,8.8s8.8-3.9,8.8-8.8
				S233.8,344.6,228.9,344.6z"/>
		</g>
	</g>
	<g id="XMLID_420_">
		<g id="XMLID_456_">
			<path id="XMLID_623_" d="M175.3,314c-16.3,0-29.6-13.3-29.6-29.6c0-16.3,13.3-29.6,29.6-29.6s29.6,13.3,29.6,29.6
				C204.9,300.8,191.6,314,175.3,314z M175.3,265.9c-10.2,0-18.5,8.3-18.5,18.5c0,10.2,8.3,18.5,18.5,18.5
				c10.2,0,18.5-8.3,18.5-18.5C193.8,274.2,185.5,265.9,175.3,265.9z"/>
		</g>
	</g>
	<g id="XMLID_419_">
		<g id="XMLID_453_">
			<path id="XMLID_618_" d="M306.2,194.3c-16.3,0-29.6-13.3-29.6-29.6s13.3-29.6,29.6-29.6c16.3,0,29.6,13.3,29.6,29.6
				S322.5,194.3,306.2,194.3z M306.2,146.2c-10.2,0-18.5,8.3-18.5,18.5c0,10.2,8.3,18.5,18.5,18.5c10.2,0,18.5-8.3,18.5-18.5
				C324.7,154.5,316.4,146.2,306.2,146.2z"/>
		</g>
	</g>
	<g id="XMLID_411_">
		<g id="XMLID_418_">
			<g id="XMLID_452_">
				<path id="XMLID_587_" d="M405.9,336.5c-0.8,0-1.6-0.2-2.3-0.5c-2.8-1.3-4-4.6-2.7-7.4c34-74.4,2.4-129.7-8.3-145.3l-53.7,41.8
					c-2.4,1.9-5.9,1.4-7.8-1c-1.9-2.4-1.4-5.9,1-7.8l58.2-45.3c2.4-1.8,5.8-1.5,7.7,0.8c0.6,0.7,55.5,68.4,13.1,161.3
					C410,335.3,408,336.5,405.9,336.5z"/>
			</g>
		</g>
		<g id="XMLID_417_">
			<g id="XMLID_451_">
				<path id="XMLID_586_" d="M272.5,421.5c-32.5,0-65.3-10.1-93.3-31c-69.1-51.5-83.4-149.7-31.8-218.8
					c25-33.5,61.5-55.2,102.8-61.2c41.3-6,82.5,4.4,116,29.4c2.5,1.8,3,5.3,1.1,7.8c-1.8,2.5-5.3,3-7.8,1.1
					c-64.2-47.9-155.4-34.6-203.3,29.6c-47.9,64.2-34.6,155.4,29.6,203.3c62.7,46.8,151.3,35.2,200-25.3l-111-86.8
					c-1.3-1.1-2.1-2.7-2.1-4.4c0-1.7,0.8-3.3,2.1-4.4l41.2-32.1c2.4-1.9,5.9-1.4,7.8,1c1.9,2.4,1.4,5.9-1,7.8l-35.6,27.7L397,351
					c2.4,1.9,2.8,5.3,1,7.7C367.3,399.8,320.2,421.5,272.5,421.5z"/>
			</g>
		</g>
		<g id="XMLID_416_">
			<g id="XMLID_450_">
				<path id="XMLID_585_" d="M121.7,371.5c-2.3,0-4.5-1.5-5.3-3.8c-0.1-0.3-1-1.6-1.5-2.3c-0.4-0.6-0.8-1.2-1.1-1.6
					c-0.8-1.1-1.4-2.3-2.1-3.5c-2.1-3.5-4.1-7.2-6.1-11.2c-0.3-0.5-0.6-1.1-0.9-1.8l-0.3-0.6c-0.7-1.4-1.3-2.7-1.9-4.1
					c-0.7-1.6-1.4-3.2-2.1-4.9C93.6,321.5,89,304.2,87,286.4c-0.8-7.2-1.2-14.3-1.2-21c0-3.9,0.1-7.2,0.3-10.4
					c0.2-3.4,0.5-6.9,0.9-10.4c1.7-15.6,5.4-30.9,10.9-45.5c0.6-1.5,1.2-3.2,1.9-4.8c0.7-1.8,1.5-3.6,2.3-5.4l0.4-0.9
					c0.5-1,0.9-2.1,1.4-3.1l0.3-0.6c0.3-0.7,0.7-1.4,1.1-2.1c1-1.9,2-3.9,3-5.8c0.6-1.1,1.3-2.3,1.9-3.4c0.6-1.1,1.2-2.2,1.9-3.3
					c1.9-3.2,4-6.5,6.2-9.7c1.5-2.2,3-4.3,4.6-6.4c1.1-1.5,2.3-3,3.5-4.5c2.4-3,4.8-5.9,7.2-8.5c3.7-4.1,7.6-8.1,11.5-11.7
					c66-61.9,166.7-67.5,239.4-13.3c2.5,1.8,3,5.3,1.1,7.8c-1.8,2.5-5.3,3-7.8,1.1c-68.3-51-163-45.7-225.2,12.5
					c-3.7,3.5-7.3,7.2-10.8,11c-2.2,2.5-4.5,5.2-6.8,8c-1.1,1.4-2.2,2.8-3.3,4.2c-1.5,2-2.9,4-4.3,6c-2,3-4,6.1-5.9,9.2
					c-0.6,1-1.2,2.1-1.8,3.1c-0.6,1.1-1.2,2.1-1.8,3.1c-1,1.9-2,3.7-2.9,5.6c-0.3,0.7-0.6,1.3-0.9,1.9l-0.3,0.6
					c-0.4,0.9-0.9,1.9-1.3,2.8l-0.4,0.9c-0.7,1.6-1.5,3.4-2.2,5.1c-0.6,1.5-1.2,3-1.7,4.4c-5.2,13.8-8.7,28.2-10.3,42.9
					c-0.4,3.2-0.6,6.5-0.8,9.7c-0.2,3.1-0.3,6.2-0.3,9.6c0,6.6,0.4,13.3,1.1,20.1c1.9,16.7,6.2,33,12.7,48.4c0.7,1.6,1.3,3.1,2,4.6
					c0.6,1.3,1.1,2.5,1.7,3.7l0.3,0.6c0.3,0.5,0.5,1.1,0.8,1.6c1.9,3.8,3.8,7.4,5.8,10.7c0.6,1.1,1.2,2.1,1.8,3l0.2,0.3
					c0.2,0.3,0.5,0.7,0.8,1.2c1.3,2,2.3,3.5,2.8,4.9c1,2.9-0.6,6.1-3.5,7C122.8,371.4,122.2,371.5,121.7,371.5z"/>
			</g>
		</g>
		<g id="XMLID_415_">
			<g id="XMLID_449_">
				<path id="XMLID_584_" d="M272.8,452.1h-0.3c-3.1,0-6.3-0.1-10.1-0.3c-3.5-0.2-7-0.5-10.4-0.9c-13.6-1.5-27-4.5-39.9-8.9h-0.1
					l-0.9-0.3c-3.6-1.3-6.7-2.5-9.6-3.7c-1.6-0.6-3.2-1.3-4.8-2.1c-1.2-0.5-2.4-1.1-3.7-1.7c-0.9-0.4-1.9-0.9-2.8-1.4
					c-2.3-1.1-4.6-2.3-6.6-3.4c-1.1-0.6-2.2-1.2-3.4-1.9c-1-0.5-2.2-1.2-3.4-2c-3.1-1.8-6.5-3.9-9.7-6.2c-3.6-2.4-7.3-5.1-10.9-8
					c-2.8-2.1-5.6-4.5-8.5-7.2c-2.3-2-4.1-3.8-5.9-5.5c-2.2-2.2-2.2-5.7,0-7.8c2.2-2.2,5.7-2.2,7.8,0c1.6,1.6,3.3,3.2,5.4,5.1
					c2.7,2.5,5.3,4.7,8,6.7c3.4,2.8,6.9,5.3,10.3,7.6c3.1,2.2,6.1,4.1,9.2,5.9c1.1,0.7,2.1,1.3,3.1,1.8c1.2,0.7,2.2,1.3,3.2,1.8
					c1.9,1.1,4,2.1,6.3,3.2c0.9,0.5,1.7,0.9,2.4,1.2c1.2,0.6,2.4,1.1,3.5,1.6c1.6,0.7,3.1,1.3,4.6,2c2.5,1,5.1,2.1,8.2,3.1h0.3
					l1,0.4c12.3,4.2,25,7.1,37.9,8.5c3.2,0.3,6.5,0.6,9.8,0.8c3.6,0.2,6.6,0.3,9.5,0.3h0.3c6.6,0,13.2-0.4,19.8-1.1
					c16.7-1.8,32.9-6.1,48.4-12.7c3.1-1.3,6.2-2.7,9.2-4.2c1.2-0.6,2.3-1.1,3.4-1.7c0.8-0.4,1.4-0.7,2.1-1.1
					c2.2-1.2,4.4-2.4,6.6-3.7l3.1-1.9c1-0.6,2.1-1.3,3.2-2c3.1-2.1,6.3-4.2,9.3-6.5c1-0.7,2-1.5,3-2.3c4.2-3.3,8.2-6.7,12-10.2
					c3.7-3.5,7.3-7.2,10.8-11c2.5-2.7,4.7-5.3,6.7-8c50.8-63.8,51.2-153.2,1-217.6c-1.9-2.4-1.5-5.9,1-7.8c2.4-1.9,5.9-1.5,7.8,1
					c53.4,68.4,52.9,163.5-1,231.2c-2.2,2.8-4.5,5.6-7.2,8.5c-3.7,4.1-7.5,8-11.4,11.7c-4,3.7-8.2,7.3-12.7,10.8
					c-1,0.8-2.1,1.6-3.2,2.4c-3.2,2.4-6.5,4.7-9.9,6.9c-1.1,0.7-2.2,1.4-3.4,2.1l-3.2,2c-2.4,1.4-4.7,2.7-7,3.9
					c-0.8,0.4-1.5,0.8-2.3,1.2c-1.1,0.6-2.4,1.2-3.6,1.8c-3.2,1.6-6.5,3.1-9.7,4.4c-16.5,7-33.8,11.5-51.5,13.5
					C286.9,451.7,279.8,452.1,272.8,452.1z"/>
			</g>
		</g>
		<g id="XMLID_414_">
			<g id="XMLID_448_">
				<path id="XMLID_583_" d="M371.8,152.9c-4.3,0-8.6-1.3-12.2-4.1c-2.5-1.8-3-5.3-1.1-7.8c1.8-2.5,5.3-3,7.8-1.1
					c4.2,3.1,10.1,2.2,13.2-1.9c3.1-4.2,2.2-10.1-1.9-13.2c-2.5-1.8-3-5.3-1.1-7.8c1.8-2.5,5.3-3,7.8-1.1
					c9.1,6.8,10.9,19.7,4.2,28.7C384.2,150,378,152.9,371.8,152.9z"/>
			</g>
		</g>
		<g id="XMLID_413_">
			<g id="XMLID_447_">
				<path id="XMLID_491_" d="M334.1,254.8c-0.6,0-1.2,0-1.8-0.1c-10.9-1-19-10.7-18-21.6c0.3-3.1,3-5.3,6-5c3.1,0.3,5.3,3,5,6
					c-0.4,4.8,3.1,9.1,7.9,9.5c4.8,0.4,9.1-3.1,9.5-7.9c0.4-4.8-3.1-9.1-7.9-9.5c-3.1-0.3-5.3-3-5-6c0.3-3.1,3-5.3,6-5
					c10.9,1,19,10.7,18,21.6C352.9,247.1,344.2,254.8,334.1,254.8z"/>
			</g>
		</g>
		<g id="XMLID_412_">
			<g id="XMLID_446_">
				<path id="XMLID_490_" d="M133.9,447.5c-9.7,0-17.6-7.9-17.6-17.6v-56.4c0-2,0-6.7,0-6.7l11.1,0c0,0,0,4.7,0,6.7v56.4
					c0,3.6,2.9,6.5,6.5,6.5c3.6,0,6.5-2.9,6.5-6.5v-35c0-3.1,2.5-5.6,5.6-5.6s5.6,2.5,5.6,5.6v35
					C151.5,439.6,143.6,447.5,133.9,447.5z"/>
			</g>
		</g>
	</g>
</g>
</svg>
