<?xml version="1.0" encoding="utf-8"?>
<!-- Generator: Adobe Illustrator 19.0.0, SVG Export Plug-In . SVG Version: 6.00 Build 0)  -->
<svg version="1.1" id="Warstwa_1" xmlns="http://www.w3.org/2000/svg" xmlns:xlink="http://www.w3.org/1999/xlink" x="0px" y="0px"
	 viewBox="0 0 500 500" style="enable-background:new 0 0 500 500;" xml:space="preserve">
<style type="text/css">
	.st0{fill:none;stroke:#231F20;stroke-width:2;stroke-linecap:round;stroke-linejoin:round;stroke-miterlimit:10;}
	.st1{fill:#231F20;}
	.st2{fill:#E1AE7A;}
	.st3{fill:#B42025;}
	.st4{fill:#C09261;}
</style>
<g id="XMLID_1915_">
	<g id="XMLID_1900_">
		<path id="XMLID_188_" class="st0" d="M447.7,232.1"/>
	</g>
	<g id="XMLID_1899_">
		<path id="XMLID_187_" class="st0" d="M45.3,232.1"/>
	</g>
	<g id="XMLID_1892_">
		<path id="XMLID_29_" class="st1" d="M245.8,381.4l-1.7,24.8l-5.1-0.3c-2.7-0.2-4.7-0.9-6-2.2c-1.2-1.3-1.8-3.1-1.6-5.6
			c0.2-2.3,0.9-4.1,2.3-5.3c1.4-1.2,3.2-1.7,5.5-1.6c0.3,0,0.5,0,0.7,0.1c0.2,0,0.3,0,0.4,0.1l0.7-10.3L245.8,381.4z M240,395.1
			c-0.1,0-0.1,0-0.3,0c-0.1,0-0.2,0-0.3,0c-1.1-0.1-1.9,0.2-2.5,0.7c-0.6,0.6-0.9,1.4-1,2.6c-0.1,1.2,0.1,2.1,0.6,2.7
			c0.5,0.6,1.3,0.9,2.4,1c0.1,0,0.1,0,0.3,0c0.1,0,0.2,0,0.3,0L240,395.1z"/>
		<path id="XMLID_32_" class="st1" d="M230.2,380l-3.7,24.6l-5-0.8l3.7-24.6L230.2,380z"/>
		<path id="XMLID_34_" class="st1" d="M223.8,379.2l-12.4,17.9l6.7,1.6l-1,4.4l-13.2-3.1l12.2-17.7l-7-1.6l1.1-4.7L223.8,379.2z"/>
		<path id="XMLID_36_" class="st1" d="M209.8,376l-14.1,16.7l6.5,2.2l-1.5,4.3l-12.8-4.3l13.9-16.4l-6.8-2.3l1.6-4.6L209.8,376z"/>
		<path id="XMLID_38_" class="st1" d="M194.1,370.5L184,393.2l-9.5-4.3l1.9-4.2l5.2,2.3l2-4.6l-4.7-2.1l1.9-4.2l4.7,2.1l2.4-5.3
			l-5.2-2.3l2-4.4L194.1,370.5z"/>
		<path id="XMLID_40_" class="st1" d="M182.1,365l-12.3,21.6l-4.5-2.5c-2.5-1.4-4-2.9-4.5-4.5c-0.6-1.6-0.2-3.5,1-5.6
			c0.9-1.5,1.9-2.6,3-3.2c1.1-0.6,2.3-0.8,3.7-0.5l1.4-12.2l4.5,2.6l-1.5,10.9l5.1-8.9L182.1,365z M170.9,374.9c0,0-0.1-0.1-0.2-0.2
			c-0.1-0.1-0.2-0.1-0.2-0.2c-0.9-0.5-1.8-0.7-2.6-0.4c-0.8,0.3-1.4,0.9-2,1.9c-0.6,1-0.8,1.9-0.6,2.6c0.2,0.7,0.7,1.4,1.7,1.9
			c0.1,0.1,0.3,0.1,0.3,0.2c0.1,0,0.2,0.1,0.2,0.1L170.9,374.9z"/>
		<path id="XMLID_43_" class="st1" d="M168.5,357l-14,20.5l-4.2-2.9l14-20.5L168.5,357z"/>
		<path id="XMLID_45_" class="st1" d="M162.9,353.4l-20.1,15.7l-4-3.3l11.3-22.8l3.9,3.1l-2.1,3.9l3.9,3.1l3.3-2.9L162.9,353.4z
			 M152.6,355.7l-2.6-2.1c-0.8,1.6-1.7,3.2-2.7,4.8c-1,1.7-2.1,3.4-3.2,5.1c1.4-1.3,2.8-2.6,4.2-3.9
			C149.7,358.3,151.1,357,152.6,355.7z"/>
		<path id="XMLID_48_" class="st1" d="M143.6,336.8l-18.6,16.5l-2.8-3.2c-2.5-2.9-3.7-5.7-3.4-8.5c0.3-2.8,2-5.6,5.1-8.3
			c1.9-1.7,3.7-2.8,5.4-3.4c1.7-0.6,3.5-0.7,5.3-0.4c1.1,0.2,2.1,0.6,3,1.3c0.9,0.6,2.1,1.7,3.4,3.2L143.6,336.8z M136.9,336.2
			l-0.3-0.3c-1.2-1.3-2.6-1.9-4.2-1.7c-1.6,0.2-3.4,1.1-5.2,2.8c-2,1.8-3.2,3.5-3.6,5c-0.4,1.5,0,3,1.3,4.4l0.2,0.2L136.9,336.2z"/>
		<path id="XMLID_51_" class="st1" d="M102.6,324.7l12.9-8.8c1.6-1.1,2.7-1.8,3.4-2.2c0.7-0.4,1.4-0.6,2-0.7c1.3-0.2,2.5,0,3.7,0.7
			c1.1,0.6,2.2,1.7,3.2,3.1c1,1.5,1.6,2.9,1.8,4.1c0.2,1.3-0.1,2.5-0.7,3.7c-0.3,0.5-0.7,1.1-1.3,1.6c-0.6,0.6-1.7,1.4-3.2,2.4
			l-0.6,0.4l-12.3,8.4l-2.8-4.1l13.2-9.1c1.7-1.2,2.6-2.1,2.9-2.7c0.2-0.7,0.1-1.4-0.5-2.3c-0.6-0.9-1.3-1.3-2-1.3
			c-0.7,0-1.9,0.6-3.6,1.7l-13.2,9.1L102.6,324.7z"/>
		<path id="XMLID_53_" class="st1" d="M121.6,307.8l-21.9,11.8l-5-9.2l4-2.2l2.7,5l4.4-2.4l-2.4-4.5l4-2.2l2.4,4.5l5.1-2.8l-2.7-5
			l4.3-2.3L121.6,307.8z"/>
		<path id="XMLID_55_" class="st1" d="M114.5,293.9l-18.6,8l1.5,3.5l-4.2,1.8l-5-11.6l4.2-1.8l1.5,3.5l18.6-8L114.5,293.9z"/>
		<path id="XMLID_57_" class="st1" d="M107.8,276.7l-24,6.4l-1.3-5c-0.7-2.6-0.7-4.8,0.2-6.3s2.4-2.7,4.7-3.3
			c2.2-0.6,4.2-0.4,5.7,0.5c1.6,0.9,2.7,2.5,3.3,4.7c0.1,0.3,0.1,0.5,0.2,0.7c0,0.1,0.1,0.3,0.1,0.4l10-2.6L107.8,276.7z M93,275.6
			c0-0.1,0-0.1-0.1-0.3c0-0.1,0-0.2-0.1-0.3c-0.3-1-0.8-1.7-1.5-2.1c-0.7-0.4-1.6-0.4-2.7-0.1c-1.1,0.3-1.9,0.8-2.3,1.4
			c-0.4,0.6-0.5,1.5-0.2,2.6c0,0.1,0,0.1,0.1,0.3c0,0.1,0.1,0.2,0.1,0.3L93,275.6z"/>
		<path id="XMLID_60_" class="st1" d="M104.1,261.5l-24.5,4.4l-0.9-5l24.5-4.4L104.1,261.5z"/>
		<path id="XMLID_62_" class="st1" d="M102.8,255.1l-21-5.9l0.7,6.8l-4.5,0.5L76.6,243l20.7,5.9l-0.7-7.2l4.8-0.5L102.8,255.1z"/>
		<path id="XMLID_64_" class="st1" d="M101.3,240.8L81,232.9l0,6.8l-4.6,0l-0.1-13.5l20,7.8l0-7.2l4.9,0L101.3,240.8z"/>
		<path id="XMLID_66_" class="st1" d="M101.4,224.2L76.6,222l0.9-10.4l4.6,0.4l-0.5,5.6l5,0.4l0.5-5.1l4.5,0.4l-0.5,5.1L97,219
			l0.5-5.6l4.8,0.4L101.4,224.2z"/>
		<path id="XMLID_68_" class="st1" d="M102.7,211l-24.4-4.6l1-5.1c0.5-2.8,1.4-4.7,2.8-5.8c1.3-1,3.2-1.3,5.6-0.9
			c1.7,0.3,3.1,0.9,4,1.7c0.9,0.8,1.5,1.9,1.7,3.3l12-2.6l-1,5.1l-10.9,2.1l10.1,1.9L102.7,211z M89.7,203.7c0-0.1,0-0.1,0.1-0.3
			c0-0.1,0.1-0.2,0.1-0.3c0.2-1.1,0.1-1.9-0.4-2.6c-0.5-0.6-1.3-1.1-2.5-1.3c-1.2-0.2-2.1-0.1-2.7,0.3c-0.6,0.4-1,1.1-1.2,2.2
			c0,0.2-0.1,0.3-0.1,0.4c0,0.1,0,0.2,0,0.3L89.7,203.7z"/>
		<path id="XMLID_71_" class="st1" d="M105.9,195.6l-24-6.6l1.3-4.9l24,6.6L105.9,195.6z"/>
		<path id="XMLID_73_" class="st1" d="M107.4,189.2l-21.3-14l1.8-4.9l25.2,3.4l-1.7,4.7l-4.4-0.7l-1.7,4.7l3.8,2.2L107.4,189.2z
			 M102,180.2l1.1-3.1c-1.7-0.3-3.6-0.6-5.4-1c-1.9-0.4-3.8-0.9-5.9-1.4c1.7,0.9,3.3,1.8,5,2.7C98.6,178.3,100.3,179.2,102,180.2z"
			/>
		<path id="XMLID_76_" class="st1" d="M117,165.6l-21.6-12.3l2.1-3.7c1.9-3.3,4.2-5.3,6.9-5.9c2.7-0.6,5.9,0.1,9.5,2.2
			c2.2,1.2,3.9,2.6,5,4c1.1,1.4,1.8,3.1,2.1,4.9c0.1,1.1,0.1,2.2-0.2,3.3c-0.3,1.1-1,2.5-1.9,4.3L117,165.6z M115.4,159.1l0.2-0.3
			c0.9-1.5,1-3,0.3-4.5c-0.7-1.5-2.1-2.8-4.3-4.1c-2.3-1.3-4.3-1.9-5.9-1.8c-1.6,0.1-2.8,1-3.8,2.6l-0.2,0.3L115.4,159.1z"/>
		<path id="XMLID_79_" class="st1" d="M115.3,122.9l12.5,9.3c1.5,1.1,2.6,2,3.2,2.6c0.6,0.6,1,1.1,1.3,1.6c0.6,1.2,0.8,2.4,0.6,3.7
			c-0.2,1.3-0.9,2.6-1.9,4c-1.1,1.4-2.2,2.5-3.3,3c-1.1,0.6-2.4,0.8-3.7,0.5c-0.6-0.1-1.2-0.3-2-0.7c-0.7-0.4-1.8-1.1-3.3-2.3
			l-0.6-0.4l-12-8.9l3-4l12.9,9.5c1.6,1.2,2.8,1.8,3.5,1.8c0.7,0,1.4-0.4,2-1.2c0.6-0.9,0.8-1.6,0.6-2.3c-0.2-0.7-1.2-1.6-2.8-2.8
			l-12.9-9.5L115.3,122.9z"/>
		<path id="XMLID_81_" class="st1" d="M137.3,135.3L119,118.5l7.1-7.7l3.4,3.1l-3.8,4.2l3.7,3.4l3.5-3.8l3.4,3.1l-3.5,3.8l4.3,3.9
			l3.8-4.2l3.6,3.3L137.3,135.3z"/>
		<path id="XMLID_83_" class="st1" d="M148.2,124.1l-13.6-15l-2.8,2.6l-3.1-3.4l9.3-8.5l3.1,3.4l-2.8,2.6l13.6,15L148.2,124.1z"/>
		<path id="XMLID_85_" class="st1" d="M162.4,112.2l-13.8-20.7l4.3-2.9c2.3-1.5,4.3-2.2,6.1-1.9c1.8,0.2,3.3,1.4,4.7,3.4
			c1.3,1.9,1.8,3.8,1.4,5.6c-0.4,1.8-1.5,3.3-3.4,4.6c-0.2,0.2-0.4,0.3-0.6,0.4c-0.1,0.1-0.3,0.2-0.4,0.2l5.7,8.6L162.4,112.2z
			 M158.5,97.8c0,0,0.1-0.1,0.2-0.1c0.1-0.1,0.2-0.1,0.2-0.1c0.9-0.6,1.4-1.3,1.5-2.1c0.1-0.8-0.1-1.7-0.8-2.6
			c-0.7-1-1.4-1.6-2.1-1.7c-0.7-0.2-1.6,0-2.5,0.7c0,0-0.1,0.1-0.2,0.2c-0.1,0.1-0.2,0.1-0.2,0.2L158.5,97.8z"/>
		<path id="XMLID_88_" class="st1" d="M175.5,103.8l-12.1-21.7l4.4-2.5l12.1,21.7L175.5,103.8z"/>
		<path id="XMLID_90_" class="st1" d="M181.1,100.5L180,78.7l-6.2,2.8l-1.9-4.2l12.3-5.6l1.1,21.5l6.6-3l2,4.4L181.1,100.5z"/>
		<path id="XMLID_92_" class="st1" d="M194.1,94.5l1-21.8l-6.5,2.2l-1.5-4.3l12.8-4.4l-1,21.5l6.8-2.4l1.6,4.6L194.1,94.5z"/>
		<path id="XMLID_94_" class="st1" d="M209.9,89.3L204,65.1l10.2-2.5l1.1,4.5l-5.5,1.3l1.2,4.9l5-1.2l1.1,4.4l-5,1.2l1.4,5.7
			l5.5-1.3l1.1,4.7L209.9,89.3z"/>
		<path id="XMLID_96_" class="st1" d="M222.8,86.2l-3.6-24.6l5.1-0.7c2.8-0.4,4.9-0.1,6.3,0.8c1.4,0.9,2.3,2.6,2.7,5
			c0.3,1.8,0.1,3.2-0.4,4.4c-0.5,1.2-1.4,2-2.6,2.7l6.3,10.5l-5.2,0.7l-5.5-9.6l1.5,10.2L222.8,86.2z M225.5,71.6c0.1,0,0.2,0,0.3,0
			c0.1,0,0.2,0,0.3,0c1.1-0.2,1.8-0.6,2.3-1.2c0.5-0.7,0.6-1.6,0.4-2.7c-0.2-1.2-0.5-2-1.1-2.5c-0.6-0.5-1.4-0.6-2.5-0.5
			c-0.2,0-0.3,0-0.4,0.1c-0.1,0-0.2,0-0.2,0.1L225.5,71.6z"/>
		<path id="XMLID_99_" class="st1" d="M238.4,84.3l-1.5-24.8l5-0.3l1.5,24.8L238.4,84.3z"/>
		<path id="XMLID_101_" class="st1" d="M245,83.7l6.3-24.7l5.2,0.1l5,25l-5-0.1l-0.7-4.4l-5-0.1l-0.9,4.3L245,83.7z M251.8,75.6
			l3.3,0.1c-0.3-1.7-0.6-3.6-0.8-5.5c-0.2-1.9-0.4-3.9-0.6-6c-0.3,1.9-0.6,3.7-0.9,5.6C252.5,71.7,252.1,73.6,251.8,75.6z"/>
		<path id="XMLID_104_" class="st1" d="M270.4,85l4.6-24.4l4.2,0.8c3.8,0.7,6.4,2.3,7.9,4.6c1.5,2.4,1.8,5.6,1,9.7
			c-0.5,2.5-1.2,4.5-2.2,6c-1,1.5-2.3,2.7-4,3.5c-1,0.5-2,0.8-3.2,0.9c-1.1,0.1-2.7-0.1-4.7-0.5L270.4,85z M276.1,81.4l0.4,0.1
			c1.7,0.3,3.2-0.1,4.3-1.2c1.2-1.1,2-2.9,2.4-5.4c0.5-2.7,0.4-4.7-0.2-6.2c-0.6-1.5-1.9-2.4-3.7-2.7L279,66L276.1,81.4z"/>
		<path id="XMLID_107_" class="st1" d="M310.3,69.6l-4.8,14.9c-0.6,1.8-1,3.1-1.4,3.8c-0.4,0.7-0.7,1.3-1.1,1.7
			c-0.9,1-2,1.5-3.3,1.7c-1.3,0.2-2.7,0-4.5-0.5c-1.7-0.5-3-1.3-3.9-2.2c-0.9-0.9-1.5-2-1.7-3.3c-0.1-0.6-0.1-1.3,0.1-2.1
			c0.1-0.8,0.5-2.1,1.1-3.9L291,79l4.5-14.2l4.7,1.5l-4.9,15.2c-0.6,1.9-0.8,3.2-0.6,3.9c0.2,0.7,0.8,1.2,1.8,1.5
			c1,0.3,1.8,0.3,2.4-0.2c0.6-0.4,1.2-1.6,1.8-3.5l4.9-15.2L310.3,69.6z"/>
		<path id="XMLID_109_" class="st1" d="M305.6,94.5l10.1-22.7l9.6,4.2l-1.9,4.2l-5.2-2.3l-2,4.6l4.7,2.1l-1.9,4.2l-4.7-2.1L312,92
			l5.2,2.3l-2,4.4L305.6,94.5z"/>
		<path id="XMLID_111_" class="st1" d="M319.8,101.2l9.8-17.7l-3.3-1.8l2.2-4l11,6.1l-2.2,4l-3.3-1.8l-9.8,17.7L319.8,101.2z"/>
		<path id="XMLID_113_" class="st1" d="M335.6,110.8L350.6,91l4.1,3.1c2.2,1.7,3.4,3.4,3.8,5.1c0.3,1.7-0.2,3.6-1.7,5.5
			c-1.4,1.8-3,2.9-4.8,3.1c-1.8,0.2-3.6-0.3-5.5-1.7c-0.2-0.2-0.4-0.3-0.5-0.4c-0.1-0.1-0.2-0.2-0.3-0.3l-6.3,8.2L335.6,110.8z
			 M347.9,102.5c0,0,0.1,0.1,0.2,0.2c0.1,0.1,0.2,0.1,0.2,0.2c0.8,0.6,1.7,0.9,2.5,0.7c0.8-0.1,1.6-0.7,2.2-1.6c0.7-0.9,1-1.8,1-2.6
			s-0.6-1.5-1.4-2.2c0,0-0.1-0.1-0.2-0.1c-0.1-0.1-0.2-0.1-0.2-0.1L347.9,102.5z"/>
		<path id="XMLID_116_" class="st1" d="M347.8,120.4l16.6-18.5l3.8,3.4l-16.6,18.5L347.8,120.4z"/>
		<path id="XMLID_118_" class="st1" d="M352.7,124.7l20.2-8.1l-4.7-5l3.3-3.1l9.3,9.8l-20,8l5,5.2l-3.5,3.3L352.7,124.7z"/>
		<path id="XMLID_120_" class="st1" d="M362.7,135.1l20.9-6.1l-4.2-5.4l3.6-2.8l8.3,10.7l-20.6,6l4.4,5.7l-3.8,3L362.7,135.1z"/>
		<path id="XMLID_122_" class="st1" d="M372.7,148.3l21-13.4l5.6,8.8l-3.9,2.5l-3-4.8l-4.2,2.7l2.8,4.3l-3.8,2.5l-2.8-4.3l-4.9,3.1
			l3,4.8l-4.1,2.6L372.7,148.3z"/>
		<path id="XMLID_124_" class="st1" d="M379.7,159.5l22.1-11.3l2.3,4.6c1.3,2.5,1.7,4.6,1.3,6.3c-0.4,1.6-1.7,3-3.9,4.1
			c-1.6,0.8-3,1.2-4.2,1.1c-1.3-0.1-2.4-0.6-3.4-1.6l-7.9,9.4l-2.4-4.7l7.3-8.3l-9.2,4.7L379.7,159.5z M394.5,157.4
			c0,0.1,0.1,0.1,0.1,0.3c0,0.1,0.1,0.2,0.1,0.3c0.5,1,1.1,1.5,1.9,1.8c0.8,0.2,1.7,0.1,2.7-0.5c1.1-0.5,1.7-1.2,2-1.9
			c0.3-0.7,0.1-1.5-0.4-2.5c-0.1-0.2-0.1-0.3-0.2-0.3c0-0.1-0.1-0.2-0.1-0.2L394.5,157.4z"/>
		<path id="XMLID_128_" class="st1" d="M386.6,173.7l23-9.4l1.9,4.7l-23,9.4L386.6,173.7z"/>
		<path id="XMLID_130_" class="st1" d="M389.3,179.7l25.4-2l1.6,4.9l-22,12.8l-1.5-4.7l3.9-2.1l-1.5-4.8l-4.4,0.6L389.3,179.7z
			 M399.1,183.6l1,3.1c1.6-0.8,3.2-1.7,4.9-2.5c1.7-0.8,3.6-1.7,5.5-2.5c-1.8,0.3-3.7,0.6-5.6,1C403,183,401.1,183.3,399.1,183.6z"
			/>
		<path id="XMLID_133_" class="st1" d="M396.2,204.3l24.6-3.5l0.6,4.2c0.5,3.8-0.1,6.8-1.8,8.9c-1.8,2.2-4.7,3.5-8.9,4.1
			c-2.5,0.4-4.6,0.3-6.4-0.1c-1.8-0.4-3.3-1.3-4.6-2.6c-0.8-0.8-1.4-1.7-1.8-2.7c-0.4-1.1-0.8-2.6-1.1-4.6L396.2,204.3z
			 M401.4,208.5l0.1,0.4c0.2,1.7,1.1,3,2.5,3.7c1.4,0.7,3.4,0.9,5.9,0.6c2.7-0.4,4.6-1.1,5.8-2.2c1.2-1.1,1.6-2.5,1.4-4.4l0-0.3
			L401.4,208.5z"/>
		<path id="XMLID_136_" class="st1" d="M423.7,237l-15.6,0.3c-1.9,0-3.3,0-4.1-0.1c-0.8-0.1-1.5-0.3-2-0.5c-1.2-0.6-2.1-1.4-2.7-2.6
			c-0.6-1.1-0.9-2.6-0.9-4.4c0-1.8,0.2-3.3,0.8-4.4c0.5-1.2,1.4-2.1,2.6-2.7c0.5-0.3,1.2-0.5,2-0.6c0.8-0.1,2.1-0.2,4-0.2l0.7,0
			l14.9-0.3l0.1,5l-16,0.3c-2,0-3.3,0.3-3.9,0.7c-0.6,0.4-0.9,1.2-0.8,2.2c0,1.1,0.3,1.8,0.9,2.2c0.6,0.4,1.9,0.6,3.9,0.5l16-0.3
			L423.7,237z"/>
		<path id="XMLID_138_" class="st1" d="M398.6,240.6l24.8,2.1l-0.9,10.4l-4.6-0.4l0.5-5.6l-5-0.4l-0.4,5.1l-4.5-0.4l0.4-5.1
			l-5.8-0.5l-0.5,5.6l-4.8-0.4L398.6,240.6z"/>
		<path id="XMLID_140_" class="st1" d="M396.9,256.2l19.9,3.5l0.7-3.7l4.5,0.8l-2.2,12.4l-4.5-0.8l0.7-3.7l-19.9-3.5L396.9,256.2z"
			/>
		<path id="XMLID_142_" class="st1" d="M393,274.2l23.6,7.9l-1.6,4.9c-0.9,2.6-2.1,4.3-3.6,5.2c-1.5,0.9-3.5,0.9-5.8,0.2
			c-2.2-0.7-3.7-1.9-4.5-3.6c-0.8-1.6-0.9-3.5-0.1-5.7c0.1-0.3,0.2-0.5,0.2-0.6c0.1-0.1,0.1-0.3,0.2-0.4l-9.8-3.3L393,274.2z
			 M404.8,283.2c0,0.1-0.1,0.1-0.1,0.2c0,0.1-0.1,0.2-0.1,0.2c-0.3,1-0.3,1.9,0.1,2.6s1.1,1.3,2.2,1.6c1.1,0.4,2,0.4,2.7,0.1
			c0.7-0.3,1.2-1,1.6-2.1c0-0.1,0-0.1,0.1-0.3c0-0.1,0.1-0.2,0.1-0.3L404.8,283.2z"/>
		<path id="XMLID_145_" class="st1" d="M387.7,288.9l22.8,9.8l-2,4.6l-22.8-9.8L387.7,288.9z"/>
		<path id="XMLID_147_" class="st1" d="M385.3,294.9l14.2,16.6l3.2-6.1l4,2.1l-6.3,12l-14-16.3l-3.4,6.4l-4.3-2.3L385.3,294.9z"/>
		<path id="XMLID_149_" class="st1" d="M378.6,307.6l12.8,17.7l3.7-5.8l3.8,2.5l-7.3,11.4L379,315.9l-3.9,6.1l-4.1-2.6L378.6,307.6z
			"/>
		<path id="XMLID_151_" class="st1" d="M369.3,321.5l19.4,15.5l-6.5,8.2l-3.6-2.9l3.5-4.4l-3.9-3.1l-3.2,4l-3.6-2.8l3.2-4l-4.6-3.6
			l-3.5,4.4l-3.8-3L369.3,321.5z"/>
		<path id="XMLID_153_" class="st1" d="M361,331.8l17.9,17.3l-3.6,3.7c-2,2-3.8,3.1-5.5,3.3c-1.7,0.1-3.4-0.6-5.2-2.3
			c-1.3-1.2-2.1-2.5-2.4-3.7c-0.3-1.2-0.2-2.4,0.4-3.7l-11.5-4.5l3.6-3.8l10.2,4.2l-7.4-7.1L361,331.8z M367.8,345
			c0,0-0.1,0.1-0.2,0.2c-0.1,0.1-0.2,0.1-0.2,0.2c-0.7,0.8-1.1,1.6-1,2.4c0.1,0.8,0.5,1.6,1.3,2.4c0.9,0.8,1.7,1.3,2.4,1.3
			c0.7,0,1.5-0.4,2.3-1.2c0.1-0.1,0.2-0.2,0.3-0.3c0.1-0.1,0.1-0.1,0.2-0.2L367.8,345z"/>
		<path id="XMLID_156_" class="st1" d="M349.9,342.9l16.4,18.7l-3.8,3.3l-16.4-18.7L349.9,342.9z"/>
		<path id="XMLID_158_" class="st1" d="M345,347.4l10.1,23.4l-4.2,3.1l-19.2-16.7l4-2.9l3.3,3l4-3l-2-4L345,347.4z M344.6,357.9
			l-2.7,2c1.3,1.2,2.6,2.5,4,3.8c1.3,1.4,2.7,2.8,4.2,4.4c-0.9-1.6-1.8-3.3-2.7-5C346.4,361.4,345.5,359.7,344.6,357.9z"/>
		<path id="XMLID_161_" class="st1" d="M324,361.8l11.2,22.2l-3.8,1.9c-3.4,1.7-6.4,2.1-9.1,1.1c-2.6-1-4.9-3.3-6.8-7.1
			c-1.1-2.2-1.8-4.3-1.9-6.1c-0.2-1.8,0.2-3.6,1-5.2c0.5-1,1.1-1.9,2-2.6c0.9-0.8,2.2-1.6,4-2.5L324,361.8z M321.8,368.1l-0.3,0.2
			c-1.6,0.8-2.5,2-2.7,3.6c-0.2,1.6,0.2,3.5,1.4,5.8c1.2,2.4,2.5,4,3.9,4.8c1.4,0.8,2.9,0.7,4.6-0.1l0.3-0.1L321.8,368.1z"/>
		<path id="XMLID_164_" class="st1" d="M301.9,398.4l-5.3-14.7c-0.6-1.8-1.1-3.1-1.2-3.9c-0.2-0.8-0.2-1.5-0.1-2.1
			c0.2-1.3,0.7-2.5,1.6-3.4c0.9-0.9,2.2-1.7,3.8-2.3c1.7-0.6,3.2-0.8,4.4-0.7c1.3,0.1,2.4,0.7,3.4,1.6c0.4,0.4,0.8,1,1.2,1.7
			c0.4,0.7,0.9,2,1.5,3.7l0.2,0.7l5.1,14l-4.7,1.7l-5.4-15c-0.7-1.9-1.3-3.1-1.9-3.5c-0.6-0.4-1.4-0.4-2.4-0.1
			c-1,0.4-1.6,0.9-1.8,1.6c-0.2,0.7,0.1,2,0.8,3.9l5.4,15L301.9,398.4z"/>
		<path id="XMLID_166_" class="st1" d="M290.4,375.8l5.9,24.1l-10.1,2.5L285,398l5.5-1.3l-1.2-4.9l-5,1.2l-1.1-4.4l5-1.2l-1.4-5.7
			l-5.5,1.3l-1.2-4.7L290.4,375.8z"/>
		<path id="XMLID_168_" class="st1" d="M275.1,379.2l3.1,20l3.8-0.6l0.7,4.5l-12.4,1.9l-0.7-4.5l3.8-0.6l-3.1-20L275.1,379.2z"/>
	</g>
	<g id="XMLID_1890_">
		<path id="XMLID_10_" class="st1" d="M206.7,490.2l3.3-20.9l8.8,1.4l-0.6,3.9l-4.7-0.7l-0.7,4.2l4.3,0.7l-0.6,3.8l-4.3-0.7
			l-0.8,4.9l4.7,0.7l-0.6,4.1L206.7,490.2z"/>
		<path id="XMLID_12_" class="st1" d="M217.9,491.1l0.5-4.4c0.5,0.5,1,0.9,1.4,1.2c0.5,0.3,1,0.5,1.5,0.5c0.7,0.1,1.3-0.1,1.7-0.4
			c0.4-0.3,0.7-0.8,0.8-1.5c0.1-0.8-0.4-1.7-1.4-2.8c-0.3-0.3-0.5-0.5-0.6-0.7c-1.2-1.3-1.9-2.4-2.3-3.4c-0.4-1-0.5-2-0.4-3.2
			c0.2-1.8,0.9-3.2,2-4.2c1.1-1,2.5-1.4,4.2-1.2c0.6,0.1,1.2,0.2,1.7,0.4c0.6,0.2,1.1,0.6,1.7,1l-0.4,3.7c-0.7-0.4-1.2-0.7-1.6-0.9
			c-0.4-0.2-0.7-0.3-1.1-0.3c-0.6-0.1-1.1,0.1-1.5,0.4c-0.4,0.3-0.7,0.8-0.7,1.4c-0.1,0.5,0,1.1,0.3,1.6c0.2,0.5,0.8,1.3,1.8,2.3
			c1.3,1.4,2.1,2.5,2.4,3.3c0.3,0.8,0.4,1.8,0.3,3c-0.2,1.9-0.9,3.4-2.1,4.4c-1.2,1-2.7,1.4-4.6,1.2c-0.7-0.1-1.4-0.2-1.9-0.5
			C218.9,491.8,218.4,491.5,217.9,491.1z"/>
		<path id="XMLID_14_" class="st1" d="M232.1,493.2l1-17.2l-3.2-0.2l0.2-3.9l10.7,0.6l-0.2,3.9l-3.2-0.2l-1,17.2L232.1,493.2z"/>
		<path id="XMLID_16_" class="st1" d="M242.2,491.3c0,0.7-0.3,1.3-0.8,1.8c-0.5,0.5-1.1,0.7-1.8,0.7c-0.7,0-1.3-0.3-1.8-0.8
			c-0.5-0.5-0.7-1.1-0.7-1.9c0-0.7,0.3-1.3,0.8-1.8c0.5-0.5,1.1-0.7,1.8-0.7c0.7,0,1.3,0.3,1.8,0.8
			C242,489.9,242.2,490.6,242.2,491.3z"/>
		<path id="XMLID_18_" class="st1" d="M254.5,493.7l-0.6-17.6l-2,0.1l-0.1-3.5l6.1-0.2l0.7,21.1L254.5,493.7z"/>
		<path id="XMLID_20_" class="st1" d="M269.8,484.2c-0.4,0.4-0.9,0.7-1.3,0.9s-0.9,0.3-1.3,0.4c-1.3,0.1-2.4-0.3-3.2-1.4
			c-0.8-1-1.4-2.5-1.5-4.5c-0.2-2.5,0.1-4.4,1-5.8c0.9-1.4,2.3-2.2,4.2-2.3c1.8-0.2,3.2,0.4,4.3,1.6c1.1,1.2,1.8,3,2,5.3
			c0.2,2.3-0.4,5.4-1.8,9.3l-0.2,0.4l-1.6,4.7l-4.1,0.4l2.7-6.9c0,0,0-0.1,0-0.1C269.2,485.4,269.5,484.8,269.8,484.2z M267.8,475.2
			c-0.5,0-0.9,0.4-1.1,0.9c-0.2,0.6-0.3,1.4-0.2,2.5c0.1,1.1,0.3,1.9,0.6,2.5c0.3,0.5,0.7,0.8,1.2,0.7c0.5,0,0.9-0.4,1.1-0.9
			c0.2-0.6,0.3-1.4,0.2-2.5c-0.1-1.1-0.3-1.9-0.6-2.4C268.7,475.4,268.3,475.2,267.8,475.2z"/>
		<path id="XMLID_23_" class="st1" d="M282.6,482.6c-0.4,0.4-0.8,0.8-1.2,1c-0.4,0.2-0.8,0.4-1.3,0.4c-1.3,0.2-2.4-0.2-3.3-1.2
			c-0.9-1-1.5-2.5-1.8-4.4c-0.4-2.4-0.1-4.4,0.7-5.8c0.8-1.4,2.1-2.3,4-2.6c1.8-0.3,3.2,0.2,4.4,1.3c1.2,1.1,1.9,2.9,2.3,5.2
			c0.3,2.3-0.1,5.4-1.2,9.4l-0.1,0.4l-1.4,4.7l-4.1,0.6l2.3-7c0,0,0-0.1,0-0.1C282,483.9,282.3,483.3,282.6,482.6z M280,473.8
			c-0.5,0.1-0.9,0.4-1.1,1c-0.2,0.6-0.2,1.4,0,2.5c0.2,1.1,0.4,1.9,0.7,2.4c0.3,0.5,0.8,0.7,1.3,0.6c0.5-0.1,0.9-0.4,1.1-1
			c0.2-0.6,0.2-1.4,0-2.5c-0.2-1.1-0.4-1.9-0.7-2.4C281,474,280.5,473.7,280,473.8z"/>
		<path id="XMLID_26_" class="st1" d="M295.2,480.4c-0.4,0.5-0.8,0.8-1.2,1.1c-0.4,0.3-0.8,0.4-1.3,0.5c-1.3,0.3-2.4-0.1-3.4-1
			c-1-0.9-1.6-2.4-2-4.3c-0.5-2.4-0.4-4.4,0.4-5.8c0.7-1.5,2-2.4,3.9-2.8c1.8-0.4,3.2,0,4.5,1.1c1.2,1.1,2.1,2.8,2.5,5
			c0.5,2.3,0.2,5.4-0.7,9.5l-0.1,0.4l-1.1,4.8l-4,0.8l1.9-7.1c0,0,0-0.1,0-0.1C294.7,481.7,294.9,481,295.2,480.4z M292.1,471.7
			c-0.5,0.1-0.9,0.4-1,1c-0.1,0.6-0.1,1.4,0.1,2.5c0.2,1.1,0.5,1.9,0.9,2.4c0.4,0.5,0.8,0.7,1.3,0.6c0.5-0.1,0.9-0.4,1-1
			c0.1-0.6,0.1-1.4-0.1-2.5c-0.2-1.1-0.5-1.9-0.9-2.4C293.1,471.8,292.7,471.6,292.1,471.7z"/>
	</g>
	<g id="XMLID_1887_">
		<g id="XMLID_1889_">
			<path id="XMLID_9_" class="st1" d="M180.8,428c-0.1,0-0.2,0-0.3-0.1C98.2,398.7,42.8,320.2,42.8,232.8
				c0-87.4,55.3-165.9,137.6-195.2c0.5-0.2,1.1,0.1,1.3,0.6c0.2,0.5-0.1,1.1-0.6,1.3C99.6,68.6,44.9,146.2,44.9,232.8
				c0,86.6,54.8,164.2,136.3,193.3c0.5,0.2,0.8,0.8,0.6,1.3C181.6,427.8,181.2,428,180.8,428z"/>
		</g>
		<g id="XMLID_1888_">
			<path id="XMLID_8_" class="st1" d="M319.2,428c-0.4,0-0.8-0.3-1-0.7c-0.2-0.5,0.1-1.1,0.6-1.3c81.5-29,136.3-106.7,136.3-193.3
				c0-86.6-54.8-164.2-136.3-193.3c-0.5-0.2-0.8-0.8-0.6-1.3c0.2-0.5,0.8-0.8,1.3-0.6c82.3,29.3,137.6,107.8,137.6,195.2
				c0,87.4-55.3,165.9-137.6,195.2C319.4,428,319.3,428,319.2,428z"/>
		</g>
	</g>
	<g id="XMLID_1886_">
		<path id="XMLID_5_" class="st1" d="M248.8,47.2c-0.6,0-1-0.5-1-1c0-13.6-4.8-18.4-18.4-18.4c-0.6,0-1-0.5-1-1c0-0.6,0.5-1,1-1
			c13.6,0,18.4-4.8,18.4-18.4c0-0.6,0.5-1,1-1s1,0.5,1,1c0,13.6,4.8,18.4,18.4,18.4c0.6,0,1,0.5,1,1c0,0.6-0.5,1-1,1
			c-13.6,0-18.4,4.8-18.4,18.4C249.8,46.7,249.4,47.2,248.8,47.2z M238.4,26.7c5.6,1.5,8.9,4.8,10.4,10.4c1.5-5.6,4.8-8.9,10.4-10.4
			c-5.6-1.5-8.9-4.8-10.4-10.4C247.3,21.9,244,25.2,238.4,26.7z"/>
	</g>
	<g id="XMLID_1885_">
		<circle id="XMLID_186_" class="st1" cx="294.2" cy="30.9" r="5.3"/>
	</g>
	<g id="XMLID_1884_">
		<circle id="XMLID_185_" class="st1" cx="203.5" cy="30.9" r="5.3"/>
	</g>
	<g id="XMLID_1883_">
		<path id="XMLID_2_" class="st1" d="M248.8,459.1c-0.6,0-1-0.5-1-1c0-13.6-4.8-18.4-18.4-18.4c-0.6,0-1-0.5-1-1c0-0.6,0.5-1,1-1
			c13.6,0,18.4-4.8,18.4-18.4c0-0.6,0.5-1,1-1s1,0.5,1,1c0,13.6,4.8,18.4,18.4,18.4c0.6,0,1,0.5,1,1c0,0.6-0.5,1-1,1
			c-13.6,0-18.4,4.8-18.4,18.4C249.8,458.6,249.4,459.1,248.8,459.1z M238.4,438.6c5.6,1.5,8.9,4.8,10.4,10.4
			c1.5-5.6,4.8-8.9,10.4-10.4c-5.6-1.5-8.9-4.8-10.4-10.4C247.3,433.8,244,437.1,238.4,438.6z"/>
	</g>
	<g id="XMLID_1882_">
		<circle id="XMLID_184_" class="st1" cx="294.2" cy="434.4" r="5.3"/>
	</g>
	<g id="XMLID_1832_">
		<circle id="XMLID_183_" class="st1" cx="203.5" cy="434.4" r="5.3"/>
	</g>
	<g id="XMLID_428_">
		<g id="XMLID_559_">
			<g id="XMLID_642_">
				<path class="st2" d="M206.3,204.4l0.1,0l0.5,0.2l26.1,9.7l18.6,6.9l51,19l-13.3-35.6l-5.7-15.4l-5.1-13.6l-11.3-30.3l-0.1-0.2
					l-2.5-6.8c-1.2-0.2-2.4-0.4-3.7-0.5c-0.5,1-1.2,2-2,2.9c-1.4,1.7-3.1,3.2-4.1,3.8c-0.6,0.4-2.1,0.8-3.8,1.2
					c-0.3,0.1-0.6,0.2-1,0.3c-3.9,1-9.5,2.4-16.6,5.7c-1.1,0.5-2.2,1.1-3.4,1.7c-2,1.1-3.8,2.2-5.5,3.4c-0.5,0.3-1,0.7-1.4,1.1
					c-1.5,1.9-3,4.1-4.3,6.5c1.1-1.4,2.4-2.8,3.7-4.2c0.7-0.7,1.5-1.5,2.3-2.1c2.6-2.3,5.5-4.3,8.5-5.9c5.7-3.1,12-4.9,18.5-5.3
					c1.9-0.1,3.9-0.1,5.9,0l1.2,3.1l0.9,2.4l2.3,6l6.3,16.9l3.3,8.8l3.1,8.4l3.7,10.1l3.3,8.9l4.8,13l-31.9-11.9l-13.9-5.2l-9.2-3.4
					l-16.6-6.2l-0.6-0.2l-0.8-0.3l-4.6-1.7c-0.1-1.7-0.1-3.4,0-5c-0.9,1.1-2.3,2.5-3.8,3.7c-0.7,0.6-1.5,1.1-2.3,1.5
					c-0.8,0.4-1.6,0.6-2.4,0.7c-0.2,0-0.4,0-0.6,0c0,0-0.1,0-0.1,0c0.1,2,0.3,4,0.7,6L206.3,204.4z"/>
			</g>
			<g id="XMLID_635_">
				<g id="XMLID_545_">
					<path id="XMLID_182_" class="st2" d="M290.3,216.1c-3.6-3.7-7.1-7.3-10.7-11c-4.8-4.9-11.8,1.3-9.2,7c2.4,5.1,5.4,9.4,9.2,13.4
						c2.3-3.1,4.6-6.1,7-9.2c-13.6-8.8-28.6-14.2-43.9-19.3c0.9,3.2,1.8,6.5,2.6,9.7c3.8-3,6.2-6,8.8-10.1
						c-3.6-0.5-7.1-0.9-10.7-1.4c0.6,2.5,1.2,5.1,1.8,7.6c1.5,6.5,11.4,5.1,11.4-1.5c0.1-7.1,0.4-14.1,1.1-21.1
						c-3.8,0.5-7.6,1-11.4,1.5c1.4,6.8,2.9,13.6,4.3,20.4c1.2,5.5,10.3,5.8,11.2,0c1.8-10.6-0.9-21.6,2-32c-3.2,0.9-6.5,1.8-9.7,2.6
						c1.1,1.9,2.1,3.7,3.2,5.6c1.8,6,12.1,5.3,11.4-1.5c-0.5-4.7-1.5-8.4-3.4-12.6c-3.4,1.9-6.7,3.8-10.1,5.7
						c1.4,2.8,2.7,5.7,4.1,8.5c3.4-1.9,6.7-3.8,10.1-5.7c-2.4-4.9-5.1-9.3-8.4-13.7c-2.7-3.5-7.5-4.1-10.1,0
						c-3.8,6-6.5,12.1-8.5,18.8c-1.8,6,5.6,8.9,9.7,5.6c8-6.4,15.2-17,14.8-27.5c-0.2-5.3-8.4-8.6-10.9-2.9
						c-5.4,12.7-11.8,24.8-19.3,36.5c3.6,0.5,7.1,0.9,10.7,1.4c-1.7-4.8,1.9-13.4,3.7-17.6c-3.6-1.4-7.1-2.9-10.7-4.3
						c-1.3,7.6-3.6,14.3-7.6,20.9c3.4,0,6.7,0,10.1,0c-1.5-3.3,3-14.1,4.1-17.6c2.2-7.3-8.6-9.8-11.2-2.9c-1.6,4.2-3.5,7.6-5.9,11.3
						c3.6,0.5,7.1,0.9,10.7,1.4c0-2.5,0-5,0-7.4c1.3-6.5-7-9.9-10.7-4.3c-1,1.5-2,3-2.9,4.5c3.6,1.4,7.1,2.9,10.7,4.3
						c1-3.9,2.2-7.6,3.5-11.4c2.4-6.7-7.1-9.2-10.7-4.3c-2.7,3.7-5.4,7.4-8.1,11.1c3.6,1,7.2,1.9,10.9,2.9c0.2-2.1,0.4-4.2,0.6-6.3
						c1.2-7.3-10.1-10.3-11.2-2.9c-0.5,3.3-0.8,5.8-1,9.2c-0.4,6.4,7.8,7.1,10.9,2.9c2.7-3.7,5.4-7.4,8.1-11.1
						c-3.6-1.4-7.1-2.9-10.7-4.3c-1.4,3.8-2.5,7.5-3.5,11.4c-1.7,6.6,7.1,9.8,10.7,4.3c1-1.5,2-3,2.9-4.5c-3.6-1.4-7.1-2.9-10.7-4.3
						c-0.9,4.8-0.9,8.6,0,13.3c1.1,5.3,8.1,5.3,10.7,1.4c3-4.5,5.2-9.1,7.1-14.1c-3.7-1-7.5-2-11.2-2.9c-2.4,7.9-6.5,18.2-2.9,26.3
						c1.9,4.2,8,3.5,10.1,0c4.5-7.6,7.3-15.1,8.7-23.7c1-5.9-8-10.9-10.7-4.3c-3.3,8-7.8,17.6-4.8,26.2c1.7,4.8,7.8,5.8,10.7,1.4
						c7.5-11.6,13.9-23.7,19.3-36.5c-3.6-1-7.2-1.9-10.9-2.9c0.3,7.4-6,15-11.4,19.3c3.2,1.9,6.5,3.7,9.7,5.6
						c1.7-5.8,4.2-10.9,7.4-16c-3.4,0-6.7,0-10.1,0c3.3,4.4,6,8.8,8.4,13.7c3.2,6.8,13.3,1,10.1-5.7c-1.4-2.8-2.7-5.7-4.1-8.5
						c-3.2-6.8-13.2-1-10.1,5.7c0.6,2.3,1.3,4.6,1.9,6.9c3.8-0.5,7.6-1,11.4-1.5c-1.3-4.4-3-7.5-6.2-10.8c-3.1-3.3-8.6-1.5-9.7,2.6
						c-3,10.6-0.2,21.3-2,32c3.7,0,7.5,0,11.2,0c-1.4-6.8-2.9-13.6-4.3-20.4c-1.4-6.9-10.9-4.7-11.4,1.5c-0.7,7-1,14.1-1.1,21.1
						c3.8-0.5,7.6-1,11.4-1.5c-0.6-2.5-1.2-5.1-1.8-7.6c-1.2-5.1-8.1-5.6-10.7-1.4c-1.6,3.2-3.9,5.7-6.9,7.6c-3.7,3-1.1,8.5,2.6,9.7
						c14.3,4.8,28.3,9.9,41.1,18.2c5.6,3.7,11.3-4.5,7-9.2c-3.4-3.6-5.3-6.6-7.4-11c-3.1,2.3-6.1,4.6-9.2,7c3.6,3.7,7.1,7.3,10.7,11
						C287.3,229.7,295.5,221.5,290.3,216.1L290.3,216.1z"/>
				</g>
			</g>
			<g id="XMLID_630_">
				<g id="XMLID_631_">
					<path class="st3" d="M233.1,214.4c2-0.9,3.8-2.2,5.5-3.8c1-1,1.8-2,2.5-3.1c4.9-7.6,4.1-17.8-2.5-24.4c-4.2-4.2-9.7-6-15.2-5.6
						c-4,0.3-8,1.8-11.2,4.6c-0.3,1.1-0.5,2.1-0.8,2.9c-0.5,2.1-1,4-1.5,4.8c-0.2,0.3-0.4,0.6-0.6,0.9c-0.9,1.1-2.3,2.5-3.8,3.7
						c-0.4,3.4,0,6.8,1.3,10c0,0.1,0.1,0.3,0.2,0.4L233.1,214.4z M217.6,189.6c0.8-0.8,1.7-1.4,2.7-1.9c3.8-1.9,8.5-1.2,11.7,1.9
						c4,4,4,10.4,0,14.4l-0.1,0.1c-4,3.9-10.4,3.9-14.3-0.1c-1.6-1.6-2.5-3.5-2.8-5.6c-0.1-0.3-0.1-0.5-0.1-0.8
						C214.4,194.7,215.4,191.8,217.6,189.6z"/>
				</g>
			</g>
			<g id="XMLID_622_">
				<g id="XMLID_623_">
					<path class="st3" d="M233.5,152.3c0-0.1,0-0.3,0-0.4c0.1-1.3,0.4-2.6,1.1-3.7c-2.9,1.7-6.6,4.4-10,8.4c0,0.2,0.1,0.3,0.1,0.5
						c0.1,0.4,0.2,0.9,0.3,1.3C227.6,155.9,230.5,153.9,233.5,152.3z M233.5,152.3c0-0.1,0-0.3,0-0.4c0.1-1.3,0.4-2.6,1.1-3.7
						c-2.9,1.7-6.6,4.4-10,8.4c0,0.2,0.1,0.3,0.1,0.5c0.1,0.4,0.2,0.9,0.3,1.3C227.6,155.9,230.5,153.9,233.5,152.3z M257.4,166.4
						c2.3-2.3,3.9-5.1,4.8-8c1-3.2,1.1-6.7,0.4-9.9c-0.6-2.8-1.8-5.4-3.6-7.7c-0.1-0.2-0.3-0.4-0.4-0.6c-2,1-5.9,2.2-10.5,3.4
						c1,0.5,1.9,1.1,2.7,1.9c0.1,0.1,0.2,0.2,0.3,0.3c0.3,0.3,0.6,0.7,0.9,1.1c1,1.4,1.6,3.1,1.7,4.8c0.3,2.9-0.7,5.9-2.9,8.1
						c-4,4-10.4,4-14.4,0c-0.3-0.3-0.7-0.7-0.9-1.1c-1.4-1.9-2.1-4.2-2-6.5c0-0.1,0-0.3,0-0.4c0.1-1.3,0.4-2.6,1.1-3.7
						c-2.9,1.7-6.6,4.4-10,8.4c0,0.2,0.1,0.3,0.1,0.5c0.1,0.4,0.2,0.9,0.3,1.3c0.8,2.7,2.2,5.2,4.2,7.5c0.2,0.3,0.5,0.5,0.7,0.8
						C237.5,174,249.8,174,257.4,166.4z M236.2,136.6c5.1-0.4,9.7-1.5,13.5-2.4c-6-1.9-12.8-0.9-17.9,3.2
						C233.1,137,234.6,136.8,236.2,136.6z M233.5,152.3c0-0.1,0-0.3,0-0.4c0.1-1.3,0.4-2.6,1.1-3.7c-2.9,1.7-6.6,4.4-10,8.4
						c0,0.2,0.1,0.3,0.1,0.5c0.1,0.4,0.2,0.9,0.3,1.3C227.6,155.9,230.5,153.9,233.5,152.3z M233.5,152.3c0-0.1,0-0.3,0-0.4
						c0.1-1.3,0.4-2.6,1.1-3.7c-2.9,1.7-6.6,4.4-10,8.4c0,0.2,0.1,0.3,0.1,0.5c0.1,0.4,0.2,0.9,0.3,1.3
						C227.6,155.9,230.5,153.9,233.5,152.3z"/>
				</g>
			</g>
			<g id="XMLID_615_">
				<g id="XMLID_544_">
					<path id="XMLID_181_" class="st3" d="M255.5,161.2c0.3-0.9,0.7-1.8,1-2.7c0.1-0.2,1.1-2.4,0.5-1.5c-2.2,0.9-4.3,1.8-6.5,2.8
						c0.1,0,0.2,0.1,0.3,0.1c-1.4-1.4-2.8-2.8-4.1-4.1c0,0.1,0.1,0.3,0.1,0.4c0-1,0-2,0-2.9c0.2-0.8,1.5-1,0.7-1
						c-0.5,0-1.2,0.3-1.7,0.4c-1.2,0.3-2.4,0.7-3.6,1.1c-3.4,0.9-6.3,2.6-6.9,6.4c-0.6,3.8,1.8,7.4,5.7,8.1c3.6,0.6,7.2-1.8,7.9-5.4
						c0.6-3.1-1-6.3-4.1-7.1c-2.9-0.8-6.5,1.1-7.1,4.1c0,0.2-0.1,0.4-0.1,0.6c0.5-0.9,1-1.8,1.5-2.6c0.1-0.1,0.2-0.2,0.3-0.3
						c1-0.3,1.9-0.5,2.9-0.8c-0.2,0-0.4,0-0.6-0.1c1.4,0.6,2.7,1.1,4.1,1.7c-0.2-0.1-0.3-0.3-0.5-0.4c0.5,0.9,1,1.8,1.5,2.6
						c0,0.1,0,0.2,0,0.2c-0.3,1-0.5,1.9-0.8,2.9c-1.8,1.1-2.2,1.5-1.3,1.3c0.4,0,0.7-0.1,1-0.3c0.7-0.2,1.3-0.5,2-0.6
						c1.8-0.4,3.5-0.7,5.2-1.6c3.6-1.8,5.9-5.6,5-9.6c-0.5-2.1-2.2-3.6-4.1-4.1c-0.1,0-0.2-0.1-0.3-0.1c-2.5-0.8-5.2,0.6-6.5,2.8
						c-1.2,2-1.9,4.7-2.7,6.9c-1.1,2.9,1.3,6.4,4.1,7.1C251.7,166.2,254.4,164.2,255.5,161.2L255.5,161.2z"/>
				</g>
			</g>
			<g id="XMLID_608_">
				<g id="XMLID_543_">
					<path id="XMLID_180_" class="st3" d="M227.8,192c-2.3-1.2-5-1.9-7.6-1.7c-3.2,0.3-7,1.5-8.3,4.8c-1.7,4.2,1.6,7.9,5.4,9.1
						c2.6,0.9,5.1,0.3,7.7,0.6c3,0.3,6-2.9,5.8-5.8c-0.3-3.7-2.6-6.2-6.4-6.4c-4.9-0.3-7.9,6.7-4.1,9.9c1.2,1,2.4,2,3.8,2.7
						c2.7,1.4,6.4,0.7,7.9-2.2c1.4-2.7,0.7-6.4-2.2-7.9c-0.4-0.2-0.7-0.4-1.1-0.6c-0.6-0.4-0.7-0.5-0.2-0.2
						c-1.4,3.3-2.7,6.6-4.1,9.9c0.1,0,0.2,0,0.3,0c-1.4-0.6-2.7-1.1-4.1-1.7c0.1,0.1,0.2,0.2,0.2,0.2c-0.6-1.4-1.1-2.7-1.7-4.1
						c0,0.1,0,0.2,0,0.3c1.9-1.9,3.9-3.9,5.8-5.8c-1-0.1-2.1,0-3.1,0c-0.2,0-1.4,0.1-1.4,0c0.1,0,0.2,0,0.3,0
						c0.7,0.2,1.2,0.7,1.6,1.4c0.3,1,0.5,1.9,0.8,2.9c0-0.1,0-0.1,0-0.2c-0.6,1.4-1.1,2.7-1.7,4.1c-0.3,0.3-1.6,0.8-0.6,0.5
						c1.4-0.4-1,0,0.5-0.1c0.2,0,0.3,0,0.5,0c-0.7-0.1-0.7-0.1,0,0c0.2,0,0.3,0.1,0.5,0.1c-0.6-0.3-0.6-0.3-0.1,0
						c2.7,1.4,6.5,0.7,7.9-2.2C231.4,197.2,230.7,193.5,227.8,192L227.8,192z"/>
				</g>
			</g>
			<g id="XMLID_601_">
				<g id="XMLID_542_">
					<path id="XMLID_179_" class="st3" d="M237.8,203.5c0.3-3.6,0.9-7.3-0.9-10.6c-1.9-3.5-5.5-4.3-8.5-6.3
						c-4.1-2.8-10-0.8-10.2,4.6c-0.1,2,0.8,3.8,2.2,5.2c0.8,0.8,1.9,1.6,2.9,2.3c0.3,0.2,0.6,0.4,0.9,0.6c1.4,1,1.4,0.6-0.1-1.2
						c0-1,0-2,0-2.9c0,0.2-0.1,0.3-0.1,0.5c-2.1,7.2,9.2,10.1,11.2,2.9c0.6-2.2,0.2-4.6-1.3-6.4c-0.8-0.9-1.7-1.6-2.7-2.2
						c-0.4-0.2-2.3-1.2-2.2-1.1c0.3,1,0.5,1.9,0.8,2.9c0-0.1,0-0.3,0-0.4c-0.6,1.4-1.1,2.7-1.7,4.1c0.1-0.1,0.2-0.2,0.3-0.3
						c-1.9,0.5-3.7,1-5.6,1.5c-2.1-0.6,1.6,1.4,2,1.6c0.4,0.2,3.1,1.8,2.1,0.4c-0.8-1.1-0.3,0.4-0.4,1.1c-0.1,1.3-0.2,2.6-0.4,3.9
						c-0.3,3.1,2.9,5.8,5.8,5.8C235.4,209.3,237.5,206.6,237.8,203.5L237.8,203.5z"/>
				</g>
			</g>
			<g id="XMLID_594_">
				<g id="XMLID_540_">
					<path id="XMLID_178_" class="st3" d="M223.4,196.3c-5.3,5.3,2.9,13.5,8.2,8.2C236.9,199.3,228.7,191.1,223.4,196.3L223.4,196.3
						z"/>
				</g>
			</g>
			<g id="XMLID_587_">
				<g id="XMLID_539_">
					<path id="XMLID_177_" class="st3" d="M223.5,196.2c-5.3,5.3,2.9,13.5,8.2,8.2C237,199.2,228.8,190.9,223.5,196.2L223.5,196.2z"
						/>
				</g>
			</g>
			<g id="XMLID_580_">
				<g id="XMLID_538_">
					<path id="XMLID_176_" class="st3" d="M223.5,196.2c-5.3,5.3,2.9,13.5,8.2,8.2C237,199.2,228.8,190.9,223.5,196.2L223.5,196.2z"
						/>
				</g>
			</g>
			<g id="XMLID_578_">
				<path class="st3" d="M282,211.5c1.7-0.9,3.3-2,4.7-3.4c1-1,1.9-2.2,2.7-3.4l-5.7-15.4l-5.1-13.6c-3.3-1-6.8-1.1-10.1-0.3
					c-3.4,0.8-6.7,2.5-9.3,5.2c-7.6,7.6-7.6,19.9,0,27.5C265.4,214.2,274.7,215.4,282,211.5z"/>
			</g>
			<g id="XMLID_571_">
				<g id="XMLID_537_">
					<path id="XMLID_175_" class="st3" d="M226.7,197.9c-1.7,0.2-3.4,0.2-5.1,0c-3-0.3-5.9,2.9-5.8,5.8c0.1,3.4,2.6,5.5,5.8,5.8
						c1.7,0.2,3.4,0.2,5.1,0c1.6-0.2,2.9-0.5,4.1-1.7c1-1,1.8-2.7,1.7-4.1C232.3,200.8,229.9,197.5,226.7,197.9L226.7,197.9z"/>
				</g>
			</g>
			<g id="XMLID_560_">
				<path class="st4" d="M213.8,197.3l0.8,0.3l0.6,0.2c1.1-1.2,1.9-2.3,2.4-3.1c0,0,0-0.1,0.1-0.1c1.1-1.9,1.8-4.1,2.5-6.9
					c0-0.1,0.1-0.3,0.1-0.5c0.7-2.6,1.5-5.9,3-9.8c0.9-2.5,2.1-5.2,3.7-8.2c0.7-1.3,1.4-2.4,2.1-3.5c2-2.9,4.3-5.2,6.4-6.9
					c-1.4-1.9-2.1-4.2-2-6.5c-3,1.6-5.9,3.6-8.5,5.9c-0.1-0.4-0.2-0.8-0.3-1.3c0-0.2-0.1-0.3-0.1-0.5c-0.4,0.5-0.9,1-1.3,1.5
					c-1.5,1.9-3,4.1-4.3,6.5c0,0.1-0.1,0.2-0.2,0.3c-3.7,7-5.5,12.8-6.7,17.1c-0.3,1.1-0.5,2.1-0.8,2.9c-0.5,2.1-1,4-1.5,4.8
					c-0.2,0.3-0.4,0.6-0.6,0.9c-0.1,1.7-0.1,3.4,0,5L213.8,197.3z M213.8,197.3l0.8,0.3l0.6,0.2c1.1-1.2,1.9-2.3,2.4-3.1
					c0,0,0-0.1,0.1-0.1c1.1-1.9,1.8-4.1,2.5-6.9c0-0.1,0.1-0.3,0.1-0.5c0.7-2.6,1.5-5.9,3-9.8c0.9-2.5,2.1-5.2,3.7-8.2
					c0.7-1.3,1.4-2.4,2.1-3.5c2-2.9,4.3-5.2,6.4-6.9c-1.4-1.9-2.1-4.2-2-6.5c-3,1.6-5.9,3.6-8.5,5.9c-0.1-0.4-0.2-0.8-0.3-1.3
					c0-0.2-0.1-0.3-0.1-0.5c-0.4,0.5-0.9,1-1.3,1.5c-1.5,1.9-3,4.1-4.3,6.5c0,0.1-0.1,0.2-0.2,0.3c-3.7,7-5.5,12.8-6.7,17.1
					c-0.3,1.1-0.5,2.1-0.8,2.9c-0.5,2.1-1,4-1.5,4.8c-0.2,0.3-0.4,0.6-0.6,0.9c-0.1,1.7-0.1,3.4,0,5L213.8,197.3z M213.8,197.3
					l0.8,0.3l0.6,0.2c1.1-1.2,1.9-2.3,2.4-3.1c0,0,0-0.1,0.1-0.1c1.1-1.9,1.8-4.1,2.5-6.9c0-0.1,0.1-0.3,0.1-0.5
					c0.7-2.6,1.5-5.9,3-9.8c0.9-2.5,2.1-5.2,3.7-8.2c0.7-1.3,1.4-2.4,2.1-3.5c2-2.9,4.3-5.2,6.4-6.9c-1.4-1.9-2.1-4.2-2-6.5
					c-3,1.6-5.9,3.6-8.5,5.9c-0.1-0.4-0.2-0.8-0.3-1.3c0-0.2-0.1-0.3-0.1-0.5c-0.4,0.5-0.9,1-1.3,1.5c-1.5,1.9-3,4.1-4.3,6.5
					c0,0.1-0.1,0.2-0.2,0.3c-3.7,7-5.5,12.8-6.7,17.1c-0.3,1.1-0.5,2.1-0.8,2.9c-0.5,2.1-1,4-1.5,4.8c-0.2,0.3-0.4,0.6-0.6,0.9
					c-0.1,1.7-0.1,3.4,0,5L213.8,197.3z M213.8,197.3l0.8,0.3l0.6,0.2c1.1-1.2,1.9-2.3,2.4-3.1c0,0,0-0.1,0.1-0.1
					c1.1-1.9,1.8-4.1,2.5-6.9c0-0.1,0.1-0.3,0.1-0.5c0.7-2.6,1.5-5.9,3-9.8c0.9-2.5,2.1-5.2,3.7-8.2c0.7-1.3,1.4-2.4,2.1-3.5
					c2-2.9,4.3-5.2,6.4-6.9c-1.4-1.9-2.1-4.2-2-6.5c-3,1.6-5.9,3.6-8.5,5.9c-0.1-0.4-0.2-0.8-0.3-1.3c0-0.2-0.1-0.3-0.1-0.5
					c-0.4,0.5-0.9,1-1.3,1.5c-1.5,1.9-3,4.1-4.3,6.5c0,0.1-0.1,0.2-0.2,0.3c-3.7,7-5.5,12.8-6.7,17.1c-0.3,1.1-0.5,2.1-0.8,2.9
					c-0.5,2.1-1,4-1.5,4.8c-0.2,0.3-0.4,0.6-0.6,0.9c-0.1,1.7-0.1,3.4,0,5L213.8,197.3z M199.9,205.7c2.3,0.1,4.5-0.4,6.5-1.3
					c0.1-0.1,0.2-0.1,0.4-0.2c1.4-0.6,2.6-1.4,3.8-2.2c1.6-1.1,3-2.4,4.1-3.7c0.2-0.2,0.3-0.4,0.5-0.5c1.1-1.2,1.9-2.3,2.4-3.1
					c0,0,0-0.1,0.1-0.1c1.1-1.9,1.8-4.1,2.5-6.9c0-0.1,0.1-0.3,0.1-0.5c0.7-2.6,1.5-5.9,3-9.8c0.9-2.5,2.1-5.2,3.7-8.2
					c0.7-1.3,1.4-2.4,2.1-3.5c2-2.9,4.3-5.2,6.4-6.9c3.5-2.9,6.6-4.2,7.5-4.6c2.6-0.5,6.7-1.3,10.8-2.5c1.8-0.5,3.6-1.1,5.3-1.7
					c1.2-0.5,2.4-0.9,3.5-1.5c0,0,0.1,0,0.1,0c1.5-0.7,2.8-1.5,3.6-2.4c0.3-0.3,0.6-0.7,0.9-1c1-1.2,1.9-2.6,2.5-4.1
					c1-2.2,1.4-4.6,1.2-6.9c-0.3-3.6-2.2-6.8-5.2-9c-2.4-1.7-5-2.2-7.9-2c-2.8,0.1-5.9,1-9.2,1.8c-3.9,1-8.2,2.1-13.1,2.5
					c-8,0.6-14.9,3.7-19.9,8.7c-3.3,3.3-5.9,7.5-7.5,12.5c-2.1,6.2-9.2,13.6-12,16.1c-6.2,4.5-15.7,16.5-8.5,31.2
					C191.2,203.7,196.3,205.5,199.9,205.7z M213.8,197.3l0.8,0.3l0.6,0.2c1.1-1.2,1.9-2.3,2.4-3.1c0,0,0-0.1,0.1-0.1
					c1.1-1.9,1.8-4.1,2.5-6.9c0-0.1,0.1-0.3,0.1-0.5c0.7-2.6,1.5-5.9,3-9.8c0.9-2.5,2.1-5.2,3.7-8.2c0.7-1.3,1.4-2.4,2.1-3.5
					c2-2.9,4.3-5.2,6.4-6.9c-1.4-1.9-2.1-4.2-2-6.5c-3,1.6-5.9,3.6-8.5,5.9c-0.1-0.4-0.2-0.8-0.3-1.3c0-0.2-0.1-0.3-0.1-0.5
					c-0.4,0.5-0.9,1-1.3,1.5c-1.5,1.9-3,4.1-4.3,6.5c0,0.1-0.1,0.2-0.2,0.3c-3.7,7-5.5,12.8-6.7,17.1c-0.3,1.1-0.5,2.1-0.8,2.9
					c-0.5,2.1-1,4-1.5,4.8c-0.2,0.3-0.4,0.6-0.6,0.9c-0.1,1.7-0.1,3.4,0,5L213.8,197.3z M213.8,197.3l0.8,0.3l0.6,0.2
					c1.1-1.2,1.9-2.3,2.4-3.1c0,0,0-0.1,0.1-0.1c1.1-1.9,1.8-4.1,2.5-6.9c0-0.1,0.1-0.3,0.1-0.5c0.7-2.6,1.5-5.9,3-9.8
					c0.9-2.5,2.1-5.2,3.7-8.2c0.7-1.3,1.4-2.4,2.1-3.5c2-2.9,4.3-5.2,6.4-6.9c-1.4-1.9-2.1-4.2-2-6.5c-3,1.6-5.9,3.6-8.5,5.9
					c-0.1-0.4-0.2-0.8-0.3-1.3c0-0.2-0.1-0.3-0.1-0.5c-0.4,0.5-0.9,1-1.3,1.5c-1.5,1.9-3,4.1-4.3,6.5c0,0.1-0.1,0.2-0.2,0.3
					c-3.7,7-5.5,12.8-6.7,17.1c-0.3,1.1-0.5,2.1-0.8,2.9c-0.5,2.1-1,4-1.5,4.8c-0.2,0.3-0.4,0.6-0.6,0.9c-0.1,1.7-0.1,3.4,0,5
					L213.8,197.3z M213.8,197.3l0.8,0.3l0.6,0.2c1.1-1.2,1.9-2.3,2.4-3.1c0,0,0-0.1,0.1-0.1c1.1-1.9,1.8-4.1,2.5-6.9
					c0-0.1,0.1-0.3,0.1-0.5c0.7-2.6,1.5-5.9,3-9.8c0.9-2.5,2.1-5.2,3.7-8.2c0.7-1.3,1.4-2.4,2.1-3.5c2-2.9,4.3-5.2,6.4-6.9
					c-1.4-1.9-2.1-4.2-2-6.5c-3,1.6-5.9,3.6-8.5,5.9c-0.1-0.4-0.2-0.8-0.3-1.3c0-0.2-0.1-0.3-0.1-0.5c-0.4,0.5-0.9,1-1.3,1.5
					c-1.5,1.9-3,4.1-4.3,6.5c0,0.1-0.1,0.2-0.2,0.3c-3.7,7-5.5,12.8-6.7,17.1c-0.3,1.1-2.6,8.3-2.9,8.6c-0.1,1.7-0.1,3.4,0,5
					L213.8,197.3z M213.8,197.3l0.8,0.3l0.6,0.2c1.1-1.2,1.9-2.3,2.4-3.1c0,0,0-0.1,0.1-0.1c1.1-1.9,1.8-4.1,2.5-6.9
					c0-0.1,0.1-0.3,0.1-0.5c0.7-2.6,1.5-5.9,3-9.8c0.9-2.5,2.1-5.2,3.7-8.2c0.7-1.3,1.4-2.4,2.1-3.5c2-2.9,4.3-5.2,6.4-6.9
					c-1.4-1.9-2.1-4.2-2-6.5c-3,1.6-5.9,3.6-8.5,5.9c-0.1-0.4-0.2-0.8-0.3-1.3c0-0.2-0.1-0.3-0.1-0.5c-0.4,0.5-4.3,5.6-5.6,8
					c0,0.1-0.1,0.2-0.2,0.3c-3.7,7-9.3,25.4-9.6,25.7c-0.1,1.7-0.1,3.4,0,5L213.8,197.3z"/>
			</g>
		</g>
		<g id="XMLID_520_">
			<g id="XMLID_555_">
				<path class="st2" d="M240.9,349.5c1.2-3,4.6-6.2,6.3-7.2c0.8-0.5,2.7-1,4.8-1.5c4.5-1.1,11.3-2.8,20-7.4
					c4.3-2.2,7.7-4.9,10.4-7.6c6.7-6.7,9-13.4,9.2-13.8l0.2-0.7c1.5-8.4,4.1-17.2,5.6-18.8c0.8-0.8,1.8-1.4,2.9-1.7
					c-0.1-1.9-0.3-3.9-0.7-5.8l-5-1.9l-10.3-3.8l-20.6-7.7l-15-5.6l-7.9-3l-4.6-1.7l-2.3-0.8l-1.7-0.6l-6.7-2.5l-0.4-0.2
					c0,0,0,0,0,0l-3.2-1.1l-0.8-0.3c0,0,0,0,0,0l-3.3-1.2l-2.8-1l-9.4-3.5l-3-1.1l-0.4-0.1l-4.5-1.7l1.7,4.6l0.1,0.4l0.5,1.3
					l3.4,9.3l0,0l1.7,4.5c0,0.1,0.1,0.2,0.1,0.3l0.3,0.7l0.2,0.5l0.3,0.8c0,0,0,0,0,0.1l0.2,0.6c0,0,0,0,0,0l0,0l1.2,3.1
					c0,0,0,0,0,0l2.2,5.8c0,0,0,0,0,0l0.5,1.2l0.8,2.2l0,0.2c0,0,0,0,0,0l2.5,6.7l0.6,1.7l2.5,6.6l1.6,4.4l1.2,3.2l0.3,0.8l2.6,7
					l0.7,1.8l2.5,6.7l0.9,2.5l7.1,19.2l2,5.4C237.3,349.1,239.1,349.4,240.9,349.5z M235.7,322.7l-0.6-1.7l-0.5-1.4l0,0l-0.1-0.3
					l-0.2-0.6l-0.3-0.8l-1.1-3l0,0l-0.3-0.9l-0.5-1.4l-0.3-0.8l-0.5-1.3l-0.3-0.9l-0.4-1l-1.5-4.1l-0.2-0.6l-1.1-3l-0.2-0.5
					l-0.3-0.8l-0.3-0.8l-0.5-1.4l-0.9-2.3l-0.2-0.4l-1-2.8l-0.1-0.2l-0.9-2.4l-1.1-2.9l-1.6-4.3l-0.3-0.8l0,0l-0.3-1
					c0,0,0-0.1-0.1-0.1l-0.5-1.4l-0.2-0.5l-1.7-4.5l-0.1-0.3l-1.5-4.1c0,0,0,0,0,0l-2.4-6.5l1,0.4l0,0l1.5,0.5l5.4,2l0.1,0l0.2,0.1
					l2.7,1l0.4,0.1c0,0,0,0,0,0c0,0,0,0,0,0l1.7,0.6l2.9,1.1l0.3,0.1l2.3,0.9l0,0l1.1,0.4l0.4,0.1l0,0l6.8,2.5l5.2,1.9l8.2,3.1
					l10,3.7l14.3,5.3l9.9,3.7l0.1,0l3.1,1.1c0.8,13.1-3.9,25.7-13.4,35.2c-9.5,9.5-22.1,14.2-35.2,13.4l-1.8-4.7l-2.8-7.5
					L235.7,322.7z"/>
			</g>
			<g id="XMLID_548_">
				<g id="XMLID_536_">
					<path id="XMLID_174_" class="st2" d="M246.8,306.1c0,0.4,0,0.8,0,1.2c0,3,2.7,5.9,5.8,5.8c3.1-0.1,5.8-2.6,5.8-5.8
						c0-0.4,0-0.8,0-1.2c0-3-2.7-5.9-5.8-5.8C249.5,300.4,246.8,302.9,246.8,306.1L246.8,306.1z"/>
				</g>
			</g>
			<g id="XMLID_541_">
				<g id="XMLID_535_">
					<path id="XMLID_173_" class="st2" d="M250,281.3c-2.7-2.2-5.2-4.4-7.5-6.9c-2.3,3.1-4.6,6.1-7,9.2c4.1,2.1,8.3,3.8,12.8,5
						c3.8,1.1,8.8-3,7.1-7.1c-1.4-3.5-2.9-6.2-6-8.5c-5.7-4.5-14,3.2-8.2,8.2c3.7,3.2,7.5,5.8,11.9,7.9c1.4-3.6,2.9-7.1,4.3-10.7
						c-6.7-2.5-13.5-3.8-20.6-4.3c-4-0.2-7.7,5.2-5.1,8.7c4.6,6.1,9.7,10.1,16.9,12.8c5.9,2.2,8.9-5.8,5.6-9.7
						c-6.1-7.2-12.4-14.2-18.9-21.1c-5.1-5.5-13.3,2.8-8.2,8.2c3.9,4.2,8.2,7.7,13.1,10.7c1.9-3.4,3.8-6.7,5.7-10.1
						c-7.2-3.4-20.6-9-27-1.3c-5.8,7.1,0.4,21.3,4.1,28.1c3.6,6.6,13.4,0.9,10.1-5.7c-1.5-3-2.8-6-3.9-9.2
						c-3.6,1.4-7.1,2.9-10.7,4.3c2,4,3.7,8.1,5.3,12.4c3.2-1.9,6.5-3.7,9.7-5.6c-1.3-1.1-2.4-2.1-3.1-3.7c-0.6-1.3-0.1-3.2-1.4-2.5
						c-1.4,0.2-2.9,0.4-4.3,0.6c5.6,1.4,10.2,7.1,14.1,11c4.6,4.7,12.4-1.3,9.2-7c-3.7-6.6-7.8-13-12.2-19.1c-3.1,2.3-6.1,4.6-9.2,7
						c4.4,5.2,8.8,10.3,13.2,15.5c4.8,5.7,13-2.5,8.2-8.2c-4.4-5.2-8.8-10.3-13.2-15.5c-4.2-4.9-13,1.6-9.2,7
						c4.4,6.2,8.5,12.5,12.2,19.1c3.1-2.3,6.1-4.6,9.2-7c-5.1-5.2-17.1-19-25.4-12.5c-7.5,5.9-2.2,18.6,3.7,23.5
						c4,3.3,11.9,0.4,9.7-5.6c-1.8-5.2-4-10.2-6.4-15.2c-2.9-5.8-12.9-1.9-10.7,4.3c1.5,4.1,3.1,8.1,5.1,12
						c3.4-1.9,6.7-3.8,10.1-5.7c-1.2-2.3-5.7-11-4.6-13.9c-1-0.7-0.9-0.9,0.4-0.5c1,0.1,2.1,0.3,3.1,0.5c2.8,0.6,5.5,1.6,8.1,2.9
						c6.7,3.2,12.2-6.1,5.7-10.1c-4-2.5-7.4-5.3-10.6-8.8c-2.7,2.7-5.5,5.5-8.2,8.2c6.4,6.9,12.7,13.9,18.9,21.1
						c1.9-3.2,3.7-6.5,5.6-9.7c-3.9-1.5-7.2-4-9.7-7.3c-1.7,2.9-3.4,5.8-5.1,8.7c6.1,0.4,11.9,1.7,17.7,3.9
						c6.1,2.3,10.3-7.8,4.3-10.7c-3.4-1.6-6.5-3.5-9.4-6c-2.7,2.7-5.5,5.5-8.2,8.2c1.3,0.8,2.3,1.9,2.9,3.3c2.4-2.4,4.7-4.7,7.1-7.1
						c-3.5-1-6.8-2.3-10-3.9c-5.8-2.9-11.6,4.3-7,9.2c2.4,2.5,4.9,4.7,7.5,6.9C247.5,294.2,255.8,286,250,281.3L250,281.3z"/>
				</g>
			</g>
			<g id="XMLID_534_">
				<g id="XMLID_494_">
					<path id="XMLID_172_" class="st2" d="M255.4,303.7c-1.7-2.1-3.5-4.1-5.2-6.2c-3.8-4.5-11.1,0.3-9.7,5.6
						c1.9,7.2,3.7,14.2,4,21.6c3.6-1,7.2-1.9,10.9-2.9c-4.7-6.4-7.1-12.9-7.1-20.9c-3.6,1-7.2,1.9-10.9,2.9
						c3.9,7.6,5.5,15.8,4.3,24.3c3.2-0.9,6.5-1.8,9.7-2.6c-3.4-3.6-6.1-7.4-8.6-11.6c-3.2-5.5-13-2-10.7,4.3c1.9,5,3.8,10,5.7,15
						c3.6-1.4,7.1-2.9,10.7-4.3c-1.7-3.5-3.3-7-5-10.5c-3.4,1.9-6.7,3.8-10.1,5.7c1.9,4,4.3,8.1,8.2,10.4c1.6,0.9,4.2,1.1,5.7,0
						c2.3-1.7,3.2-2.9,4-5.6c0.7-2.2,0-10.9,2.6-11.9c-1.9,0-3.8,0-5.7,0c5.6,3.5,10.5,9.4,15.3,13.8c3.9,3.6,11.9,0.2,9.7-5.6
						c-3.5-9.2-9-16.7-15.2-24.2c-2.7,2.7-5.5,5.5-8.2,8.2c4.9,5.9,10.7,10.3,17.6,13.5c4.2,2,10.1-1.4,8.5-6.5
						c-3.6-11.4-10-20.2-19.5-27.3c-4-3-9.9,2.1-8.5,6.5c3,9.7,14.7,31.3,28.3,24c11.2-6,1.1-24.8-8.1-27.6
						c-13.1-3.8-11.5,17.5-4.7,22.9c10.3,8.2,25.3-1.5,21-14.2c-1.9-5.4-9.6-5.8-11.2,0c-0.6,2.2-0.4,3.5-0.8,5.7
						c0,0.9,0.2,1.7,0.5,2.5c0.7,1.2,0.3,1.6-1.3,1.3c-1.8,2.8-5.5,5.4-7.8,7.7c-0.9,0.9-1.7,1.7-2.6,2.6c-3.8,2.6-4.8,6.4-3,11.5
						c-2.4-1.9-4.9-3.7-7.3-5.6c0,0.1,0,0.3,0,0.4c1.9-1.9,3.9-3.9,5.8-5.8c-0.1,0-0.2,0-0.3,0c1.9,2.4,3.7,4.9,5.6,7.3
						c0.2-1.1,0.3-2.2,0.5-3.3c1.1-7.3-10.1-10.4-11.2-2.9c-0.2,1.1-0.3,2.2-0.5,3.3c-0.5,3.4,1.5,7.6,5.6,7.3c0.1,0,0.2,0,0.3,0
						c3.3-0.3,5.6-2.4,5.8-5.8c0-0.1,0-0.3,0-0.4c0.2-4.1-3.8-6.1-7.3-5.6c-10.5,1.5-6,18.9,4.6,15.9c6.5-1.9,12.8-11,17.4-15.6
						c2.5-2.5,6.3-5.1,7.5-8.6c1-3.1-1.1-5.7-0.2-8.8c-3.7,0-7.5,0-11.2,0c-1.2,0.1-2.4,0.3-3.6,0.4c-4.2-0.9-5.1-0.3-2.9,1.6
						c0.7,0.8,1.4,1.6,1.9,2.6c0.5,1.5,0.9,1.5,1.1,0.1c-4.4-5.3-8.3-8.9-10.5-15.8c-2.8,2.2-5.7,4.3-8.5,6.5
						c6.9,5.2,11.4,12,14,20.2c2.8-2.2,5.7-4.3,8.5-6.5c-6.1-2.9-10.8-6.5-15.1-11.6c-4.8-5.7-12.9,2.5-8.2,8.2
						c4.8,5.9,9.5,11.8,12.2,18.9c3.2-1.9,6.5-3.7,9.7-5.6c-5.2-4.7-14.7-18.3-22.8-16c-3.4,0.9-4.8,3.3-6.1,6.3
						c-1,2.4-1.6,5.2-2.1,7.8c-0.2,1.1-1.7,5.6,0.9,3.7c1.9,0,3.8,0,5.7,0c-1.7-1.8-2.9-3.8-3.8-6.1c-3.2-6.8-13.3-1-10.1,5.7
						c1.7,3.5,3.3,7,5,10.5c2.8,5.9,13,1.8,10.7-4.3c-1.9-5-3.8-10-5.7-15c-3.6,1.4-7.1,2.9-10.7,4.3c3,5.2,6.4,9.8,10.5,14.1
						c2.8,3,9.1,1.8,9.7-2.6c1.7-11.7,0-22.4-5.4-33c-2.7-5.2-10.9-2.8-10.9,2.9c0,9.8,2.7,18.7,8.6,26.7c3.1,4.3,11.1,3.5,10.9-2.9
						c-0.3-8.4-2.2-16.4-4.3-24.5c-3.2,1.9-6.5,3.7-9.7,5.6c1.7,2.1,3.5,4.1,5.2,6.2C252,317.7,260.2,309.4,255.4,303.7L255.4,303.7
						z"/>
				</g>
			</g>
			<g id="XMLID_530_">
				<path class="st3" d="M286.9,306c0.9-0.9,1.7-1.8,2.3-2.8c2.1-3.2,3.3-6.8,3.4-10.4c0-0.1,0-0.2,0-0.4c0-3.9-1.1-7.9-3.5-11.3
					l-20.6-7.7c-3.3,0.8-6.5,2.5-9.1,5.1c-0.3,0.3-0.7,0.7-1,1.1c-6.6,7.7-6.2,19.2,1,26.4C267,313.6,279.3,313.6,286.9,306z
					 M266,285c0.7-0.7,1.5-1.3,2.4-1.8c3.9-2.1,8.8-1.5,12,1.8c1.1,1.1,1.8,2.3,2.3,3.6c1.4,3.6,0.6,7.9-2.3,10.8
					c-0.8,0.8-1.8,1.4-2.8,1.9c0.1-0.7,0.1-1.4-0.2-2.2c-0.1-0.3-0.2-0.5-0.3-0.8c3.6-2.7,3-8.2,0.3-11.8
					c-3.2-4.2-10.2-4.6-12.4,0.8c-0.1,0.3-0.2,0.5-0.2,0.8c-0.4,0.2-0.8,0.5-1.2,0.8C264.1,287.6,264.8,286.2,266,285z M270.8,288.9
					C270.8,288.9,270.8,288.9,270.8,288.9c0.2,0.1,0.4,0.2,0.6,0.4C271.2,289.2,271,289.1,270.8,288.9z"/>
			</g>
			<g id="XMLID_528_">
				<g id="XMLID_529_">
					<path id="XMLID_171_" class="st3" d="M276.3,306c1.5-0.5,3-1.2,4.4-2.1c2.5-1.7,3.9-5.1,2.2-7.9c-1.6-2.5-5.2-4-7.9-2.2
						c-0.4,0.3-0.8,0.5-1.3,0.8c-0.2,0.1-0.4,0.2-0.6,0.3c0.8-0.3,0.8-0.3,0.2-0.1c-2.9,1-5.1,3.9-4.1,7.1
						C270.1,304.6,273.2,307,276.3,306L276.3,306z"/>
				</g>
			</g>
			<g id="XMLID_526_">
				<g id="XMLID_527_">
					<path id="XMLID_170_" class="st3" d="M284.8,288.3c-1.4-1.7-2.7-3.6-4.2-5.1c-0.9-0.9-2-1.7-3.3-2.1c-0.6-0.2-1.2-0.2-1.9-0.3
						c0.9,0.1-0.5-0.1-0.8-0.1c-5.7-0.8-10.5,1.6-12.4,7.2c-1,3,1.3,6.3,4.1,7.1c3.2,0.8,6.1-1.2,7.1-4.1c-0.1,0.4-1.4,1.5-1.4,1.2
						c0,0,5.6,1.4,1.6-0.1c-2.1-0.8-1.2-0.3-0.5,0.5c0.3,0.4,0.7,0.9,1,1.3c0.8,1,1.6,1.9,2.4,2.9c2,2.4,6.2,2.1,8.2,0
						C287.2,294.2,286.8,290.8,284.8,288.3L284.8,288.3z"/>
				</g>
			</g>
			<g id="XMLID_525_">
				<path id="XMLID_126_" class="st3" d="M237.7,328.1C237.7,328,237.7,328.1,237.7,328.1c2.3-1,4.3-2.3,6.1-4.1
					c7.6-7.6,7.6-19.9,0-27.5c-5.3-5.3-12.9-6.9-19.6-4.8c0,0,0,0,0,0c-2.9,0.9-5.6,2.5-7.9,4.8l-0.2,0.2l2.5,6.6l0.9,2.3h0l0.3,0.8
					l2.6,7l0.7,1.8l2.5,6.7c0,0,0,0,0,0l2.9,7.8C231.6,329.8,234.8,329.3,237.7,328.1z"/>
			</g>
			<g id="XMLID_524_">
				<path id="XMLID_1_" class="st3" d="M210.1,280.4l-0.5-1.2c0,0,0,0,0,0l-2.2-5.8c0,0,0,0,0,0l-1.2-3.1l0,0c0,0,0,0,0,0l-0.2-0.6
					c0,0,0,0,0-0.1l-0.3-0.8l-0.2-0.5l-0.3-0.7c0-0.1-0.1-0.2-0.1-0.3l-1.7-4.5l0,0l-3.4-9.3l-0.5-1.3l-0.1-0.4l-1.7-4.6l4.5,1.7
					l0.4,0.1l3,1.1l9.4,3.5l2.8,1l3.3,1.2c0,0,0,0,0,0l0.8,0.3l3.2,1.1c0,0,0,0,0,0l0.4,0.2l6.7,2.5c-0.1,1.1-0.3,2.3-0.7,3.4
					c-0.2,0.6-0.3,1.1-0.5,1.7c-0.4,1.3-1,2.5-1.7,3.7c-1,1.8-2.3,3.5-3.8,5c-1.9,1.9-4,3.4-6.3,4.5c-1,0.5-2,0.9-3,1.2
					c-0.5,0.2-1,0.3-1.5,0.4C213.1,280.1,211.6,280.4,210.1,280.4z"/>
			</g>
			<g id="XMLID_521_">
				<path class="st4" d="M240.9,364.6c14.7,7.2,26.7-2.3,31.2-8.5c2.5-2.8,9.9-10,16.1-12c12.5-4.1,20.2-14.1,21.3-27.5
					c0.4-4.9,1.5-9.3,2.5-13.1c0.8-3.3,1.6-6.4,1.8-9.2c0.1-2.8-0.3-5.5-2-7.9c-2.2-3-5.4-4.9-9-5.2c-2.7-0.2-5.7,0.5-8.2,1.8
					c-1.4,0.7-2.7,1.7-3.8,2.8c-1.1,1.1-2,2.7-2.9,4.6c0,0.1-0.1,0.2-0.1,0.3c-1.4,3.1-2.5,6.9-3.4,10.4c-0.8,3-1.3,5.8-1.7,7.8
					c-0.7,1.6-4.7,10.5-15,16c-7.8,4.1-13.7,5.6-18,6.7c-3,0.8-5.4,1.4-7.4,2.6c-0.5,0.3-1.1,0.7-1.7,1.2c-0.8,0.6-1.7,1.4-2.6,2.3
					c-1.5,1.5-3.1,3.4-4.3,5.5c-1.5,2.6-2.5,5.6-2.4,8.7C231.3,355.8,233.2,360.9,240.9,364.6z"/>
			</g>
		</g>
		<g id="XMLID_492_">
			<g id="XMLID_515_">
				<g id="XMLID_516_">
					<path class="st1" d="M298,209c2.1-1.1,4.1-2.6,5.9-4.3c1.3-1.3,2.4-2.7,3.4-4.2l-7.2-19.3l-6.4-17.2c-4.1-1.3-8.5-1.4-12.6-0.4
						c-4.3,1-8.4,3.2-11.8,6.5c-9.5,9.5-9.5,25.1,0,34.6C277,212.4,288.8,213.9,298,209z M277.5,178.3c2.1-2.1,4.8-3.3,7.6-3.7
						c3.7-0.4,7.6,0.8,10.4,3.7c5,5,5,13.1,0,18c-0.6,0.6-1.2,1.1-1.8,1.5c-5,3.5-11.9,3-16.3-1.4
						C272.6,191.4,272.6,183.3,277.5,178.3z"/>
				</g>
			</g>
			<g id="XMLID_502_">
				<g id="XMLID_508_">
					<path class="st1" d="M229.6,366.3c18.5,9,33.6-2.8,39.3-10.6c3.2-3.6,12.5-12.6,20.3-15.1c15.7-5.1,25.4-17.7,26.7-34.5
						c0.5-6.2,1.9-11.7,3.1-16.5c1.1-4.2,2-8,2.3-11.6c0.2-3.6-0.4-6.9-2.6-9.9c-2.7-3.8-6.7-6.2-11.3-6.6
						c-3.4-0.3-7.1,0.6-10.3,2.3l-13-4.8l-26-9.7l-18.9-7l-18.5-6.9l-16-6c0,0,0,0,0,0l-7.6-2.8l-16.1-6l-5.7-2.1l2.2,5.8l7.3,19.6
						c0,0.1,0.1,0.3,0.2,0.4l7.1,19.1l4,10.9l3.1,8.3l2.1,5.5l5.1,13.8l5.2,13.8l9,24.1c-1.9,3.3-3.2,7-3,11
						C217.6,355.1,219.9,361.5,229.6,366.3z M309.2,274.7c1.1,1.6-0.2,6.8-1.5,11.8c-1.3,5.1-2.9,11.3-3.5,18.5
						c-1.3,16.2-12.3,22.2-18.7,24.3c-12.6,4.2-25.1,18.1-25.6,18.7l-0.4,0.5c-1.1,1.5-10.6,14.1-24.8,7.2c-3.7-1.8-5.6-3.7-5.7-5.8
						c0-0.9,0.2-1.8,0.6-2.8c1.5-3.7,5.8-7.8,7.9-9.1c0.9-0.6,3.4-1.2,6-1.9c5.6-1.4,14.2-3.6,25.2-9.4c5.4-2.8,9.7-6.2,13.1-9.6
						c8.4-8.4,11.4-16.9,11.5-17.3l0.2-0.8c1.9-10.6,5.2-21.6,7-23.6c1-1,2.3-1.8,3.6-2.2c0.8-0.2,1.5-0.3,2.3-0.3
						c0.9,0.1,1.6,0.4,2.2,1C308.8,274.3,309,274.5,309.2,274.7z M279,271.3c1.3,1.3,2.3,2.9,2.9,4.5c1.7,4.6,0.7,9.9-2.9,13.6
						c-5,5-13.1,5-18,0c-5-5-5-13.1,0-18.1c0.9-0.9,1.9-1.7,3-2.2C268.8,266.5,274.9,267.3,279,271.3z M245.5,256.9l10,3.7
						c-1,0.7-1.9,1.5-2.8,2.4c-0.4,0.4-0.8,0.9-1.3,1.3c-8.3,9.6-7.8,24.1,1.3,33.2c6.9,6.9,16.9,8.8,25.5,5.7
						c-2.9,4.2-7.7,9.3-14.9,13.1c-9.8,5.1-17.2,7-22.6,8.4c-3.8,1-6.8,1.8-9.3,3.3c-0.6,0.4-1.3,0.9-2.2,1.6l-3.6-9.6
						c1-0.3,2.1-0.6,3.1-1.1c2.8-1.2,5.3-2.9,7.6-5.2c9.5-9.5,9.5-25,0-34.6c-6.6-6.6-16.2-8.7-24.7-6c-1,0.3-2,0.7-3,1.2l-1.6-4.2
						c1.2-0.2,2.3-0.5,3.4-0.8c3.6-1.1,7-3.1,9.8-6c2.7-2.7,4.6-5.8,5.7-9.1c0.5-1.4,0.8-2.8,1-4.3l8.1,3L245.5,256.9z M212.7,285.5
						c1-0.5,2-0.9,3-1.2c4.2-1.1,9,0,12.3,3.3c5,5,5,13.1,0,18c-1,1-2.2,1.9-3.4,2.5c-1,0.5-2,0.8-3.1,1l-2.4-6.5L212.7,285.5z
						 M200,251.5l-5-13.3l13.6,5.1l7,2.6c0,1.5-0.2,3-0.6,4.4c-0.6,1.8-1.6,3.5-3.1,5c-1.6,1.6-3.5,2.7-5.6,3.3
						c-1.2,0.3-2.4,0.5-3.6,0.5L200,251.5z"/>
				</g>
				<g id="XMLID_503_">
					<path class="st1" d="M203,200.1l0.7,0.3l32.8,12.2l23.4,8.7l64.1,23.9l-16.7-44.7l-7.2-19.3l-6.4-17.2l-14.2-38.1l-0.1-0.3
						c1.3-1.5,2.4-3.3,3.1-5.1c1.3-2.8,1.8-5.8,1.5-8.7c-0.4-4.6-2.7-8.6-6.6-11.3c-3-2.1-6.3-2.7-9.9-2.5
						c-3.6,0.2-7.4,1.2-11.6,2.2c-4.9,1.2-10.4,2.6-16.5,3.1c-10.1,0.8-18.7,4.6-25.1,11c-4.2,4.2-7.4,9.5-9.5,15.7
						c-2.6,7.8-11.6,17.1-15.1,20.3c-7.8,5.6-19.7,20.8-10.6,39.2c4.7,9.7,11.1,12,15.7,12.2C197.7,201.9,200.4,201.2,203,200.1z
						 M235,181.4c5,5,5,13.1,0,18.1l-0.1,0.1l-20.9-7.8c1.4-1.5,2.4-2.9,3.1-3.9c0,0,0-0.1,0.1-0.1c1.4-2.4,2.2-5.2,3.1-8.7
						C225.1,176.7,231.1,177.5,235,181.4z M270.3,134.8l2.8,7.6l7.9,21.2l4.1,11.1l3.9,10.6l4.7,12.6L298,209l6.1,16.3l-40.1-14.9
						l-17.4-6.5c6.2-9.5,5.2-22.4-3.2-30.7c-5.2-5.2-12.2-7.6-19.1-7.1c1.2-3.1,2.7-6.5,4.6-10.3c0.8-1.6,1.7-3.1,2.7-4.4
						c2.5-3.7,5.3-6.5,8-8.7c4.4-3.6,8.3-5.3,9.4-5.7c3.3-0.6,8.4-1.7,13.5-3.1c2.3-0.6,4.6-1.3,6.7-2.1L270.3,134.8z M189.6,184.3
						c-7.1-14.5,6.6-24.3,7.1-24.7l0.5-0.4c0.2-0.2,1.3-1.2,3-2.9c1.7-1.7,3.8-4,6.1-6.6c2.8-3.4,5.7-7.5,7.8-11.7
						c0.7-1.4,1.3-2.9,1.8-4.4c1.8-5.6,6.6-14.8,18.7-17.8c1.7-0.4,3.6-0.7,5.6-0.9c6.5-0.5,12.2-1.8,16.9-3.1
						c0.5-0.1,1.1-0.2,1.6-0.4c5-1.3,10.2-2.6,11.8-1.5c1,0.7,1.5,1.5,1.7,2.6c0,0,0,0.1,0,0.1c0.2,1.9-0.8,4.3-2.4,5.9
						c-0.3,0.2-0.7,0.5-1.4,0.8c-2.5,1.2-7.4,2.8-13.2,4.2c-2.9,0.7-6,1.4-9.1,1.9l-0.8,0.2c-0.3,0.1-3.2,1.1-7.1,3.5
						c-3.7,2.2-8.3,5.6-12.6,10.5c-0.6,0.6-1.1,1.3-1.6,1.9c-1.9,2.4-3.7,5.1-5.4,8.2c-0.1,0.1-0.2,0.3-0.2,0.4
						c-4.6,8.8-6.9,16-8.4,21.5c-0.4,1.3-0.7,2.6-1,3.7c-0.7,2.6-1.3,5.1-1.9,6c-0.2,0.3-0.5,0.7-0.8,1.1c-1.1,1.4-2.8,3.2-4.7,4.7
						c-0.9,0.7-1.9,1.4-2.9,1.8c-1,0.5-2,0.8-3,0.8c-0.2,0-0.5,0-0.7,0c-0.1,0-0.1,0-0.1,0C193.1,189.6,191.3,187.7,189.6,184.3z"/>
				</g>
			</g>
			<g id="XMLID_493_">
				<g id="XMLID_495_">
					<path class="st1" d="M237,134.6c0-0.2,0-0.4,0-0.5c0.1-1.6,0.6-3.2,1.3-4.7c-3.7,2.2-8.3,5.6-12.6,10.5c0,0.2,0.1,0.4,0.1,0.6
						c0.1,0.5,0.2,1.1,0.4,1.6C229.6,139.1,233.2,136.6,237,134.6z M237,134.6c0-0.2,0-0.4,0-0.5c0.1-1.6,0.6-3.2,1.3-4.7
						c-3.7,2.2-8.3,5.6-12.6,10.5c0,0.2,0.1,0.4,0.1,0.6c0.1,0.5,0.2,1.1,0.4,1.6C229.6,139.1,233.2,136.6,237,134.6z M267,152.4
						c2.9-2.9,4.9-6.4,6.1-10c1.2-4,1.4-8.4,0.5-12.5c-0.7-3.5-2.3-6.8-4.5-9.7c-0.2-0.2-0.4-0.5-0.5-0.7c-2.5,1.2-7.4,2.8-13.2,4.2
						c1.2,0.6,2.4,1.4,3.4,2.4c0.1,0.1,0.3,0.3,0.4,0.4c0.4,0.4,0.8,0.9,1.1,1.4c1.3,1.8,2,3.9,2.2,6c0.3,3.6-0.9,7.4-3.7,10.2
						c-5,5-13.1,5-18.1,0c-0.4-0.4-0.8-0.9-1.2-1.4c-1.8-2.4-2.7-5.3-2.5-8.2c0-0.2,0-0.4,0-0.5c0.1-1.6,0.6-3.2,1.3-4.7
						c-3.7,2.2-8.3,5.6-12.6,10.5c0,0.2,0.1,0.4,0.1,0.6c0.1,0.5,0.2,1.1,0.4,1.6c1,3.4,2.7,6.6,5.2,9.4c0.3,0.3,0.6,0.6,0.9,0.9
						C242,161.9,257.5,161.9,267,152.4z M240.3,114.9c6.5-0.5,12.2-1.8,16.9-3.1c-7.6-2.4-16-1.1-22.5,4
						C236.4,115.3,238.3,115,240.3,114.9z M237,134.6c0-0.2,0-0.4,0-0.5c0.1-1.6,0.6-3.2,1.3-4.7c-3.7,2.2-8.3,5.6-12.6,10.5
						c0,0.2,0.1,0.4,0.1,0.6c0.1,0.5,0.2,1.1,0.4,1.6C229.6,139.1,233.2,136.6,237,134.6z M237,134.6c0-0.2,0-0.4,0-0.5
						c0.1-1.6,0.6-3.2,1.3-4.7c-3.7,2.2-8.3,5.6-12.6,10.5c0,0.2,0.1,0.4,0.1,0.6c0.1,0.5,0.2,1.1,0.4,1.6
						C229.6,139.1,233.2,136.6,237,134.6z"/>
				</g>
			</g>
		</g>
	</g>
</g>
</svg>
