<?xml version="1.0" encoding="utf-8"?>
<!-- Generator: Adobe Illustrator 19.0.0, SVG Export Plug-In . SVG Version: 6.00 Build 0)  -->
<svg version="1.1" id="Warstwa_1" xmlns="http://www.w3.org/2000/svg" xmlns:xlink="http://www.w3.org/1999/xlink" x="0px" y="0px"
	 viewBox="0 0 500 500" style="enable-background:new 0 0 500 500;" xml:space="preserve">
<style type="text/css">
	.st0{fill:#FFFFFF;}
	.st1{fill:#F2CF20;}
	.st2{opacity:0.5;fill:#D61016;}
</style>
<path id="XMLID_347_" class="st0" d="M239.3,233.9c0-63.3-51.3-114.7-114.7-114.7C61.3,119.3,10,170.6,10,233.9
	c0,5.4,0.4,10.7,1.1,15.9c-0.7,5.2-1.1,10.5-1.1,15.9c0,63.3,51.3,114.7,114.7,114.7c63.3,0,114.7-51.3,114.7-114.7
	c0-5.4-0.4-10.7-1.1-15.9C238.9,244.6,239.3,239.3,239.3,233.9z"/>
<g id="XMLID_270_">
	<circle id="XMLID_273_" class="st1" cx="124.6" cy="265.7" r="114.7"/>
	<circle id="XMLID_272_" class="st2" cx="124.6" cy="233.9" r="114.7"/>
</g>
<g id="XMLID_286_">
	<path id="XMLID_287_" d="M280.5,212.1c-0.9,0.5-1.8,0.8-2.7,1c-0.9,0.2-1.9,0.3-2.9,0.3c-4,0-7.1-1.7-9.1-5c-2-3.3-3-8.3-3-15
		c0-6.8,1.1-11.9,3.2-15.4c2.1-3.5,5.3-5.2,9.5-5.2c0.9,0,1.8,0.1,2.6,0.3c0.8,0.2,1.6,0.4,2.3,0.8v5.1c-0.8-0.4-1.5-0.7-2.2-0.8
		c-0.7-0.2-1.4-0.3-2-0.3c-2.8,0-4.9,1.2-6.2,3.7c-1.3,2.5-2,6.4-2,11.8c0,5.1,0.6,8.8,1.9,11.2c1.2,2.4,3.1,3.6,5.7,3.6
		c0.7,0,1.5-0.1,2.2-0.4c0.8-0.2,1.6-0.6,2.5-1.1V212.1z"/>
	<path id="XMLID_289_" d="M287.7,202.5v-29h5.3v29.4c0,1.9,0.4,3.3,1.3,4.2c0.8,0.9,2.1,1.4,3.9,1.4c1.8,0,3-0.5,3.9-1.4
		c0.8-0.9,1.3-2.3,1.3-4.2v-29.4h5.3v29c0,3.8-0.8,6.6-2.5,8.4c-1.7,1.8-4.3,2.6-7.9,2.6c-3.6,0-6.3-0.9-7.9-2.6
		C288.5,209.1,287.7,206.3,287.7,202.5z"/>
	<path id="XMLID_291_" d="M317.1,206.1c1.3,0.8,2.4,1.4,3.5,1.7c1.1,0.4,2.1,0.6,3,0.6c1.6,0,2.9-0.5,3.9-1.4c1-0.9,1.4-2.2,1.4-3.8
		c0-2.3-1.8-5-5.5-8c-0.4-0.4-0.8-0.6-1-0.8c-2.3-1.9-4-3.7-4.9-5.4c-0.9-1.7-1.4-3.5-1.4-5.6c0-3,0.9-5.5,2.8-7.4c1.9-2,4.2-3,7-3
		c1.2,0,2.4,0.1,3.5,0.4c1.1,0.3,2.3,0.7,3.4,1.4v5.3c-1-0.7-2-1.3-3-1.6c-1-0.4-2-0.5-2.9-0.5c-1.7,0-3,0.5-4,1.5
		c-1,1-1.5,2.3-1.5,3.9c0,2.3,1.9,5,5.8,8.1c0.4,0.3,0.6,0.5,0.8,0.7c2.3,1.8,3.9,3.6,4.8,5.3c0.9,1.7,1.4,3.6,1.4,5.8
		c0,3-1,5.5-2.9,7.5c-1.9,2-4.4,2.9-7.4,2.9c-1.1,0-2.2-0.2-3.4-0.5c-1.1-0.3-2.3-0.8-3.5-1.5V206.1z"/>
	<path id="XMLID_293_" d="M346.5,213v-34.6h-7.3v-4.9h20v4.9h-7.3V213H346.5z"/>
	<path id="XMLID_295_" d="M363.9,193.3c0-7.2,0.9-12.4,2.6-15.6c1.8-3.2,4.6-4.7,8.6-4.7c4,0,6.8,1.6,8.6,4.7
		c1.8,3.1,2.6,8.3,2.6,15.6c0,7.2-0.9,12.4-2.6,15.5c-1.8,3.1-4.6,4.7-8.6,4.7c-4,0-6.9-1.6-8.6-4.7
		C364.8,205.7,363.9,200.5,363.9,193.3z M369.3,193.1c0,5.6,0.5,9.5,1.4,11.8c0.9,2.3,2.4,3.5,4.6,3.5c2.1,0,3.6-1.1,4.5-3.3
		c0.9-2.2,1.3-6.2,1.3-12c0-5.7-0.4-9.7-1.3-11.9c-0.9-2.2-2.4-3.4-4.5-3.4c-2.1,0-3.6,1.1-4.5,3.4
		C369.8,183.5,369.3,187.5,369.3,193.1z"/>
	<path id="XMLID_298_" d="M393.5,213l3.4-39.5h4.8l5.4,27.4l5.5-27.4h4.7l3.4,39.5h-4.9l-1.6-27.7l-5.3,27.7h-3.6l-5.3-27.7
		l-1.6,27.7H393.5z"/>
	<path id="XMLID_300_" d="M264.1,268.5v-39.5h6.5c2.4,0,4.3,0.2,5.6,0.5c1.3,0.3,2.5,0.9,3.5,1.7c1.2,0.9,2.1,2.2,2.7,3.7
		c0.6,1.6,1,3.3,1,5.2c0,3.6-1.1,6.4-3.2,8.2c-2.1,1.9-5.2,2.8-9.2,2.8c-0.4,0-0.8,0-1,0c-0.2,0-0.4,0-0.6,0v17.4H264.1z
		 M269.4,246.3h2c2.4,0,4.1-0.5,5.1-1.5c1-1,1.5-2.6,1.5-5c0-2.2-0.5-3.8-1.6-4.8c-1.1-1-2.9-1.5-5.4-1.5h-1.6V246.3z"/>
	<path id="XMLID_303_" d="M290,248.7c0-7.2,0.9-12.4,2.6-15.6c1.8-3.2,4.6-4.7,8.6-4.7c4,0,6.8,1.6,8.6,4.7
		c1.8,3.1,2.6,8.3,2.6,15.6c0,7.2-0.9,12.4-2.6,15.5c-1.8,3.1-4.6,4.7-8.6,4.7c-4,0-6.9-1.6-8.6-4.7C290.9,261.1,290,256,290,248.7z
		 M295.4,248.6c0,5.6,0.5,9.5,1.4,11.8c0.9,2.3,2.4,3.5,4.6,3.5c2.1,0,3.6-1.1,4.5-3.3c0.9-2.2,1.3-6.2,1.3-12
		c0-5.7-0.4-9.7-1.3-11.9c-0.9-2.2-2.4-3.4-4.5-3.4c-2.1,0-3.6,1.1-4.5,3.4C295.8,239,295.4,243,295.4,248.6z"/>
	<path id="XMLID_310_" d="M321.2,268.5v-39.5h5.3v34.6h11.4v4.9H321.2z"/>
	<path id="XMLID_312_" d="M341.8,268.5l9.3-39.5h5l9.3,39.5h-5.4l-1.9-7.8h-9l-1.8,7.8H341.8z M353.5,239.1l-3.6,17.1h7.1
		L353.5,239.1z"/>
	<path id="XMLID_315_" d="M377.4,249.2v19.3H372v-39.5h6.4c4.3,0,7.3,0.8,9.1,2.4c1.8,1.6,2.7,4.2,2.7,7.9c0,2.9-0.6,5.2-1.9,6.8
		c-1.2,1.6-3.1,2.6-5.6,2.9l9.4,19.5h-5.7l-9-19.3H377.4z M377.4,246.1h1.7c2.2,0,3.7-0.5,4.6-1.5c0.9-1,1.3-2.8,1.3-5.4
		c0-2.1-0.4-3.6-1.3-4.4c-0.9-0.8-2.5-1.2-4.8-1.2h-1.5V246.1z"/>
	<path id="XMLID_318_" d="M397.8,248.7c0-7.2,0.9-12.4,2.6-15.6c1.8-3.2,4.6-4.7,8.6-4.7c4,0,6.8,1.6,8.6,4.7
		c1.8,3.1,2.6,8.3,2.6,15.6c0,7.2-0.9,12.4-2.6,15.5c-1.8,3.1-4.6,4.7-8.6,4.7c-4,0-6.9-1.6-8.6-4.7
		C398.7,261.1,397.8,256,397.8,248.7z M403.2,248.6c0,5.6,0.5,9.5,1.4,11.8c0.9,2.3,2.4,3.5,4.6,3.5c2.1,0,3.6-1.1,4.5-3.3
		c0.9-2.2,1.3-6.2,1.3-12c0-5.7-0.4-9.7-1.3-11.9c-0.9-2.2-2.4-3.4-4.5-3.4c-2.1,0-3.6,1.1-4.5,3.4C403.6,239,403.2,243,403.2,248.6
		z"/>
	<path id="XMLID_321_" d="M429,268.5v-39.5h5.3v39.5H429z"/>
	<path id="XMLID_323_" d="M444.2,268.5v-39.5h7c5.4,0,9.2,1.5,11.4,4.4s3.3,8.1,3.3,15.3c0,7.3-1.1,12.4-3.3,15.4
		c-2.2,3-6,4.4-11.4,4.4H444.2z M449.6,263.4h2.8c3,0,5.1-1.1,6.3-3.3c1.2-2.2,1.8-6,1.8-11.5c0-5.5-0.6-9.3-1.8-11.5
		c-1.2-2.2-3.3-3.2-6.3-3.2h-2.8V263.4z"/>
	<path id="XMLID_326_" d="M473.5,261.5c1.3,0.8,2.4,1.4,3.5,1.7c1.1,0.4,2.1,0.6,3,0.6c1.6,0,2.9-0.5,3.9-1.4c1-0.9,1.4-2.2,1.4-3.8
		c0-2.3-1.8-5-5.5-8c-0.4-0.4-0.8-0.6-1-0.8c-2.3-1.9-4-3.7-4.9-5.4c-0.9-1.7-1.4-3.5-1.4-5.6c0-3,0.9-5.5,2.8-7.4c1.9-2,4.2-3,7-3
		c1.2,0,2.4,0.1,3.5,0.4c1.1,0.3,2.3,0.7,3.4,1.4v5.3c-1-0.7-2-1.3-3-1.6c-1-0.4-2-0.5-2.9-0.5c-1.7,0-3,0.5-4,1.5
		c-1,1-1.5,2.3-1.5,3.9c0,2.3,1.9,5,5.8,8.1c0.4,0.3,0.6,0.5,0.8,0.7c2.3,1.8,3.9,3.6,4.8,5.3s1.4,3.6,1.4,5.8c0,3-1,5.5-2.9,7.5
		c-1.9,2-4.4,2.9-7.4,2.9c-1.1,0-2.2-0.2-3.4-0.5s-2.3-0.8-3.5-1.5V261.5z"/>
	<path id="XMLID_328_" d="M280.5,323c-0.9,0.5-1.8,0.8-2.7,1c-0.9,0.2-1.9,0.3-2.9,0.3c-4,0-7.1-1.7-9.1-5c-2-3.3-3-8.3-3-15
		c0-6.8,1.1-11.9,3.2-15.4c2.1-3.5,5.3-5.2,9.5-5.2c0.9,0,1.8,0.1,2.6,0.3c0.8,0.2,1.6,0.4,2.3,0.8v5.1c-0.8-0.4-1.5-0.7-2.2-0.8
		c-0.7-0.2-1.4-0.3-2-0.3c-2.8,0-4.9,1.2-6.2,3.7c-1.3,2.5-2,6.4-2,11.8c0,5.1,0.6,8.8,1.9,11.2c1.2,2.4,3.1,3.6,5.7,3.6
		c0.7,0,1.5-0.1,2.2-0.4c0.8-0.2,1.6-0.6,2.5-1.1V323z"/>
	<path id="XMLID_330_" d="M286.8,304.2c0-7.2,0.9-12.4,2.6-15.6c1.8-3.2,4.6-4.7,8.6-4.7c4,0,6.8,1.6,8.6,4.7
		c1.8,3.1,2.6,8.3,2.6,15.6c0,7.2-0.9,12.4-2.6,15.5c-1.8,3.1-4.6,4.7-8.6,4.7c-4,0-6.9-1.6-8.6-4.7
		C287.7,316.6,286.8,311.4,286.8,304.2z M292.2,304.1c0,5.6,0.5,9.5,1.4,11.8c0.9,2.3,2.4,3.5,4.6,3.5c2.1,0,3.6-1.1,4.5-3.3
		c0.9-2.2,1.3-6.2,1.3-12c0-5.7-0.4-9.7-1.3-11.9c-0.9-2.2-2.4-3.4-4.5-3.4c-2.1,0-3.6,1.1-4.5,3.4
		C292.7,294.5,292.2,298.4,292.2,304.1z"/>
	<path id="XMLID_333_" d="M316.4,323.9l3.4-39.5h4.8l5.4,27.4l5.5-27.4h4.7l3.4,39.5h-4.9l-1.6-27.7l-5.3,27.7h-3.6l-5.3-27.7
		l-1.6,27.7H316.4z"/>
	<path id="XMLID_335_" d="M351.8,323.9v-39.5h6.5c2.4,0,4.3,0.2,5.6,0.5c1.3,0.3,2.5,0.9,3.5,1.7c1.2,0.9,2.1,2.2,2.7,3.7
		c0.6,1.6,1,3.3,1,5.2c0,3.6-1.1,6.4-3.2,8.2c-2.1,1.9-5.2,2.8-9.2,2.8c-0.4,0-0.8,0-1,0c-0.2,0-0.4,0-0.6,0v17.4H351.8z
		 M357.1,301.7h2c2.4,0,4.1-0.5,5.1-1.5c1-1,1.5-2.6,1.5-5c0-2.2-0.5-3.8-1.6-4.8c-1.1-1-2.9-1.5-5.4-1.5h-1.6V301.7z"/>
	<path id="XMLID_338_" d="M373.3,323.9l9.3-39.5h5l9.3,39.5h-5.4l-1.9-7.8h-9l-1.8,7.8H373.3z M385,294.6l-3.6,17.1h7.1L385,294.6z"
		/>
	<path id="XMLID_341_" d="M403.5,323.9v-39.5h4.9l10.5,27.5v-27.5h5.1v39.5h-5l-10.4-27.7v27.7H403.5z"/>
	<path id="XMLID_343_" d="M443.6,307.1v16.8h-5.5v-16.8l-7.4-22.7h5.5l3.3,11c0.2,0.7,0.4,1.6,0.7,2.7c0.2,1.1,0.5,2.3,0.7,3.6
		c0.2-1.2,0.4-2.2,0.6-3.3c0.2-1,0.5-2,0.8-3l3.3-11.1h5.6L443.6,307.1z"/>
</g>
</svg>
