<?xml version="1.0" encoding="utf-8"?>
<!-- Generator: Adobe Illustrator 19.0.0, SVG Export Plug-In . SVG Version: 6.00 Build 0)  -->
<svg version="1.1" id="Warstwa_1" xmlns="http://www.w3.org/2000/svg" xmlns:xlink="http://www.w3.org/1999/xlink" x="0px" y="0px"
	 viewBox="0 0 500 500" style="enable-background:new 0 0 500 500;" xml:space="preserve">
<style type="text/css">
	.st0{opacity:0.6;fill:#215F1D;}
	.st1{stroke:#231F20;stroke-miterlimit:10;}
	.st2{fill:#231F20;}
	.st3{fill:none;stroke:#231F20;stroke-width:2;stroke-linecap:round;stroke-linejoin:round;stroke-miterlimit:10;}
</style>
<g id="XMLID_4524_">
	<circle id="XMLID_3994_" class="st0" cx="263.6" cy="227.3" r="225.2"/>
	<g id="XMLID_4018_">
		<path id="XMLID_4521_" class="st1" d="M165.3,446.1c-8.9,3-18.2,9.7-28,9.7c-10.6-0.3-31.7-13.4-24.1-13.7
			c0.9-2.1,15.5,7.9,23.2,7.9c8.9,0.6,18.3-2.8,26.2-7.1c1.7-0.9,4-2.3,4.6-3.6c8.4-17.1,27.7-29.1,48-34.1
			c19.6-4.8,35.2-1.8,48.9,4.9c12.1,6,20.7,14.7,28.5,24.1c6.5,7.7,15.5,13,28.8,13.5c2.5,0.1,5.2-0.4,7.7-0.4c1.5,0,3.7-0.1,4,0.6
			c0.3,0.8-0.8,2.6-1.9,3.7c-9.1,9.7-19.9,18-31.9,25.3c-26.8,16.1-54,22.8-81.1,20.5c-20.2-1.7-34.3-9.6-43.5-22.6
			C169,466.5,166.3,456.9,165.3,446.1z M204.1,436.4c-0.1,0.3-0.1,0.6-0.2,0.9c15.8,1.2,29,5.8,41.2,11.8c3.2,1.6,6,1.3,10-1.1
			c3.1-1.9,6.5-3.6,10-5c1.5-0.6,3.3-0.3,5-0.3c-1,1.3-1.7,3-3.1,3.8c-3.6,2.1-7.4,3.9-11.8,6.1c1.5,0.6,2.1,1,3,1.1
			c9.8,1.6,19.6,3,29.3,4.7c1.3,0.2,2.1,1.3,3.1,2c-1.6,0.8-3.4,2.2-4.9,2.3c-3.1,0.2-6.2,0-9-0.4c-6.8-1-13.5-2.2-20.8-3.5
			c2.5,5,4.9,9.6,7.2,14.2c0.7,1.4,1.9,3.1-1.3,4.6c-2.9,1.4-3.4-0.4-4.1-1.8c-3.2-6.2-6.3-12.4-9.5-18.6c-0.4-0.8-0.9-1.7-1.8-2
			c-7.9-3.2-15.6-6.7-23.8-9.4c-5.8-1.9-12.5-2.9-18.7-4.3c-0.3,0.3-0.6,0.6-0.8,0.9c0.3,0.6,0.5,1.2,0.8,1.8
			c3.9,7.7,7.9,15.5,11.8,23.2c0.4,0.8,1.1,1.6,1,2.5c-0.1,0.8-0.9,2.4-1.5,2.6c-1.1,0.4-2.6,0.2-3.4-0.3c-0.8-0.4-1-1.5-1.4-2.3
			c-4.5-8.8-8.9-17.7-13.5-26.5c-0.5-0.9-1.4-2-2.5-2c-7.4-0.2-15.1,0.6-23,2.9c-0.3,22.3,14.7,46.1,50.2,48.8
			c39,2.9,78.4-16.2,100.8-38.9c-3.5-0.9-7.5-2-11.7-3c-12.5-2.8-19.9-9.8-26.6-17.8c-9-10.9-20.3-20-36.9-24
			c-19.4-4.7-39.5-1.2-59.9,13.1c-6.8,4.8-11.6,10.6-14.4,16.7c7-0.8,13.6-1.4,20.2-2.2c1-0.1,2.2-0.6,3.2-1.1
			c9.2-4.6,18.3-9.4,27.5-13.9c1.5-0.7,4.4-1.1,4.9-0.4c1.3,1.7-1.2,2.9-3.2,4C218.4,429.2,211.2,432.8,204.1,436.4z"/>
		<g id="XMLID_4020_">
			<path id="XMLID_4433_" class="st2" d="M118.1,254.9l-2.2-2.1l-4.9-3.2l-0.5-0.6l-2.8-2.1l-1.6-2.7l-1.1-0.5l-0.9-1.1l0.9-0.8
				l-0.9-1.1h-0.5l0.6,1.3l-0.9-0.5l-1.4-1.6l-1.9-1.1l-0.9,0.6l0.6,0.5l-1.3,0.5l-0.6-0.5l0.9-0.9l0.5-0.3L98,238l0.5-0.5l0.6-0.2
				l-0.3-0.6l0.3-0.6l0.6-0.2l0.3-2.4h0.3l0.3-0.8h0.6v0.8l-0.6,0.3h0.8l0.3,0.8l-0.9,0.5l-0.3,0.8l0.6,0.2l0.2,0.3l0.5-1.3l0.2,0.5
				v0.3l2.2,0.2l0.8,0.9h0.6v-0.6h0.6v0.6l-0.5,0.3h1.1l0.6,0.2v-0.2l-0.9-0.9l-0.5-2.1l-0.8,0.3l-0.2-0.8v-0.5l-0.3-0.6l0.3-0.9
				h1.3l-0.6-0.5l0.6-0.6l-0.9-0.3h-0.6l0.2-0.6l-0.5,0.3h-0.9l-0.5,1.3l0.5,0.8h-1.4v-0.8l0.6-0.3l0.2-0.9l-0.3-0.3v-0.3l-0.3-0.2
				v-0.6l-0.2-0.3l0.3-0.5l-0.3-1.1l-0.5-0.3l0.2-0.3l1.7,0.3v0.9h1.7l0.9,1.1l0.3-0.5l-0.5-0.6v-0.6l0.5-0.9l0.2,0.3h1.3l-0.6-0.3
				l-0.3-0.6l-0.3-0.2V224l1.3,0.8l2.7,3.2l2.4,1.9l0.3,0.6l0.6,0.3l1.3,1.1l3,1.1l2.7,1.7l2.2,0.5l2.5,0.9h3.3l0.9,0.6l-0.5,0.3
				l-4.1-0.5l-2.2-0.6v0.9l0.8,0.5v0.6l-0.3,0.2l0.5,0.3h1.3l0.6-1.1l0.9,0.6l-0.2,0.8l1.1,0.3h2.1v1.1l6.6-0.9l1.9-1.3l0.9-1.3h1.7
				l0.2-0.3L141,236l1.3-2.4h0.5l-0.5,2.4l1.9-1.6l0.6,0.3l1.1-0.5l-0.2,1.4l1.6-1.4l0.3,1.3l0.6-0.8l1.6-0.3l0.2-2.1l1.4,0.5
				l0.9-0.9v1.7l0.8-1.4l0.8-3.2h0.8l0.5,0.3l0.3-1.3l0.5-0.6l0.2-2.2h-0.8l-0.5-0.5h-2.1l-0.2,1.7h-1.1l-0.2-0.3h-1.1l0.3-0.3
				l0.8-3.5v-0.9h0.5l0.3,1.4l0.5-1.9l-0.3-1.1h-0.6l-0.2-2.1l-0.6,2.4h-0.8l0.2-1.4l-0.8-1.6l0.2-0.2h0.6l-0.3-1.3l-0.5-0.2
				l-0.5-1.3l-0.3,0.6h-0.3l-0.2-0.6l-0.9-0.5l-0.3-1.4h-0.6l-0.2-1.9l-0.8,0.6l0.3,0.3l0.5,1.4l-0.6,1.4l-0.6-0.3l-0.6,0.3
				l-0.2-0.6v-1.6h-0.9v0.8l-0.5-0.2h-0.6l-0.3-1.3l-0.6,0.6l-0.8-0.6l-0.5-0.2l0.2-1.4l-2.2-1.6l-1.9,0.2l-2.1-0.6h-2.7l-0.6-0.5
				h-1.1l-0.2-0.5l-1.1-1.4l-0.6,0.3h-2.8l-3.8-1.4l0.2-0.9l-0.8-0.6l-0.5-0.3l-0.9,0.3l-2.2-0.5h-0.2v-0.6h1.1l-1.1-0.5l-0.8-1.4
				l-1.6,0.9l-1.6-1.1l0.6-1.4l0.2-0.2l-0.2-0.3h-0.5l-0.9-0.3l-0.5,0.6l-0.8-0.9l-1.7-0.9l-0.9-0.2l0.2-0.3l-2.1-2.4l-0.6-2.2h0.3
				l0.5,0.9l0.3-0.6l0.9,0.3v-0.6l-1.3-0.8V190l-0.8-0.3l-0.5-0.6l-0.8,0.5l-1.3-3l-0.8-4.3l0.2-4.6l1.4-6l0.2-4.7l1.3-2.2l3-3.8
				v-1.4h0.6l0.2-0.3l0.6-0.5l0.6-0.9l1.1-0.5l2.8-2.1l1.7-0.9l0.6-0.6h1.1l-1.7,1.9l2.4-0.9l1.7-0.3l0.9-0.6l0.2,0.5l1.6-0.6h0.3
				l2.7-1.1l6.5-0.5l0.5-0.3h-4.7v-1.1h0.6v0.5h6.3l0.3-0.9l1.3,0.5l0.2-1.7l6.8,1.1l0.6,0.6h2.1l0.8,0.2l3.5,1.3l2.2,1.3l1.7,0.5
				l2.1,2.1h1.1l-0.3-0.2v-0.3h0.6v0.9h0.6l1.4,1.7l1.4,0.6l1.4,1.7l0.3,0.6l0.9,0.9l2.2,3.6v1.4l-1.3,0.3l0.3,0.6v0.8l0.5,1.7
				l-1.1,0.5l-0.3,0.5l-0.3-0.8l-1.7,1.7h-1.1l-0.6-0.3l-0.5,1.1l-0.6,0.5l-0.8-0.3l-0.2-0.2l-0.5,0.5v0.6h-1.6l-0.8,0.8h-1.1
				l-0.9,1.3h-0.9v-0.6l1.3-1.3l-0.6-1.1l-0.5,0.6l-0.9-1.9l-0.5,0.5l0.2,0.6v1.4l-0.6-0.6l-0.6,0.3l-0.2,0.5l-1.3,0.6l-1.4-0.8
				h-0.6l0.3,0.2h-0.9l-2.1-2.4h-0.9l-1.3-0.6l-2.7-0.8l-0.6-0.5l-1.6,0.5l-0.6-0.5h-1.3l-2.8-0.3l-1.9,0.8h-1.9l-2.5,1.1l-1.6,2.4
				l-1.1,3v2.8l0.6,1.4l2.1,1.7l0.2,0.3l0.8,0.5v1.3h1.7l0.6-0.2l0.2,0.8l1.3,0.9l1.1,0.3l0.8,0.9h3.8l0.3,0.6l1.4,0.8h0.3l2.1,0.6
				v0.9l-1.6,0.8l1.7,0.3h0.5l0.6,0.9l1.4,0.3l3.6,0.3l0.6,0.3h0.6V194l-3.2-0.9l-1.6-0.6l-2.2-0.5l0.2-0.5l-0.2-0.3v-0.6l4.4,1.3
				l0.2,0.3l0.9,0.3l1.6,1.3l2.2,0.3l0.8,0.6h1.4l4.1,3l1.1,0.5l2.1,2.5l2.2,4.3l1.1,1.3l-0.2,1.9l0.5,0.9l1.1,4.4l0.8,2.1l0.5,4.7
				l1.4,4.6l-0.3,7.7l-2.5,7.6l-1.9,4.4l-5.2,5.8l-1.4,0.8l-0.3,0.3l-5.2,3l-4.3,1.7l-1.9,0.3l-1.6,0.6l-2.4,0.3l-1.9,0.6h-8.4
				l-4.9-0.8L118.1,254.9z M99.9,231.1h1.6v0.8h-0.8L99.9,231.1z M101.2,241.7l-0.2,0.5h-0.2l-0.5-0.5H101.2z M102.4,233v0.5H102
				l0.2-0.5H102.4z M102.8,224.1v0.3h-0.5l0.2-0.3H102.8z M102.9,234.4v0.6l-0.6-0.6H102.9z M104.6,229.5V229H104L104.6,229.5z
				 M105.9,222.1v0.3l-0.6,0.3v-0.6H105.9z M106.2,223.4v0.5l-0.5-0.5H106.2z M107,193.4l0.6-1.4l-1.3,0.5L107,193.4z M108.3,236.5
				l0.3-0.3l-0.9-0.2v0.2L108.3,236.5z M108.6,227.5v-0.3l-0.6-0.6v0.3L108.6,227.5z M111.9,232.5l0.8-0.8l-1.4-0.9l-0.3-0.6
				l-0.5,0.6l-0.6,0.3l1.7,0.5L111,232L111.9,232.5z M111.6,238.8h0.9v-0.3l-0.9-0.5H111L111.6,238.8z M114,233.9l0.3-0.3v-0.2h-1.1
				L114,233.9z M113.3,199.5h0.3l-0.3-0.3V199.5z M113.8,237.6h0.6l-0.6-0.2h-0.2L113.8,237.6z M113.6,240.1l0.3-0.5l-0.3-0.2V240.1
				z M114.6,240.6v-0.3H114L114.6,240.6z M119.5,237.1h0.5l0.3-0.3h0.6l0.6-0.6l0.5,0.3h0.6v-0.6l-2.4-0.6l-1.4-0.8l-3.6-1.6h-0.8
				l1.3,0.8l-0.8,0.3l0.6,0.8l-0.5,0.3l0.2,0.2h1.4l0.5,0.8l0.9,0.2l0.2,0.3h0.6L119.5,237.1z M115.2,236.5l-0.8-0.8v0.8H115.2z
				 M115.9,239.1v-0.6l-0.8-0.5l-0.2,0.8L115.9,239.1z M118.1,238.7l0.2-1.1l-0.9,0.5L118.1,238.7z M117.9,199.8h0.9l-0.6-0.3h-0.5
				L117.9,199.8z M119.3,183.3l-0.9-1.4v0.6L119.3,183.3z M119.5,200.6v-0.3H119L119.5,200.6z M122,202.7h0.3l-0.3-0.3h-0.6
				L122,202.7z M121.7,151.7v0.3h-0.2v-0.3H121.7z M122,238l1.1-0.5l-0.8-0.3l-0.8,0.3L122,238z M123.4,239.6l-0.5-0.5h-0.2v0.5
				H123.4z M124.5,186.1h0.5l-0.2-0.6h-1.3L124.5,186.1z M123.7,240.1h0.9v-0.5L123.7,240.1z M125,150.1v0.5h-0.5l0.3-0.5H125z
				 M125.5,188.6h2.1l-2.5-0.8L125.5,188.6z M132,204.7l1.1-0.6l-1.7-0.3l0.2-0.9h-0.6l-0.2,0.5l-1.3-0.5h-1.1v-0.2H128l-0.3,0.3
				l-1.4-0.5l-1.3,0.3l0.3,0.5h0.9l3,0.5l0.5,0.3L132,204.7z M125.6,151.4h0.6l-0.5,0.9l-0.5-0.6L125.6,151.4z M129.9,189.6v-0.6h-3
				L129.9,189.6z M132.7,202l1.1-0.6l-1.7-0.2l-0.8-0.5l-0.5,0.5l0.6,0.2l0.3,0.3L132.7,202z M132.1,236.3v0.5l-0.3,0.3l-0.5-0.3
				L132.1,236.3z M139.1,207.9h1.4v-0.5h-1.1l0.2-0.5l0.3-0.5l-1.7-0.3l-1.4-0.6l-0.6-1.9l-0.5,0.6l0.6,0.6l-1.1,0.6l-1.4-0.8
				l-0.8,0.3l1.9,0.5l2.7,1.4L139.1,207.9z M136.4,201.1l-0.5-0.5l0.5-0.3h-1.1l-0.9,0.3L136.4,201.1z M135.9,202l-0.3-0.3l-1.3-0.5
				v0.5L135.9,202z M136.2,237.4h0.8l-0.5,1.3l-0.9-0.6L136.2,237.4z M137,209l-0.3,0.9l-0.8-0.8L137,209z M136.5,236.8l-0.3,0.3
				v-0.3H136.5z M137.5,191.8l0.3-0.3l1.1-0.3h-1.1l-1.1,0.3L137.5,191.8z M136.9,204.9h0.6l-0.6-0.2V204.9z M141.1,202.7l1.6-0.3
				h0.9V202h-1.1l-0.3-0.3h-1.7l-1.1-0.5h-2.1v0.5L141.1,202.7z M137.6,200.6h1.4v-0.3h-1.4V200.6z M138.6,204.7l0.3-0.3l-0.6-0.3
				h-0.5L138.6,204.7z M140.3,200.9h0.2l-0.2-0.3V200.9z M141.1,206.5h0.3v-0.3H141L141.1,206.5z M142.4,210.6h0.6l-1.3-1.1l1.1-0.5
				v-0.6l0.5-0.3l-0.6-0.6l-0.8,0.5h-0.5l-0.2,0.5l-0.3,0.2v1.6l0.3-0.2l0.2,0.2h0.5L142.4,210.6z M141,238.5h0.2l1.3-1.1l-0.3-0.8
				l-0.9,0.9L141,238.5z M143.5,222.7H143l0.5-0.3V222.7z M144.6,152l0.8-0.3l-0.2-0.3l-1.4-0.3l-0.6,0.6h0.6L144.6,152z
				 M143.2,236.1h0.5l-0.5-0.2V236.1z M144.3,211v-0.6l-0.8-0.5v0.2L144.3,211z M144,226.5v0.3h-0.3v-0.3H144z M144.3,202.8h0.5
				l0.6-0.5h-0.3L144.3,202.8z M144.6,211.5v-0.2h-0.3L144.6,211.5z M144.3,221.3h0.3l0.6-0.5l-0.6,1.3l-0.3-0.3V221.3z
				 M147.3,224.8h0.6v-0.9l-0.6-0.5h-1.4l-0.2,0.3h-1.1l0.6-0.9l0.3-1.4h0.5l0.3-0.6v1.4l-0.3,0.3v0.3h0.6l0.8-2.1h0.9l0.6-0.5
				l0.5,0.9l-0.5,0.3l0.3,0.6l-0.2,3l0.2,0.6l-0.2,1.1l-0.2,0.3l-0.3-0.6h-0.9l0.2-0.8l-1.6,2.4l0.2-2.4L147.3,224.8z M145.5,216.4
				h0.6v2.1h-0.6V216.4z M146.8,232.8l0.2,0.2l-0.5,0.6h-0.3V233L146.8,232.8z M147.9,229.4h1.3l-0.5,0.8l-0.6,2.1h-1.3l-0.3-0.3
				L147.9,229.4z M147.3,175.4l0.6,0.3l-0.2,0.3l-0.5-0.3V175.4z M148.2,211.5l0.5-0.8l0.3,0.6l0.2-0.9l-0.8-0.9v1.1l-0.8,0.6
				L148.2,211.5z M149.2,231.1l-0.3,1.1h-0.3v-1.1H149.2z M149,219.3l-0.3,0.3v-0.3H149z M150.6,210.4v-0.5l-1.4-1.6v1.6
				L150.6,210.4z M150.6,228.7l-0.8,1.4v-1.4H150.6z M150.3,173.3v-0.2H150L150.3,173.3z M152.2,214.4l0.5-1.4h-0.5v-0.8h-0.8v1.6
				l0.5,0.3L152.2,214.4z M151.4,224.8h0.3v-0.3L151.4,224.8z M162.7,217.2l0.8-0.3l-0.8-1.7l-0.5-0.2l-0.3-0.6h-0.5l-1.1-3.3
				l-0.9,0.8h-0.6l-0.3-0.5h-0.3l-0.5,0.8l-0.3,0.5l-1.1-1.1l-0.8,1.3l-1.1-2.4l0.3-0.3l-0.3-0.6l-0.3,0.6h-0.3l0.5,1.7v0.9h-0.9
				l1.7,2.8h1.1l0.2-0.9l0.8,0.5l1.3,1.3h0.9l0.6,0.6h1.4l0.8,1.6L162.7,217.2z M153.9,236.1h0.3l0.2-0.9l-0.5,0.8V236.1z
				 M154.4,230.5h0.2l0.2-0.3h-0.2L154.4,230.5z M155.5,159.9l0.9-0.3l-1.1-0.8h-0.5L155.5,159.9z M155.5,210.1l0.5-0.3l-0.6-1.3
				v0.6L155.5,210.1z M155.3,233.9l0.2-0.3l-0.2-1.3V233.9z M156.1,224.1h0.3v-0.3h-0.3V224.1z M157.7,209.5l0.2-0.3l-0.6-2.1h-0.3
				l-0.2,0.8L157.7,209.5z M161.3,208.5l0.5-0.6l-1.3-0.8h-0.6l0.3,1.3l0.5-0.3L161.3,208.5z M161,210.3l-0.3-1.3v0.9L161,210.3z
				 M160.8,227.5h0.2v-2.2L160.8,227.5z M164.3,169.7v-0.3H164L164.3,169.7z"/>
			<path id="XMLID_4377_" class="st2" d="M209.5,260l-2.1-0.8l-0.8-1.3v1.6l-0.6-0.3l-1.6-0.2l-0.2-0.2l-0.9,0.3l-1.6-1.6l-0.6,0.8
				l-0.5-0.8l-0.3-2.4v-0.9l-0.8-1.6l0.3-3.2l-0.8-4.3l-0.2-45.5l-2.1-2.4l-0.2-0.5l-5.2-6.2l-3.3-5.2l-3.5-4.1l-6.6-10.9l-0.9-2.1
				l-1.3-2.1l-0.6-0.3l-1.7-3.2l-0.2-1.4l-0.9-0.3l-1.4-2.2l0.2-0.6l0.5-0.3l0.8-1.6l0.6,0.2l0.3-0.3l1.7-0.5l2.1-1.6l2.4-0.2
				l0.8-1.3v-0.5l0.8-0.8l0.5-1.7l1.7,1.1h0.8l0.6-1.4l1.7-0.8l1.4,2.1l0.3,1.1l2.1,1.6l0.5,0.8l3.3,3l14.7,23.7l4.1,8.8l8.2-18.9
				l1.3-1.3l0.8-1.9h-0.9l1.6-1.9l0.5-1.9l0.9-0.2l0.2-1.3l1.1-1.3l0.5,0.2l-0.2,1.3l0.9-1.9h-0.5l0.2-0.5l0.6-0.6l0.2,0.5l1.4-1.4
				l1.3-2.8l-0.2-1.7l2.5-4.3h0.3l0.3-1.3h1.1l2.4-0.8l1.4,1.6l0.8-0.3v-0.3h0.6l1.1,1.1l0.8,0.2l0.3,0.2l1.1,0.5l0.8,0.6l1.6-1.7
				l2.4,1.4l0.5-0.5v1.1l1.6,0.6l0.9-0.3l1.9,1.1l-1.6,4.7l-1.4,2.2l-1.4,3.8l-1.3,2.4l-1.9,4.9l-3.8,5.4v0.5l-2.4,3.2l-0.3,1.3
				l-1.9,2.8l-1.4,1.1l-0.8,2.5l-12.8,16.1l-2.2,2.2l0.3,22.4l-0.6,1.1l1.1,7.9l-1.1,0.9l0.8,0.2v0.9l0.5,0.8v3l-0.6,1.7l-0.8-0.6
				l-0.3,0.3l-0.5-0.2l0.5,1.7l0.3-0.6h0.8l-0.2,1.9l-0.5,0.5l0.6,0.8l-0.2,3.9l0.6,2.2l0.3-0.6h0.8l0.3-2.4l0.3,1.4l0.6-0.5
				l-0.3,0.8l-0.3,0.2l0.5,0.9l-0.3,0.3l-0.2-0.2l-0.3,1.1L221,257l0.5,0.9l-7.7,0.8L209.5,260z M203.2,256.2l-1.3-3l-0.2,0.2
				l0.3,2.1L203.2,256.2z M202.8,258.9l0.2-0.5l-0.3-0.6l-0.5,0.3L202.8,258.9z M203.8,257.9h1.3l-0.2-0.5l-0.8-0.2L203.8,257.9z
				 M204.7,237.2v-0.2l-0.5-0.2L204.7,237.2z M205.8,257.1l0.3-0.6v-0.6l-0.9-0.2l-0.2,1.1L205.8,257.1z M205.5,255.2h0.3l0.2-0.6
				h-0.3L205.5,255.2z M207.3,256.2l-0.2-2.7l-0.5-0.3v3H207.3z M207.3,231.7l0.3-0.3l0.2-0.5h-0.8L207.3,231.7z M208.8,257.3
				l0.2-1.3l-0.2-1.4l-0.5,1.3L208.8,257.3z M209.5,258.7h0.5v0.6l1.4-0.6l0.8,0.5v-1.6h-1.6v0.9l-0.5-0.2l-0.2-0.6h-0.2l-0.3,0.2
				l-0.3,0.5l-0.5,0.6L209.5,258.7z M210.3,251.8l0.6-0.2l-0.2-0.6l-0.5-0.3l-0.3,0.3L210.3,251.8z M210.4,256.5l0.3-0.5l-0.8-0.3
				L210.4,256.5z M210.6,253.2l-0.3-0.2v0.5L210.6,253.2z M211.4,242.6l0.9-0.3h0.2v-2.1l-0.3-0.3l-0.6,0.2l-0.3,0.2l-0.3,0.8
				l0.3,0.2l-0.2,1.1L211.4,242.6z M211.4,245.8l-0.2-0.3l-0.3,0.6L211.4,245.8z M211.7,239.5v-0.9l-0.5-0.2L211.7,239.5z
				 M211.4,247l0.5-0.2l-0.2-0.2L211.4,247z M212.5,254.8l-0.2-0.3H212L212.5,254.8z M212.5,249.6l0.5-0.6l0.2-0.3h-0.5L212.5,249.6
				z M213.6,251.5l0.2-1.3l-0.9-0.2v0.6L213.6,251.5z M213.4,239.9l0.3,0.2l-0.5-0.6L213.4,239.9z M215.9,251.8l0.3-0.2l-0.3-1.1
				l-0.2-0.3L215.9,251.8z M216.9,245.1l-0.2-0.5l-0.2,0.3L216.9,245.1z M217.4,240.1l-0.2-0.5h-0.5L217.4,240.1z M218.3,242.9
				l0.9-0.3v-1.3h-1.1L218.3,242.9z M219.3,236.8l-0.2-2.7h-0.3l0.2,0.3L219.3,236.8z M220,243.4l0.3-0.2l-0.2-0.9l-0.3-0.3
				L220,243.4z M220.7,257.6l-0.6-0.3v0.5L220.7,257.6z M221.1,256.4l0.5-0.8l-0.9,0.3L221.1,256.4z M222.4,251.1l-0.3,0.3V251
				L222.4,251.1z M222.7,189.1l0.3-0.5l0.2-0.6l-0.6,0.8L222.7,189.1z M223,189.7h0.3l0.6-0.2h1.7v-0.6l-1.7-0.2L223,189.7z
				 M224,191.8l0.5-0.5h-0.8L224,191.8z M224.5,177.1l0.6-0.8l-0.8-0.2L224.5,177.1z M224.3,192.7l0.5-0.2l0.2-0.9l-0.5,0.8
				L224.3,192.7z M225.4,193.7l1.3-1.6l-0.9,0.3L225.4,193.7z M225.9,190.7l0.8-1.1l-0.9,0.5L225.9,190.7z M227.3,182.8h0.3l0.2-0.8
				l-0.3,0.5L227.3,182.8z M227.6,170.5h0.9l0.6-0.5h-0.9L227.6,170.5z M228.1,193l0.3-0.2l-0.2-0.3l-0.5,0.2L228.1,193z
				 M228.6,186.4v-0.9l-0.2,0.3L228.6,186.4z M228.4,194.3l1.3-0.3l-0.2-1.1l-0.9,0.9L228.4,194.3z M229.2,173.8l0.5-0.2l0.8-0.9
				L229.2,173.8z M231.6,173.8l0.5-0.2l-0.3-0.3L231.6,173.8z M233,167.8l1.4-0.8h-0.8L233,167.8z M233.5,178.5l1.1-0.9h-1.1V178.5z
				 M234.9,171.9v-0.3l-0.8,1.1L234.9,171.9z M234.7,179.3h0.3l0.2-0.3l-0.6,0.2L234.7,179.3z M236,180.6h0.5l-0.2-0.2h-0.2
				L236,180.6z M236.3,176.5l0.3-0.2h-0.3V176.5z M236.6,167.3l0.6-0.8h-0.5L236.6,167.3z M237.6,167.9l0.9-0.8h-0.3L237.6,167.9z
				 M242.1,160.7l0.5-0.5l0.8-0.3l-0.3-0.5l-0.9,0.5V160.7z M243.3,164.8l0.6-0.2l0.3-0.2l0.6-0.5l-0.2-0.6l-2.1,0.9L243.3,164.8z"
				/>
			<path id="XMLID_4224_" class="st2" d="M353.1,258.4l-1.1,0.8h-0.6v-0.9h1.1l-1.1-1.7h-0.6l-0.6-0.6l-0.6,0.5l-0.2-0.5l-0.9,1.1
				h-0.8l-0.6,0.2l-0.3-0.2l-0.3,0.8h0.2v0.8l-0.3,0.8l-0.9-2.4h-0.3v-0.6l0.8-0.9l0.5,0.5l0.6-1.1l-0.5-0.5l-2.2,0.9l0.3,1.9
				l0.2,2.1h-0.3l-0.3-0.9l-1.1-0.5l-0.5-0.2h-0.5l-0.3-0.6l-0.6-0.6v-1.1l1.1-1.3h1.3L343,253l-1.1,0.3l-0.9-1.9l0.6-0.6v-1.3
				l-0.6-0.6l-0.2-0.5h0.8l-1.1-1.6l0.8-1.4l-0.5-1.1l-0.2-5.8h0.9v-0.9h-1.3l-0.3-1.1l-0.6,1.1l-0.6-0.9l-0.5,0.6v-0.9l0.3-0.9
				v-1.3h-0.3l-0.2-1.9h-0.3l-1.6-27.9l0.5-5.5l-0.5-1.6l-0.2-2.7h0.6l0.2,0.6l-0.2,0.6l0.2,0.6l0.6-0.9l0.3-2.7l-0.6-1.4l-0.5,0.5
				l-0.3,1.6l-0.3,0.3l-0.3-2.2l-1.6-1.7v-0.3l-0.5,0.3l-0.3,1.3l-0.5,0.5l-2.5,4.4l0.2,0.5l-3.8,6.2l-2.1,2.4l-0.3,2.2l-0.8,0.8
				l-1.7,3.3h-0.6l-1.3,1.4v0.6l0.8-1.1h0.5l-0.5,1.1l-0.3,0.2l-0.3,1.3l-0.6,0.5l0.3,3.2l-0.3,0.6v0.6L319,220v1.3l-0.6,0.3
				l-0.3,0.9h-1.9l0.2,1.6l-0.9-0.5v0.8l-0.3,0.3l-1.3-0.6l-0.3,0.8l-1.3,0.5l-0.6-0.6l-0.5,0.3v0.6l0.3,0.3l-1.3,0.6l-0.3,1.1h-0.9
				l-0.5,0.5l-1.4-0.5l-3.2-0.5v-0.6l-2.2-0.9l-0.9-0.9h-1.1l-1.6-0.9l-3.3-3.5l-0.3-0.6l-1.3-1.3l0.8-2.1l-2.2-3.6l-2.7-2.8
				l-5.8-10.1v-2.2l-0.6-1.3l-0.8-0.5l-0.8-0.2v0.2l-0.5,2.7v2.8l-0.5,1.3l0.2,2.5l-0.3,0.9v5.8l-0.8,0.8h-0.6v0.5l1.3,0.6v1.6
				l-0.6,1.6h-0.5l-0.3-0.3l-0.6,0.8l0.3,0.5l1.3,0.3l0.9,1.3l-0.5,1.1v1.3h-1.4l0.2,0.8l1.7,1.3v2.1l-0.5,1.1l0.5,0.6l-0.5,0.5
				l-0.6-1.6l-0.9-0.5v-0.8l-0.8,1.3l0.8,2.4h0.3v-1.3h0.3l0.3,1.3h0.3l0.5,0.6l0.2,2.5l-0.3,1.3v4.1l1.3,1.3l-0.9,1.9l-0.8-0.9
				l-0.8,0.8l0.3,0.8v0.5l0.3,0.8l0.6-0.6h0.8l0.2,10.1l-0.5,1.1l0.6,2.1l-0.6,1.4l-0.8-0.9l-0.9,0.6l-0.3,3l-0.8-0.8l-0.5,0.8
				l-0.9,0.5l-1.7-0.6v1.3h-0.5l-0.8-3.3l-0.3,1.1v-0.5l-0.2-0.6l-0.6,0.5h-1.1l-0.2,1.1l0.3,1.3l-0.6-1.4l-0.6-0.8l-0.2-0.8
				l-1.3,1.6h-0.6l-0.6-0.9h0.8l-0.9-1.1h-0.5l-0.3,1.7l-0.5,0.5L265,257h-1.3l-0.3,0.8h-0.8l-0.6-0.6v-0.6l-1.3-2.5l-0.2-2.5
				l-0.6-0.6v-0.6l2.2-0.6l-1.1-0.8v-5.5l0.5-1.4l0.2-4.6l-0.3-2.5v-2.2l-0.6-0.3v-0.6l0.5-0.8l-0.5-0.8l-0.3-0.5l0.8-0.9v-5.4
				l0.3-0.2v-1.4l0.8-1.7l-0.8,0.5l0.3-0.6l0.6-0.5v-0.3h-0.9l-0.5,0.6l-0.5,1.1l-0.5-0.6v-4.3l1.3-5.2l-1.9-1.4l0.9-1.7l0.5-0.3
				l0.3-3.5h-0.5l-0.6,0.3v-0.6l0.6-0.9l0.5-0.3v-1.6h-0.5v0.6l-0.5,0.3l-0.2-0.3l0.2-3l0.5-2.2v-2.5l1.3-3.9l0.3-1.9v-0.3l-0.5-0.3
				v-6.2l-1.1-1.9v-1.6l1.7-1.4v-2.7l0.5-2.2h-0.5l-0.8,1.9v0.9l-0.6,0.3v-2.1l0.5-3v-3.6l-0.3-0.3l-0.5-2.5l-1.4-1.4v-1.6h0.9
				l0.5-1.6v-1.3l0.9-0.9h1.1l-0.3-0.6l0.3-1.3h1.1v-1.1l0.3-0.2l0.3-1.3l-1.3-1.4v-0.6h1.1l1.4,1.6l0.8,0.6l-0.2,1.7l0.3-1.1v-1.6
				h0.6l0.2,0.3l2.1,1.6l-0.6-1.9v-2.1h0.5v2.4l1.1,1.3l0.9,1.6l-0.6-4.4l0.5-0.8l0.6,0.2h0.8v0.5h-0.6v1.4l0.6,1.4v-2.1h0.6
				l0.5,1.6l1.4,1.3l-1.4-4.6l0.9,0.9l0.5-0.5l1.3,2.7h0.8v-1.6l-0.3-1.9l1.1-0.6l0.3,1.9v2.4h1.1l0.8,3.3l2.4,5.7l9.8,15.9l0.5,1.1
				l0.9,0.5l0.9,1.9l-0.5,0.8l-0.6-0.6l-1.4-0.2l-1.4-1.3l0.8,1.6l-1.1-0.6v0.9l1.7,1.9l0.3-0.5h1.7l0.5-0.8h1.1l0.5,0.8v0.6
				l1.4,2.4l1.7,1.9l0.2,0.9h-0.5l-1.6-1.7v1.1l-1.1,0.3l4.4,4.3v0.6l-0.5,0.6l0.9,0.3l2.5,1.4v1.1h-1.1l1.3,1.3h1.4l1.7,0.9h1.1
				v-0.9l-0.5-0.3l0.8-1.6l1.1-0.3l1.3,0.8h1.3l0.9-1.9l1.4,1.3v0.8l-0.6,1.1h-1.3v0.9h0.5v1.4h0.8v2.4l0.3,0.6l-0.5,2.5h0.6v-0.6
				l0.3-0.6V203l1.1-1.1l1.7-0.6l-0.5,1.9l-0.6,0.5v0.6h0.6l0.8-1.9l0.3-0.3v-0.9l0.8-0.5l1.1-1.7l0.8-0.3l0.3-1.7l1.3-1.7h0.6
				l0.5,0.2h1.6l0.6-0.2l0.9,0.8l1.1-2.2l-0.3-0.6l-0.8,0.9h-0.5l0.5-0.6v-0.6l-1.3,0.6l-0.5-0.6l-0.9,1.4l-0.9-0.5l1.3-2.2v-0.3
				l-0.5,0.9V191l-0.9,1.4l-0.5,0.3l-0.5,1.7l-0.6,0.6h-0.3l0.3-1.7v-0.6l1.3-0.5l1.3-2.5l0.5-0.6l0.2-0.6l-0.5,0.3l-0.2-0.3
				l1.7-3.5h0.5v0.3h0.5l0.6-0.6l0.2,0.3l-0.9,1.9h-0.8v-1.4l-0.8,2.2l0.3,0.5l-0.2,0.9v1.3l1.7-2.5h0.8v0.6l-0.2,0.6v0.6h0.3
				l0.5-0.9h0.8l-0.2,0.6h0.5v1.1l0.6-0.5l0.8-1.9l0.6-0.6l-0.2-0.3H331l-0.8,1.6h-0.5l0.5-0.8l-0.5-0.5l-0.2-0.9l-0.3-0.5l-1.3,1.4
				l-0.2-0.6l-0.6-0.5l1.3-1.7l1.4-2.8l1.1-1.7l-0.6-0.6l-1.4,1.3l-1.1,2.7l-0.3-0.3l-0.5,0.6h-0.5l0.5-1.3l1.1-1.3l0.3-1.1
				l-1.1,0.5h-1.6v-1.1l-0.2-0.3l0.3-0.9h0.6l0.2,0.6l0.5-0.6l0.5-1.6V176l-1.6,1.6h-0.5l0.5-1.6l-0.5-0.5l0.9-1.7l-1.1,0.3
				l-0.5,0.6l-0.2-0.9l-0.9,0.9l-0.6,1.7h-0.5v-1.1l2.1-2.5l0.6,0.3v-0.6h-0.6l-0.6,0.3l-0.3-0.3l0.5-0.5l-0.5-0.5v-0.6l0.3-0.3
				v-0.3h-0.3l-0.5,0.6v0.3l-0.9,1.3l-1.1-0.5l2.5-3.2l0.5-1.7l2.1-1.7l1.1-2.1l-0.5-0.5l-0.6,0.3l-0.6,1.3l-0.5,0.3l-0.5-0.3
				l2.2-3.3v-0.6l0.3-0.6l0.3-2.2l1.4-2.2v-0.6l0.5-0.8l-0.6-1.9h0.3l0.6,0.6l0.5-1.4h4.6l0.6-0.5h0.3v-0.5l-0.3-0.5v-0.2l-0.6-1.1
				l0.6-0.8v0.8h0.5l0.5,0.6l0.2-0.6h0.3v0.6h0.6v0.5l-0.6,0.6l1.4,1.9l0.2,1.6l0.3-0.5l0.6-0.2l0.2-2.4h0.8l0.2,1.7l0.5-2.1
				l0.3,1.1h0.5v-1.1l1.4-0.8l0.9,1.4l0.2,2.1h1.1v-0.6l-0.5-0.8l0.5-0.3l0.6,0.8l0.5,1.9l0.8-3.5l0.3,2.4l-0.5,0.6v5.2h0.8l0.3-5.8
				l0.3-0.3l0.3,5.4l0.8-7.3h0.6l0.2,0.8l0.9-0.8h0.6l2.1,17.7l-0.3,1.7l-0.6-0.6l0.2,1.9l0.3,0.3l0.2-0.9h0.6v1.9l0.3,1.3l0.2,6
				h-0.6v3.6h-0.5l-0.6-1.1l-0.9-0.8l-0.2-1.3l-0.5-0.5l-0.2,1.1l-0.5,0.2v-0.6h-0.5l0.5,1.3l-0.5,0.6l0.5,0.5l0.6-0.6l0.5,0.9
				l-0.6,0.3l0.3,1.6h1.4l0.8-0.9l0.5,6.5l-0.3,1.9l-0.2,0.3l-0.5-1.3l-1.1,0.6v1.6l0.6,0.6l0.2,1.7h0.3l0.2-1.3h0.8l0.5,1.3v3.6
				l-0.3,0.5l-0.5,0.8l-0.8-3.9l-0.6,6.8l0.6,3v2.1l0.3,0.6l-0.3,0.6l0.3,0.8l-0.3,0.3v1.9l0.6,1.3l-0.5,0.5l-0.6-0.6l-0.3,1.4
				l0.6,0.5l0.6,2.5h0.6l-0.3,1.1h-0.6l-0.3-1.1l-0.3-0.3v3.6l1.4-0.5l0.8,1.3l0.3,0.2l-0.6,0.6v1.3h1.3v2.1h-0.6l-0.3-0.6l-0.5,0.2
				l-0.3,0.6l-0.3-0.2v-0.6l-0.5-0.9l-0.5,1.7l0.3,1.9l0.9,1.1l0.2,1.9l-0.5,1.3l2.1-0.3l0.9,1.6v2.4h-0.6l-0.2-0.8L356,236
				l-0.3-0.6l-0.8,1.9v1.7l1.6,0.8l0.2,0.9l0.9,1.3v2.4h-0.9v0.6l0.6,0.6l-0.5,1.4l-0.6-0.9l-0.6,0.6l-0.3-0.8v-1.3l-0.5,0.6
				l-0.3-0.6v2.5h-0.6v-1.3h-0.9v1.6l0.6,0.6v0.6l0.5,0.5l0.6-0.3l-0.3,0.6l0.3,0.6v1.6l0.3,0.6v1.6h-1.3v1.9l0.5-0.5l0.8,1.7
				l-1.3,0.9l0.2-0.3l-0.3-0.8H353l-0.2-0.5l0.2,1.7L353.1,258.4z M261.7,174.7v0.9l-0.3,0.3l-0.3,0.6h-0.3v-1.9H261.7z
				 M262.2,202.7h0.5v-0.3h-0.2L262.2,202.7z M263,183.1V182l-0.3-0.2l-0.3,1.3H263z M263.5,150.9v0.6h-0.2v-0.9L263.5,150.9z
				 M264.4,181.8h0.3v-0.5h-0.3V181.8z M267.7,152.2V152h-0.3L267.7,152.2z M275.3,146.5v0.6h-0.2v-0.6H275.3z M278.6,220.4V220
				h-0.3L278.6,220.4z M278.6,254.3l0.9-0.3V253h-0.3l-0.3,0.3h-0.6L278.6,254.3z M282.2,187.2l-0.2-0.3v0.3H282.2z M283.3,183.1
				v-0.6h-0.5v0.2L283.3,183.1z M284.8,187.5l-0.2-1.4h-1.4l-0.3,0.5l0.5,0.6L284.8,187.5z M284.6,168.6h0.6l-0.3-0.2L284.6,168.6z
				 M285.7,172.5h0.2l-0.2-0.5V172.5z M286.8,174.1v-0.6l-0.6-0.3v0.3L286.8,174.1z M288.2,173.2l0.3-0.3l-0.9-0.8l-0.5,0.5v0.3h0.5
				L288.2,173.2z M288.9,181.2l-0.8-1.7l-0.9-0.6l0.3,1.1l-0.2,0.8L288.9,181.2z M288.6,176.6h0.3l-1.3-1.6v0.6L288.6,176.6z
				 M290.1,178.8l0.2-0.6h0.2v-0.3l-0.2-0.3l0.5-0.3l0.9,0.3v-0.3l-1.7-2.5v0.6l0.8,1.9l-1.1-0.6l-0.6,0.3l0.5,1.4L290.1,178.8z
				 M291.7,185.9l0.3-0.5l-0.3-0.2v-0.9h-1.1l-0.2-0.6l0.3-0.6l-1.6-1.7H289v1.3l1.6,2.7L291.7,185.9z M289.7,174.7v-0.3h-0.3
				L289.7,174.7z M292.7,217.7h-0.8l0.5-0.5L292.7,217.7z M292.3,181.2H292v-0.5L292.3,181.2z M293.3,183.7h0.2v-0.3L293.3,183.7z
				 M296.1,185.3l0.3-0.5l-0.9-2.2h-0.6v0.8l-0.5,0.3l0.9,0.6L296.1,185.3z M302.6,190.8v0.6l-0.2,0.3l-0.3-0.9H302.6z M306.9,194
				l1.4-0.6l0.5-1.6h1.3v0.3l-2.2,2.7l-0.9-0.3V194z M307.8,201.7l2.8-3.6l1.1-1.1h-1.1l-1.6,0.6v1.7L308,200l-0.9,1.3L307.8,201.7z
				 M309.7,205l1.3-0.8v-0.3h-1.4L309.7,205z M311.3,191.2h0.6v1.1l-0.8,0.5l-0.3,0.6l-0.8-0.6L311.3,191.2z M310.2,225.4l-0.2-0.3
				v0.3H310.2z M311.1,190.4v0.2h-0.6l0.3-0.2H311.1z M311,202h0.3l0.2-0.6L311,202z M311.8,203.3l0.3-0.6l-0.3,0.3V203.3z
				 M312.1,190v-0.6h1.1l-0.5,1.1h-0.8v-0.2L312.1,190z M312.2,203.6l0.5-0.6h-0.5V203.6z M312.7,192.1h0.3v0.6h-0.3l-0.2-0.3
				L312.7,192.1z M313.8,181.2v0.6H313v-0.5L313.8,181.2z M313.2,196.4h0.6l0.2-0.5l-0.3-0.2v-0.5l-0.6,0.6L313.2,196.4z
				 M314.3,187.8v0.3H314v-0.3H314.3z M314,193.4v-0.6l0.6-1.3h0.8l0.5-0.6l0.9,0.3l0.8-0.8l0.5-0.9h0.6l-1.4,1.7l-0.2,0.9l-1.4,0.6
				l-0.9,0.9h-0.5l0.5-0.9L314,193.4z M315.1,189.4h0.3l-0.3,0.3l-0.3,0.6h-0.5v-0.5L315.1,189.4z M317.3,181.2l-0.9,0.6h-0.6
				l-0.8,0.2l0.6-1.9h-0.9v-0.6l0.9-0.9l2.2,0.3l0.3,1.1l1.1,0.2v0.6l2.2-1.9h0.5l0.5-0.6l1.6,0.5l-0.5-1.1h0.8v0.6l0.2,0.3l0.6-0.3
				l-0.6,1.7l-0.5-0.6l-1.4,2.1l-0.5-0.8l-0.6,0.2l-0.5,0.5h-0.2l0.3-0.9l-1.1,0.5l-0.8,1.3l-0.3,1.1h-0.5v-1.7l0.2-0.2h-0.3
				l-2.2,2.8h-0.5l1.1-1.4L317.3,181.2z M315.2,182.6h0.3l-0.3,0.8l0.3,0.3l-0.6,0.3l-0.3-0.6L315.2,182.6z M315.5,198.9l1.3,1.1
				l-0.5,0.5h-0.5l-0.6,0.2h-0.6v-0.8L315.5,198.9z M315.7,193.4h0.3l-0.3,1.1l-0.6-0.5L315.7,193.4z M316.8,189.4l0.5-1.6l-0.2-0.6
				l1.7-1.1h0.6v0.5l-0.9,0.6l-0.3,1.3h-0.5l-0.8,1.9h-0.5l-0.3-0.3L316.8,189.4z M317.3,194.6l-1.1,0.6l0.6-0.6H317.3z
				 M316.8,207.7v-0.6l-0.6,0.3L316.8,207.7z M318.7,200.2l-0.6,0.5v-0.2l-0.8,0.2v-0.9L318.7,200.2z M317.8,184.4h-0.3l0.3-0.3
				V184.4z M317.6,205.5h0.9l0.2-1.6h-0.3l-0.9,0.9L317.6,205.5z M318.2,223.2l-0.5,0.5l-0.3-0.5H318.2z M318.5,191.5v0.3l-0.6,0.6
				l-0.3-0.3L318.5,191.5z M317.6,218.9h0.5v-0.3L317.6,218.9z M318.2,195.7l0.5-0.6l0.2,1.3h-1.1l0.2-0.6H318.2z M319.2,197.9
				l-1.1,1.3h-0.3l0.8-1.3H319.2z M318.7,192.7v0.6l-0.8,1.1v-0.8L318.7,192.7z M319,206.8l0.9-0.5v-0.5h-0.3l-0.5-0.5l-0.8,0.9
				L319,206.8z M320.1,171.3v0.3l-0.8,0.9h-0.6l1.1-1.3H320.1z M318.9,212.1l0.5-0.2v0.2h0.3l0.6-1.1l2.2-3v-0.9l0.5-0.9l1.1-0.3
				l0.5-0.6l-0.5,0.3l-1.3-0.5l-0.5,1.1l-0.5,0.3l-1.4,1.6l-0.5,1.1h-0.5l1.3-2.4v-0.6l-0.8,0.6v0.6l-0.9,2.4h0.3v0.6l-0.5,1.1
				V212.1z M319.2,203h0.3v-0.3L319.2,203z M320.1,196.5h-0.6l-0.2-0.8h1.1l0.2,1.4l-0.5-0.2V196.5z M320,183.1l1.3,0.3l-1.3,1.3
				h-0.5v-0.6L320,183.1z M319.8,197.6l0.3,0.3v0.2h-0.6v-0.2L319.8,197.6z M319.5,204.6l1.1-1.3l-0.3-0.6l-0.8,1.6V204.6z
				 M320.4,188.5v0.3l-0.5,0.6v-0.9H320.4z M321.4,205.5l0.3-1.3l-0.8,0.8l-0.6-0.5l0.2,0.9H321.4z M321.7,175.4v0.3l-1.1,1.3v-1.6
				H321.7z M321.7,201.1l0.6-2.4l1.1-0.2v-0.9l0.5-1.3h-0.5l-0.2-0.5l-0.3,0.6v1.6h-0.2v-0.2h-0.6l-0.9,0.8l-0.3,1.3h0.8V201.1z
				 M321.4,210.6l0.5-0.2v-0.5L321.4,210.6z M322,185h0.5v0.3l-0.5,0.2l-0.2-0.2L322,185z M323.1,188.2h-0.5l0.5-0.6V188.2z
				 M323.1,183.7v-0.6l0.8-0.6l0.2-0.6l0.3,0.6v0.2h0.6l-0.5,0.5l-0.3,0.9l-0.6-0.3H323.1z M324.4,200.6v-0.8l0.5-1.1h-0.5l-0.5,0.6
				v0.5l-0.8,1.6L324.4,200.6z M324.5,184.7h0.8l-0.3,1.3l-0.6,0.2l-0.8-0.3L324.5,184.7z M325.7,201.4l0.9-2.1l0.5-0.2l0.6-2.2
				l1.7-1.9l0.2,1.4l0.9-2.1l0.3-0.5l1.1-2.5l-2.2,2.5H329l-1.9,2.4h-0.6v1.7l-1.9,3.3H325.7z M325.2,193.7v0.3l-0.5,0.5V194
				L325.2,193.7z M325.3,197.6h0.6v-0.5h-1.1L325.3,197.6z M326,169.7l1.6-1.1l-0.5-0.2l0.2-0.6l-0.5,0.2l-0.3,0.6l-0.5,0.5V169.7z
				 M327.5,191.2l0.3-0.5l-0.3-0.3l-0.3,0.5L327.5,191.2z M327.7,170.3l0.9-0.6v-0.6l-0.9,0.9V170.3z M328.2,179.9l0.9-2.1h-0.3
				l-0.6,0.9V179.9z M329.4,193.4l0.6-0.6l-0.6,0.3V193.4z M330.4,184.1h0.6l0.3-0.3l-0.6-0.6L330.4,184.1z M330.7,165.9l0.3-0.5
				v-0.3l-0.3,0.3V165.9z M330.9,190.4l2.2-0.5l0.5-1.1h-0.9l-0.3-0.3l-0.6,1.6h-0.8V190.4z M331,179.2h0.3l-0.2-0.6L331,179.2z
				 M332,173.2h0.3v-0.6H332V173.2z M332.4,181.4l0.6-0.2l0.3-0.6l-0.5-1.1l-0.9,1.6L332.4,181.4z M332.1,169.1l0.3-0.5h-0.3V169.1z
				 M334,149.8v0.6h-0.5v-0.5L334,149.8z M336.7,247.2l0.3,0.3l-0.3,0.5V247.2z M336.9,249.9l0.3,0.6v0.9l-0.3-0.6V249.9z
				 M337.8,241.2l-0.5-0.6l-0.2-3h0.5v0.6l0.5,0.3l0.5-0.3v0.9l0.6-0.3l-0.8,2.5v2.4l-0.6-0.6V241.2z M338.1,226.5l0.3-0.8v-0.6
				l0.2-0.6v-0.3l0.5-0.3l-0.2-2.5h-0.6l0.2,1.9l-0.6,2.8L338.1,226.5z M338,250.2l-0.2-3l0.5-0.5l0.2,1.1l0.3-0.3v-0.9l0.6-2.2
				l0.6,2.4h0.2v0.8l-0.6,0.3l-0.2-0.3l-0.5,0.9h1.1l0.2,0.3v0.2h-1.1v1.9l0.5,0.6v0.9h-0.9l-0.2-1.6L338,250.2z M338,192.1h0.5
				l0.2-0.3h-0.2L338,192.1z M338.9,191.5l0.3-0.9l0.9,0.3l0.6-0.3l-0.6-0.2h-0.8l-0.6-1.6l-0.3,2.1L338.9,191.5z M338.4,244.4h0.3
				v0.6l-0.3-0.3V244.4z M338.6,256.8l0.3-2.1l0.8-0.5l0.5,0.8l0.2,0.2l0.5,3.3l-1.4-0.9L338.6,256.8z M339.4,243.3v0.5h-0.5v-0.5
				H339.4z M341,237.1h0.6v-0.5l-0.6-0.3V237.1z M341.8,182v-0.2h-0.3L341.8,182z M341.9,148.4l-0.3,0.3v-0.3H341.9z M342.7,250.8
				h0.3v-0.6l-0.3-0.6l-0.3,0.6L342.7,250.8z M342.9,151.2h0.2v-0.8l-0.2,0.2V151.2z M344.6,183.7l0.5-0.3l-0.8-0.8h-0.6
				L344.6,183.7z M343.8,236.3h0.8v-1.6l0.6-0.6v-1.6l-0.6-0.6l-0.2,0.8v1.7L343.8,236.3z M343.8,251.1l0.6-2.4l-0.6,1.1V251.1z
				 M344.6,181.8v-1.1l-0.3-0.2v0.8L344.6,181.8z M344.9,187.7l0.2-0.5l-0.8-0.3v0.3L344.9,187.7z M344.9,251.1l0.6-0.6l-0.6-0.6
				l-0.5,0.6L344.9,251.1z M346.3,182.5h1.1l-0.6-1.3h-0.5V182.5z M347.1,180.6l0.3-0.5h-0.3V180.6z M347.1,185h0.5l-0.5-0.9V185z
				 M347.1,258.6l0.3-0.3h1.7l0.5,0.6L347.1,258.6z M347.9,229.7h0.3l-0.3-1.1h-0.5L347.9,229.7z M348.1,175.1l0.3-0.6l-0.3-0.3
				V175.1z M348.4,232.7v-0.2l-0.3-0.3v0.3L348.4,232.7z M348.9,246.1l0.3-0.2V244h-0.3V246.1z M349.5,186.1l0.5-0.2l-0.2-1.6h-0.3
				v0.9l-0.3,0.6L349.5,186.1z M349.6,178.2h0.6l0.2-0.6h0.9l0.2-0.9h-1.3v0.9h-0.6l-0.3,0.3L349.6,178.2z M349.5,183.7l0.5-0.6
				l-0.5-0.5V183.7z M350.6,246.6l0.3-1.6h-0.6L350.6,246.6z M350.6,153.4h0.6v-0.6h-0.6V153.4z M350.6,186.7l0.9-0.6l-0.5-0.5
				L350.6,186.7z M352.5,177.3l0.3-1.4l-0.3-0.5l-0.3,0.3v1.3L352.5,177.3z M352.8,187.5l-0.2-0.9l-0.3,0.3L352.8,187.5z M353.9,253
				v-1.6h-0.3l-0.2,0.6H353v0.5L353.9,253z M353.1,258.4l0.5-0.3l-0.2,0.6L353.1,258.4z M354.4,179.2l-0.2-3.2l-0.3-0.3l-0.3,1.1
				L354.4,179.2z M353.6,187.2h0.3l-0.3-0.3V187.2z M354.2,236.3v-1.9h-0.6v0.6L354.2,236.3z M354.2,193.7v0.3l-0.2-0.3H354.2z
				 M354.2,257.6l0.5,0.2v0.5h-0.3L354.2,257.6z M355.6,216.4l-0.6-0.3v-0.3l-0.3-0.3V214h1.1l0.3,1.4h0.9v0.6l-0.3,0.3v0.5
				l-1.1,1.7l-0.6-1.1L355.6,216.4z M354.7,219.7h0.6l0.6,0.6v1.6h-1.3V219.7z M355.2,244l0.3-1.3l-0.3-0.3V244z M355.3,235l0.3-0.6
				l-0.3,0.3V235z M356,236.3v0.9h-0.6l0.3-0.2L356,236.3z M355.6,250.5l0.6-0.6h0.3l0.2-0.3h0.3v2.2h-0.5l-0.3-1.3H355.6z
				 M355.6,251.5h0.3v1.9l-0.3-0.9V251.5z M355.8,245.6l0.3-0.6l-0.3-1.7V245.6z M356.1,218.9v0.6H356v-0.6H356.1z M356.8,257.8
				l-0.5-0.2v-1.3h1.4l0.6-0.6l1.3,1.9l-0.3,0.6h-1.1l-1.4-1.3V257.8z M356.8,252.7h0.6v0.6l-0.3,0.3l-0.3-0.3V252.7z M357.9,246.1
				h0.3l0.5,1.7l0.2,1.4l-1.4-0.6L357.9,246.1z M358,250.5v0.9l-0.5-0.5L358,250.5z M358.5,253l0.3,0.3v1.7h-0.6v-1.7L358.5,253z
				 M360.4,245.6v0.3h-0.3v-0.3H360.4z"/>
			<path id="XMLID_4128_" class="st2" d="M108.7,380.7l-0.8-0.9l0.6-2.1l-0.6-0.3l-0.2-0.3l-1.1,0.8l-0.3,0.8l-0.6-0.5l-0.9,0.2
				l-0.2,1.7l-1.4-5.2l-0.5-8.8l0.2-2.2l-0.3-3.2l0.3-3l0.5-0.6l0.2-2.5h-0.6l0.5-4.1l-0.2-3.2v-0.6l0.3-11.7l-0.6-10.6l0.2-4.4
				l-0.3-4.9l0.2-1.4l-0.5-4.3v-6l-0.2-2.1l0.2-1.3l-0.3-6.3l0.2-1.3l-0.6-3l0.2-7.6l0.2-1.6l2.2-2.8l0.8-0.3l0.6-0.6l2.8-0.6v-0.3
				l-0.9-0.2l-0.6-0.9l0.3-0.3l2.5,0.2l3.6-0.5l3.2-1.3l1.3,0.2l3.2-0.5l1.7,0.2l0.2,0.3h1.1l0.5-0.5l2.7,0.8l4.1,0.3l1.7,0.8
				l3.8,0.2l8.8,3l2.4,1.1l1.1,1.3l1.9,1.1l-0.8,0.6l3.2,0.5l6.5,6.9l2.2,3.8l1.6,3.2l0.5,3.2l1.1,1.3l-0.6,5.7l0.9,0.9l-0.8,1.3
				v0.5l-0.3,0.8l-0.2,3l-1.1,1.4l-1.1,2.4l-2.2,2.4v1.3l0.3,0.6l-0.2,1.3l-2.1,1.1H157l-1.3,1.3l0.6,0.9l-0.9,0.8l2.1,2.2l1.1,0.8
				h0.6l3.3,2.5l0.3,0.3l4.4,3.5l2.4,5.1l0.3,2.1l-0.2,0.3l0.5,1.4l-0.3,1.6l0.5,1.7l-1.6,6.2l-1.9,4.6l-0.5,0.2l-0.5,1.3l-1.7,1.9
				l0.6,0.3l-0.2,0.5l-1.3-0.2l-3,2.4l0.5-1.1h-0.3l-1.4,1.6L159,366l-0.8,0.3l-1.3,1.9l-0.9,0.6l-2.7,2.7l-1.4,0.5l-0.6,0.8
				l-1.1,0.3h-0.5l-0.8,1.3l-5.7,2.1h-0.8l-0.8,0.6l-2.4,0.6l-0.2,0.9l-2.5-0.2l0.3,0.6l-2.4,0.5h-1.3l-1.3,0.5l-3.6,0.6l-6.6,0.2
				l-1.9,0.2l-4.7-0.3l-1.3-0.3l-0.6,0.2l1.6,0.6l-3.6,0.5l-1.3-0.8L108.7,380.7z M105.8,357v-0.6l-0.3,0.2L105.8,357z M106.9,378.5
				l0.3,0.2l0.2,0.9l-0.6-0.2L106.9,378.5z M113.6,364l0.8-0.6l0.2-1.6l0.5-0.2v1.4l0.5-0.6l0.2,1.4l0.5-0.9l0.2-2.5l0.6-3l0.5,0.2
				v1.1h0.5l0.2-1.3l-1.1-0.6l-0.6-1.4l0.2-2.1l-0.5-0.9l-0.3,1.3l-0.2,3.2h0.2l-0.2,1.1l0.5,0.6l-0.5,0.2h-0.2l-0.6,0.6l-0.6,0.3
				l1.3-7.6l-0.6,0.5l-0.3,0.9h-0.5l0.5-3.5h-0.8l-0.3,2.2l0.2,0.3l-0.2,1.3l-0.6,0.8l0.6,0.8l-0.2,0.6l-0.9,0.5l0.8,0.6l-0.5,0.5
				l-0.9-0.8l-0.9,0.3l-0.3-1.6l-0.3,1.4l-0.3,0.5l-0.6-1.7l-0.9,1.3l0.8,1.7h0.3l0.2-1.1l1.1,0.2l-0.9,2.2h-1.3l-0.5,2.4l0.9,1.1
				l0.6-0.3v-0.6h0.3l0.3,0.6l0.6,0.2l0.6-1.3h0.6l-0.6,0.6v0.6l1.9,0.2L113.6,364z M107.7,355.9l1.1-1.1l0.3-0.5l-0.6-0.6l-0.6,0.5
				L107.7,355.9z M108.4,342.8l0.2-0.6h-0.3L108.4,342.8z M109.9,331.6h0.3l0.2-0.8l0.3-0.5l0.3-1.9l-1.6-0.2l-1.1,0.9l1.7,0.9
				L109.9,331.6z M109,338.3l0.3,0.2l0.2-0.6l-0.5,0.2V338.3z M109.1,374.6l0.5,0.2l0.6-0.9l1.9,0.2v-0.8l-2.8,0.3L109.1,374.6z
				 M109.8,377.9h0.8l-0.3-1.3h-0.9L109.8,377.9z M109.9,344.7l0.3-0.8l-0.5,0.5L109.9,344.7z M110.2,375.7l2.1-0.2v-0.3l-1.1-0.2
				l-1.3,0.3L110.2,375.7z M111,379.1l0.6,0.2l1.9-0.8l2.5,0.2l4.7-1.3l2.5,0.2l0.6-0.6l1.1-0.5l-0.8-0.5l-1.6,0.6l-0.9-0.2
				l-0.6,0.3h-0.6l-1.4,0.5l-0.5-0.6l-0.6,0.6l-1.1-0.2v-0.6l-0.8,0.6v-1.3l-2.4-0.2l-0.8,0.2l1.9,0.2l0.2,0.3l-0.2,0.3l-1.9-0.2
				l-0.2,1.9l-2.7,0.2l0.9,0.3V379.1z M110.2,338.1h0.9l0.2-0.3L110.2,338.1z M110.9,370.3h0.3v-0.6h-0.9L110.9,370.3z M110.4,351.2
				l0.9,0.2l0.2-1.6l-0.6,1.3L110.4,351.2z M110.9,355.1l0.8-1.9l-0.5-0.3l-0.8,0.6L110.9,355.1z M112.5,368.6l-1.1-0.9L111,367
				h-0.3l-0.3,1.4L112.5,368.6z M111,337.3l0.3-0.2v-0.5L111,337.3z M111.2,344.9h0.6l0.3-1.1h-0.3L111.2,344.9z M111.8,366.7
				l0.3-0.2l0.2-1.3l-0.6-0.2l-0.3,0.3l0.3,0.3L111.8,366.7z M113.4,373l0.2-0.3l0.8-1.7h1.1v0.3l0.6,0.2l0.8-4.3h-0.6l-0.8-0.8H115
				v2.8l-0.3,1.4l-0.5-0.6l-1.1-0.2l-0.6,0.3l-0.2-0.6l-0.5,0.6l1.1,0.6l-0.6,1.6h1.1V373z M112.3,358.1l0.5,0.2l-0.2,0.8l-0.5,0.5
				l-0.2-1.1L112.3,358.1z M112.3,324.5h0.3l-0.3-0.3V324.5z M113.2,368.6l1.1,0.2l-0.3-2.2l-0.9-0.8L113.2,368.6z M113.6,316.9
				v-0.6h-0.3v0.2L113.6,316.9z M113.6,344.6h0.5l0.2-0.3h-0.6V344.6z M114.2,343.6l0.6-0.3h-0.5L114.2,343.6z M115.1,351.7l0.9-1.3
				l0.2-1.6l-1.6,2.7L115.1,351.7z M115,321.5h1.1l0.8-0.5l0.2-0.5l-0.8,0.3l0.2-0.5l-0.9,0.5h-0.3L115,321.5z M115.5,330.5l1.1,0.2
				V330l-0.5-0.2L115.5,330.5z M115.5,372.5h0.5l-0.5-0.6V372.5z M116.1,377.4l-0.6,0.2l0.2-0.3L116.1,377.4z M115.9,337h0.2
				l0.5-0.5h-0.5L115.9,337z M116.4,346.3l0.6-0.5V345l-0.3-0.3l0.2-1.3h-0.8l0.2,0.3l-0.3,2.1L116.4,346.3z M116.2,341.6h0.2v-0.3
				h-0.2V341.6z M116.7,351v-0.3h-0.5L116.7,351z M121.9,372.7l0.9-0.2l-0.9-0.2V372.7z M121.9,379l0.3,0.2v-0.3l-0.3-0.2V379z
				 M122.6,362.3l2.7,0.3l1.4-0.6l2.5,0.2l0.9-0.6V361l0.8-0.6l1.3,0.2l1.6-1.4l0.6,0.2l2.8-2.2l1.6-0.3l1.3,0.6l1.9-1.6l0.2-1.9
				l0.8-0.9v-0.5l1.9-0.6l1.4,0.2l0.2-0.9l-1.1-1.4V349l-0.3-2.2l0.9,0.2l0.5,0.5l0.2,1.3l0.5,0.5l0.3,0.6v-1.1l-0.6-1.4l-0.9-3.3
				l-1.1-0.5V343l-1.3,0.5l-2.1-2.1l1.1-0.5l1.6,1.6V342l-2.2-2.4l-0.8-0.2v1.1l-5.2-2.2l-1.6-0.2l-0.6,0.8l-2.4-0.2l-0.5-1.4h-0.3
				v-0.3l-1.6,0.3L126,337l-0.3-0.5l1.6,0.2l1.3-0.6H127l-0.3-0.8l-3-0.2l0.2,2.5l-0.2,2.7l0.2,1.4l-0.6,5.7l-0.3,0.3v0.9h0.3
				l0.5,3.2l-0.6,1.3l0.3,0.3l-0.2,0.6l-0.6,0.6l0.3,0.3l0.6,2.8l-1.1,1.3l-0.2,1.9l0.6-0.2v0.8L122.6,362.3z M124.1,317.3l3.5,0.2
				l3-1.1l2.5,0.2l0.9-1.1h-0.3l-0.9,0.6l2.8-1.3l3.5-2.8l1.1-1.6l0.8-1.6l0.3-1.4l0.9-2.7V304l0.2-2.5l-0.6-1.6l-1.9-2.8l-4.9-3.8
				l-2.2-0.6l-2.1-1.3h-4.3l-4.1,0.6l0.6,14.4l-0.2,2.5l-0.5,0.5l0.5,2.8v0.3l0.5,1.1l-0.3,0.8l0.2,0.8l-0.2,1.4L124.1,317.3z
				 M123.4,373.5h0.3l0.5-0.3h-0.6L123.4,373.5z M123.5,367.6l1.6,0.2l-0.8-0.6L123.5,367.6z M124,325.3l0.2-0.6l-0.3-0.3v0.6
				L124,325.3z M124.5,327.8l0.5-0.6l-0.9-0.3l-0.2,0.6L124.5,327.8z M124.3,333h0.3l0.3-0.3l-0.6-0.2V333z M124.5,378h0.6l0.5-0.3
				h-0.3L124.5,378z M126.8,331.9l0.5-0.9l-2.2-0.2v0.5L126.8,331.9z M125.2,329.6l0.2,0.3l0.5-0.6l0.8-0.3h-1.3L125.2,329.6z
				 M125.2,370.3l2.1-0.9l-0.9-0.5l-1.1,0.3V370.3z M125.6,376.8h0.9v-0.3h-0.6L125.6,376.8z M126.2,338.4l0.2-0.6l2.2,0.2l0.3,0.6
				h-0.5l-0.3,0.8V339l-1.1-0.6H126.2z M126.4,378.4l0.3-0.2l-0.3-0.2V378.4z M127.1,340.3v0.3l-0.6-0.2v-0.3L127.1,340.3z
				 M128.6,371.6l0.2-0.6h-0.6l-0.3,0.3L128.6,371.6z M129.4,314.9v0.2l-0.3,0.5v-0.5L129.4,314.9z M129.4,369.5h0.3l0.5-0.3h-0.3
				L129.4,369.5z M132.5,283.3h0.9V283h-0.9V283.3z M136.1,329.7l1.4-0.3l-0.6-0.3l1.7-0.2l-2.2-0.8l-2.4-0.5L133,328v0.5l0.9-0.3
				L136.1,329.7z M133.9,317.3h0.3l1.4-0.5v-0.6h-0.3L133.9,317.3z M139,282.5l-1.7-0.8l-3.2-0.3l0.3,0.5l0.2,0.6h0.6l2.8,0.9
				L139,282.5z M134.6,369.2h0.3l0.3-0.3L134.6,369.2z M136.3,327.2v-0.6l-0.6-0.2l-0.6,0.3h0.6L136.3,327.2z M136.6,312.4h0.3v0.2
				l-1.1,1.1h-0.3l0.2-0.5L136.6,312.4z M139,285.8l0.3-0.8h0.3l0.2-0.3l-1.9-0.6l-0.9,0.8l0.2,0.3L139,285.8z M137.4,325.6l1.3,0.2
				v-0.6L137.4,325.6z M138,330.5h0.3l0.2-0.3l-0.3-0.3L138,330.5z M138.2,327.5l0.3,0.2l0.3-0.3L138.2,327.5z M140.7,278.1l1.6,0.2
				l-1.9-0.8l-0.3-0.3l2.5,0.2l-3.5-0.9v1.3L140.7,278.1z M144.3,282.8v-0.3l-0.8-0.3l-0.6-0.6l-1.3-0.2l-1.3-0.6l-1.3,0.5l0.6,0.6
				l0.9,0.3l0.6-0.2L144.3,282.8z M139.5,334.2l0.8-0.3l-1.1-0.2L139.5,334.2z M139.9,286.5v0.3l0.6-1.3l-0.6-0.2l-0.6,0.8
				L139.9,286.5z M146.4,322l1.7,0.2l1.7-0.5l0.6-1.9l-1.4,0.5v-0.6l-0.6,0.5h-1.1l-1.3,1.1l-0.6-0.6l0.2-1.1l0.6-0.6l-0.2-0.2
				l-1.1-0.2v-0.5l-2.1,0.3v-1.1l-3,1.4l1.7,0.9l1.1-0.5l0.6,0.8h0.2l0.5,1.3l1.7,0.6l0.9-0.6L146.4,322z M139.9,328l0.9,0.2
				l-0.3-0.5L139.9,328z M141.3,284h0.6l0.9-0.6l-1.1-0.6l-0.5,0.6l-0.3,0.3L141.3,284z M141.8,323.4l1.4,0.2l0.6-0.3l-1.4-0.2
				L141.8,323.4z M142.5,331.2h0.6l-0.6-0.3h-0.2L142.5,331.2z M143.4,286.5l0.6-0.3v-0.8l-0.2-0.3L143.4,286.5z M146.9,325.2
				l0.2-2.1h-1.4l-0.5-0.5l-1.3-0.2l0.6,0.5v0.3l0.5,0.5l0.2,0.8L146.9,325.2z M145.8,323.7l-0.2,0.3h-0.2l0.2-0.3H145.8z
				 M147.3,317.6l0.9-1.1l0.8-1.3l-0.9,0.6L147.3,317.6z M148.1,372l0.6,0.2v-0.3L148.1,372z M150.3,313.6h0.6l-0.3-0.2h-0.3V313.6z
				 M151.3,317.9l1.7-1.6l-1.4,0.3h-0.8L151.3,317.9z M151.9,324.5l0.5-0.3l0.3,0.3l1.4-1.3l-0.3-0.2l0.2-1.1l-0.8,1.1l-1.9-0.2v0.9
				L151.9,324.5z M153.3,315.5l0.9-1.6l-1.6,0.6L153.3,315.5z M153.3,313l1.3-4.3l-0.8-0.2l-0.2,2.7l-0.3,0.6V313z M154.3,298.8
				l0.5-0.6h-0.6L154.3,298.8z M154.6,307.3h0.3v-1.1l-0.3,0.5V307.3z M154.6,312.7h0.5l0.8-1.4l0.2-2.7h-0.6l-0.5,2.7l0.3,0.2
				l-0.6,0.6V312.7z M157.3,323.4v0.5h-0.6l0.3-0.5H157.3z M158.4,312.1l0.2-3.3l-0.9,3.3H158.4z M159.3,357h0.6l-0.3-0.6l-0.3,0.3
				V357z M160.3,352.6l0.3-0.2l0.2-1.3l-0.3,0.2L160.3,352.6z M162.3,361.6l1.6-0.5l0.3-0.9l0.8-0.6v-0.5l-0.9,0.9l-2.4-0.2v0.6
				l1.7,0.2v0.2l-0.6,0.5L162.3,361.6z"/>
			<path id="XMLID_4116_" class="st2" d="M214.3,377.3v-1.9H214v0.3l-0.3,2.4l-1.1-0.9l-0.5,1.6l-1.3-1.9l0.3-0.8l-0.5-1.3h-0.8
				l-0.3-0.3l0.5-0.5l0.5-1.4l-0.3,0.3l-0.3,0.6l-1.4,0.6l-0.2,0.9l-1.1,0.3l-0.3,1.3l-0.9-0.9l-0.2,0.3H205l-0.2-0.3h-0.6l-0.6,0.6
				l-1.1-0.9l-0.8-4.6l0.8-3.6v-3.6l-0.9-0.5l-0.6-7.6l-0.2-74.4l0.3-3.8h0.9l0.9-1.9l0.3-1.1h0.6l0.6-0.6l3.3-1.3h0.8l0.3-0.6
				l1.4,0.6l1.3-0.2l0.6-0.6l3.5,0.8l0.6-0.6h2.1l1.7,2.4l1.7,3.2v2.5l-1.1,6.9v9.5l0.3,1.3v37.3l-0.5,1.4l0.5,2.8l-0.6,2.8v2.8
				l0.8,2.7l-0.8,11.4v5.2l-0.5,1.3l0.6,0.8v3.9l-0.6,2.5l-2.2,0.6l-0.6,1.6h2.8v3l-0.9,1.6l-3.2-0.5L214.3,377.3z M203.5,355.4
				l0.2-0.6l-0.6-0.9v1.3L203.5,355.4z M204.8,380v-1.9h2.2V377l0.8,0.3v0.8l1.1,1.9v2.2h-1.3l-1.1-1.6L204.8,380z M205.3,364.9
				l0.5-0.2v-1.1h-0.5V364.9z M208.3,361.4v-0.6h-0.5v0.3L208.3,361.4z M211.6,380.2h1.7l0.6,0.6v0.8h-0.6l-0.6,0.2h-1.3l-0.5-0.3
				L211.6,380.2z M213,376.4l-0.3-1.3l-0.3,0.3v0.9H213z M217,375.8v-0.3l-0.5-0.3v-0.9l-0.2-0.6l-1.1,1.3v0.3l0.6-0.6l0.5,1.3H217z
				 M215.9,366.6h1.1v-2.4h-1.1V366.6z M218.2,365.3l0.2-0.5v-0.6h-0.2V365.3z M218.4,344.8h1.3v-0.3H219l-0.6-0.9V344.8z"/>
			<path id="XMLID_4021_" class="st2" d="M295.6,379.9h-1.1l-8.7-3.6l-6.3-3.9l-3.6-3.6l-1.9-1.6l-2.2-2.4l-4.1-6l-0.6-2.1l-1.1-1.1
				l-0.3-1.7l-0.6-0.8l-0.3-2.1l-1.1-2.1l-0.3-2.8v-0.5l-1.4-7.3l-0.2-4.6l-0.3-0.8l0.3-2.4l-0.3-3.6l1.4-9v-1.3l2.5-7.1l0.3-0.5
				l0.3-1.7l1.6-3.3l0.3-0.3l2.7-6.5l1.9-3l6.3-7.9l1.7-1.4l1.4-1.6l1.9-0.6v-0.6l0.6-1.3l1.3-0.5l0.9-0.6l1.6-0.6l-0.3-0.3l2.2-1.1
				h0.2l2.4-1.3l0.8-0.8l2.4-0.3l4.6-1.3l0.5-0.8l1.6-0.5h1.9l4.6-0.9h2.2l1.3,0.5h6.3l0.5,0.5v0.5l2.1,0.8l0.5,0.2l3.2,0.8l1.1,0.6
				h2.5v1.3l-0.3,0.2l1.3,0.9h2.1l-0.9-0.6l0.8-0.3l0.9,0.9l-0.8,0.3l1.1,0.5h0.6v-1.1l2.1,1.1v0.9l-1.3-0.5l0.5,1.6h1.3l0.5-0.3
				l1.6,1.6l2.5,1.3v-0.6h-0.2v-0.6l0.2-0.2l-2.4-2.2l0.3-0.3l0.3-0.6l1.1,1.1l1.4,0.6l1.9,1.6l0.6,0.9l1.7,1.1l0.3,0.8l0.8,0.5
				l1.7,1.9l0.6,1.7l1.6,1.6l2.4,3.8v0.5h-0.5L351,293l-0.6,0.8l0.2,0.3v0.5l0.3,0.5v-0.6h0.5l0.6,1.4v1.6h0.8l0.8,0.8v1.6h0.3
				l0.5-0.8h0.6l2.4,2.2v2.4l1.3,1.7v1.4l-0.3,0.2v1.6l1.1,0.5l0.6,4.3l-1.3,0.5l-0.6-1.1h-1.3l-1.3-1.3h-0.9v2.1l-0.3,0.3l-0.5-2.4
				l-0.3,0.8l-0.5-0.2l-0.5,2.4l-0.5-1.7l-0.5,1.4l0.6,1.4l0.8-0.6v0.3l-0.5,0.5v0.6h0.5l0.2,0.3l1.4-1.7v1.4l-0.3-0.6l-0.2,0.6
				l-0.5,0.5l0.6,0.3l0.8-0.5h0.6l0.5,1.4l0.9-0.9l-0.3-0.5v-1.1h1.3l0.6-0.9h0.2l0.8,4.6v0.8h0.6v4.4H360l-0.3-0.9l-0.5,1.9
				l0.9,0.5l-0.3,5.7l-1.3,5.8l-0.3,0.5v0.5l-0.3,0.3l-0.6,3l-3,7.6l-4.3,6.5l-3.2,3h-0.6l1.7-2.8V355l-0.3-0.3l-0.3-1.3l-0.5-0.3
				l0.6-1.4l-0.8,0.5V351l0.8-0.8l0.3-0.8l1.1,0.5l0.3-0.5l1.6-3l0.6,0.3h0.6v0.3l1.4-1.3l-0.6-0.5v-0.6l-0.5,0.3h-0.3l-0.6,0.3
				l0.5-0.9v-0.8l0.8-0.9l0.3-1.9l0.6-1.4v-0.8l-1.1,2.8l-0.3-0.3V340l-0.6,1.1l-0.3,0.3l-0.6,0.9h-0.2v-0.9l-0.6-0.5l-0.8,1.7
				l-0.6,0.3l-0.5,0.6h-0.3l0.6-2.2l0.8-1.9v-0.8h-0.2l-3,6h0.5l0.6-0.6l0.8,0.6h0.8v0.9h1.3v1.6l-0.8,0.5v-0.9l-2.4,3.6l-1.9,1.9
				l0.5,0.6l-1.1,0.5l-1.1,0.9l-0.2-0.5H342l2.1-2.8v-0.6l-1.3,1.3h-0.6l-1.9,2.1h-0.3l0.2-1.4l-0.3-0.5l-0.8,0.5l-0.5,0.2l-1.4,1.3
				l-0.6,1.3l-2.4,1.9l0.8,0.6v0.6h0.9l2.8-3.8h0.9v0.9h0.3l0.6-0.6h0.5l-0.8,1.3l1.3-0.9l0.2,0.9l2.5-0.5v0.6l-1.1,0.9h-0.2v-0.6
				l-3.3,3.2h-0.5v-0.2h-1.9l-2.2,2.2l0.2,0.6l0.5-0.5l1.4-0.3v-0.8l0.2-0.6l1.3,0.6v0.6h1.4l0.3,0.3h0.8l0.5-0.9h1.4v1.1l2.2-2.4
				h0.8l-0.3,2.2l-2.4,2.4l-0.9,1.4l-1.9,1.6l-0.9,0.3l-0.8,0.9l-0.3,0.8l-6.6,4.6l-1.9,0.8h-1.9l-0.6,0.5h-1.4l-0.6,0.5h-1.4V375
				l6.3-2.7l3.6-2.5l1.7-0.8v-0.3l0.3-0.5h-0.3l-1.9,1.4l-2.1,0.6v-0.8l2.1-1.1l0.2-0.2l0.9-0.6V367l-0.9,0.3l-1.7,1.3v-0.3l0.9-0.9
				l0.6-0.3l0.5-0.8h1.7V366h-0.6v-0.9h2.8l0.3,0.3l0.6-1.6l-0.9-0.5l-0.3-0.3l-1.1,0.6h-0.8l-0.8,1.4l-3.8,2.5l-0.3-0.3v-0.5
				l-2.1,1.1l-0.3-0.3l0.9-0.6h-1.4l-0.6,0.6h-1.4l-1.1,0.3l1.1,0.3v0.8l0.5,0.3v0.5h-0.8l-0.3-0.5H325l-0.5,0.3h-0.8l-1.1,0.6v0.2
				h0.5l0.3,0.3l1.1,0.3l-0.3,0.9l-2.4,0.5l-0.3,1.9l-1.3,0.8l-0.6,1.1v0.6h-0.9l1.3,1.7l-2.1,0.6l-0.3,0.6l-3.8,1.1l-4.9,0.9h-6
				l-5.1-0.9L295.6,379.9z M306.5,360.4v1.4l0.5,0.3l0.6,0.5h1.9l0.3-0.2l-2.2-0.6V361l4.6-0.8l2.5-1.1l0.6-0.5h0.9v0.8l-0.9,0.8
				l-0.2,0.9l-0.9,0.6l0.2,0.6l2.5-2.7l4.9-2.5l1.9-1.7l-1.4,0.8v-0.5l0.5-0.6h0.6l1.7-2.1v-0.5l1.4-1.4h0.3l2.5-1.4l0.5-1.9
				l1.9-2.2l2.4-4.3l1.6-1.6l2.2-3v0.2l1.1-0.3l2.1-6.8h-0.8l-0.5,1.6l-1.1,1.3v-0.8h0.6l0.3-0.8h-0.9l0.8-4.7l0.6-0.9l0.6-3.9
				l1.3-0.9h-1.3v-2.1l0.5-1.6l-0.6-0.6v-2.1l0.3-0.8v-2.4l-0.5,0.3h-0.5v2.1l-0.6,2.1H339v-3.2h-0.5l-0.3,1.4l-0.6-3.6L336,307
				v-2.4l-0.9-1.9l-0.3-0.3v1.7l0.3,0.3h-0.3v-0.3l-0.9-1.7l-0.3-0.3l-2.1-2.8l-0.6-0.2l-0.5-0.6l-3.6-2.5l-0.5-0.3l-1.7-0.9
				l-0.3-0.6h-0.6l-1.3-1.4l-0.6,0.5l-6.3-1.9h-2.7l-1.6-0.3l-7.7,0.8l-3.9,2.4l-3,2.1l-3.5,4.4l-0.5,0.9l-0.9,0.9l-6.5,12.8l-1.9,9
				l-0.6,7.7l0.8,9.9l2.1,5.2l1.3,1.1l0.8,2.1l4.6,4.4l6.3,3.9l0.8,0.2l1.6,2.1l0.8-0.8l-0.5-0.3h1.1v0.3l-0.3,0.2h0.9l0.3-0.2h3
				l0.2,0.2L306.5,360.4z M306.5,360H306l-0.5-0.5h-3l0.3-0.2l0.5-0.8l1.6-0.5h2.1l-0.5,1.4h0.5l0.6,0.6v0.6l-1.1-0.5V360z
				 M303.8,361.6l0.9-0.3l-0.3-0.3h-0.6V361.6z M311.5,358.8l0.6-0.3l-0.6,0.6V358.8z M317.1,358.8l0.8-0.6h0.3l-0.9,0.9h-0.9
				L317.1,358.8z M319,353.1h0.8l0.2,1.1l-1.3,0.5l-0.2,0.6h-1.3V355L319,353.1z M319.7,367.6l3-1.6l-0.9-0.3l-0.3-0.8l-0.8,1.9
				L319.7,367.6z M325.9,351.2h0.3l-1.1,1.1v-0.2l-1.6,0.9l-0.2,0.3h-2.2l-0.2-0.8l2.5-0.6l3-2.4v0.5l-0.6,0.5V351.2z M322.3,368.9
				l4.7-3.5v-0.6h-0.5l-0.5,0.6H325l-0.6,0.3h0.8l-0.8,1.1l-0.9,0.8l-0.5-0.6h-0.6l-0.9,0.9h0.9v0.3l-0.5,0.2L322.3,368.9z
				 M321.3,370.3l0.9-0.5v-0.5L321.3,370.3z M323.1,375.4l-0.3,0.3H322l0.8-0.3H323.1z M323.1,373.6l0.2-0.6l2.7-1.1l0.3,0.6
				l3.3-1.7h2.1l-0.5,0.6l-2.1,0.5l-1.1,1.1h-1.3l-2.2,1.1h-1.7v-0.2L323.1,373.6z M324.2,353.1l0.9-0.8v0.3l-0.5,0.5H324.2z
				 M326.2,294.4v-1.1l-0.3,0.8L326.2,294.4z M326.7,350.7v0.3l-0.2,0.2h-0.3L326.7,350.7z M326.5,362.7h0.9v-0.5l-1.1,0.3
				L326.5,362.7z M327.8,368.4l-0.3,0.3h-0.3v-0.3H327.8z M327.5,353.3l1.1-0.8l0.8-0.2l0.9-0.9H330l-0.6,0.3l-0.2-0.3l-1.7,1.4
				V353.3z M328.4,355.3l0.3-0.3v-0.3h-0.5v0.3L328.4,355.3z M331,369.2l-1.1,1.3l-0.8-0.8L331,369.2z M330,353.1h0.8l1.3-1.7
				l-2.1,0.9V353.1z M330.2,357.5l0.3-0.2V357l-0.3,0.3V357.5z M330.5,358.5h1.1l0.3-0.3l0.6-0.2l0.5-0.6l-0.5,0.2v-0.2l2.1-1.6
				v-0.5l-2.1,0.9v0.5L330.5,358.5z M331.4,354.7h0.8l1.3-1.9l-0.5,1.1l0.6-0.2l0.5-0.6h0.6l0.3,1.6l1.4-1.3l0.9-1.6v-0.6l-1.9,0.5
				V351h-0.3l-1.4,1.4v-0.8h-0.5l-1.9,2.1V354.7z M345.8,293l0.3-0.6l0.2-0.2l-0.2-0.6h0.6l0.6-0.3l0.8,0.3v-0.5l-1.4-0.6l-0.8-0.9
				l-0.3,0.3v0.6h-0.3l-0.3-0.3h-1.4v-1.3l-1.9-1.7l-0.6,0.3h-0.6v-1.3l-0.3-0.5l0.5-0.6l0.5,0.5l0.6,0.3l1.4,1.6v-2.4h0.5v-0.5
				l-1.3-1.1l-1.3,0.3l-0.3,0.3l-0.9,0.3l-0.8-0.3h-0.9l-0.6-0.6l-0.2-0.3l-0.5,0.5l-3.6-1.9l-0.6-0.8h-0.9l2.5,2.5l1.7,1.1l0.8,0.9
				h0.8l2.1,2.2l1.4,0.5l0.5,1.6l1.3,0.6h0.3l0.2,0.5l1.7,1.4h0.3L345.8,293z M331.6,366.8l1.1-0.8v-0.6L331.6,366.8z M333.3,346.5
				l1.1-1.1l0.5-1.7h-0.8l-1.3,1.7l-0.3,0.5L333.3,346.5z M332.5,359.1h0.3v-0.3h-0.3V359.1z M332.8,361.3l1.4-1.7l-1.4,0.5V361.3z
				 M334.7,301.2l-0.2-1.6l-0.3-0.6l-0.5,1.4h-0.6l0.2,0.8H334.7z M334.4,364l0.6-0.3h-0.6V364z M334.4,364v0.6h0.6L334.4,364z
				 M335.2,346.5h0.3l1.4-1.4l-0.2-1.3h-0.6l-0.3,0.9l-0.6,0.6V346.5z M338.1,348.7l3.2-4.6l1.1-1.1v-0.6l-0.6,0.3l-0.5,1.1
				l-1.3,0.6l-0.2,0.6l-1.4,1.4v-0.3l1.3-2.1v-0.5H339l-0.5,0.8l-0.8,0.6l-0.3,0.6l-1.9,2.2h2.5V348.7z M335.8,281.7h0.3l-0.3-0.3
				V281.7z M337.1,368.3l3.3-2.8l0.8-1.3l1.4-0.9l-0.5-0.9l-1.6,2.4l-0.6-0.6l-0.5,0.6l0.5,0.3l-1.6,1.9l-1.9,0.8L337.1,368.3z
				 M337.7,328.5h0.5l-0.5,1.4l-0.6,0.8h-0.3v-0.8L337.7,328.5z M337.6,355.3l-0.5,0.3l0.2-0.3H337.6z M338.2,281l0.3,0.5l-0.3,0.3
				l-0.5-0.8H338.2z M337.9,336v-0.9l0.2-0.3v0.6L337.9,336z M337.9,336.7V336l0.2,0.5L337.9,336.7z M338.7,332.7l-0.6,2.1l1.1-2.1
				H338.7z M339.8,310.2v-0.5h-1.3v0.5H339.8z M338.5,350.3l0.6-0.8V349L338.5,350.3z M338.8,341.1l0.5-0.6v-0.3l-0.5,0.6V341.1z
				 M355.6,338.7h0.6l0.6-1.7l-0.6-1.1l-0.2-0.3l-0.3,0.3h-0.6l-0.2-0.5l0.6-0.6l0.5,0.2l0.5,0.6h0.3l0.9-1.7v-1.7l-0.3,0.6h-0.6
				l-0.9,1.4h-0.5l0.2-0.6v-1.1l1.6-0.8v-1.9h-0.6v-0.5l0.6-0.2v-0.6h-1.6v-0.3l0.5-0.5l-0.2-1.3l1.4-1.1v-0.5h-0.6l-0.5-2.1
				l1.3-0.5l-0.8-0.8h-0.8l-0.5,0.6v2.5h-0.2l-0.5,0.6h-0.3l-0.2-1.1l-0.6,1.4v0.8l-0.5,0.6l0.3,0.6l-0.5,0.9l-0.5-0.8l-1.4,0.8
				l-0.2-1.6l-0.6-0.5l0.6-1.9v-2.5l0.8-1.4l-0.6-6.2l-0.9-0.5l-0.2,0.6l0.2,5.7l0.2,0.3v1.4l-0.5,0.5v1.7l0.5,0.5l-0.8,3h-0.3
				l-0.5,1.9l-0.5,0.2v-0.6l0.5-0.8v-1.3h-0.5l-0.6,0.8l-0.5,1.3l-0.5,0.6l-0.3-0.6l-1.1,0.6l-0.5-1.4l-0.2,0.3l-0.3,1.9l-1.9,3.2
				l0.2,0.3v0.6h-1.1v-1.3l1.1-1.1v-2.5l-0.5,1.1l-0.5,1.7l-0.5,0.8l-0.2,2.1l-1.1,0.5v0.9l-0.6,1.1h0.3l0.8-0.9l0.3-0.5l0.6-0.3
				l0.3-0.6l0.6,0.9l0.5-0.8h0.8l1.1-2.4h0.2l1.1-0.3l1.3,0.5l-0.5,0.5l0.3,0.5l0.5-2.2l0.3-0.3l0.3-0.8h0.5l-0.6,3l0.9-0.9v-0.6
				l0.6,0.3l1.1-3.8h0.8l0.5,1.6l-0.9,0.9l-0.6,1.7v1.4l-1.1,0.5l-1.1-0.5l-0.3-0.2l-1.1,2.4l0.5,0.8l0.8-0.3h0.3l0.6-0.5l1.6-0.5
				l1.1,0.3l0.5-0.5l-1.4-0.9l0.6-2.5l0.9-1.9l0.3,0.9h0.8l0.5-0.6v1.3h-0.3l-0.2-0.3l-1.3,2.2l-0.3-0.5v1.3h0.8l0.2,0.5h0.8
				l0.6-2.1v-0.3l0.5-1.4h0.3v1.4l-0.8,1.9l0.5,0.5l-0.8,0.9l0.9,1.1h0.9L355.6,338.7z M339.6,358.5l0.9-0.9h-0.3l-0.6,0.6V358.5z
				 M339.8,351h0.6v-0.3L339.8,351z M340.1,349.5h0.3l0.5-0.2h1.3l0.8-1.1v-0.9l-0.8,0.9l-0.5-0.3L340.1,349.5z M340.6,329.1h0.6
				v-1.4L340.6,329.1z M340.6,346.5l1.4-1.4l0.5,0.6l0.5-0.3l0.6,0.6l1.4-0.6h0.5l1.1-3.3l-0.6,0.3h-0.6l-0.5,0.6h-0.3l-1.9,1.9
				l-0.6-0.5l-1.4,1.4V346.5z M342.3,325.8v-0.2l-0.3-0.3v-0.9l-0.6,0.5v0.8L342.3,325.8z M342.6,341.6h0.9l1.3-1.1h0.2v0.6
				l-0.3,0.3l1.3-0.3h0.9l0.8-1.7l-1.1,0.6l-0.3-0.6l-0.3,0.6H345V339l-0.9,0.3l-0.5-0.3l-0.8,0.3v0.6l-0.9,0.9L342.6,341.6z
				 M342.3,355.3l-0.3,0.3v-0.3H342.3z M342.3,320.7h0.2l0.8-0.6v-0.3h-0.9V320.7z M343.3,329.3h0.2l0.3-1.1l-0.5,0.6V329.3z
				 M343.6,286.2h0.3v-0.6l-0.3,0.3V286.2z M343.6,320.7h0.2v-0.3h-0.2V320.7z M345.2,298.5h0.9l0.2-0.3l-0.2-0.6h-0.9v-1.4
				l-0.9-0.9h-0.3l0.3,0.9v1.1L345.2,298.5z M344.4,327.1l0.3-1.3v-0.5l-0.5,1.1L344.4,327.1z M346.3,354.4v0.9l-0.6,0.3l-0.8,1.7
				h-0.5l-0.2,0.2v-1.1L346.3,354.4z M344.8,287.7l0.5-0.3h0.3v-0.8h-1.3v0.8L344.8,287.7z M344.5,312.1v-0.2l-0.2,0.2H344.5z
				 M345.3,337.6l0.9-0.5l0.5-1.7v-0.6l-0.5,1.1l-1.3,1.3L345.3,337.6z M345.2,330.7h0.6v0.3l-0.3,0.3l-0.3-0.3V330.7z M345.3,288.1
				h0.6v-0.3L345.3,288.1z M345.9,326.4v-0.8l-0.5,0.3L345.9,326.4z M346.1,318.1l0.5-0.5v-0.6l-0.2-0.2v-1.4h-0.3l-0.3,0.5
				L346.1,318.1z M355.3,310.2v-0.5l0.5-0.5l-0.8-1.7l-0.8-0.2v-0.6h0.8v-2.1l-1.3-2.2l-0.3-1.3l-0.3,0.9h-0.6l0.3-1.6l-0.8-1.6
				h-0.8v-1.1h0.3v-0.3l-0.9-0.2v-0.5h0.3v-0.8h0.6v-0.3l-1.7-0.8h-1.1v-0.9h0.3l0.9-1.3h-0.5l-0.5,0.2l-2.4-0.8v0.8l-0.6,0.8
				l0.6,1.4l0.9,0.9l0.6,1.7l1.3,1.1v1.4l1.6,1.4v1.4l0.5,1.9h0.5l0.3,1.1l-0.3,1.1l0.5,1.6h2.1l0.5,0.3l-0.3,0.6L355.3,310.2z
				 M346.3,300.4h0.9v-0.8l-0.3-0.6l-0.3,0.8h-0.5L346.3,300.4z M346.7,305.1h0.3l-0.3-0.5V305.1z M347.5,293.3h0.6v0.5l-0.6,0.6
				l-0.5-0.5L347.5,293.3z M347.5,316.5v-1.1h-0.3L347.5,316.5z M348.3,305.7h0.8l0.5-1.9l0.3-0.3v-0.5h-1.4v0.8h-0.8v1.3
				L348.3,305.7z M348.8,318.7l-0.2-3.3l-0.3,1.9L348.8,318.7z M348.6,324.8l0.2-0.5v-3.3l-0.2,0.2V324.8z M349.3,291.2v-0.3
				l-0.5-0.2v0.2L349.3,291.2z M349.7,296.4h0.8l-0.6,0.9l-0.5-0.5L349.7,296.4z M351.5,300.4l0.5,0.6l-0.6,0.5l-0.6-0.8
				L351.5,300.4z M352.1,301.8v1.3h-0.2l-0.3-1.3H352.1z M351.6,322.2l0.3-0.2h-0.3V322.2z M352.1,303.5l0.9-0.3v2.8h-0.2l-0.8-1.4
				V303.5z M353.7,296.4l0.6,1.4l-0.3,0.3l-0.9-1.7H353.7z M354.5,320.1v-0.9l-0.8-0.2v0.6h0.3L354.5,320.1z M354,300.4h0.3v-0.3
				H354V300.4z M356.1,303.2l-0.5-1.1h-0.5l0.5,1.1H356.1z M355.3,313.5V313h0.5l0.8-0.5l0.8,1.6h-0.5l-0.6-0.8L355.3,313.5z
				 M355.4,305.7h0.2v-0.6h-0.2V305.7z M355.4,321.1l0.9-0.9h0.3l0.3-1.4h-0.6l-0.9,0.9V321.1z M356.7,309.2l0.8-0.3l-0.5-1.6
				l-0.3,0.8h-0.6L356.7,309.2z M356.1,307.5h0.3l-0.3-0.2V307.5z M357.5,331.5l0.3-0.2v-0.6l-0.3,0.6V331.5z M358.3,326.1h0.3
				l0.3-1.9h-0.6V326.1z"/>
		</g>
		<path id="XMLID_4019_" class="st3" d="M374.2,429.5c44.5-39.9,72.6-97.8,72.6-162.3C446.8,147,349.3,49.5,229,49.5
			S11.3,147,11.3,267.3c0,64.5,28.1,122.4,72.6,162.3"/>
	</g>
</g>
</svg>
