<?xml version="1.0" encoding="utf-8"?>
<!-- Generator: Adobe Illustrator 19.0.0, SVG Export Plug-In . SVG Version: 6.00 Build 0)  -->
<svg version="1.1" xmlns="http://www.w3.org/2000/svg" xmlns:xlink="http://www.w3.org/1999/xlink" x="0px" y="0px"
	 viewBox="0 0 500 500" style="enable-background:new 0 0 500 500;" xml:space="preserve">
<style type="text/css">
	.st0{fill:none;stroke:#000000;stroke-width:3;stroke-miterlimit:10;}
	.st1{display:none;}
	.st2{display:inline;}
	.st3{fill:none;stroke:#000000;stroke-width:4;stroke-miterlimit:10;}
</style>
<g id="Warstwa_1">
	<g id="XMLID_28_">
		<g id="XMLID_1_">
			<polyline id="XMLID_86_" class="st0" points="0,5 41.7,35 83.3,5 125,35 166.7,5 208.3,35 250,5 291.7,35 333.3,5 375,35 
				416.7,5 458.3,35 500,5 			"/>
		</g>
		<g id="XMLID_3_">
			<polyline id="XMLID_82_" class="st0" points="0,25 41.7,55 83.3,25 125,55 166.7,25 208.3,55 250,25 291.7,55 333.3,25 375,55 
				416.7,25 458.3,55 500,25 			"/>
		</g>
		<g id="XMLID_4_">
			<polyline id="XMLID_80_" class="st0" points="0,45 41.7,75 83.3,45 125,75 166.7,45 208.3,75 250,45 291.7,75 333.3,45 375,75 
				416.7,45 458.3,75 500,45 			"/>
		</g>
		<g id="XMLID_5_">
			<polyline id="XMLID_78_" class="st0" points="0,65 41.7,95 83.3,65 125,95 166.7,65 208.3,95 250,65 291.7,95 333.3,65 375,95 
				416.7,65 458.3,95 500,65 			"/>
		</g>
		<g id="XMLID_6_">
			<polyline id="XMLID_76_" class="st0" points="0,85 41.7,115 83.3,85 125,115 166.7,85 208.3,115 250,85 291.7,115 333.3,85 
				375,115 416.7,85 458.3,115 500,85 			"/>
		</g>
		<g id="XMLID_7_">
			<polyline id="XMLID_74_" class="st0" points="0,105 41.7,135 83.3,105 125,135 166.7,105 208.3,135 250,105 291.7,135 333.3,105 
				375,135 416.7,105 458.3,135 500,105 			"/>
		</g>
		<g id="XMLID_8_">
			<polyline id="XMLID_72_" class="st0" points="0,125 41.7,155 83.3,125 125,155 166.7,125 208.3,155 250,125 291.7,155 333.3,125 
				375,155 416.7,125 458.3,155 500,125 			"/>
		</g>
		<g id="XMLID_9_">
			<polyline id="XMLID_70_" class="st0" points="0,145 41.7,175 83.3,145 125,175 166.7,145 208.3,175 250,145 291.7,175 333.3,145 
				375,175 416.7,145 458.3,175 500,145 			"/>
		</g>
		<g id="XMLID_10_">
			<polyline id="XMLID_68_" class="st0" points="0,165 41.7,195 83.3,165 125,195 166.7,165 208.3,195 250,165 291.7,195 333.3,165 
				375,195 416.7,165 458.3,195 500,165 			"/>
		</g>
		<g id="XMLID_11_">
			<polyline id="XMLID_66_" class="st0" points="0,185 41.7,215 83.3,185 125,215 166.7,185 208.3,215 250,185 291.7,215 333.3,185 
				375,215 416.7,185 458.3,215 500,185 			"/>
		</g>
		<g id="XMLID_12_">
			<polyline id="XMLID_64_" class="st0" points="0,205 41.7,235 83.3,205 125,235 166.7,205 208.3,235 250,205 291.7,235 333.3,205 
				375,235 416.7,205 458.3,235 500,205 			"/>
		</g>
		<g id="XMLID_13_">
			<polyline id="XMLID_62_" class="st0" points="0,225 41.7,255 83.3,225 125,255 166.7,225 208.3,255 250,225 291.7,255 333.3,225 
				375,255 416.7,225 458.3,255 500,225 			"/>
		</g>
		<g id="XMLID_14_">
			<polyline id="XMLID_60_" class="st0" points="0,245 41.7,275 83.3,245 125,275 166.7,245 208.3,275 250,245 291.7,275 333.3,245 
				375,275 416.7,245 458.3,275 500,245 			"/>
		</g>
		<g id="XMLID_15_">
			<polyline id="XMLID_58_" class="st0" points="0,265 41.7,295 83.3,265 125,295 166.7,265 208.3,295 250,265 291.7,295 333.3,265 
				375,295 416.7,265 458.3,295 500,265 			"/>
		</g>
		<g id="XMLID_16_">
			<polyline id="XMLID_56_" class="st0" points="0,285 41.7,315 83.3,285 125,315 166.7,285 208.3,315 250,285 291.7,315 333.3,285 
				375,315 416.7,285 458.3,315 500,285 			"/>
		</g>
		<g id="XMLID_17_">
			<polyline id="XMLID_54_" class="st0" points="0,305 41.7,335 83.3,305 125,335 166.7,305 208.3,335 250,305 291.7,335 333.3,305 
				375,335 416.7,305 458.3,335 500,305 			"/>
		</g>
		<g id="XMLID_18_">
			<polyline id="XMLID_52_" class="st0" points="0,325 41.7,355 83.3,325 125,355 166.7,325 208.3,355 250,325 291.7,355 333.3,325 
				375,355 416.7,325 458.3,355 500,325 			"/>
		</g>
		<g id="XMLID_19_">
			<polyline id="XMLID_113_" class="st0" points="0,345 41.7,375 83.3,345 125,375 166.7,345 208.3,375 250,345 291.7,375 
				333.3,345 375,375 416.7,345 458.3,375 500,345 			"/>
		</g>
		<g id="XMLID_20_">
			<polyline id="XMLID_115_" class="st0" points="0,365 41.7,395 83.3,365 125,395 166.7,365 208.3,395 250,365 291.7,395 
				333.3,365 375,395 416.7,365 458.3,395 500,365 			"/>
		</g>
		<g id="XMLID_21_">
			<polyline id="XMLID_117_" class="st0" points="0,385 41.7,415 83.3,385 125,415 166.7,385 208.3,415 250,385 291.7,415 
				333.3,385 375,415 416.7,385 458.3,415 500,385 			"/>
		</g>
		<g id="XMLID_22_">
			<polyline id="XMLID_192_" class="st0" points="0,405 41.7,435 83.3,405 125,435 166.7,405 208.3,435 250,405 291.7,435 
				333.3,405 375,435 416.7,405 458.3,435 500,405 			"/>
		</g>
		<g id="XMLID_23_">
			<polyline id="XMLID_199_" class="st0" points="0,425 41.7,455 83.3,425 125,455 166.7,425 208.3,455 250,425 291.7,455 
				333.3,425 375,455 416.7,425 458.3,455 500,425 			"/>
		</g>
		<g id="XMLID_24_">
			<polyline id="XMLID_201_" class="st0" points="0,445 41.7,475 83.3,445 125,475 166.7,445 208.3,475 250,445 291.7,475 
				333.3,445 375,475 416.7,445 458.3,475 500,445 			"/>
		</g>
		<g id="XMLID_25_">
			<polyline id="XMLID_203_" class="st0" points="0,465 41.7,495 83.3,465 125,495 166.7,465 208.3,495 250,465 291.7,495 
				333.3,465 375,495 416.7,465 458.3,495 500,465 			"/>
		</g>
		<g id="XMLID_44_">
			<path id="XMLID_205_" class="st0" d="M0-15"/>
		</g>
		<g id="XMLID_43_">
			<path id="XMLID_84_" class="st0" d="M0-15"/>
		</g>
	</g>
</g>
<g id="Warstwa_2" class="st1">
	<g id="XMLID_2_" class="st2">
		<path id="XMLID_191_" class="st3" d="M-10,0.5c21.7,0,21.7,20,43.3,20c21.7,0,21.7-20,43.3-20c21.7,0,21.7,20,43.3,20
			c21.7,0,21.7-20,43.3-20c21.7,0,21.7,20,43.3,20c21.7,0,21.7-20,43.3-20c21.7,0,21.7,20,43.3,20c21.7,0,21.7-20,43.3-20
			c21.7,0,21.7,20,43.3,20c21.7,0,21.7-20,43.3-20c21.7,0,21.7,20,43.3,20c21.7,0,21.7-20,43.3-20"/>
	</g>
	<g id="XMLID_29_" class="st2">
		<path id="XMLID_186_" class="st3" d="M-10,20.5c21.7,0,21.7,20,43.3,20c21.7,0,21.7-20,43.3-20c21.7,0,21.7,20,43.3,20
			c21.7,0,21.7-20,43.3-20c21.7,0,21.7,20,43.3,20c21.7,0,21.7-20,43.3-20c21.7,0,21.7,20,43.3,20c21.7,0,21.7-20,43.3-20
			c21.7,0,21.7,20,43.3,20c21.7,0,21.7-20,43.3-20c21.7,0,21.7,20,43.3,20c21.7,0,21.7-20,43.3-20"/>
	</g>
	<g id="XMLID_30_" class="st2">
		<path id="XMLID_184_" class="st3" d="M-10,40.5c21.7,0,21.7,20,43.3,20c21.7,0,21.7-20,43.3-20c21.7,0,21.7,20,43.3,20
			c21.7,0,21.7-20,43.3-20c21.7,0,21.7,20,43.3,20c21.7,0,21.7-20,43.3-20c21.7,0,21.7,20,43.3,20c21.7,0,21.7-20,43.3-20
			c21.7,0,21.7,20,43.3,20c21.7,0,21.7-20,43.3-20c21.7,0,21.7,20,43.3,20c21.7,0,21.7-20,43.3-20"/>
	</g>
	<g id="XMLID_31_" class="st2">
		<path id="XMLID_181_" class="st3" d="M-10,60.5c21.7,0,21.7,20,43.3,20c21.7,0,21.7-20,43.3-20c21.7,0,21.7,20,43.3,20
			c21.7,0,21.7-20,43.3-20c21.7,0,21.7,20,43.3,20c21.7,0,21.7-20,43.3-20c21.7,0,21.7,20,43.3,20c21.7,0,21.7-20,43.3-20
			c21.7,0,21.7,20,43.3,20c21.7,0,21.7-20,43.3-20c21.7,0,21.7,20,43.3,20c21.7,0,21.7-20,43.3-20"/>
	</g>
	<g id="XMLID_32_" class="st2">
		<path id="XMLID_179_" class="st3" d="M-10,80.5c21.7,0,21.7,20,43.3,20c21.7,0,21.7-20,43.3-20c21.7,0,21.7,20,43.3,20
			c21.7,0,21.7-20,43.3-20c21.7,0,21.7,20,43.3,20c21.7,0,21.7-20,43.3-20c21.7,0,21.7,20,43.3,20c21.7,0,21.7-20,43.3-20
			c21.7,0,21.7,20,43.3,20c21.7,0,21.7-20,43.3-20c21.7,0,21.7,20,43.3,20c21.7,0,21.7-20,43.3-20"/>
	</g>
	<g id="XMLID_33_" class="st2">
		<path id="XMLID_158_" class="st3" d="M-10,100.5c21.7,0,21.7,20,43.3,20c21.7,0,21.7-20,43.3-20c21.7,0,21.7,20,43.3,20
			c21.7,0,21.7-20,43.3-20c21.7,0,21.7,20,43.3,20c21.7,0,21.7-20,43.3-20c21.7,0,21.7,20,43.3,20c21.7,0,21.7-20,43.3-20
			c21.7,0,21.7,20,43.3,20c21.7,0,21.7-20,43.3-20c21.7,0,21.7,20,43.3,20c21.7,0,21.7-20,43.3-20"/>
	</g>
	<g id="XMLID_34_" class="st2">
		<path id="XMLID_156_" class="st3" d="M-10,120.5c21.7,0,21.7,20,43.3,20c21.7,0,21.7-20,43.3-20c21.7,0,21.7,20,43.3,20
			c21.7,0,21.7-20,43.3-20c21.7,0,21.7,20,43.3,20c21.7,0,21.7-20,43.3-20c21.7,0,21.7,20,43.3,20c21.7,0,21.7-20,43.3-20
			c21.7,0,21.7,20,43.3,20c21.7,0,21.7-20,43.3-20c21.7,0,21.7,20,43.3,20c21.7,0,21.7-20,43.3-20"/>
	</g>
	<g id="XMLID_87_" class="st2">
		<path id="XMLID_154_" class="st3" d="M-10,140.5c21.7,0,21.7,20,43.3,20c21.7,0,21.7-20,43.3-20c21.7,0,21.7,20,43.3,20
			c21.7,0,21.7-20,43.3-20c21.7,0,21.7,20,43.3,20c21.7,0,21.7-20,43.3-20c21.7,0,21.7,20,43.3,20c21.7,0,21.7-20,43.3-20
			c21.7,0,21.7,20,43.3,20c21.7,0,21.7-20,43.3-20c21.7,0,21.7,20,43.3,20c21.7,0,21.7-20,43.3-20"/>
	</g>
	<g id="XMLID_88_" class="st2">
		<path id="XMLID_152_" class="st3" d="M-10,160.5c21.7,0,21.7,20,43.3,20c21.7,0,21.7-20,43.3-20c21.7,0,21.7,20,43.3,20
			c21.7,0,21.7-20,43.3-20c21.7,0,21.7,20,43.3,20c21.7,0,21.7-20,43.3-20c21.7,0,21.7,20,43.3,20c21.7,0,21.7-20,43.3-20
			c21.7,0,21.7,20,43.3,20c21.7,0,21.7-20,43.3-20c21.7,0,21.7,20,43.3,20c21.7,0,21.7-20,43.3-20"/>
	</g>
	<g id="XMLID_89_" class="st2">
		<path id="XMLID_150_" class="st3" d="M-10,180.5c21.7,0,21.7,20,43.3,20c21.7,0,21.7-20,43.3-20c21.7,0,21.7,20,43.3,20
			c21.7,0,21.7-20,43.3-20c21.7,0,21.7,20,43.3,20c21.7,0,21.7-20,43.3-20c21.7,0,21.7,20,43.3,20c21.7,0,21.7-20,43.3-20
			c21.7,0,21.7,20,43.3,20c21.7,0,21.7-20,43.3-20c21.7,0,21.7,20,43.3,20c21.7,0,21.7-20,43.3-20"/>
	</g>
	<g id="XMLID_90_" class="st2">
		<path id="XMLID_148_" class="st3" d="M-10,200.5c21.7,0,21.7,20,43.3,20c21.7,0,21.7-20,43.3-20c21.7,0,21.7,20,43.3,20
			c21.7,0,21.7-20,43.3-20c21.7,0,21.7,20,43.3,20c21.7,0,21.7-20,43.3-20c21.7,0,21.7,20,43.3,20c21.7,0,21.7-20,43.3-20
			c21.7,0,21.7,20,43.3,20c21.7,0,21.7-20,43.3-20c21.7,0,21.7,20,43.3,20c21.7,0,21.7-20,43.3-20"/>
	</g>
	<g id="XMLID_91_" class="st2">
		<path id="XMLID_146_" class="st3" d="M-10,220.5c21.7,0,21.7,20,43.3,20c21.7,0,21.7-20,43.3-20c21.7,0,21.7,20,43.3,20
			c21.7,0,21.7-20,43.3-20c21.7,0,21.7,20,43.3,20c21.7,0,21.7-20,43.3-20c21.7,0,21.7,20,43.3,20c21.7,0,21.7-20,43.3-20
			c21.7,0,21.7,20,43.3,20c21.7,0,21.7-20,43.3-20c21.7,0,21.7,20,43.3,20c21.7,0,21.7-20,43.3-20"/>
	</g>
	<g id="XMLID_92_" class="st2">
		<path id="XMLID_144_" class="st3" d="M-10,240.5c21.7,0,21.7,20,43.3,20c21.7,0,21.7-20,43.3-20c21.7,0,21.7,20,43.3,20
			c21.7,0,21.7-20,43.3-20c21.7,0,21.7,20,43.3,20c21.7,0,21.7-20,43.3-20c21.7,0,21.7,20,43.3,20c21.7,0,21.7-20,43.3-20
			c21.7,0,21.7,20,43.3,20c21.7,0,21.7-20,43.3-20c21.7,0,21.7,20,43.3,20c21.7,0,21.7-20,43.3-20"/>
	</g>
	<g id="XMLID_93_" class="st2">
		<path id="XMLID_142_" class="st3" d="M-10,260.5c21.7,0,21.7,20,43.3,20c21.7,0,21.7-20,43.3-20c21.7,0,21.7,20,43.3,20
			c21.7,0,21.7-20,43.3-20c21.7,0,21.7,20,43.3,20c21.7,0,21.7-20,43.3-20c21.7,0,21.7,20,43.3,20c21.7,0,21.7-20,43.3-20
			c21.7,0,21.7,20,43.3,20c21.7,0,21.7-20,43.3-20c21.7,0,21.7,20,43.3,20c21.7,0,21.7-20,43.3-20"/>
	</g>
	<g id="XMLID_94_" class="st2">
		<path id="XMLID_140_" class="st3" d="M-10,280.5c21.7,0,21.7,20,43.3,20c21.7,0,21.7-20,43.3-20c21.7,0,21.7,20,43.3,20
			c21.7,0,21.7-20,43.3-20c21.7,0,21.7,20,43.3,20c21.7,0,21.7-20,43.3-20c21.7,0,21.7,20,43.3,20c21.7,0,21.7-20,43.3-20
			c21.7,0,21.7,20,43.3,20c21.7,0,21.7-20,43.3-20c21.7,0,21.7,20,43.3,20c21.7,0,21.7-20,43.3-20"/>
	</g>
	<g id="XMLID_95_" class="st2">
		<path id="XMLID_138_" class="st3" d="M-10,300.5c21.7,0,21.7,20,43.3,20c21.7,0,21.7-20,43.3-20c21.7,0,21.7,20,43.3,20
			c21.7,0,21.7-20,43.3-20c21.7,0,21.7,20,43.3,20c21.7,0,21.7-20,43.3-20c21.7,0,21.7,20,43.3,20c21.7,0,21.7-20,43.3-20
			c21.7,0,21.7,20,43.3,20c21.7,0,21.7-20,43.3-20c21.7,0,21.7,20,43.3,20c21.7,0,21.7-20,43.3-20"/>
	</g>
	<g id="XMLID_96_" class="st2">
		<path id="XMLID_136_" class="st3" d="M-10,320.5c21.7,0,21.7,20,43.3,20c21.7,0,21.7-20,43.3-20c21.7,0,21.7,20,43.3,20
			c21.7,0,21.7-20,43.3-20c21.7,0,21.7,20,43.3,20c21.7,0,21.7-20,43.3-20c21.7,0,21.7,20,43.3,20c21.7,0,21.7-20,43.3-20
			c21.7,0,21.7,20,43.3,20c21.7,0,21.7-20,43.3-20c21.7,0,21.7,20,43.3,20c21.7,0,21.7-20,43.3-20"/>
	</g>
	<g id="XMLID_97_" class="st2">
		<path id="XMLID_134_" class="st3" d="M-10,340.5c21.7,0,21.7,20,43.3,20c21.7,0,21.7-20,43.3-20c21.7,0,21.7,20,43.3,20
			c21.7,0,21.7-20,43.3-20c21.7,0,21.7,20,43.3,20c21.7,0,21.7-20,43.3-20c21.7,0,21.7,20,43.3,20c21.7,0,21.7-20,43.3-20
			c21.7,0,21.7,20,43.3,20c21.7,0,21.7-20,43.3-20c21.7,0,21.7,20,43.3,20c21.7,0,21.7-20,43.3-20"/>
	</g>
	<g id="XMLID_98_" class="st2">
		<path id="XMLID_132_" class="st3" d="M-10,360.5c21.7,0,21.7,20,43.3,20c21.7,0,21.7-20,43.3-20c21.7,0,21.7,20,43.3,20
			c21.7,0,21.7-20,43.3-20c21.7,0,21.7,20,43.3,20c21.7,0,21.7-20,43.3-20c21.7,0,21.7,20,43.3,20c21.7,0,21.7-20,43.3-20
			c21.7,0,21.7,20,43.3,20c21.7,0,21.7-20,43.3-20c21.7,0,21.7,20,43.3,20c21.7,0,21.7-20,43.3-20"/>
	</g>
	<g id="XMLID_99_" class="st2">
		<path id="XMLID_130_" class="st3" d="M-10,380.5c21.7,0,21.7,20,43.3,20c21.7,0,21.7-20,43.3-20c21.7,0,21.7,20,43.3,20
			c21.7,0,21.7-20,43.3-20c21.7,0,21.7,20,43.3,20c21.7,0,21.7-20,43.3-20c21.7,0,21.7,20,43.3,20c21.7,0,21.7-20,43.3-20
			c21.7,0,21.7,20,43.3,20c21.7,0,21.7-20,43.3-20c21.7,0,21.7,20,43.3,20c21.7,0,21.7-20,43.3-20"/>
	</g>
	<g id="XMLID_100_" class="st2">
		<path id="XMLID_128_" class="st3" d="M-10,400.5c21.7,0,21.7,20,43.3,20c21.7,0,21.7-20,43.3-20c21.7,0,21.7,20,43.3,20
			c21.7,0,21.7-20,43.3-20c21.7,0,21.7,20,43.3,20c21.7,0,21.7-20,43.3-20c21.7,0,21.7,20,43.3,20c21.7,0,21.7-20,43.3-20
			c21.7,0,21.7,20,43.3,20c21.7,0,21.7-20,43.3-20c21.7,0,21.7,20,43.3,20c21.7,0,21.7-20,43.3-20"/>
	</g>
	<g id="XMLID_101_" class="st2">
		<path id="XMLID_126_" class="st3" d="M-10,420.5c21.7,0,21.7,20,43.3,20c21.7,0,21.7-20,43.3-20c21.7,0,21.7,20,43.3,20
			c21.7,0,21.7-20,43.3-20c21.7,0,21.7,20,43.3,20c21.7,0,21.7-20,43.3-20c21.7,0,21.7,20,43.3,20c21.7,0,21.7-20,43.3-20
			c21.7,0,21.7,20,43.3,20c21.7,0,21.7-20,43.3-20c21.7,0,21.7,20,43.3,20c21.7,0,21.7-20,43.3-20"/>
	</g>
	<g id="XMLID_102_" class="st2">
		<path id="XMLID_124_" class="st3" d="M-10,440.5c21.7,0,21.7,20,43.3,20c21.7,0,21.7-20,43.3-20c21.7,0,21.7,20,43.3,20
			c21.7,0,21.7-20,43.3-20c21.7,0,21.7,20,43.3,20c21.7,0,21.7-20,43.3-20c21.7,0,21.7,20,43.3,20c21.7,0,21.7-20,43.3-20
			c21.7,0,21.7,20,43.3,20c21.7,0,21.7-20,43.3-20c21.7,0,21.7,20,43.3,20c21.7,0,21.7-20,43.3-20"/>
	</g>
	<g id="XMLID_103_" class="st2">
		<path id="XMLID_122_" class="st3" d="M-10,460.5c21.7,0,21.7,20,43.3,20c21.7,0,21.7-20,43.3-20c21.7,0,21.7,20,43.3,20
			c21.7,0,21.7-20,43.3-20c21.7,0,21.7,20,43.3,20c21.7,0,21.7-20,43.3-20c21.7,0,21.7,20,43.3,20c21.7,0,21.7-20,43.3-20
			c21.7,0,21.7,20,43.3,20c21.7,0,21.7-20,43.3-20c21.7,0,21.7,20,43.3,20c21.7,0,21.7-20,43.3-20"/>
	</g>
	<g id="XMLID_111_" class="st2">
		<path id="XMLID_120_" class="st3" d="M-10,480.5c21.7,0,21.7,20,43.3,20c21.7,0,21.7-20,43.3-20c21.7,0,21.7,20,43.3,20
			c21.7,0,21.7-20,43.3-20c21.7,0,21.7,20,43.3,20c21.7,0,21.7-20,43.3-20c21.7,0,21.7,20,43.3,20c21.7,0,21.7-20,43.3-20
			c21.7,0,21.7,20,43.3,20c21.7,0,21.7-20,43.3-20c21.7,0,21.7,20,43.3,20c21.7,0,21.7-20,43.3-20"/>
	</g>
</g>
<g id="Warstwa_3">
</g>
</svg>
